<?xml version="1.0" standalone="no"?>
<!DOCTYPE svg PUBLIC "-//W3C//DTD SVG 1.1//EN" "http://www.w3.org/Graphics/SVG/1.1/DTD/svg11.dtd" >
<svg xmlns="http://www.w3.org/2000/svg" xmlns:xlink="http://www.w3.org/1999/xlink" version="1.1">
<metadata>
Created by FontForge 20170731 at Tue Apr 27 19:52:25 2021
 By Aleksey,,,
(c) 2019 MCKL. All Rights Reserved.
</metadata>
<defs>
<font id="Redaction-Bold" horiz-adv-x="1060" >
  <font-face 
    font-family="Redaction"
    font-weight="700"
    font-stretch="normal"
    units-per-em="2048"
    panose-1="2 10 8 3 6 5 4 6 3 3"
    ascent="1536"
    descent="-512"
    x-height="1010"
    cap-height="1434"
    bbox="-225 -535 2210 1980"
    underline-thickness="102"
    underline-position="-307"
    unicode-range="U+0020-FB02"
  />
<missing-glyph horiz-adv-x="1052" 
d="M123 -205v1741h807v-1741h-807z" />
    <glyph glyph-name=".notdef" horiz-adv-x="1052" 
d="M123 -205v1741h807v-1741h-807z" />
    <glyph glyph-name=".null" horiz-adv-x="0" 
 />
    <glyph glyph-name="nonmarkingreturn" horiz-adv-x="682" 
 />
    <glyph glyph-name="space" unicode=" " horiz-adv-x="512" 
 />
    <glyph glyph-name="exclam" unicode="!" horiz-adv-x="491" 
d="M258 424h-20l-162 776q-25 117 29.5 190.5t142.5 73.5t142.5 -73.5t29.5 -190.5zM86 303h307v-303h-307v303z" />
    <glyph glyph-name="quotedbl" unicode="&#x22;" horiz-adv-x="833" 
d="M119 1243q-29 84 10.5 148.5t116.5 64.5q74 0 112.5 -65t10.5 -148l-125 -369zM467 1243q-29 84 10.5 148.5t116.5 64.5q74 0 112.5 -65t10.5 -148l-125 -369z" />
    <glyph glyph-name="numbersign" unicode="#" horiz-adv-x="1523" 
d="M41 434l25 84h378l115 400h-379l23 83h381l123 435h92l-123 -435h336l123 435h92l-123 -435h379l-25 -83h-379l-114 -400h378l-22 -84h-381l-123 -434h-92l123 434h-336l-123 -434h-92l123 434h-379zM537 518h335l115 400h-336z" />
    <glyph glyph-name="dollar" unicode="$" horiz-adv-x="1187" 
d="M526 -145v168q-80 5 -154 27.5t-134 59.5t-96 92.5t-36 119.5q0 58 38.5 98.5t97.5 40.5q75 0 111.5 -55.5t17.5 -141.5h-52q4 -55 60.5 -93.5t146.5 -47.5v389l86 -39v-350q96 7 150.5 63.5t54.5 141.5q0 62 -43.5 103t-128.5 79l-262 115q-293 127 -293 368
q0 177 122.5 292t319.5 126v131h86v-133q102 -8 189.5 -45t145 -104.5t57.5 -151.5q0 -59 -37.5 -99t-95.5 -40q-76 0 -113.5 54.5t-18.5 139.5h52q-4 55 -52.5 94.5t-126.5 51.5v-373l-86 35v342q-90 -7 -141 -62t-51 -139q0 -60 36 -100.5t109 -73.5l297 -127
q146 -62 223.5 -150.5t77.5 -216.5q-6 -173 -136 -291t-335 -130v-168h-86z" />
    <glyph glyph-name="percent" unicode="%" horiz-adv-x="1736" 
d="M756 1057q0 -183 -102.5 -293.5t-250.5 -110.5q-146 0 -245 106t-99 288t101.5 291.5t249.5 109.5q146 0 246 -105t100 -286zM1380 1434l-921 -1434h-105l922 1434h104zM289 1077q0 -173 33.5 -265.5t93.5 -92.5q44 0 77 76t33 229q0 173 -33 265.5t-92 92.5
q-44 0 -78 -76.5t-34 -228.5zM1677 391q0 -183 -102 -293t-250 -110q-146 0 -245 105.5t-99 287.5t101 291.5t249 109.5q146 0 246 -105t100 -286zM1210 412q0 -173 33.5 -266t93.5 -93q44 0 77.5 76t33.5 229q0 173 -33 266t-92 93q-44 0 -78.5 -76.5t-34.5 -228.5z" />
    <glyph glyph-name="ampersand" unicode="&#x26;" horiz-adv-x="1556" 
d="M977 154q-123 -98 -225 -136t-226 -38q-134 0 -245.5 44t-179.5 130.5t-68 199.5q0 118 76.5 204.5t277.5 189.5q-80 125 -104.5 195.5t-24.5 152.5q0 67 29.5 129.5t84 113t141.5 81t192 30.5q147 0 253.5 -71t106.5 -175q0 -94 -62.5 -161.5t-214.5 -143.5l-159 -80
l26 -39l70 33q166 -232 328 -405q27 46 67 131l41 90q70 153 -74 170l-32 4v63h432v-61q-57 -12 -99.5 -42t-76.5 -95l-92 -174q-47 -90 -95 -158q103 -96 182 -128t185 -32q62 0 111 19q-72 -88 -175.5 -144.5t-191.5 -56.5q-78 0 -143.5 18.5t-135.5 65.5l58 45zM543 1194
q0 -69 25.5 -130.5t95.5 -164.5q77 36 115 109t38 157q0 88 -37.5 141.5t-101.5 53.5q-58 0 -96.5 -47.5t-38.5 -118.5zM846 164q-154 136 -414 516q-86 -106 -86 -264q0 -147 79.5 -232.5t201.5 -85.5q118 0 219 66z" />
    <glyph glyph-name="quotesingle" unicode="'" horiz-adv-x="491" 
d="M119 1243q-29 84 10.5 148.5t116.5 64.5q74 0 112.5 -65t10.5 -148l-125 -369z" />
    <glyph glyph-name="parenleft" unicode="(" horiz-adv-x="882" 
d="M68 530q0 186 63 360t170.5 305.5t254.5 219t310 109.5v-4q-231 -140 -352 -394.5t-121 -603.5q0 -343 121 -591.5t352 -389.5v-4q-163 22 -310 109.5t-254.5 219t-170.5 305t-63 359.5z" />
    <glyph glyph-name="parenright" unicode=")" horiz-adv-x="882" 
d="M817 530q0 -186 -63.5 -359.5t-171 -305t-254.5 -219t-310 -109.5v4q231 140 352.5 394.5t121.5 603.5q0 343 -121.5 591.5t-352.5 389.5v4q163 -22 310 -109.5t254.5 -219t171 -305.5t63.5 -360z" />
    <glyph glyph-name="asterisk" unicode="*" horiz-adv-x="876" 
d="M494 1102h-111v334h111v-334zM383 1102l-53 -96l-291 168l55 94zM494 1102l288 166l56 -94l-291 -168zM330 1006l53 -97l-289 -166l-55 95zM547 1006l291 -168l-56 -95l-288 166zM494 575h-111v334h111v-334z" />
    <glyph glyph-name="plus" unicode="+" 
d="M72 690h411v414h92v-414h414v-92h-414v-412h-92v412h-411v92z" />
    <glyph glyph-name="comma" unicode="," horiz-adv-x="487" 
d="M408 88q0 -105 -74 -206t-221 -150l-11 16q91 39 145 120.5t54 158.5v34h-37v-47q-15 -10 -53 -10q-56 0 -95.5 42.5t-39.5 100.5q0 66 44 111t113 45q76 0 125.5 -57t49.5 -158z" />
    <glyph glyph-name="hyphen" unicode="-" horiz-adv-x="856" 
d="M72 696h712v-92h-712v92z" />
    <glyph glyph-name="period" unicode="." horiz-adv-x="479" 
d="M86 303h307v-303h-307v303z" />
    <glyph glyph-name="slash" unicode="/" horiz-adv-x="778" 
d="M764 1434l-817 -1907h-115l817 1907h115z" />
    <glyph glyph-name="zero" unicode="0" horiz-adv-x="1329" 
d="M657 1458q123 0 231.5 -51.5t189 -145t127 -231.5t46.5 -303t-46 -306t-124.5 -238t-184.5 -151.5t-224 -54.5q-123 0 -232 52t-189 146t-126.5 232.5t-46.5 303.5t46 305.5t124.5 237t184.5 150.5t224 54zM639 1350q-98 0 -165.5 -152t-67.5 -438q0 -319 74 -496.5
t204 -177.5q98 0 167 152.5t69 437.5q0 319 -75 496.5t-206 177.5z" />
    <glyph glyph-name="one" unicode="1" horiz-adv-x="755" 
d="M532 1466v-1271q0 -118 125 -127l64 -5v-63h-686v63l63 5q125 9 125 127v968q0 50 -19 76t-83 59l-80 41z" />
    <glyph glyph-name="two" unicode="2" horiz-adv-x="1105" 
d="M252 156h59l76 67h356q79 0 127.5 37.5t83.5 116.5l35 78h76l-64 -455h-981l431 526q148 181 202 301.5t54 247.5q0 125 -63.5 201t-160.5 76t-151 -58.5t-60 -154.5h56q23 -96 -17 -156.5t-125 -60.5q-63 0 -104 44t-41 109q0 70 36 137.5t98.5 121t157.5 86t204 32.5
q226 0 360.5 -108.5t134.5 -258.5q0 -197 -235 -419z" />
    <glyph glyph-name="three" unicode="3" horiz-adv-x="1107" 
d="M1044 461q0 -95 -36.5 -181.5t-103.5 -155t-171.5 -109t-230.5 -40.5q-121 0 -223 41.5t-165 122.5t-63 185q0 58 35.5 97.5t91.5 39.5q72 0 108 -54.5t17 -138.5h-51q7 -86 63 -140t166 -54q123 0 197 96t74 225q0 145 -96.5 221t-313.5 76q-43 0 -63 -2l505 580h-61
l-55 -62h-265q-156 0 -204 -102l-37 -76h-72l49 404h908l-459 -541q138 -3 244 -66t159 -159.5t53 -206.5z" />
    <glyph glyph-name="four" unicode="4" horiz-adv-x="1302" 
d="M45 385q320 408 424 594q37 61 58 117t25.5 111t3 90.5t-8.5 93.5l389 84q-5 -84 -48 -174.5t-151 -221.5q-180 -231 -422 -487h414v237l285 152v-385q107 17 147 117l25 61h74l-48 -389h-284v-45h86v-145q0 -115 131 -127l41 -5v-63h-629v63l43 5q129 12 129 127v190
h-684z" />
    <glyph glyph-name="five" unicode="5" horiz-adv-x="1116" 
d="M326 1227l6 84h-43l-39 -400q103 39 258 39q116 1 211 -25.5t157 -71.5t104 -105.5t60.5 -125t18.5 -133.5q0 -96 -36 -186.5t-103 -164.5t-174.5 -118.5t-239.5 -44.5q-116 0 -218 41.5t-167.5 122.5t-65.5 185q0 58 36.5 97.5t92.5 39.5q73 0 107.5 -54t15.5 -139h-49
q6 -85 63.5 -139.5t159.5 -54.5q135 0 212 99.5t77 240.5q0 303 -348 303q-126 0 -289 -41l72 758h512q83 0 130.5 17.5t61.5 61.5l15 41h73l-30 -327h-641z" />
    <glyph glyph-name="six" unicode="6" horiz-adv-x="1222" 
d="M1149 475q0 -109 -43 -204t-113 -158.5t-158.5 -99.5t-179.5 -36q-123 0 -230 51t-184.5 144t-122 230.5t-44.5 302.5q0 164 51 306.5t137 239.5t199.5 152t236.5 55q102 0 190.5 -33t146 -100.5t57.5 -155.5q0 -63 -40 -106t-102 -43q-77 0 -113 57.5t-14 147.5h54
q-5 59 -49.5 97t-122.5 38q-136 0 -228.5 -151.5t-95.5 -442.5l-68 -70v-67l2 2q109 133 211 193.5t224 60.5q76 0 147 -27t127.5 -77.5t90.5 -130t34 -175.5zM618 739q-139 0 -235 -127q13 -253 83.5 -389.5t184.5 -136.5q96 0 150.5 84t54.5 231q0 149 -66 243.5
t-172 94.5z" />
    <glyph glyph-name="seven" unicode="7" horiz-adv-x="1112" 
d="M604 23l-348 -76q-58 247 154 588q66 114 158.5 252.5t150.5 220t201 278.5h-58l-43 -59h-473q-154 0 -201 -125l-28 -78h-74l51 410h1004q-31 -52 -103.5 -171t-108 -179.5t-87.5 -151t-87 -160t-61 -131.5q-45 -103 -67 -188t-20.5 -162.5t10 -131t30.5 -136.5z" />
    <glyph glyph-name="eight" unicode="8" horiz-adv-x="1210" 
d="M596 -23q-228 0 -375 109t-147 272q0 233 276 355l99 43l-50 20l-71 -31q-201 124 -201 318q0 173 130 282t347 109q199 0 327 -92t128 -238q0 -201 -246 -319l-86 -41l49 -21l72 33q157 -81 225 -171t68 -202q0 -84 -36.5 -160.5t-103.5 -136t-172 -94.5t-233 -35z
M721 852q84 97 84 256q0 117 -63 191.5t-160 74.5q-92 0 -145.5 -59.5t-53.5 -136.5q0 -78 47 -138t158 -118zM604 63q106 0 170 70.5t64 177.5q0 87 -53 150.5t-173 124.5l-161 82q-103 -103 -103 -273q0 -145 71.5 -238.5t184.5 -93.5z" />
    <glyph glyph-name="nine" unicode="9" horiz-adv-x="1230" 
d="M1149 731q0 -164 -51.5 -306.5t-137.5 -239.5t-199.5 -152.5t-236.5 -55.5q-102 0 -190 33t-145.5 100.5t-57.5 155.5q0 63 39.5 106.5t101.5 43.5q77 0 113 -57.5t14 -147.5h-53q5 -59 49.5 -97t122.5 -38q136 0 228.5 151.5t95.5 442.5l67 69v68l-2 -2
q-109 -133 -210.5 -193.5t-223.5 -60.5q-76 0 -147 27t-127.5 77.5t-90.5 130t-34 175.5q0 109 43 204t113 158t158 99t179 36q123 0 230 -51t185 -143.5t122.5 -230t44.5 -302.5zM367 1034q0 -149 65.5 -243.5t171.5 -94.5q140 0 236 127q-13 252 -84 389.5t-185 137.5
q-96 0 -150 -84.5t-54 -231.5z" />
    <glyph glyph-name="colon" unicode=":" horiz-adv-x="479" 
d="M86 1055h307v-303h-307v303zM86 303h307v-303h-307v303z" />
    <glyph glyph-name="semicolon" unicode=";" horiz-adv-x="491" 
d="M86 1055h307v-303h-307v303zM408 88q0 -105 -74 -206t-221 -150l-11 16q91 39 145 120.5t54 158.5v34h-37v-47q-15 -10 -53 -10q-56 0 -95.5 42.5t-39.5 100.5q0 66 44 111t113 45q76 0 125.5 -57t49.5 -158z" />
    <glyph glyph-name="equal" unicode="=" 
d="M72 844h917v-92h-917v92zM72 537h917v-93h-917v93z" />
    <glyph glyph-name="question" unicode="?" horiz-adv-x="1044" 
d="M565 449q-85 -19 -132.5 20t-47.5 111q0 85 121 215l94 102q60 66 85.5 121t25.5 119q0 102 -66 163.5t-174 61.5q-95 0 -157.5 -53.5t-69.5 -145.5h53q23 -91 -15.5 -148t-119.5 -57q-59 0 -97 45.5t-38 112.5q0 65 33.5 125t93.5 107t152.5 75.5t201.5 28.5
q118 0 212.5 -28.5t153.5 -78t90 -112.5t31 -135q0 -199 -229 -336l-158 -94q-102 -62 -102 -129q0 -26 14.5 -51t44.5 -39zM336 303h307v-303h-307v303z" />
    <glyph glyph-name="at" unicode="@" horiz-adv-x="1585" 
d="M1055 338q-24 -56 -19 -87.5t24.5 -43.5t55.5 -12q132 0 221.5 130t89.5 318q0 215 -156.5 355.5t-391.5 140.5q-139 0 -269.5 -56t-229.5 -152.5t-158.5 -236t-59.5 -297.5q0 -261 170 -426.5t440 -165.5q213 0 422 105l10 -14q-206 -166 -475 -166q-188 0 -339 86
t-236.5 238.5t-85.5 342.5q0 228 113.5 418.5t300.5 298t401 107.5q181 0 325.5 -73t227 -205.5t82.5 -299.5q0 -154 -59 -279t-167 -197.5t-245 -72.5q-90 0 -147.5 27.5t-72.5 75.5l56 75l28 109q-94 -150 -177.5 -217.5t-168.5 -67.5q-94 2 -149.5 62t-55.5 161
q0 73 23 152q51 171 188 281t297 110q93 0 174 -51l215 37zM596 313q0 -96 74 -96q29 0 69.5 33.5t83.5 99.5l164 395q-30 46 -104 46q-75 0 -140.5 -80t-113.5 -224q-33 -101 -33 -174z" />
    <glyph glyph-name="A" unicode="A" horiz-adv-x="1564" 
d="M938 387h88l-22 47h-596l-68 -155q-84 -188 72 -207l34 -4v-68h-436v63q56 15 105.5 58t81.5 115l555 1243h75l555 -1260q32 -71 69.5 -106.5t102.5 -49.5v-63h-659v68l35 4q60 6 82.5 42.5t-2.5 102.5zM449 526h434l-211 506z" />
    <glyph glyph-name="B" unicode="B" horiz-adv-x="1458" 
d="M1401 395q0 -182 -142 -288.5t-378 -106.5h-840v70l55 4q71 4 104 40.5t33 106.5v991q0 70 -33 107t-104 41l-55 4v70h772q233 0 372.5 -94.5t139.5 -254.5q0 -113 -89 -202.5t-255 -118.5q202 -22 311 -126t109 -243zM676 799q147 0 230 75t83 201q0 129 -82 198.5
t-233 69.5h-182v-43h81v-501h103zM741 92q151 0 234.5 79.5t83.5 225.5t-84 231t-234 85h-168v-578h-81v-43h249z" />
    <glyph glyph-name="C" unicode="C" horiz-adv-x="1370" 
d="M739 1454q148 0 261 -65.5t184 -169.5v79q-5 8 -38.5 40t-43.5 40l192 80v-516h-82l-45 88q-67 143 -155.5 217t-216.5 74q-168 0 -271.5 -154t-103.5 -403q0 -172 49.5 -307.5t152 -218t244.5 -82.5q280 0 426 243l23 -10q-74 -193 -223 -301t-351 -108q-193 0 -350 95
t-245.5 259.5t-88.5 365.5q0 206 90.5 379.5t247.5 274t344 100.5z" />
    <glyph glyph-name="D" unicode="D" horiz-adv-x="1628" 
d="M41 0v70l55 4q137 9 137 147v991q0 139 -137 148l-55 4v70h711q232 0 419 -91t293.5 -253t106.5 -363q0 -152 -62 -287t-168.5 -231.5t-256 -152.5t-318.5 -56h-725zM573 143h-79v-47h235q221 0 350 157.5t129 426.5q0 141 -32.5 259.5t-96 208t-165 139.5t-232.5 50
h-188v-47h79v-1147z" />
    <glyph glyph-name="E" unicode="E" horiz-adv-x="1439" 
d="M573 141h-79v-45h430q129 0 209.5 68.5t126.5 212.5l36 115h86l-65 -492h-1276v70l55 4q137 9 137 147v991q0 139 -137 148l-55 4v70h1264l28 -482h-84l-45 144q-40 127 -117 184t-208 57h-385v-45h79v-510h132q164 0 204 166l21 88h74v-598h-74l-21 88q-40 164 -204 164
h-132v-549z" />
    <glyph glyph-name="F" unicode="F" horiz-adv-x="1419" 
d="M573 221q0 -138 138 -147l55 -4v-70h-725v70l55 4q137 9 137 147v991q0 139 -137 148l-55 4v70h1264l28 -492h-84l-45 154q-38 128 -115.5 184.5t-209.5 56.5h-385v-45h79v-518h134q159 0 202 166l23 88h74v-598h-74l-23 88q-43 164 -202 164h-213v-45h79v-416z" />
    <glyph glyph-name="G" unicode="G" horiz-adv-x="1597" 
d="M823 1321q-83 0 -155.5 -39.5t-128 -113t-87.5 -187t-32 -252.5q0 -278 118 -444t318 -166q207 0 363 153v56l-103 -80v233q0 69 -33 105.5t-104 40.5l-55 4v69h659v-69l-57 -4q-99 -6 -99 -146v-499l-198 149q-86 -70 -210.5 -109.5t-258.5 -39.5q-149 0 -279 54
t-223 148t-147 228.5t-54 289.5q0 210 95.5 383t261.5 271t366 98q139 0 261.5 -61t201.5 -172v79q-3 7 -34.5 36.5t-45.5 41.5l193 82v-516h-82l-43 86q-142 291 -408 291z" />
    <glyph glyph-name="H" unicode="H" horiz-adv-x="1716" 
d="M494 692v-45h79v-426q0 -138 138 -147l55 -4v-70h-725v70l55 4q137 9 137 147v991q0 139 -137 148l-55 4v70h725v-70l-55 -4q-138 -9 -138 -148v-428h570v428q0 139 -137 148l-56 4v70h725v-70l-55 -4q-137 -9 -137 -148v-991q0 -138 137 -147l55 -4v-70h-725v70l56 4
q137 9 137 147v426h80v45h-729z" />
    <glyph glyph-name="I" unicode="I" horiz-adv-x="806" 
d="M573 221q0 -138 138 -147l55 -4v-70h-725v70l55 4q137 9 137 147v991q0 139 -137 148l-55 4v70h725v-70l-55 -4q-138 -9 -138 -148v-991z" />
    <glyph glyph-name="J" unicode="J" horiz-adv-x="1351" 
d="M543 -23q-128 0 -239 42.5t-182 127t-71 193.5q0 60 38.5 101.5t98.5 41.5q70 0 109.5 -54t24.5 -146h-54q3 -86 60 -139.5t159 -53.5q132 0 216.5 92t84.5 271v759q0 139 -137 148l-55 4v70h725v-70l-57 -4q-136 -9 -136 -148v-716q0 -165 -76 -283.5t-206.5 -177
t-302.5 -58.5z" />
    <glyph glyph-name="K" unicode="K" horiz-adv-x="1662" 
d="M573 221q0 -138 136 -147l57 -4v-70h-725v70l55 4q137 9 137 147v991q0 139 -137 148l-55 4v70h725v-70l-57 -4q-136 -9 -136 -148v-471l-75 -79v-60l610 602q51 53 41 103t-64 55l-45 4v68h490v-64q-81 -20 -159.5 -65t-137.5 -103l-293 -289l510 -698q93 -128 195 -152
v-63h-478l-458 686l-136 -133v-332z" />
    <glyph glyph-name="L" unicode="L" horiz-adv-x="1406" 
d="M573 143h-79v-47h409q128 0 208 68.5t126 212.5l37 115h86l-66 -492h-1253v70l55 4q137 9 137 147v991q0 139 -137 148l-55 4v70h725v-70l-55 -4q-138 -9 -138 -148v-1069z" />
    <glyph glyph-name="M" unicode="M" horiz-adv-x="2009" 
d="M41 1366v68h590l358 -879l-35 -80l27 -63l410 1022h577v-68l-47 -4q-145 -12 -145 -152v-987q0 -139 145 -151l47 -4v-68h-715v68l47 4q146 12 146 151v920l43 102h-47l-537 -1308h-4l-541 1327v-1018q0 -151 148 -172l47 -6v-68h-514v68l47 6q145 18 145 172v942
q0 78 -35.5 119.5t-109.5 52.5z" />
    <glyph glyph-name="N" unicode="N" horiz-adv-x="1634" 
d="M1411 1178v-1201h-29l-1024 1131v-852q0 -164 148 -182l47 -6v-68h-514v68l47 6q145 18 145 182v961l-233 217h520l717 -785v-92l49 -49v670q0 164 -147 182l-47 6v68h514v-68l-48 -6q-145 -18 -145 -182z" />
    <glyph glyph-name="O" unicode="O" horiz-adv-x="1609" 
d="M801 -23q-205 0 -375 93.5t-269.5 262t-99.5 378.5t101 382t273 268.5t378 96.5q153 0 289.5 -54.5t236.5 -150t158.5 -232.5t58.5 -294q0 -210 -100.5 -382.5t-272.5 -270t-378 -97.5zM823 84q74 0 139 40t115.5 114.5t79.5 190t29 257.5q0 303 -109.5 484.5
t-294.5 181.5q-153 0 -256.5 -160.5t-103.5 -441.5q0 -303 108.5 -484.5t292.5 -181.5z" />
    <glyph glyph-name="P" unicode="P" horiz-adv-x="1460" 
d="M573 586v-365q0 -138 138 -147l55 -4v-70h-725v70l55 4q137 9 137 147v991q0 139 -137 148l-55 4v70h827q236 0 376 -105t140 -278q0 -186 -142 -303t-372 -117h-360v-45h63zM573 715h154q145 0 228 88.5t83 238.5q0 140 -80 217.5t-231 77.5h-217v-45h63v-577z" />
    <glyph glyph-name="Q" unicode="Q" horiz-adv-x="1609" 
d="M801 -23q-205 0 -375 93.5t-269.5 262t-99.5 378.5t101 382t273 268.5t378 96.5q153 0 289.5 -54.5t236.5 -150t158.5 -232.5t58.5 -294q0 -228 -117 -409.5t-311 -270.5l93 -156q48 -79 108 -79q39 0 66.5 9t62.5 42l6 -4q-101 -183 -293 -183q-78 0 -128.5 34
t-90.5 112l-209 403q-26 48 -54 70t-69 22q-52 0 -84 -49q87 -141 224 -176l55 -115h-10zM973 305l69 -117q67 75 105.5 200t38.5 288q0 308 -112 492t-302 184q-149 0 -250.5 -157.5t-101.5 -434.5q0 -246 78 -426q81 108 243 108q152 -2 232 -137z" />
    <glyph glyph-name="R" unicode="R" horiz-adv-x="1583" 
d="M573 629v-408q0 -138 138 -147l55 -4v-70h-725v70l55 4q137 9 137 147v991q0 139 -137 148l-55 4v70h813q237 0 371.5 -106.5t134.5 -270.5q0 -120 -87.5 -211.5t-215.5 -132.5q161 -39 227 -187l162 -372q29 -67 115 -82l24 -4v-68h-446l-203 539q-29 75 -68 106
t-106 31h-268v-47h79zM573 768h172q121 0 198 74.5t77 204.5t-72 210t-205 80h-249v-47h79v-522z" />
    <glyph glyph-name="S" unicode="S" horiz-adv-x="1320" 
d="M1223 432q0 -130 -69.5 -233t-188.5 -159t-265 -56q-140 0 -253.5 59t-192.5 158v-74q6 -8 68 -61l-199 -97l-10 516h82l69 -114q158 -269 426 -269q117 0 185.5 56.5t68.5 150.5q0 131 -180 191l-354 121q-151 52 -229.5 153.5t-78.5 237.5q0 193 129 316.5t326 123.5
q256 0 424 -240v82q-7 11 -40 43.5t-42 38.5l199 76l10 -491h-84l-51 81q-85 142 -172.5 212.5t-208.5 70.5q-104 0 -165.5 -52.5t-61.5 -135.5q0 -130 153 -185l391 -133q150 -52 232 -151t82 -236z" />
    <glyph glyph-name="T" unicode="T" horiz-adv-x="1445" 
d="M33 1434h1380l19 -478h-74l-45 140q-41 128 -118 184.5t-206 56.5h-176v-47h80v-1069q0 -138 135 -147l57 -4v-70h-725v70l56 4q137 9 137 147v1116h-96q-129 0 -207 -56.5t-119 -184.5l-43 -140h-76z" />
    <glyph glyph-name="U" unicode="U" horiz-adv-x="1630" 
d="M1262 1178q0 164 -140 182l-47 6v68h514v-68l-47 -6q-137 -18 -137 -182v-598q0 -275 -163 -439t-437 -164q-263 0 -421.5 141.5t-158.5 409.5v684q0 139 -137 148l-55 4v70h723v-70l-56 -4q-137 -9 -137 -148v-694q0 -175 90 -274t244 -99q169 0 267 121.5t98 321.5v590
z" />
    <glyph glyph-name="V" unicode="V" horiz-adv-x="1564" 
d="M555 1217l313 -723l-37 -82l33 -56l361 799q86 189 -72 207l-35 4v68h436v-64q-118 -30 -186 -172l-555 -1225h-76l-555 1241q-33 72 -71 107.5t-101 48.5v64h660v-68l-35 -4q-63 -6 -84.5 -45.5t4.5 -99.5z" />
    <glyph glyph-name="W" unicode="W" horiz-adv-x="2207" 
d="M1454 -29l-332 828l-385 -828h-75l-480 1243q-27 70 -63.5 105.5t-98.5 50.5v64h631v-68l-35 -4q-126 -15 -81 -145l266 -725l-37 -84l31 -60l270 592l-111 274q-28 71 -64 106t-99 50v64h620v-68l-35 -4q-55 -7 -72.5 -45.5t5.5 -99.5l260 -693l-31 -82l35 -65l297 778
q40 96 20 146.5t-112 60.5l-35 4v68h444v-64q-128 -38 -176 -172l-481 -1227h-76z" />
    <glyph glyph-name="X" unicode="X" horiz-adv-x="1579" 
d="M813 985l-65 -74l32 -41l283 316q64 77 55.5 123.5t-76.5 52.5l-43 4v68h471v-68q-75 -15 -131 -51t-116 -105l-314 -358l434 -629q50 -72 97 -108.5t119 -46.5v-68h-723v68l43 4q64 6 81.5 52.5t-24.5 111.5l-199 292l70 80l-35 45l-369 -430q-48 -59 -33 -102t79 -49
l43 -4v-68h-472v68q77 17 132.5 53t111.5 102l379 447l-379 540q-48 71 -91.5 106.5t-111.5 49.5v68h705v-68l-43 -4q-61 -6 -75.5 -50t32.5 -122z" />
    <glyph glyph-name="Y" unicode="Y" horiz-adv-x="1523" 
d="M825 631l355 538q52 82 31.5 133t-103.5 60l-35 4v68h426v-64q-89 -23 -174 -151l-391 -592v-404q0 -139 147 -151l45 -4v-68h-725v68l45 4q148 12 148 151v385l-418 639q-67 105 -151 123v64h622v-68l-55 -8q-59 -9 -69 -52.5t32 -109.5l287 -446l-49 -74z" />
    <glyph glyph-name="Z" unicode="Z" horiz-adv-x="1384" 
d="M852 1288h70l28 45h-428q-118 0 -187.5 -70.5t-117.5 -220.5l-37 -116h-86l33 508h1182l-834 -1293h-72l-28 -45h520q123 0 200.5 73t125.5 226l36 115h86l-55 -510h-1268z" />
    <glyph glyph-name="bracketleft" unicode="[" horiz-adv-x="784" 
d="M451 -307h-86v-41h358v-82h-590v1935h590v-82h-358v-41h86v-1689z" />
    <glyph glyph-name="backslash" unicode="\" horiz-adv-x="778" 
d="M35 1434h115l817 -1907h-115z" />
    <glyph glyph-name="bracketright" unicode="]" horiz-adv-x="784" 
d="M334 1382h86v41h-359v82h590v-1935h-590v82h359v41h-86v1689z" />
    <glyph glyph-name="asciicircum" unicode="^" horiz-adv-x="1167" 
d="M547 1434h74l466 -709h-124l-379 567l-379 -567h-125z" />
    <glyph glyph-name="underscore" unicode="_" horiz-adv-x="913" 
d="M-2 -236h917v-92h-917v92z" />
    <glyph glyph-name="grave" unicode="`" horiz-adv-x="1024" 
d="M684 1143h-8l-387 168q-47 20 -67 60t-12 78t42.5 66.5t85.5 28.5q48 0 78.5 -26t79.5 -97z" />
    <glyph glyph-name="a" unicode="a" horiz-adv-x="1118" 
d="M662 113l71 92v71l-61 -81q-81 -107 -166.5 -162.5t-194.5 -55.5q-128 0 -198 62.5t-70 177.5q0 57 22 100t69 74.5t94.5 52t123.5 45.5l303 101v131q0 91 -46.5 145t-139.5 54q-87 0 -131.5 -35t-44.5 -86h49q13 -92 -23 -142.5t-102 -50.5q-59 0 -96 39.5t-37 97.5
q0 121 125 204t313 83q211 0 314.5 -92t103.5 -266v-465q0 -39 21.5 -61.5t56.5 -22.5q47 0 80 31l6 -4q-35 -82 -105.5 -125t-146.5 -43q-169 0 -190 131zM315 276q0 -65 36.5 -101t103.5 -36q58 0 110.5 30.5t89.5 86.5v258l-178 -61q-86 -29 -124 -71t-38 -106z" />
    <glyph glyph-name="b" unicode="b" horiz-adv-x="1236" 
d="M1178 565q0 -169 -77 -302.5t-213 -207t-306 -73.5q-162 0 -265 53l-155 -51v1249q0 50 -21 75.5t-88 59.5l-63 31l459 108v-565l-74 -100v-72l49 66q89 117 169 157.5t171 40.5q181 0 297.5 -130.5t116.5 -338.5zM643 877q-50 0 -103.5 -29t-90.5 -76v-637
q76 -59 163 -59q125 0 202 116.5t77 303.5q0 170 -65.5 275.5t-182.5 105.5z" />
    <glyph glyph-name="c" unicode="c" horiz-adv-x="1007" 
d="M942 283q-51 -141 -162 -224.5t-245 -83.5q-204 0 -342 143.5t-138 360.5q0 147 65 272.5t191.5 204t288.5 78.5q152 0 263.5 -77.5t111.5 -202.5q0 -58 -37 -98t-94 -40q-74 0 -110 54.5t-17 138.5h51q-5 57 -44.5 92t-117.5 35q-112 0 -179 -103t-67 -290
q0 -182 79 -290t229 -108q168 0 260 144z" />
    <glyph glyph-name="d" unicode="d" horiz-adv-x="1261" 
d="M473 -20q-181 0 -297.5 132.5t-116.5 344.5q0 252 168.5 413.5t427.5 161.5q71 0 133 -12v211q0 50 -20.5 75.5t-87.5 59.5l-64 31l459 108v-1284q0 -50 18.5 -75.5t80.5 -55.5l73 -37l-459 -76v123l74 95v69l-8 -8l-33 -43q-87 -117 -169 -175t-179 -58zM346 532
q0 -171 69.5 -282t176.5 -111q53 0 106 33t90 88v631q-73 51 -161 51q-125 0 -203 -113.5t-78 -296.5z" />
    <glyph glyph-name="e" unicode="e" 
d="M1010 551h-731v-43h81q11 -167 98 -265t240 -98q83 0 153.5 37.5t115.5 118.5l16 -8q-52 -146 -166.5 -232t-251.5 -86q-221 0 -365.5 147.5t-144.5 371.5q0 143 64.5 266t184.5 197.5t269 74.5q199 0 321 -136t116 -345zM565 930q-90 0 -142 -82t-63 -217h404
q0 128 -55 213.5t-144 85.5z" />
    <glyph glyph-name="f" unicode="f" horiz-adv-x="718" 
d="M166 195v735h-154v80h154v41q0 94 27.5 174.5t80 142.5t136.5 97.5t190 35.5q79 0 148 -24t114 -73.5t45 -115.5q0 -58 -32.5 -91.5t-81.5 -33.5q-69 0 -102 50.5t-21 125.5h45q-6 72 -111 72q-70 0 -110.5 -53.5t-40.5 -153.5v-194h233v-80h-324v-43h91v-692
q0 -118 104 -127l53 -5v-63h-592v63l54 5q94 6 94 127z" />
    <glyph glyph-name="g" unicode="g" horiz-adv-x="1075" 
d="M508 -494q-264 0 -394 67t-130 173q0 26 12 49t27 38.5t47.5 33.5t53 27t63.5 27q8 3 12 5l100 41l-43 19l-96 -39q-60 54 -60 139q0 50 29 95.5t76.5 79.5t95.5 58t100 41l-45 25l-88 -31q-90 47 -142 125t-52 174q0 157 134.5 267t321.5 110q99 0 193 -33
q139 160 287 160q83 0 128.5 -44t45.5 -101q0 -52 -33 -85.5t-80 -33.5q-55 0 -91 42t-13 99h30v37q-52 5 -101.5 -18t-109.5 -82q94 -48 147.5 -127t53.5 -176q0 -157 -135 -267t-322 -110q-78 0 -127 10q-47 -19 -70.5 -43.5t-23.5 -46.5q0 -32 24.5 -51t92.5 -25l393 -31
q279 -22 279 -254q0 -43 -13 -85t-52.5 -90.5t-102 -84.5t-171.5 -60t-251 -24zM537 387q70 0 117.5 66.5t47.5 197.5q0 122 -45 202.5t-133 80.5q-73 0 -119.5 -68.5t-46.5 -197.5q0 -127 50.5 -204t128.5 -77zM553 -408q82 0 144 12.5t95.5 30t54 41.5t26.5 43t6 39
q0 49 -28.5 72.5t-88.5 28.5l-475 35q-78 -51 -78 -125q0 -72 85 -124.5t259 -52.5z" />
    <glyph glyph-name="h" unicode="h" horiz-adv-x="1302" 
d="M399 741l43 56q187 237 379 237q141 0 222 -80.5t81 -224.5v-534q0 -57 27.5 -89.5t75.5 -37.5l47 -5v-63h-567v63l45 5q86 9 86 127v495q0 85 -43.5 131.5t-120.5 46.5q-111 0 -201 -123v-550q0 -118 86 -127l45 -5v-63h-565v63l47 5q100 10 100 127v1036q0 53 -20.5 79
t-87.5 58l-64 31l459 108v-608l-74 -92v-66z" />
    <glyph glyph-name="i" unicode="i" horiz-adv-x="665" 
d="M193 1196v270h286v-270h-286zM20 915l459 121v-841q0 -118 103 -127l45 -5v-63h-582v63l47 5q101 10 101 127v553q0 50 -18 75.5t-79 55.5z" />
    <glyph glyph-name="j" unicode="j" horiz-adv-x="643" 
d="M193 1196v270h286v-270h-286zM20 915l459 121v-1136q0 -189 -103.5 -289t-312.5 -100q-128 0 -208 60t-80 146q0 54 35 89.5t84 35.5q67 0 99 -44t19 -132h-45q6 -65 86 -65q69 0 104.5 46t35.5 122v979q0 50 -18 75.5t-79 55.5z" />
    <glyph glyph-name="k" unicode="k" horiz-adv-x="1280" 
d="M889 0l-307 469l-109 -104v-170q0 -121 94 -127l54 -5v-63h-582v63l53 5q94 6 94 127v1038q0 50 -20.5 75.5t-87.5 59.5l-64 31l459 108v-970l-74 -72v-57l408 395q33 31 43 61t-5.5 49.5t-51.5 22.5l-43 4v70h464v-66q-84 -21 -165.5 -59.5t-130.5 -87.5l-138 -133
l336 -467q41 -58 78.5 -89t83.5 -45v-63h-389z" />
    <glyph glyph-name="l" unicode="l" horiz-adv-x="659" 
d="M186 1233q0 50 -20.5 75.5t-87.5 59.5l-64 31l459 106v-1310q0 -121 94 -127l54 -5v-63h-582v63l53 5q94 6 94 127v1038z" />
    <glyph glyph-name="m" unicode="m" horiz-adv-x="1898" 
d="M45 0v63l47 5q101 10 101 127v553q0 50 -18 75.5t-79 55.5l-76 36l459 121v-135l-73 -94v-64l38 50q66 81 118 129.5t115 80t130 31.5q96 0 165.5 -43.5t100.5 -122.5l-53 -65v-70l43 55q94 121 179.5 183.5t184.5 62.5q136 0 214.5 -80.5t78.5 -224.5v-534
q0 -57 27.5 -89.5t75.5 -37.5l47 -5v-63h-557v63l45 5q76 6 76 127v495q0 86 -40.5 132t-113.5 46q-99 0 -180 -123v-550q0 -57 20.5 -90.5t55.5 -36.5l45 -5v-63h-529v63l45 5q76 6 76 127v495q0 86 -40.5 132t-113.5 46q-45 0 -93 -30t-87 -90v-553q0 -121 76 -127l45 -5
v-63h-555z" />
    <glyph glyph-name="n" unicode="n" horiz-adv-x="1308" 
d="M193 748q0 50 -18 75.5t-79 55.5l-76 36l459 121v-137l-73 -92v-66l30 35q99 123 190.5 190.5t200.5 67.5q141 0 222 -80.5t81 -224.5v-534q0 -57 27.5 -89.5t75.5 -37.5l47 -5v-63h-567v63l45 5q86 9 86 127v495q0 85 -43.5 131.5t-120.5 46.5q-114 0 -201 -125v-548
q0 -118 86 -127l45 -5v-63h-565v63l47 5q101 10 101 127v553z" />
    <glyph glyph-name="o" unicode="o" horiz-adv-x="1150" 
d="M575 1034q223 0 372 -149t149 -373q0 -148 -69 -271.5t-189 -194.5t-263 -71q-223 0 -371.5 150.5t-148.5 374.5q0 149 68.5 271.5t188 192.5t263.5 70zM559 934q-91 0 -145 -104t-54 -287q0 -218 60.5 -341.5t167.5 -123.5q91 0 147 104t56 287q0 218 -61.5 341.5
t-170.5 123.5z" />
    <glyph glyph-name="p" unicode="p" horiz-adv-x="1253" 
d="M616 -408v-63h-571v63l43 5q94 9 94 127v1024q0 51 -18 76t-78 55l-76 36l459 138v-140l-74 -92v-65l49 61q93 114 175 165.5t186 51.5q74 0 143.5 -31t125.5 -88t90 -148t34 -202q0 -137 -48.5 -249.5t-131.5 -184t-190 -110.5t-226 -39q-74 0 -133 12v-270
q0 -118 104 -127zM664 877q-61 0 -111 -37.5t-84 -96.5v-614q74 -53 166 -53q121 0 198.5 117t77.5 309q0 163 -69.5 269t-177.5 106z" />
    <glyph glyph-name="q" unicode="q" horiz-adv-x="1236" 
d="M819 186q-151 -206 -348 -206q-82 0 -155.5 30.5t-131.5 88t-92.5 148.5t-34.5 202q0 137 50.5 249.5t136 184t196.5 110.5t234 39q150 0 254 -49l145 47v-1306q0 -118 94 -127l43 -5v-63h-571v63l43 5q104 9 104 127v346l74 100v74zM344 532q0 -172 69.5 -283.5
t178.5 -111.5q114 0 194 107v655q-61 39 -143 39q-132 0 -215.5 -111.5t-83.5 -294.5z" />
    <glyph glyph-name="r" unicode="r" horiz-adv-x="989" 
d="M193 748q0 50 -18 75.5t-79 55.5l-76 36l459 121v-145q-61 -109 -67 -125v-98q65 175 164 267.5t210 92.5q93 0 144 -48t51 -122q0 -64 -38.5 -102.5t-94.5 -38.5q-53 0 -90 34t-37 80q0 17 6.5 35t13.5 21h31v39q-84 9 -159.5 -58t-133.5 -196v-477q0 -118 101 -127
l47 -5v-63h-582v63l47 5q101 9 101 127v553z" />
    <glyph glyph-name="s" unicode="s" horiz-adv-x="919" 
d="M416 918q-63 0 -101.5 -35.5t-38.5 -85.5q0 -86 103 -123l246 -80q124 -39 188 -114.5t64 -176.5q0 -134 -109 -225.5t-272 -91.5q-100 0 -189 49t-145 129v-72q41 -41 71 -61l-172 -56l-6 379h84l51 -84q53 -90 123 -136t166 -46q73 0 115.5 34.5t42.5 92.5
q0 41 -27.5 69.5t-93.5 51.5l-215 70q-126 39 -190 117.5t-64 185.5q0 137 96 226t244 89q88 0 169.5 -48t129.5 -124v74q-55 55 -70 65l172 37l7 -362h-88l-45 75q-51 86 -108 131.5t-138 45.5z" />
    <glyph glyph-name="t" unicode="t" horiz-adv-x="825" 
d="M373 930v-43h90v-588q0 -67 37.5 -105t99.5 -38q131 0 193 141l10 -4q-34 -152 -122 -230.5t-226 -78.5q-128 0 -203.5 70t-75.5 202v674h-190q160 102 283.5 229t193.5 264v-413h319v-80h-409z" />
    <glyph glyph-name="u" unicode="u" horiz-adv-x="1292" 
d="M467 1036v-714q0 -86 40 -136.5t120 -50.5q60 0 113.5 33.5t90.5 93.5v486q0 53 -20.5 79t-87.5 58l-64 30l459 121v-813q0 -50 18.5 -75.5t80.5 -55.5l73 -37l-459 -75v122l74 95v65l-41 -53q-28 -36 -53 -64.5t-63 -61.5t-75.5 -55t-87.5 -36.5t-102 -14.5
q-141 0 -222 82.5t-81 223.5v465q0 53 -20.5 79t-87.5 58l-64 30z" />
    <glyph glyph-name="v" unicode="v" horiz-adv-x="1247" 
d="M700 305l236 447q40 80 19 129.5t-97 60.5l-31 4v64h408v-62q-96 -25 -162 -157l-422 -803h-65l-414 819q-35 66 -69.5 97.5t-90.5 43.5v62h613v-64l-31 -4q-60 -8 -80 -42.5t8 -90.5l187 -379l-39 -78z" />
    <glyph glyph-name="w" unicode="w" horiz-adv-x="1845" 
d="M1163 -12l-243 569l-269 -569h-100l-379 819q-30 66 -59 98t-78 43v62h540v-64l-30 -4q-45 -6 -60.5 -44t7.5 -89l186 -410l-37 -80l31 -55l192 420l-53 123q-27 65 -60.5 100.5t-66.5 40.5v62h522v-64l-30 -4q-45 -6 -60 -43t6 -90l170 -408l-37 -73l29 -54l240 478
q84 169 -86 190l-31 4v64h403v-62q-48 -13 -83.5 -51t-69.5 -106l-393 -803h-101z" />
    <glyph glyph-name="x" unicode="x" horiz-adv-x="1245" 
d="M557 827l82 -108l-55 -57l32 -37l177 176q59 63 55 98.5t-55 40.5l-41 4v66h397v-66q-60 -12 -104 -41t-115 -102l-201 -205l303 -389q60 -77 92.5 -103.5t92.5 -40.5v-63h-627v63l37 3q58 3 73.5 33.5t-18.5 80.5l-113 154l54 57l-35 39l-207 -225q-52 -55 -47.5 -95.5
t63.5 -43.5l39 -3v-63h-416v63q60 6 108 36.5t114 105.5l229 258l-258 338q-86 113 -176 143v66h586v-66l-33 -4q-49 -6 -58.5 -36t25.5 -77z" />
    <glyph glyph-name="y" unicode="y" horiz-adv-x="1251" 
d="M406 -223l147 274l-385 756q-33 65 -67 96.5t-91 44.5v62h621v-64l-31 -4q-59 -8 -79.5 -42t5.5 -91l181 -365l-43 -77l32 -52l234 437q42 80 21 129.5t-97 60.5l-31 4v64h418v-62q-50 -13 -89 -51t-75 -106l-553 -1035q-29 -55 -59.5 -94.5t-71.5 -73.5t-95 -51.5
t-120 -17.5q-87 0 -146 45.5t-59 120.5q0 52 38.5 91.5t92.5 39.5q63 0 94.5 -46t18.5 -118h-45v-33q86 -4 136 30.5t98 127.5z" />
    <glyph glyph-name="z" unicode="z" horiz-adv-x="1052" 
d="M330 82h276q115 0 186 57.5t103 179.5l23 87h88l-43 -406h-938l587 883h70l25 45h-238q-116 0 -181.5 -48.5t-101.5 -154.5l-36 -111h-84l16 396h932l-590 -883h-70z" />
    <glyph glyph-name="braceleft" unicode="{" horiz-adv-x="839" 
d="M41 559q221 25 288 125.5t-30 263.5l-25 41q-75 121 -70 222t74 173t207 112t328 40l2 -27q-211 -8 -275 -128.5t50 -305.5l26 -43q49 -80 51 -155.5t-43 -136.5t-125 -107.5t-198.5 -72t-259.5 -25.5v24zM362 526q200 -57 270.5 -188.5t-20.5 -282.5l-22 -37
q-113 -186 -49.5 -306t274.5 -128l-2 -26q-190 0 -328 40t-207 112t-74 172t70 222l25 41q78 131 50 223t-159 136z" />
    <glyph glyph-name="bar" unicode="|" horiz-adv-x="757" 
d="M436 1434v-1907h-114v1907h114z" />
    <glyph glyph-name="braceright" unicode="}" horiz-adv-x="839" 
d="M799 535q-221 -25 -288 -126t30 -264l24 -41q58 -96 68.5 -181t-26 -151.5t-113.5 -114.5t-196 -73.5t-271 -25.5l-2 26q211 8 275 128.5t-50 305.5l-27 43q-49 80 -50.5 155.5t43 137t125 108t199 72t259.5 25.5v-24zM477 567q-200 57 -270.5 188.5t20.5 282.5l23 37
q113 186 49.5 306t-274.5 128l2 27q190 0 327.5 -40t206.5 -112t74 -173t-70 -222l-24 -41q-78 -131 -50.5 -222.5t158.5 -135.5z" />
    <glyph glyph-name="asciitilde" unicode="~" horiz-adv-x="1085" 
d="M1036 838h8q-62 -202 -130 -289.5t-185 -87.5q-41 0 -105 21t-121 45.5t-126 45.5t-119 21q-56 0 -107 -28t-102 -105h-8q62 204 130 291.5t185 87.5q46 0 112.5 -21t122.5 -45.5t122.5 -45.5t113.5 -21q122 0 209 131z" />
    <glyph glyph-name="exclamdown" unicode="&#xa1;" horiz-adv-x="491" 
d="M406 1130h-308v304h308v-304zM233 1010h21l162 -777q25 -117 -29.5 -190.5t-142.5 -73.5t-142.5 73.5t-29.5 190.5z" />
    <glyph glyph-name="cent" unicode="&#xa2;" horiz-adv-x="1007" 
d="M322 -205h-97l76 240q-114 64 -180 180.5t-66 263.5t65 272.5t191.5 204t288.5 78.5h21l51 160h94l-55 -172q116 -26 190 -97t74 -171q0 -58 -37 -98t-94 -40q-74 0 -110 54.5t-17 138.5h51q-7 89 -88 117zM360 543q0 -123 35 -213l195 606q-106 -8 -168 -110.5
t-62 -282.5zM436 -14l68 207q74 -48 164 -48q168 0 260 144l14 -6q-51 -141 -162 -224.5t-245 -83.5q-48 0 -99 11z" />
    <glyph glyph-name="sterling" unicode="&#xa3;" horiz-adv-x="1105" 
d="M547 238l47 -19q18 27 27 57q137 -49 245 -49q178 0 248 172l12 -2q-34 -215 -117 -317.5t-221 -102.5q-134 0 -325 144q-108 -144 -252 -144q-87 0 -139 48.5t-52 128.5q0 82 64.5 133t165.5 51q62 0 158 -27q-3 69 -43 178l-60 160h92l-14 45h-336v107h209l-10 28
q-54 183 -24 319.5t144 216t289 79.5t294.5 -77t119.5 -191q0 -63 -45 -104.5t-111 -41.5q-87 0 -132 52t-33 137h57q0 54 -37 91.5t-92 37.5q-122 0 -161.5 -98t9.5 -279l45 -170h326v-107h-297q31 -132 19.5 -234t-70.5 -222zM109 158q0 -44 27 -69.5t73 -25.5
q52 0 97.5 33t72.5 88q-103 66 -164 66q-47 0 -76.5 -25.5t-29.5 -66.5z" />
    <glyph glyph-name="yen" unicode="&#xa5;" horiz-adv-x="1523" 
d="M1126 68v-68h-725v68l45 4q148 12 148 151v88h82v49h-424v107h342v53h-342v107h328l-404 620q-67 105 -151 123v64h622v-68l-55 -8q-59 -9 -69 -52.5t32 -109.5l317 -494l308 467q52 82 31.5 133t-103.5 60l-35 4v68h426v-64q-89 -23 -174 -151l-391 -592h342v-107h-342
v-53h342v-107h-342v-137q0 -139 147 -151z" />
    <glyph glyph-name="section" unicode="&#xa7;" horiz-adv-x="1144" 
d="M1059 653q0 -72 -29.5 -130.5t-78.5 -95t-98.5 -58.5t-102.5 -33l38 -33l82 27q72 -84 72 -193q0 -146 -120 -241t-306 -95q-149 0 -254.5 73t-105.5 171q0 52 32 86.5t84 34.5q67 0 99.5 -48t13.5 -124h-45q26 -86 168 -86q92 0 148.5 44.5t56.5 106.5q0 47 -31 81
t-102 63l-246 100q-126 52 -189 122.5t-63 168.5q0 117 81.5 199.5t221.5 115.5l-39 33l-82 -27q-86 83 -86 205q0 146 114.5 241t291.5 95q149 0 254.5 -73t105.5 -171q0 -52 -32.5 -86t-84.5 -34q-67 0 -99 48t-13 124h45q-26 86 -168 86q-83 0 -133.5 -44.5t-50.5 -107.5
q0 -46 30.5 -79t102.5 -64l266 -111q127 -52 189.5 -122.5t62.5 -168.5zM442 561l275 -117q47 11 74.5 43t27.5 78q0 39 -28 65.5t-93 55.5l-272 117q-49 -10 -76.5 -42.5t-27.5 -78.5q0 -39 27 -66t93 -55z" />
    <glyph glyph-name="dieresis" unicode="&#xa8;" horiz-adv-x="1024" 
d="M193 1210v257h272v-257h-272zM573 1210v257h273v-257h-273z" />
    <glyph glyph-name="copyright" unicode="&#xa9;" horiz-adv-x="1581" 
d="M791 -23q-150 0 -287 58.5t-236.5 158t-158 236.5t-58.5 287t58.5 286.5t158 235.5t236.5 158t287 59q200 0 370 -99.5t269.5 -269.5t99.5 -370q0 -150 -58.5 -287t-157.5 -236.5t-236 -158t-287 -58.5zM791 59q178 0 329.5 88.5t239.5 240t88 329.5q0 133 -52.5 254.5
t-140.5 209.5t-209.5 140.5t-254.5 52.5q-177 0 -328.5 -88.5t-240.5 -240t-89 -328.5q0 -178 88.5 -329.5t240 -240t329.5 -88.5zM834 1049q-88 0 -140.5 -79t-52.5 -222q0 -140 61 -223t177 -83q142 0 223 129l12 -6q-44 -122 -134.5 -194t-199.5 -72q-162 0 -270.5 113
t-108.5 284q0 115 50.5 214.5t146 161t215.5 61.5q139 0 222 -71.5t83 -150.5q0 -45 -28.5 -76.5t-73.5 -31.5q-59 0 -87.5 42.5t-13.5 108.5h39q-3 42 -32 68.5t-88 26.5z" />
    <glyph glyph-name="guillemotleft" unicode="&#xab;" horiz-adv-x="1138" 
d="M606 -8v-12l-545 528l545 528v-12l-268 -516zM1057 -8v-12l-545 528l545 528v-12l-269 -516z" />
    <glyph glyph-name="registered" unicode="&#xae;" horiz-adv-x="1247" 
d="M625 524q-138 0 -255 67.5t-185 184t-68 254.5q0 136 68 252.5t185 185t255 68.5q137 0 253 -68.5t183 -185t67 -252.5q0 -138 -67 -254.5t-183 -184t-253 -67.5zM625 586q184 0 313 129.5t129 314.5t-129 314t-313 129q-185 0 -316 -129.5t-131 -313.5t131 -314
t316 -130zM606 1016h-110v-39h51v-127q0 -64 61 -64h21v-43h-271v43h19q28 0 43.5 16.5t15.5 47.5v375q0 28 -16 45.5t-43 17.5h-19v45h299q87 0 143 -42t56 -105q0 -52 -40 -96t-93 -50q54 -18 82 -79l51 -115q12 -28 26 -39t44 -21l14 -4v-39h-170l-80 222q-19 51 -84 51z
M496 1247h51v-186h74q54 0 86 32t32 83q0 52 -31 81t-87 29h-125v-39z" />
    <glyph glyph-name="macron" unicode="&#xaf;" horiz-adv-x="1024" 
d="M168 1423h688v-174h-688v174z" />
    <glyph glyph-name="degree" unicode="&#xb0;" horiz-adv-x="843" 
d="M422 762q-144 0 -247 100.5t-103 245.5t103 245.5t247 100.5q145 0 247.5 -100t102.5 -246t-102.5 -246t-247.5 -100zM422 870q94 0 158.5 69t64.5 169t-64.5 169t-158.5 69t-159.5 -69t-65.5 -169t65.5 -169t159.5 -69z" />
    <glyph glyph-name="twosuperior" unicode="&#xb2;" horiz-adv-x="641" 
d="M170 774h47l59 45h181q29 0 48.5 17t37.5 55l18 41h45l-33 -266h-563l203 229q101 115 136.5 187.5t35.5 148.5q0 67 -33 109t-80 42q-48 0 -75 -32.5t-27 -77.5h35q20 -65 -6.5 -105.5t-85.5 -40.5q-41 0 -68 28.5t-27 70.5q0 86 82.5 151.5t214.5 65.5
q134 0 204.5 -63.5t70.5 -145.5q0 -112 -123 -215z" />
    <glyph glyph-name="threesuperior" unicode="&#xb3;" horiz-adv-x="657" 
d="M623 918q0 -105 -83 -186t-231 -81q-106 0 -184 52.5t-78 142.5q0 35 22 59.5t58 24.5q46 0 67 -33t9 -86h-33q5 -42 35.5 -70t91.5 -28q63 0 100 46.5t37 112.5q0 154 -229 154h-15l244 303h-47l-37 -43h-129q-73 0 -100 -53l-19 -37h-41l23 238h528l-231 -287
q106 -9 174 -75t68 -154z" />
    <glyph glyph-name="acute" unicode="&#xb4;" horiz-adv-x="1024" 
d="M340 1143h8l387 168q47 20 67 60t12 78t-42.5 66.5t-85.5 28.5q-48 0 -78.5 -26t-79.5 -97z" />
    <glyph glyph-name="paragraph" unicode="&#xb6;" horiz-adv-x="1386" 
d="M1133 1212v-1724h-166v1862h-271v-72h109v-1790h-166v887q-274 0 -436 149.5t-162 390.5q0 236 159.5 377.5t440.5 141.5h684v-70l-55 -4q-137 -9 -137 -148z" />
    <glyph glyph-name="periodcentered" unicode="&#xb7;" horiz-adv-x="491" 
d="M86 905h307v-303h-307v303z" />
    <glyph glyph-name="cedilla" unicode="&#xb8;" horiz-adv-x="1024" 
d="M408 -416v8q103 -6 156.5 15.5t53.5 64.5q0 40 -51 62l-174 73l176 230h82l-125 -170l43 -21l43 64l66 -27q121 -50 121 -141q0 -82 -71 -136.5t-179 -54.5q-87 0 -141 33z" />
    <glyph glyph-name="onesuperior" unicode="&#xb9;" horiz-adv-x="464" 
d="M342 1456v-676q0 -60 59 -63l43 -2v-49h-424v49l43 2q60 3 60 63v490q0 27 -10.5 40.5t-46.5 35.5l-41 24z" />
    <glyph glyph-name="guillemotright" unicode="&#xbb;" horiz-adv-x="1138" 
d="M532 1018v12l545 -528l-545 -529v13l269 516zM82 1018v12l545 -528l-545 -529v13l268 516z" />
    <glyph glyph-name="onequarter" unicode="&#xbc;" horiz-adv-x="1320" 
d="M342 1456v-676q0 -60 59 -63l43 -2v-49h-424v49l43 2q60 3 60 63v490q0 27 -10.5 40.5t-46.5 35.5l-41 24zM1126 1434l-921 -1434h-105l922 1434h104zM604 203q183 238 221 321q35 75 4 203l271 64q-11 -85 -86 -185q-94 -127 -244 -280h199v118l186 101v-217q50 3 70 49
l12 31h43l-23 -205h-155v-37h53v-47q0 -57 82 -64l23 -2v-53h-394v53l23 2q80 7 80 64v84h-365z" />
    <glyph glyph-name="onehalf" unicode="&#xbd;" horiz-adv-x="1337" 
d="M342 1456v-676q0 -60 59 -63l43 -2v-49h-424v49l43 2q60 3 60 63v490q0 27 -10.5 40.5t-46.5 35.5l-41 24zM1126 1434l-921 -1434h-105l922 1434h104zM866 109h47l60 45h180q53 0 86 71l18 41h46l-33 -266h-563l202 229q101 115 136.5 187.5t35.5 148.5q0 67 -32.5 109.5
t-79.5 42.5q-48 0 -75.5 -33t-27.5 -78h35q20 -65 -6.5 -105t-85.5 -40q-41 0 -67.5 28t-26.5 70q0 86 82.5 151.5t214.5 65.5q134 0 204 -63.5t70 -145.5q0 -112 -123 -215z" />
    <glyph glyph-name="threequarters" unicode="&#xbe;" horiz-adv-x="1513" 
d="M623 918q0 -105 -83 -186t-231 -81q-106 0 -184 52.5t-78 142.5q0 35 22 59.5t58 24.5q46 0 67 -33t9 -86h-33q5 -42 35.5 -70t91.5 -28q63 0 100 46.5t37 112.5q0 154 -229 154h-15l244 303h-47l-37 -43h-129q-73 0 -100 -53l-19 -37h-41l23 238h528l-231 -287
q106 -9 174 -75t68 -154zM1303 1434l-922 -1434h-105l922 1434h105zM797 203q183 238 221 321q35 75 4 203l270 64q-11 -85 -86 -185q-97 -131 -243 -280h198v118l187 101v-217q49 3 69 49l13 31h43l-23 -205h-156v-37h54v-47q0 -57 82 -64l22 -2v-53h-393v53l22 2
q80 7 80 64v84h-364z" />
    <glyph glyph-name="questiondown" unicode="&#xbf;" horiz-adv-x="1044" 
d="M700 1130h-307v304h307v-304zM471 985q85 19 132.5 -20t47.5 -111q0 -85 -121 -215l-94 -102q-60 -66 -85 -120.5t-25 -119.5q0 -102 65.5 -163.5t173.5 -61.5q95 0 158 53t70 145h-54q-23 91 15.5 148t119.5 57q59 0 97.5 -45.5t38.5 -112.5q0 -87 -56.5 -162.5
t-168.5 -124t-257 -48.5q-118 0 -212.5 28.5t-153.5 78t-90 112.5t-31 135q0 199 229 336l158 94q102 61 102 129q0 26 -14.5 51t-44.5 39z" />
    <glyph glyph-name="Agrave" unicode="&#xc0;" horiz-adv-x="1564" 
d="M938 387h88l-22 47h-596l-68 -155q-84 -188 72 -207l34 -4v-68h-436v63q56 15 105.5 58t81.5 115l555 1243h75l555 -1260q32 -71 69.5 -106.5t102.5 -49.5v-63h-659v68l35 4q60 6 82.5 42.5t-2.5 102.5zM449 526h434l-211 506zM952 1567h-8l-387 168q-47 20 -67 60
t-12 78t42.5 66.5t85.5 28.5q48 0 78.5 -26t79.5 -97z" />
    <glyph glyph-name="Aacute" unicode="&#xc1;" horiz-adv-x="1564" 
d="M938 387h88l-22 47h-596l-68 -155q-84 -188 72 -207l34 -4v-68h-436v63q56 15 105.5 58t81.5 115l555 1243h75l555 -1260q32 -71 69.5 -106.5t102.5 -49.5v-63h-659v68l35 4q60 6 82.5 42.5t-2.5 102.5zM449 526h434l-211 506zM608 1567h8l388 168q63 27 77.5 84
t-22.5 103t-105 46q-48 0 -78 -26t-79 -97z" />
    <glyph glyph-name="Acircumflex" unicode="&#xc2;" horiz-adv-x="1564" 
d="M938 387h88l-22 47h-596l-68 -155q-84 -188 72 -207l34 -4v-68h-436v63q56 15 105.5 58t81.5 115l555 1243h75l555 -1260q32 -71 69.5 -106.5t102.5 -49.5v-63h-659v68l35 4q60 6 82.5 42.5t-2.5 102.5zM449 526h434l-211 506zM401 1567h-8l275 348h225l274 -348h-8
l-424 135l158 90h-96z" />
    <glyph glyph-name="Atilde" unicode="&#xc3;" horiz-adv-x="1564" 
d="M938 387h88l-22 47h-596l-68 -155q-84 -188 72 -207l34 -4v-68h-436v63q56 15 105.5 58t81.5 115l555 1243h75l555 -1260q32 -71 69.5 -106.5t102.5 -49.5v-63h-659v68l35 4q60 6 82.5 42.5t-2.5 102.5zM449 526h434l-211 506zM1174 1923h8q-53 -170 -111 -248t-143 -78
q-45 0 -118 33.5t-143.5 67t-109.5 33.5q-91 0 -170 -134h-8q53 172 111 250t143 78q49 0 123 -33.5t143 -66.5t105 -33q97 0 170 131z" />
    <glyph glyph-name="Adieresis" unicode="&#xc4;" horiz-adv-x="1564" 
d="M938 387h88l-22 47h-596l-68 -155q-84 -188 72 -207l34 -4v-68h-436v63q56 15 105.5 58t81.5 115l555 1243h75l555 -1260q32 -71 69.5 -106.5t102.5 -49.5v-63h-659v68l35 4q60 6 82.5 42.5t-2.5 102.5zM449 526h434l-211 506zM461 1634v257h272v-257h-272zM842 1634v257
h272v-257h-272z" />
    <glyph glyph-name="Aring" unicode="&#xc5;" horiz-adv-x="1564" 
d="M938 387h88l-22 47h-596l-68 -155q-84 -188 72 -207l34 -4v-68h-436v63q56 15 105.5 58t81.5 115l555 1243h75l555 -1260q32 -71 69.5 -106.5t102.5 -49.5v-63h-659v68l35 4q60 6 82.5 42.5t-2.5 102.5zM449 526h434l-211 506zM780 1980q96 0 161 -59t65 -152
q0 -87 -65 -145.5t-161 -58.5t-160.5 58.5t-64.5 145.5q0 93 64.5 152t160.5 59zM780 1653q51 0 81 32.5t30 83.5q0 56 -29.5 88.5t-81.5 32.5t-81 -32.5t-29 -88.5q0 -51 29.5 -83.5t80.5 -32.5z" />
    <glyph glyph-name="AE" unicode="&#xc6;" horiz-adv-x="2267" 
d="M508 68v-68h-498v63q99 25 184.5 95t182.5 223l512 807q43 69 27.5 114t-80.5 56l-35 6v70h1331l29 -482h-84l-45 144q-40 127 -117.5 184t-208.5 57h-305v-555h131q165 0 205 166l20 88h74v-598h-74l-20 88q-40 164 -205 164h-131v-549h-80v-45h430q129 0 209.5 68.5
t126.5 212.5l37 115h86l-66 -492h-1276v70l56 4q137 9 137 147v250h-514l-121 -192q-56 -91 -42.5 -144.5t89.5 -62.5zM1067 1298l-463 -735h457v625l72 110h-66z" />
    <glyph glyph-name="Ccedilla" unicode="&#xc7;" horiz-adv-x="1370" 
d="M575 -416v8q103 -6 157 16t54 64q0 40 -51 62l-174 73l133 175q-136 8 -254.5 67t-202.5 154t-132 224t-48 273q0 206 90.5 379.5t247.5 274t344 100.5q148 0 261 -65.5t184 -169.5v79q-5 8 -38.5 40t-43.5 40l192 80v-516h-82l-45 88q-67 143 -155.5 217t-216.5 74
q-168 0 -271.5 -154t-103.5 -403q0 -172 49.5 -307.5t152 -218t244.5 -82.5q280 0 426 243l23 -10q-71 -184 -210 -291.5t-327 -117.5l-84 -113l43 -21l43 64l66 -27q121 -50 121 -141q0 -82 -71 -136.5t-179 -54.5q-88 0 -142 33z" />
    <glyph glyph-name="Egrave" unicode="&#xc8;" horiz-adv-x="1439" 
d="M573 141h-79v-45h430q129 0 209.5 68.5t126.5 212.5l36 115h86l-65 -492h-1276v70l55 4q137 9 137 147v991q0 139 -137 148l-55 4v70h1264l28 -482h-84l-45 144q-40 127 -117 184t-208 57h-385v-45h79v-510h132q164 0 204 166l21 88h74v-598h-74l-21 88q-40 164 -204 164
h-132v-549zM946 1567h-8l-387 168q-47 20 -67 60t-12 78t42.5 66.5t85.5 28.5q48 0 78.5 -26t79.5 -97z" />
    <glyph glyph-name="Eacute" unicode="&#xc9;" horiz-adv-x="1439" 
d="M573 141h-79v-45h430q129 0 209.5 68.5t126.5 212.5l36 115h86l-65 -492h-1276v70l55 4q137 9 137 147v991q0 139 -137 148l-55 4v70h1264l28 -482h-84l-45 144q-40 127 -117 184t-208 57h-385v-45h79v-510h132q164 0 204 166l21 88h74v-598h-74l-21 88q-40 164 -204 164
h-132v-549zM602 1567h8l387 168q47 20 67 60t12 78t-42.5 66.5t-85.5 28.5q-48 0 -78 -26t-79 -97z" />
    <glyph glyph-name="Ecircumflex" unicode="&#xca;" horiz-adv-x="1439" 
d="M573 141h-79v-45h430q129 0 209.5 68.5t126.5 212.5l36 115h86l-65 -492h-1276v70l55 4q137 9 137 147v991q0 139 -137 148l-55 4v70h1264l28 -482h-84l-45 144q-40 127 -117 184t-208 57h-385v-45h79v-510h132q164 0 204 166l21 88h74v-598h-74l-21 88q-40 164 -204 164
h-132v-549zM395 1567h-8l275 348h225l274 -348h-8l-424 135l158 90h-96z" />
    <glyph glyph-name="Edieresis" unicode="&#xcb;" horiz-adv-x="1439" 
d="M573 141h-79v-45h430q129 0 209.5 68.5t126.5 212.5l36 115h86l-65 -492h-1276v70l55 4q137 9 137 147v991q0 139 -137 148l-55 4v70h1264l28 -482h-84l-45 144q-40 127 -117 184t-208 57h-385v-45h79v-510h132q164 0 204 166l21 88h74v-598h-74l-21 88q-40 164 -204 164
h-132v-549zM455 1634v257h272v-257h-272zM836 1634v257h272v-257h-272z" />
    <glyph glyph-name="Igrave" unicode="&#xcc;" horiz-adv-x="806" 
d="M573 221q0 -138 138 -147l55 -4v-70h-725v70l55 4q137 9 137 147v991q0 139 -137 148l-55 4v70h725v-70l-55 -4q-138 -9 -138 -148v-991zM575 1567h-8l-387 168q-47 20 -67 60t-12 78t42.5 66.5t85.5 28.5q48 0 78.5 -26t79.5 -97z" />
    <glyph glyph-name="Iacute" unicode="&#xcd;" horiz-adv-x="806" 
d="M573 221q0 -138 138 -147l55 -4v-70h-725v70l55 4q137 9 137 147v991q0 139 -137 148l-55 4v70h725v-70l-55 -4q-138 -9 -138 -148v-991zM231 1567h9l387 168q47 20 67 60t12 78t-42.5 66.5t-85.5 28.5q-48 0 -78.5 -26t-79.5 -97z" />
    <glyph glyph-name="Icircumflex" unicode="&#xce;" horiz-adv-x="806" 
d="M573 221q0 -138 138 -147l55 -4v-70h-725v70l55 4q137 9 137 147v991q0 139 -137 148l-55 4v70h725v-70l-55 -4q-138 -9 -138 -148v-991zM25 1567h-9l275 348h225l275 -348h-9l-424 135l158 90h-96z" />
    <glyph glyph-name="Idieresis" unicode="&#xcf;" horiz-adv-x="806" 
d="M573 221q0 -138 138 -147l55 -4v-70h-725v70l55 4q137 9 137 147v991q0 139 -137 148l-55 4v70h725v-70l-55 -4q-138 -9 -138 -148v-991zM84 1634v257h272v-257h-272zM465 1634v257h272v-257h-272z" />
    <glyph glyph-name="Eth" unicode="&#xd0;" horiz-adv-x="1628" 
d="M233 639h74v47h-266v92h192v434q0 139 -137 148l-55 4v70h711q232 0 419 -91t293.5 -253t106.5 -363q0 -152 -62 -287t-168.5 -231.5t-256 -152.5t-318.5 -56h-725v70l55 4q137 9 137 147v418zM573 143h-79v-47h235q221 0 350 157.5t129 426.5q0 141 -32.5 259.5t-96 208
t-165 139.5t-232.5 50h-188v-47h79v-512h193v-92h-193v-543z" />
    <glyph glyph-name="Ntilde" unicode="&#xd1;" horiz-adv-x="1634" 
d="M1411 1178v-1201h-29l-1024 1131v-852q0 -164 148 -182l47 -6v-68h-514v68l47 6q145 18 145 182v961l-233 217h520l717 -785v-92l49 -49v670q0 164 -147 182l-47 6v68h514v-68l-48 -6q-145 -18 -145 -182zM1251 1923h9q-53 -170 -111 -248t-143 -78q-45 0 -118 33.5
t-143.5 67t-109.5 33.5q-91 0 -170 -134h-8q53 172 111 250t143 78q49 0 123 -33.5t142.5 -66.5t104.5 -33q97 0 170 131z" />
    <glyph glyph-name="Ograve" unicode="&#xd2;" horiz-adv-x="1609" 
d="M801 -23q-205 0 -375 93.5t-269.5 262t-99.5 378.5t101 382t273 268.5t378 96.5q153 0 289.5 -54.5t236.5 -150t158.5 -232.5t58.5 -294q0 -210 -100.5 -382.5t-272.5 -270t-378 -97.5zM823 84q74 0 139 40t115.5 114.5t79.5 190t29 257.5q0 303 -109.5 484.5
t-294.5 181.5q-153 0 -256.5 -160.5t-103.5 -441.5q0 -303 108.5 -484.5t292.5 -181.5zM981 1567h-8l-387 168q-47 20 -67 60t-12 78t42.5 66.5t85.5 28.5q48 0 78.5 -26t79.5 -97z" />
    <glyph glyph-name="Oacute" unicode="&#xd3;" horiz-adv-x="1609" 
d="M801 -23q-205 0 -375 93.5t-269.5 262t-99.5 378.5t101 382t273 268.5t378 96.5q153 0 289.5 -54.5t236.5 -150t158.5 -232.5t58.5 -294q0 -210 -100.5 -382.5t-272.5 -270t-378 -97.5zM823 84q74 0 139 40t115.5 114.5t79.5 190t29 257.5q0 303 -109.5 484.5
t-294.5 181.5q-153 0 -256.5 -160.5t-103.5 -441.5q0 -303 108.5 -484.5t292.5 -181.5zM637 1567h8l387 168q47 20 67 60t12 78t-42.5 66.5t-85.5 28.5q-48 0 -78.5 -26t-79.5 -97z" />
    <glyph glyph-name="Ocircumflex" unicode="&#xd4;" horiz-adv-x="1609" 
d="M801 -23q-205 0 -375 93.5t-269.5 262t-99.5 378.5t101 382t273 268.5t378 96.5q153 0 289.5 -54.5t236.5 -150t158.5 -232.5t58.5 -294q0 -210 -100.5 -382.5t-272.5 -270t-378 -97.5zM823 84q74 0 139 40t115.5 114.5t79.5 190t29 257.5q0 303 -109.5 484.5
t-294.5 181.5q-153 0 -256.5 -160.5t-103.5 -441.5q0 -303 108.5 -484.5t292.5 -181.5zM430 1567h-8l274 348h226l274 -348h-8l-424 135l158 90h-97z" />
    <glyph glyph-name="Otilde" unicode="&#xd5;" horiz-adv-x="1609" 
d="M801 -23q-205 0 -375 93.5t-269.5 262t-99.5 378.5t101 382t273 268.5t378 96.5q153 0 289.5 -54.5t236.5 -150t158.5 -232.5t58.5 -294q0 -210 -100.5 -382.5t-272.5 -270t-378 -97.5zM823 84q74 0 139 40t115.5 114.5t79.5 190t29 257.5q0 303 -109.5 484.5
t-294.5 181.5q-153 0 -256.5 -160.5t-103.5 -441.5q0 -303 108.5 -484.5t292.5 -181.5zM1202 1923h8q-53 -170 -111 -248t-143 -78q-54 0 -189 67t-181 67q-91 0 -170 -134h-8q53 172 111 250t143 78q49 0 123 -33.5t142.5 -66.5t104.5 -33q97 0 170 131z" />
    <glyph glyph-name="Odieresis" unicode="&#xd6;" horiz-adv-x="1609" 
d="M801 -23q-205 0 -375 93.5t-269.5 262t-99.5 378.5t101 382t273 268.5t378 96.5q153 0 289.5 -54.5t236.5 -150t158.5 -232.5t58.5 -294q0 -210 -100.5 -382.5t-272.5 -270t-378 -97.5zM823 84q74 0 139 40t115.5 114.5t79.5 190t29 257.5q0 303 -109.5 484.5
t-294.5 181.5q-153 0 -256.5 -160.5t-103.5 -441.5q0 -303 108.5 -484.5t292.5 -181.5zM489 1634v257h273v-257h-273zM870 1634v257h273v-257h-273z" />
    <glyph glyph-name="multiply" unicode="&#xd7;" 
d="M174 352l291 291l-293 293l66 65l292 -292l293 292l66 -65l-293 -293l291 -291l-66 -65l-291 291l-290 -291z" />
    <glyph glyph-name="Oslash" unicode="&#xd8;" horiz-adv-x="1609" 
d="M809 1458q290 0 494 -176l155 154h152l-307 -303q8 -12 28 -52l84 80q137 -190 137 -434q0 -210 -100.5 -382.5t-272.5 -270t-378 -97.5q-289 0 -494 177l-155 -154h-152l307 303q-10 15 -28 51l-84 -80q-138 191 -138 437q0 210 101 382t273 268.5t378 96.5zM422 750
q0 -162 35 -299l655 643q-51 122 -134.5 190t-195.5 68q-153 0 -256.5 -160.5t-103.5 -441.5zM1184 686q0 162 -35 299l-655 -645q51 -121 134 -188.5t195 -67.5q153 0 257 160.5t104 441.5z" />
    <glyph glyph-name="Ugrave" unicode="&#xd9;" horiz-adv-x="1630" 
d="M1262 1178q0 164 -140 182l-47 6v68h514v-68l-47 -6q-137 -18 -137 -182v-598q0 -275 -163 -439t-437 -164q-263 0 -421.5 141.5t-158.5 409.5v684q0 139 -137 148l-55 4v70h723v-70l-56 -4q-137 -9 -137 -148v-694q0 -175 90 -274t244 -99q169 0 267 121.5t98 321.5v590
zM1075 1567h-8l-387 168q-47 20 -67 60t-12 78t42.5 66.5t85.5 28.5q48 0 78.5 -26t79.5 -97z" />
    <glyph glyph-name="Uacute" unicode="&#xda;" horiz-adv-x="1630" 
d="M1262 1178q0 164 -140 182l-47 6v68h514v-68l-47 -6q-137 -18 -137 -182v-598q0 -275 -163 -439t-437 -164q-263 0 -421.5 141.5t-158.5 409.5v684q0 139 -137 148l-55 4v70h723v-70l-56 -4q-137 -9 -137 -148v-694q0 -175 90 -274t244 -99q169 0 267 121.5t98 321.5v590
zM731 1567h8l387 168q47 20 67 60t12 78t-42.5 66.5t-85.5 28.5q-48 0 -78 -26t-79 -97z" />
    <glyph glyph-name="Ucircumflex" unicode="&#xdb;" horiz-adv-x="1630" 
d="M1262 1178q0 164 -140 182l-47 6v68h514v-68l-47 -6q-137 -18 -137 -182v-598q0 -275 -163 -439t-437 -164q-263 0 -421.5 141.5t-158.5 409.5v684q0 139 -137 148l-55 4v70h723v-70l-56 -4q-137 -9 -137 -148v-694q0 -175 90 -274t244 -99q169 0 267 121.5t98 321.5v590
zM524 1567h-8l275 348h225l274 -348h-8l-424 135l158 90h-96z" />
    <glyph glyph-name="Udieresis" unicode="&#xdc;" horiz-adv-x="1630" 
d="M1262 1178q0 164 -140 182l-47 6v68h514v-68l-47 -6q-137 -18 -137 -182v-598q0 -275 -163 -439t-437 -164q-263 0 -421.5 141.5t-158.5 409.5v684q0 139 -137 148l-55 4v70h723v-70l-56 -4q-137 -9 -137 -148v-694q0 -175 90 -274t244 -99q169 0 267 121.5t98 321.5v590
zM584 1634v257h272v-257h-272zM965 1634v257h272v-257h-272z" />
    <glyph glyph-name="Yacute" unicode="&#xdd;" horiz-adv-x="1523" 
d="M825 631l355 538q52 82 31.5 133t-103.5 60l-35 4v68h426v-64q-89 -23 -174 -151l-391 -592v-404q0 -139 147 -151l45 -4v-68h-725v68l45 4q148 12 148 151v385l-418 639q-67 105 -151 123v64h622v-68l-55 -8q-59 -9 -69 -52.5t32 -109.5l287 -446l-49 -74zM653 1567h9
l387 168q63 27 77.5 84t-22.5 103t-105 46q-48 0 -78 -26t-79 -97z" />
    <glyph glyph-name="Thorn" unicode="&#xde;" horiz-adv-x="1460" 
d="M573 1212v-59h295q236 0 376 -105t140 -278q0 -186 -142 -303t-372 -117h-360v-45h63v-84q0 -138 138 -147l55 -4v-70h-725v70l55 4q137 9 137 147v991q0 139 -137 148l-55 4v70h725v-70l-55 -4q-138 -9 -138 -148zM573 434h154q145 0 228 89t83 239q0 140 -80 217.5
t-231 77.5h-217v-45h63v-578z" />
    <glyph glyph-name="germandbls" unicode="&#xdf;" horiz-adv-x="1327" 
d="M827 903q-43 -23 -43 -47q0 -18 37 -41l232 -145q122 -76 176.5 -157t54.5 -175q0 -144 -112.5 -249t-290.5 -105q-156 0 -252.5 74.5t-96.5 203.5q0 72 40.5 116t105.5 44q75 0 109.5 -54t17.5 -147h-70q16 -149 148 -149q75 0 120.5 49.5t45.5 132.5q0 60 -35.5 109.5
t-122.5 105.5l-141 90q-83 52 -117.5 95.5t-34.5 93.5q0 45 24.5 86t96.5 116q43 44 58.5 97.5t15.5 126.5q0 104 -46.5 166.5t-123.5 62.5q-82 0 -122 -57t-40 -177v-1169h-449v53l43 4q119 12 119 138v686h70v49h-230v82h160v12q0 209 123.5 327.5t339.5 118.5
q194 0 312 -75.5t118 -196.5q0 -83 -55 -152t-185 -143z" />
    <glyph glyph-name="agrave" unicode="&#xe0;" horiz-adv-x="1118" 
d="M662 113l71 92v71l-61 -81q-81 -107 -166.5 -162.5t-194.5 -55.5q-128 0 -198 62.5t-70 177.5q0 57 22 100t69 74.5t94.5 52t123.5 45.5l303 101v131q0 91 -46.5 145t-139.5 54q-87 0 -131.5 -35t-44.5 -86h49q13 -92 -23 -142.5t-102 -50.5q-59 0 -96 39.5t-37 97.5
q0 121 125 204t313 83q211 0 314.5 -92t103.5 -266v-465q0 -39 21.5 -61.5t56.5 -22.5q47 0 80 31l6 -4q-35 -82 -105.5 -125t-146.5 -43q-169 0 -190 131zM315 276q0 -65 36.5 -101t103.5 -36q58 0 110.5 30.5t89.5 86.5v258l-178 -61q-86 -29 -124 -71t-38 -106zM670 1143
h-8l-388 168q-63 27 -77.5 84t22.5 103t105 46q48 0 78 -26t79 -97z" />
    <glyph glyph-name="aacute" unicode="&#xe1;" horiz-adv-x="1118" 
d="M662 113l71 92v71l-61 -81q-81 -107 -166.5 -162.5t-194.5 -55.5q-128 0 -198 62.5t-70 177.5q0 57 22 100t69 74.5t94.5 52t123.5 45.5l303 101v131q0 91 -46.5 145t-139.5 54q-87 0 -131.5 -35t-44.5 -86h49q13 -92 -23 -142.5t-102 -50.5q-59 0 -96 39.5t-37 97.5
q0 121 125 204t313 83q211 0 314.5 -92t103.5 -266v-465q0 -39 21.5 -61.5t56.5 -22.5q47 0 80 31l6 -4q-35 -82 -105.5 -125t-146.5 -43q-169 0 -190 131zM315 276q0 -65 36.5 -101t103.5 -36q58 0 110.5 30.5t89.5 86.5v258l-178 -61q-86 -29 -124 -71t-38 -106zM326 1143
h8l387 168q47 20 67 60t12 78t-42.5 66.5t-85.5 28.5q-48 0 -78.5 -26t-79.5 -97z" />
    <glyph glyph-name="acircumflex" unicode="&#xe2;" horiz-adv-x="1118" 
d="M662 113l71 92v71l-61 -81q-81 -107 -166.5 -162.5t-194.5 -55.5q-128 0 -198 62.5t-70 177.5q0 57 22 100t69 74.5t94.5 52t123.5 45.5l303 101v131q0 91 -46.5 145t-139.5 54q-87 0 -131.5 -35t-44.5 -86h49q13 -92 -23 -142.5t-102 -50.5q-59 0 -96 39.5t-37 97.5
q0 121 125 204t313 83q211 0 314.5 -92t103.5 -266v-465q0 -39 21.5 -61.5t56.5 -22.5q47 0 80 31l6 -4q-35 -82 -105.5 -125t-146.5 -43q-169 0 -190 131zM315 276q0 -65 36.5 -101t103.5 -36q58 0 110.5 30.5t89.5 86.5v258l-178 -61q-86 -29 -124 -71t-38 -106zM119 1143
h-8l274 348h225l275 -348h-8l-424 135l157 90h-96z" />
    <glyph glyph-name="atilde" unicode="&#xe3;" horiz-adv-x="1118" 
d="M662 113l71 92v71l-61 -81q-81 -107 -166.5 -162.5t-194.5 -55.5q-128 0 -198 62.5t-70 177.5q0 57 22 100t69 74.5t94.5 52t123.5 45.5l303 101v131q0 91 -46.5 145t-139.5 54q-87 0 -131.5 -35t-44.5 -86h49q13 -92 -23 -142.5t-102 -50.5q-59 0 -96 39.5t-37 97.5
q0 121 125 204t313 83q211 0 314.5 -92t103.5 -266v-465q0 -39 21.5 -61.5t56.5 -22.5q47 0 80 31l6 -4q-35 -82 -105.5 -125t-146.5 -43q-169 0 -190 131zM315 276q0 -65 36.5 -101t103.5 -36q58 0 110.5 30.5t89.5 86.5v258l-178 -61q-86 -29 -124 -71t-38 -106zM891 1499
h8q-53 -170 -111 -247.5t-143 -77.5q-55 0 -190 66.5t-181 66.5q-91 0 -170 -133h-8q53 171 111 249t143 78q49 0 123 -33.5t143 -66.5t105 -33q97 0 170 131z" />
    <glyph glyph-name="adieresis" unicode="&#xe4;" horiz-adv-x="1118" 
d="M662 113l71 92v71l-61 -81q-81 -107 -166.5 -162.5t-194.5 -55.5q-128 0 -198 62.5t-70 177.5q0 57 22 100t69 74.5t94.5 52t123.5 45.5l303 101v131q0 91 -46.5 145t-139.5 54q-87 0 -131.5 -35t-44.5 -86h49q13 -92 -23 -142.5t-102 -50.5q-59 0 -96 39.5t-37 97.5
q0 121 125 204t313 83q211 0 314.5 -92t103.5 -266v-465q0 -39 21.5 -61.5t56.5 -22.5q47 0 80 31l6 -4q-35 -82 -105.5 -125t-146.5 -43q-169 0 -190 131zM315 276q0 -65 36.5 -101t103.5 -36q58 0 110.5 30.5t89.5 86.5v258l-178 -61q-86 -29 -124 -71t-38 -106zM178 1210
v257h273v-257h-273zM559 1210v257h272v-257h-272z" />
    <glyph glyph-name="aring" unicode="&#xe5;" horiz-adv-x="1118" 
d="M662 113l71 92v71l-61 -81q-81 -107 -166.5 -162.5t-194.5 -55.5q-128 0 -198 62.5t-70 177.5q0 57 22 100t69 74.5t94.5 52t123.5 45.5l303 101v131q0 91 -46.5 145t-139.5 54q-87 0 -131.5 -35t-44.5 -86h49q13 -92 -23 -142.5t-102 -50.5q-59 0 -96 39.5t-37 97.5
q0 121 125 204t313 83q211 0 314.5 -92t103.5 -266v-465q0 -39 21.5 -61.5t56.5 -22.5q47 0 80 31l6 -4q-35 -82 -105.5 -125t-146.5 -43q-169 0 -190 131zM315 276q0 -65 36.5 -101t103.5 -36q58 0 110.5 30.5t89.5 86.5v258l-178 -61q-86 -29 -124 -71t-38 -106zM498 1556
q96 0 160.5 -58.5t64.5 -151.5q0 -87 -64.5 -146t-160.5 -59t-161 59t-65 146q0 93 64.5 151.5t161.5 58.5zM498 1229q51 0 80.5 33t29.5 84q0 56 -29 88t-81 32t-81.5 -32t-29.5 -88q0 -51 30 -84t81 -33z" />
    <glyph glyph-name="ae" unicode="&#xe6;" horiz-adv-x="1638" 
d="M1587 551h-731v-43h82q11 -167 98 -265t240 -98q183 0 268 156l17 -8q-52 -146 -166.5 -232t-251.5 -86q-139 0 -251.5 68t-174.5 186l-25 -34q-81 -107 -173 -162.5t-208 -55.5q-128 0 -198 62.5t-70 177.5q0 57 22 100t69 74.5t94.5 52t123.5 45.5l303 101v131
q0 91 -46.5 145t-139.5 54q-87 0 -131.5 -35t-44.5 -86h49q13 -92 -23 -142.5t-102 -50.5q-59 0 -96 39.5t-37 97.5q0 121 125 204t313 83q223 0 318 -112q130 114 311 114q199 0 320.5 -136t115.5 -345zM1143 930q-90 0 -142 -82t-63 -217h403q0 129 -54.5 214t-143.5 85z
M315 276q0 -65 36.5 -101t103.5 -36q61 0 117 36t116 122q-33 97 -33 197v20l-178 -61q-86 -29 -124 -71t-38 -106z" />
    <glyph glyph-name="ccedilla" unicode="&#xe7;" horiz-adv-x="1007" 
d="M367 -416v8q103 -6 157 16t54 64q0 40 -52 62l-174 73l131 170q-186 20 -307 160t-121 342q0 147 65 272.5t191.5 204t288.5 78.5q152 0 263.5 -77.5t111.5 -202.5q0 -58 -37 -98t-94 -40q-74 0 -110 54.5t-17 138.5h51q-5 57 -44.5 92t-117.5 35q-112 0 -179 -103
t-67 -290q0 -182 79 -290t229 -108q168 0 260 144l14 -6q-47 -132 -149 -214.5t-228 -91.5l-80 -110l43 -21l43 64l66 -27q121 -50 121 -141q0 -82 -71 -136.5t-179 -54.5q-87 0 -141 33z" />
    <glyph glyph-name="egrave" unicode="&#xe8;" 
d="M1010 551h-731v-43h81q11 -167 98 -265t240 -98q83 0 153.5 37.5t115.5 118.5l16 -8q-52 -146 -166.5 -232t-251.5 -86q-221 0 -365.5 147.5t-144.5 371.5q0 143 64.5 266t184.5 197.5t269 74.5q199 0 321 -136t116 -345zM565 930q-90 0 -142 -82t-63 -217h404
q0 128 -55 213.5t-144 85.5zM735 1143h-8l-387 168q-47 20 -67 60t-12 78t42.5 66.5t85.5 28.5q48 0 78.5 -26t79.5 -97z" />
    <glyph glyph-name="eacute" unicode="&#xe9;" 
d="M1010 551h-731v-43h81q11 -167 98 -265t240 -98q83 0 153.5 37.5t115.5 118.5l16 -8q-52 -146 -166.5 -232t-251.5 -86q-221 0 -365.5 147.5t-144.5 371.5q0 143 64.5 266t184.5 197.5t269 74.5q199 0 321 -136t116 -345zM565 930q-90 0 -142 -82t-63 -217h404
q0 128 -55 213.5t-144 85.5zM391 1143h8l387 168q47 20 67 60t12 78t-42.5 66.5t-85.5 28.5q-48 0 -78 -26t-79 -97z" />
    <glyph glyph-name="ecircumflex" unicode="&#xea;" 
d="M1010 551h-731v-43h81q11 -167 98 -265t240 -98q83 0 153.5 37.5t115.5 118.5l16 -8q-52 -146 -166.5 -232t-251.5 -86q-221 0 -365.5 147.5t-144.5 371.5q0 143 64.5 266t184.5 197.5t269 74.5q199 0 321 -136t116 -345zM565 930q-90 0 -142 -82t-63 -217h404
q0 128 -55 213.5t-144 85.5zM184 1143h-8l275 348h225l274 -348h-8l-424 135l158 90h-96z" />
    <glyph glyph-name="edieresis" unicode="&#xeb;" 
d="M1010 551h-731v-43h81q11 -167 98 -265t240 -98q83 0 153.5 37.5t115.5 118.5l16 -8q-52 -146 -166.5 -232t-251.5 -86q-221 0 -365.5 147.5t-144.5 371.5q0 143 64.5 266t184.5 197.5t269 74.5q199 0 321 -136t116 -345zM565 930q-90 0 -142 -82t-63 -217h404
q0 128 -55 213.5t-144 85.5zM244 1210v257h272v-257h-272zM625 1210v257h272v-257h-272z" />
    <glyph glyph-name="igrave" unicode="&#xec;" horiz-adv-x="665" 
d="M20 915l459 121v-841q0 -118 103 -127l45 -5v-63h-582v63l47 5q101 10 101 127v553q0 50 -18 75.5t-79 55.5zM508 1143h-8l-387 168q-47 20 -67 60t-12 78t42.5 66.5t85.5 28.5q48 0 78 -26t79 -97z" />
    <glyph glyph-name="iacute" unicode="&#xed;" horiz-adv-x="665" 
d="M20 915l459 121v-841q0 -118 103 -127l45 -5v-63h-582v63l47 5q101 10 101 127v553q0 50 -18 75.5t-79 55.5zM164 1143h8l387 168q47 20 67 60t12 78t-42.5 66.5t-85.5 28.5q-48 0 -78.5 -26t-79.5 -97z" />
    <glyph glyph-name="icircumflex" unicode="&#xee;" horiz-adv-x="665" 
d="M20 915l459 121v-841q0 -118 103 -127l45 -5v-63h-582v63l47 5q101 10 101 127v553q0 50 -18 75.5t-79 55.5zM-43 1143h-8l274 348h226l274 -348h-8l-424 135l158 90h-97z" />
    <glyph glyph-name="idieresis" unicode="&#xef;" horiz-adv-x="665" 
d="M20 915l459 121v-841q0 -118 103 -127l45 -5v-63h-582v63l47 5q101 10 101 127v553q0 50 -18 75.5t-79 55.5zM16 1210v257h273v-257h-273zM397 1210v257h273v-257h-273z" />
    <glyph glyph-name="eth" unicode="&#xf0;" horiz-adv-x="1144" 
d="M287 1036l-35 78l307 119q-126 132 -297 190l10 35q211 -58 396 -184l290 112l35 -77zM1090 567q0 -263 -143.5 -426.5t-373.5 -163.5q-146 0 -265 69t-186 190.5t-67 271.5q0 137 67 254.5t179 184.5t240 67q112 0 186 -56q-41 103 -86 170l141 56q144 -129 226 -289.5
t82 -327.5zM805 477q0 172 -33 330q-72 121 -184 121q-110 0 -169 -100t-59 -285q0 -223 61 -344t167 -121q100 0 158.5 107t58.5 292z" />
    <glyph glyph-name="ntilde" unicode="&#xf1;" horiz-adv-x="1308" 
d="M193 748q0 50 -18 75.5t-79 55.5l-76 36l459 121v-137l-73 -92v-66l30 35q99 123 190.5 190.5t200.5 67.5q141 0 222 -80.5t81 -224.5v-534q0 -57 27.5 -89.5t75.5 -37.5l47 -5v-63h-567v63l45 5q86 9 86 127v495q0 85 -43.5 131.5t-120.5 46.5q-114 0 -201 -125v-548
q0 -118 86 -127l45 -5v-63h-565v63l47 5q101 10 101 127v553zM1059 1499h8q-53 -170 -111 -247.5t-143 -77.5q-55 0 -190 66.5t-181 66.5q-91 0 -170 -133h-8q53 171 111 249t143 78q49 0 123 -33.5t143 -66.5t105 -33q97 0 170 131z" />
    <glyph glyph-name="ograve" unicode="&#xf2;" horiz-adv-x="1150" 
d="M575 1034q223 0 372 -149t149 -373q0 -148 -69 -271.5t-189 -194.5t-263 -71q-223 0 -371.5 150.5t-148.5 374.5q0 149 68.5 271.5t188 192.5t263.5 70zM559 934q-91 0 -145 -104t-54 -287q0 -218 60.5 -341.5t167.5 -123.5q91 0 147 104t56 287q0 218 -61.5 341.5
t-170.5 123.5zM750 1143h-9l-387 168q-47 20 -67 60t-12 78t42.5 66.5t85.5 28.5q48 0 78.5 -26t79.5 -97z" />
    <glyph glyph-name="oacute" unicode="&#xf3;" horiz-adv-x="1150" 
d="M575 1034q223 0 372 -149t149 -373q0 -148 -69 -271.5t-189 -194.5t-263 -71q-223 0 -371.5 150.5t-148.5 374.5q0 149 68.5 271.5t188 192.5t263.5 70zM559 934q-91 0 -145 -104t-54 -287q0 -218 60.5 -341.5t167.5 -123.5q91 0 147 104t56 287q0 218 -61.5 341.5
t-170.5 123.5zM406 1143h8l387 168q47 20 67 60t12 78t-42.5 66.5t-85.5 28.5q-48 0 -78.5 -26t-79.5 -97z" />
    <glyph glyph-name="ocircumflex" unicode="&#xf4;" horiz-adv-x="1150" 
d="M575 1034q223 0 372 -149t149 -373q0 -148 -69 -271.5t-189 -194.5t-263 -71q-223 0 -371.5 150.5t-148.5 374.5q0 149 68.5 271.5t188 192.5t263.5 70zM559 934q-91 0 -145 -104t-54 -287q0 -218 60.5 -341.5t167.5 -123.5q91 0 147 104t56 287q0 218 -61.5 341.5
t-170.5 123.5zM199 1143h-9l275 348h225l275 -348h-9l-424 135l158 90h-96z" />
    <glyph glyph-name="otilde" unicode="&#xf5;" horiz-adv-x="1150" 
d="M575 1034q223 0 372 -149t149 -373q0 -148 -69 -271.5t-189 -194.5t-263 -71q-223 0 -371.5 150.5t-148.5 374.5q0 149 68.5 271.5t188 192.5t263.5 70zM559 934q-91 0 -145 -104t-54 -287q0 -218 60.5 -341.5t167.5 -123.5q91 0 147 104t56 287q0 218 -61.5 341.5
t-170.5 123.5zM971 1499h8q-53 -170 -111 -247.5t-143 -77.5q-55 0 -190 66.5t-181 66.5q-91 0 -170 -133h-8q53 171 111 249t143 78q49 0 123 -33.5t143 -66.5t105 -33q97 0 170 131z" />
    <glyph glyph-name="odieresis" unicode="&#xf6;" horiz-adv-x="1150" 
d="M575 1034q223 0 372 -149t149 -373q0 -148 -69 -271.5t-189 -194.5t-263 -71q-223 0 -371.5 150.5t-148.5 374.5q0 149 68.5 271.5t188 192.5t263.5 70zM559 934q-91 0 -145 -104t-54 -287q0 -218 60.5 -341.5t167.5 -123.5q91 0 147 104t56 287q0 218 -61.5 341.5
t-170.5 123.5zM258 1210v257h272v-257h-272zM639 1210v257h272v-257h-272z" />
    <glyph glyph-name="oslash" unicode="&#xf8;" horiz-adv-x="1150" 
d="M575 1034q206 0 353 -131l108 107h115l-248 -240q13 -24 23 -49l88 80q82 -129 82 -289q0 -148 -69 -271.5t-189 -194.5t-263 -71q-205 0 -352 131l-108 -106h-115l248 240q-13 24 -23 49l-88 -80q-82 129 -82 291q0 149 68.5 271.5t188 192.5t263.5 70zM360 543
q0 -98 13 -181l383 373q-30 103 -83 151t-114 48q-91 0 -145 -104t-54 -287zM786 469q0 101 -12 174l-381 -373q30 -100 82 -146t113 -46q90 0 144 103.5t54 287.5z" />
    <glyph glyph-name="ugrave" unicode="&#xf9;" horiz-adv-x="1292" 
d="M467 1036v-714q0 -86 40 -136.5t120 -50.5q60 0 113.5 33.5t90.5 93.5v486q0 53 -20.5 79t-87.5 58l-64 30l459 121v-813q0 -50 18.5 -75.5t80.5 -55.5l73 -37l-459 -75v122l74 95v65l-41 -53q-28 -36 -53 -64.5t-63 -61.5t-75.5 -55t-87.5 -36.5t-102 -14.5
q-141 0 -222 82.5t-81 223.5v465q0 53 -20.5 79t-87.5 58l-64 30zM838 1143h-9l-387 168q-63 27 -77.5 84t22.5 103t105 46q48 0 78 -26t79 -97z" />
    <glyph glyph-name="uacute" unicode="&#xfa;" horiz-adv-x="1292" 
d="M467 1036v-714q0 -86 40 -136.5t120 -50.5q60 0 113.5 33.5t90.5 93.5v486q0 53 -20.5 79t-87.5 58l-64 30l459 121v-813q0 -50 18.5 -75.5t80.5 -55.5l73 -37l-459 -75v122l74 95v65l-41 -53q-28 -36 -53 -64.5t-63 -61.5t-75.5 -55t-87.5 -36.5t-102 -14.5
q-141 0 -222 82.5t-81 223.5v465q0 53 -20.5 79t-87.5 58l-64 30zM494 1143h8l387 168q47 20 67 60t12 78t-42.5 66.5t-85.5 28.5q-48 0 -78.5 -26t-79.5 -97z" />
    <glyph glyph-name="ucircumflex" unicode="&#xfb;" horiz-adv-x="1292" 
d="M467 1036v-714q0 -86 40 -136.5t120 -50.5q60 0 113.5 33.5t90.5 93.5v486q0 53 -20.5 79t-87.5 58l-64 30l459 121v-813q0 -50 18.5 -75.5t80.5 -55.5l73 -37l-459 -75v122l74 95v65l-41 -53q-28 -36 -53 -64.5t-63 -61.5t-75.5 -55t-87.5 -36.5t-102 -14.5
q-141 0 -222 82.5t-81 223.5v465q0 53 -20.5 79t-87.5 58l-64 30zM287 1143h-8l274 348h225l275 -348h-9l-423 135l157 90h-96z" />
    <glyph glyph-name="udieresis" unicode="&#xfc;" horiz-adv-x="1292" 
d="M467 1036v-714q0 -86 40 -136.5t120 -50.5q60 0 113.5 33.5t90.5 93.5v486q0 53 -20.5 79t-87.5 58l-64 30l459 121v-813q0 -50 18.5 -75.5t80.5 -55.5l73 -37l-459 -75v122l74 95v65l-41 -53q-28 -36 -53 -64.5t-63 -61.5t-75.5 -55t-87.5 -36.5t-102 -14.5
q-141 0 -222 82.5t-81 223.5v465q0 53 -20.5 79t-87.5 58l-64 30zM346 1210v257h272v-257h-272zM727 1210v257h272v-257h-272z" />
    <glyph glyph-name="yacute" unicode="&#xfd;" horiz-adv-x="1251" 
d="M406 -223l147 274l-385 756q-33 65 -67 96.5t-91 44.5v62h621v-64l-31 -4q-59 -8 -79.5 -42t5.5 -91l181 -365l-43 -77l32 -52l234 437q42 80 21 129.5t-97 60.5l-31 4v64h418v-62q-50 -13 -89 -51t-75 -106l-553 -1035q-29 -55 -59.5 -94.5t-71.5 -73.5t-95 -51.5
t-120 -17.5q-87 0 -146 45.5t-59 120.5q0 52 38.5 91.5t92.5 39.5q63 0 94.5 -46t18.5 -118h-45v-33q86 -4 136 30.5t98 127.5zM522 1143h8l388 168q63 27 77.5 84t-22.5 103t-105 46q-48 0 -78 -26t-79 -97z" />
    <glyph glyph-name="thorn" unicode="&#xfe;" horiz-adv-x="1212" 
d="M575 -408v-63h-571v63l43 5q94 9 94 127v1456q0 51 -18 76t-78 55l-76 37l459 137v-572l-74 -92v-65l49 61q93 114 175 165.5t186 51.5q74 0 143.5 -31t125.5 -88t90 -148t34 -202q0 -137 -48.5 -249.5t-131.5 -184t-190 -110.5t-226 -39q-75 0 -133 12v-270
q0 -118 104 -127zM623 877q-61 0 -111 -37.5t-84 -96.5v-614q74 -53 166 -53q121 0 198.5 117t77.5 309q0 163 -69.5 269t-177.5 106z" />
    <glyph glyph-name="ydieresis" unicode="&#xff;" horiz-adv-x="1251" 
d="M406 -223l147 274l-385 756q-33 65 -67 96.5t-91 44.5v62h621v-64l-31 -4q-59 -8 -79.5 -42t5.5 -91l181 -365l-43 -77l32 -52l234 437q42 80 21 129.5t-97 60.5l-31 4v64h418v-62q-50 -13 -89 -51t-75 -106l-553 -1035q-29 -55 -59.5 -94.5t-71.5 -73.5t-95 -51.5
t-120 -17.5q-87 0 -146 45.5t-59 120.5q0 52 38.5 91.5t92.5 39.5q63 0 94.5 -46t18.5 -118h-45v-33q86 -4 136 30.5t98 127.5zM375 1210v257h272v-257h-272zM756 1210v257h272v-257h-272z" />
    <glyph glyph-name="Amacron" unicode="&#x100;" horiz-adv-x="1564" 
d="M938 387h88l-22 47h-596l-68 -155q-84 -188 72 -207l34 -4v-68h-436v63q56 15 105.5 58t81.5 115l555 1243h75l555 -1260q32 -71 69.5 -106.5t102.5 -49.5v-63h-659v68l35 4q60 6 82.5 42.5t-2.5 102.5zM449 526h434l-211 506zM436 1847h688v-174h-688v174z" />
    <glyph glyph-name="amacron" unicode="&#x101;" horiz-adv-x="1118" 
d="M662 113l71 92v71l-61 -81q-81 -107 -166.5 -162.5t-194.5 -55.5q-128 0 -198 62.5t-70 177.5q0 57 22 100t69 74.5t94.5 52t123.5 45.5l303 101v131q0 91 -46.5 145t-139.5 54q-87 0 -131.5 -35t-44.5 -86h49q13 -92 -23 -142.5t-102 -50.5q-59 0 -96 39.5t-37 97.5
q0 121 125 204t313 83q211 0 314.5 -92t103.5 -266v-465q0 -39 21.5 -61.5t56.5 -22.5q47 0 80 31l6 -4q-35 -82 -105.5 -125t-146.5 -43q-169 0 -190 131zM315 276q0 -65 36.5 -101t103.5 -36q58 0 110.5 30.5t89.5 86.5v258l-178 -61q-86 -29 -124 -71t-38 -106zM154 1423
h688v-174h-688v174z" />
    <glyph glyph-name="Abreve" unicode="&#x102;" horiz-adv-x="1564" 
d="M938 387h88l-22 47h-596l-68 -155q-84 -188 72 -207l34 -4v-68h-436v63q56 15 105.5 58t81.5 115l555 1243h75l555 -1260q32 -71 69.5 -106.5t102.5 -49.5v-63h-659v68l35 4q60 6 82.5 42.5t-2.5 102.5zM449 526h434l-211 506zM471 1935q28 -73 109 -121.5t200 -48.5
t200.5 48.5t109.5 121.5h8q7 -166 -85.5 -267t-232.5 -101t-232 100.5t-85 267.5h8z" />
    <glyph glyph-name="abreve" unicode="&#x103;" horiz-adv-x="1118" 
d="M662 113l71 92v71l-61 -81q-81 -107 -166.5 -162.5t-194.5 -55.5q-128 0 -198 62.5t-70 177.5q0 57 22 100t69 74.5t94.5 52t123.5 45.5l303 101v131q0 91 -46.5 145t-139.5 54q-87 0 -131.5 -35t-44.5 -86h49q13 -92 -23 -142.5t-102 -50.5q-59 0 -96 39.5t-37 97.5
q0 121 125 204t313 83q211 0 314.5 -92t103.5 -266v-465q0 -39 21.5 -61.5t56.5 -22.5q47 0 80 31l6 -4q-35 -82 -105.5 -125t-146.5 -43q-169 0 -190 131zM315 276q0 -65 36.5 -101t103.5 -36q58 0 110.5 30.5t89.5 86.5v258l-178 -61q-86 -29 -124 -71t-38 -106zM188 1511
q28 -73 109.5 -121.5t200.5 -48.5t200 48.5t109 121.5h8q7 -167 -85 -267.5t-232 -100.5t-232.5 101t-85.5 267h8z" />
    <glyph glyph-name="Aogonek" unicode="&#x104;" horiz-adv-x="1564" 
d="M938 387h88l-22 47h-596l-68 -155q-84 -188 72 -207l34 -4v-68h-436v63q56 15 105.5 58t81.5 115l555 1243h75l555 -1260q32 -71 69.5 -106.5t102.5 -49.5v-63l-30 -16q-183 -99 -183 -205q0 -48 31 -75.5t80 -27.5q62 0 117 37l6 -6q-23 -68 -82 -110.5t-143 -42.5
q-77 0 -123.5 44t-46.5 107q0 77 68.5 153.5t219.5 141.5h-573v68l35 4q60 6 82.5 42.5t-2.5 102.5zM449 526h434l-211 506z" />
    <glyph glyph-name="aogonek" unicode="&#x105;" horiz-adv-x="1118" 
d="M662 113l71 92v71l-61 -81q-81 -107 -166.5 -162.5t-194.5 -55.5q-128 0 -198 62.5t-70 177.5q0 57 22 100t69 74.5t94.5 52t123.5 45.5l303 101v131q0 91 -46.5 145t-139.5 54q-87 0 -131.5 -35t-44.5 -86h49q13 -92 -23 -142.5t-102 -50.5q-59 0 -96 39.5t-37 97.5
q0 121 125 204t313 83q211 0 314.5 -92t103.5 -266v-465q0 -39 21.5 -61.5t56.5 -22.5q47 0 80 31l6 -4q-46 -106 -154 -150l-16 -8q-182 -98 -182 -205q0 -48 30.5 -75t79.5 -27q64 0 117 36l6 -6q-23 -68 -82 -110.5t-143 -42.5q-77 0 -123.5 44t-46.5 107q0 151 235 269
q-145 12 -163 131zM315 276q0 -65 36.5 -101t103.5 -36q58 0 110.5 30.5t89.5 86.5v258l-178 -61q-86 -29 -124 -71t-38 -106z" />
    <glyph glyph-name="Cacute" unicode="&#x106;" horiz-adv-x="1370" 
d="M739 1454q148 0 261 -65.5t184 -169.5v79q-5 8 -38.5 40t-43.5 40l192 80v-516h-82l-45 88q-67 143 -155.5 217t-216.5 74q-168 0 -271.5 -154t-103.5 -403q0 -172 49.5 -307.5t152 -218t244.5 -82.5q280 0 426 243l23 -10q-74 -193 -223 -301t-351 -108q-193 0 -350 95
t-245.5 259.5t-88.5 365.5q0 206 90.5 379.5t247.5 274t344 100.5zM606 1567h8l387 168q47 20 67 60t12 78t-42.5 66.5t-85.5 28.5q-48 0 -78 -26t-79 -97z" />
    <glyph glyph-name="cacute" unicode="&#x107;" horiz-adv-x="1007" 
d="M942 283q-51 -141 -162 -224.5t-245 -83.5q-204 0 -342 143.5t-138 360.5q0 147 65 272.5t191.5 204t288.5 78.5q152 0 263.5 -77.5t111.5 -202.5q0 -58 -37 -98t-94 -40q-74 0 -110 54.5t-17 138.5h51q-5 57 -44.5 92t-117.5 35q-112 0 -179 -103t-67 -290
q0 -182 79 -290t229 -108q168 0 260 144zM422 1143h8l387 168q47 20 67 60t12 78t-42.5 66.5t-85.5 28.5q-48 0 -78.5 -26t-79.5 -97z" />
    <glyph glyph-name="Ccircumflex" unicode="&#x108;" horiz-adv-x="1370" 
d="M739 1454q148 0 261 -65.5t184 -169.5v79q-5 8 -38.5 40t-43.5 40l192 80v-516h-82l-45 88q-67 143 -155.5 217t-216.5 74q-168 0 -271.5 -154t-103.5 -403q0 -172 49.5 -307.5t152 -218t244.5 -82.5q280 0 426 243l23 -10q-74 -193 -223 -301t-351 -108q-193 0 -350 95
t-245.5 259.5t-88.5 365.5q0 206 90.5 379.5t247.5 274t344 100.5zM399 1567h-8l275 348h225l274 -348h-8l-424 135l158 90h-96z" />
    <glyph glyph-name="ccircumflex" unicode="&#x109;" horiz-adv-x="1007" 
d="M942 283q-51 -141 -162 -224.5t-245 -83.5q-204 0 -342 143.5t-138 360.5q0 147 65 272.5t191.5 204t288.5 78.5q152 0 263.5 -77.5t111.5 -202.5q0 -58 -37 -98t-94 -40q-74 0 -110 54.5t-17 138.5h51q-5 57 -44.5 92t-117.5 35q-112 0 -179 -103t-67 -290
q0 -182 79 -290t229 -108q168 0 260 144zM215 1143h-8l274 348h226l274 -348h-8l-424 135l158 90h-97z" />
    <glyph glyph-name="Cdotaccent" unicode="&#x10a;" horiz-adv-x="1370" 
d="M739 1454q148 0 261 -65.5t184 -169.5v79q-5 8 -38.5 40t-43.5 40l192 80v-516h-82l-45 88q-67 143 -155.5 217t-216.5 74q-168 0 -271.5 -154t-103.5 -403q0 -172 49.5 -307.5t152 -218t244.5 -82.5q280 0 426 243l23 -10q-74 -193 -223 -301t-351 -108q-193 0 -350 95
t-245.5 259.5t-88.5 365.5q0 206 90.5 379.5t247.5 274t344 100.5zM635 1620v270h287v-270h-287z" />
    <glyph glyph-name="cdotaccent" unicode="&#x10b;" horiz-adv-x="1007" 
d="M942 283q-51 -141 -162 -224.5t-245 -83.5q-204 0 -342 143.5t-138 360.5q0 147 65 272.5t191.5 204t288.5 78.5q152 0 263.5 -77.5t111.5 -202.5q0 -58 -37 -98t-94 -40q-74 0 -110 54.5t-17 138.5h51q-5 57 -44.5 92t-117.5 35q-112 0 -179 -103t-67 -290
q0 -182 79 -290t229 -108q168 0 260 144zM451 1196v270h286v-270h-286z" />
    <glyph glyph-name="Ccaron" unicode="&#x10c;" horiz-adv-x="1370" 
d="M739 1454q148 0 261 -65.5t184 -169.5v79q-5 8 -38.5 40t-43.5 40l192 80v-516h-82l-45 88q-67 143 -155.5 217t-216.5 74q-168 0 -271.5 -154t-103.5 -403q0 -172 49.5 -307.5t152 -218t244.5 -82.5q280 0 426 243l23 -10q-74 -193 -223 -301t-351 -108q-193 0 -350 95
t-245.5 259.5t-88.5 365.5q0 206 90.5 379.5t247.5 274t344 100.5zM1157 1972h8l-274 -348h-225l-275 348h8l424 -135l-157 -90h96z" />
    <glyph glyph-name="ccaron" unicode="&#x10d;" horiz-adv-x="1007" 
d="M942 283q-51 -141 -162 -224.5t-245 -83.5q-204 0 -342 143.5t-138 360.5q0 147 65 272.5t191.5 204t288.5 78.5q152 0 263.5 -77.5t111.5 -202.5q0 -58 -37 -98t-94 -40q-74 0 -110 54.5t-17 138.5h51q-5 57 -44.5 92t-117.5 35q-112 0 -179 -103t-67 -290
q0 -182 79 -290t229 -108q168 0 260 144zM973 1548h8l-274 -348h-226l-274 348h8l424 -135l-158 -90h97z" />
    <glyph glyph-name="Dcaron" unicode="&#x10e;" horiz-adv-x="1628" 
d="M41 0v70l55 4q137 9 137 147v991q0 139 -137 148l-55 4v70h711q232 0 419 -91t293.5 -253t106.5 -363q0 -152 -62 -287t-168.5 -231.5t-256 -152.5t-318.5 -56h-725zM573 143h-79v-47h235q221 0 350 157.5t129 426.5q0 141 -32.5 259.5t-96 208t-165 139.5t-232.5 50
h-188v-47h79v-1147zM1214 1972h9l-275 -348h-225l-274 348h8l424 -135l-158 -90h96z" />
    <glyph glyph-name="dcaron" unicode="&#x10f;" horiz-adv-x="1261" 
d="M473 -20q-181 0 -297.5 132.5t-116.5 344.5q0 252 168.5 413.5t427.5 161.5q71 0 133 -12v211q0 50 -20.5 75.5t-87.5 59.5l-64 31l459 108v-1284q0 -50 18.5 -75.5t80.5 -55.5l73 -37l-459 -76v123l74 95v69l-8 -8l-33 -43q-87 -117 -169 -175t-179 -58zM346 532
q0 -171 69.5 -282t176.5 -111q53 0 106 33t90 88v631q-73 51 -161 51q-125 0 -203 -113.5t-78 -296.5zM1466 1286q0 -86 -65.5 -161.5t-190.5 -100.5l-6 16q166 58 166 191v35h-37v-68q-20 -8 -49 -8q-52 0 -88.5 37.5t-36.5 89.5q0 57 43 97t107 40q70 0 113.5 -46
t43.5 -122z" />
    <glyph glyph-name="Dcroat" unicode="&#x110;" horiz-adv-x="1628" 
d="M233 639h74v47h-266v92h192v434q0 139 -137 148l-55 4v70h711q232 0 419 -91t293.5 -253t106.5 -363q0 -152 -62 -287t-168.5 -231.5t-256 -152.5t-318.5 -56h-725v70l55 4q137 9 137 147v418zM573 143h-79v-47h235q221 0 350 157.5t129 426.5q0 141 -32.5 259.5t-96 208
t-165 139.5t-232.5 50h-188v-47h79v-512h193v-92h-193v-543z" />
    <glyph glyph-name="dcroat" unicode="&#x111;" horiz-adv-x="1261" 
d="M858 1137h-340v82h270v12q0 50 -20.5 75.5t-87.5 59.5l-64 31l459 108v-286h170v-82h-170v-916q0 -50 18.5 -75.5t80.5 -55.5l73 -37l-459 -76v123l74 95v69l-8 -8l-33 -43q-87 -117 -169 -175t-179 -58q-181 0 -297.5 132.5t-116.5 344.5q0 252 168.5 413.5t427.5 161.5
q71 0 133 -12v74h70v43zM346 532q0 -171 69.5 -282t176.5 -111q53 0 106 33t90 88v631q-73 51 -161 51q-125 0 -203 -113.5t-78 -296.5z" />
    <glyph glyph-name="Emacron" unicode="&#x112;" horiz-adv-x="1439" 
d="M573 141h-79v-45h430q129 0 209.5 68.5t126.5 212.5l36 115h86l-65 -492h-1276v70l55 4q137 9 137 147v991q0 139 -137 148l-55 4v70h1264l28 -482h-84l-45 144q-40 127 -117 184t-208 57h-385v-45h79v-510h132q164 0 204 166l21 88h74v-598h-74l-21 88q-40 164 -204 164
h-132v-549zM430 1847h688v-174h-688v174z" />
    <glyph glyph-name="emacron" unicode="&#x113;" 
d="M1010 551h-731v-43h81q11 -167 98 -265t240 -98q83 0 153.5 37.5t115.5 118.5l16 -8q-52 -146 -166.5 -232t-251.5 -86q-221 0 -365.5 147.5t-144.5 371.5q0 143 64.5 266t184.5 197.5t269 74.5q199 0 321 -136t116 -345zM565 930q-90 0 -142 -82t-63 -217h404
q0 128 -55 213.5t-144 85.5zM219 1423h688v-174h-688v174z" />
    <glyph glyph-name="Ebreve" unicode="&#x114;" horiz-adv-x="1439" 
d="M573 141h-79v-45h430q129 0 209.5 68.5t126.5 212.5l36 115h86l-65 -492h-1276v70l55 4q137 9 137 147v991q0 139 -137 148l-55 4v70h1264l28 -482h-84l-45 144q-40 127 -117 184t-208 57h-385v-45h79v-510h132q164 0 204 166l21 88h74v-598h-74l-21 88q-40 164 -204 164
h-132v-549zM465 1935q28 -73 109 -121.5t200 -48.5t200 48.5t109 121.5h9q7 -166 -85.5 -267t-232.5 -101t-232 100.5t-85 267.5h8z" />
    <glyph glyph-name="ebreve" unicode="&#x115;" 
d="M1010 551h-731v-43h81q11 -167 98 -265t240 -98q83 0 153.5 37.5t115.5 118.5l16 -8q-52 -146 -166.5 -232t-251.5 -86q-221 0 -365.5 147.5t-144.5 371.5q0 143 64.5 266t184.5 197.5t269 74.5q199 0 321 -136t116 -345zM565 930q-90 0 -142 -82t-63 -217h404
q0 128 -55 213.5t-144 85.5zM254 1511q28 -73 109 -121.5t200 -48.5t200 48.5t109 121.5h9q7 -166 -85.5 -267t-232.5 -101t-232 100.5t-85 267.5h8z" />
    <glyph glyph-name="Edotaccent" unicode="&#x116;" horiz-adv-x="1439" 
d="M573 141h-79v-45h430q129 0 209.5 68.5t126.5 212.5l36 115h86l-65 -492h-1276v70l55 4q137 9 137 147v991q0 139 -137 148l-55 4v70h1264l28 -482h-84l-45 144q-40 127 -117 184t-208 57h-385v-45h79v-510h132q164 0 204 166l21 88h74v-598h-74l-21 88q-40 164 -204 164
h-132v-549zM631 1620v270h287v-270h-287z" />
    <glyph glyph-name="edotaccent" unicode="&#x117;" 
d="M1010 551h-731v-43h81q11 -167 98 -265t240 -98q83 0 153.5 37.5t115.5 118.5l16 -8q-52 -146 -166.5 -232t-251.5 -86q-221 0 -365.5 147.5t-144.5 371.5q0 143 64.5 266t184.5 197.5t269 74.5q199 0 321 -136t116 -345zM565 930q-90 0 -142 -82t-63 -217h404
q0 128 -55 213.5t-144 85.5zM420 1196v270h287v-270h-287z" />
    <glyph glyph-name="Eogonek" unicode="&#x118;" horiz-adv-x="1439" 
d="M573 141h-79v-45h430q129 0 209.5 68.5t126.5 212.5l36 115h86l-65 -492l-31 -16q-182 -98 -182 -205q0 -48 30.5 -75.5t79.5 -27.5q62 0 117 37l6 -6q-23 -68 -82 -110.5t-143 -42.5q-77 0 -123.5 44t-46.5 107q0 77 68.5 153.5t220.5 141.5h-1190v70l55 4
q137 9 137 147v991q0 139 -137 148l-55 4v70h1264l28 -482h-84l-45 144q-40 127 -117 184t-208 57h-385v-45h79v-510h132q164 0 204 166l21 88h74v-598h-74l-21 88q-40 164 -204 164h-132v-549z" />
    <glyph glyph-name="eogonek" unicode="&#x119;" 
d="M737 -279l6 -6q-23 -68 -82 -110.5t-143 -42.5q-77 0 -123.5 44t-46.5 107q0 145 221 262h-4q-221 0 -365.5 147.5t-144.5 371.5q0 143 64.5 266t184.5 197.5t269 74.5q199 0 321 -136t116 -345h-731v-43h81q11 -167 98 -265t240 -98q83 0 153.5 37.5t115.5 118.5l16 -8
q-36 -103 -106.5 -178t-159.5 -111l-25 -12q-182 -98 -182 -205q0 -48 31 -75t80 -27q63 0 116 36zM565 930q-90 0 -142 -82t-63 -217h404q0 128 -55 213.5t-144 85.5z" />
    <glyph glyph-name="Ecaron" unicode="&#x11a;" horiz-adv-x="1439" 
d="M573 141h-79v-45h430q129 0 209.5 68.5t126.5 212.5l36 115h86l-65 -492h-1276v70l55 4q137 9 137 147v991q0 139 -137 148l-55 4v70h1264l28 -482h-84l-45 144q-40 127 -117 184t-208 57h-385v-45h79v-510h132q164 0 204 166l21 88h74v-598h-74l-21 88q-40 164 -204 164
h-132v-549zM1153 1972h8l-274 -348h-225l-275 348h8l424 -135l-157 -90h96z" />
    <glyph glyph-name="ecaron" unicode="&#x11b;" 
d="M1010 551h-731v-43h81q11 -167 98 -265t240 -98q83 0 153.5 37.5t115.5 118.5l16 -8q-52 -146 -166.5 -232t-251.5 -86q-221 0 -365.5 147.5t-144.5 371.5q0 143 64.5 266t184.5 197.5t269 74.5q199 0 321 -136t116 -345zM565 930q-90 0 -142 -82t-63 -217h404
q0 128 -55 213.5t-144 85.5zM942 1548h8l-274 -348h-225l-275 348h8l424 -135l-157 -90h96z" />
    <glyph glyph-name="Gcircumflex" unicode="&#x11c;" horiz-adv-x="1597" 
d="M823 1321q-83 0 -155.5 -39.5t-128 -113t-87.5 -187t-32 -252.5q0 -278 118 -444t318 -166q207 0 363 153v56l-103 -80v233q0 69 -33 105.5t-104 40.5l-55 4v69h659v-69l-57 -4q-99 -6 -99 -146v-499l-198 149q-86 -70 -210.5 -109.5t-258.5 -39.5q-149 0 -279 54
t-223 148t-147 228.5t-54 289.5q0 210 95.5 383t261.5 271t366 98q139 0 261.5 -61t201.5 -172v79q-3 7 -34.5 36.5t-45.5 41.5l193 82v-516h-82l-43 86q-142 291 -408 291zM432 1567h-8l274 348h226l274 -348h-8l-424 135l158 90h-97z" />
    <glyph glyph-name="gcircumflex" unicode="&#x11d;" horiz-adv-x="1075" 
d="M508 -494q-264 0 -394 67t-130 173q0 26 12 49t27 38.5t47.5 33.5t53 27t63.5 27q8 3 12 5l100 41l-43 19l-96 -39q-60 54 -60 139q0 50 29 95.5t76.5 79.5t95.5 58t100 41l-45 25l-88 -31q-90 47 -142 125t-52 174q0 157 134.5 267t321.5 110q99 0 193 -33
q139 160 287 160q83 0 128.5 -44t45.5 -101q0 -52 -33 -85.5t-80 -33.5q-55 0 -91 42t-13 99h30v37q-52 5 -101.5 -18t-109.5 -82q94 -48 147.5 -127t53.5 -176q0 -157 -135 -267t-322 -110q-78 0 -127 10q-47 -19 -70.5 -43.5t-23.5 -46.5q0 -32 24.5 -51t92.5 -25l393 -31
q279 -22 279 -254q0 -43 -13 -85t-52.5 -90.5t-102 -84.5t-171.5 -60t-251 -24zM537 387q70 0 117.5 66.5t47.5 197.5q0 122 -45 202.5t-133 80.5q-73 0 -119.5 -68.5t-46.5 -197.5q0 -127 50.5 -204t128.5 -77zM553 -408q82 0 144 12.5t95.5 30t54 41.5t26.5 43t6 39
q0 49 -28.5 72.5t-88.5 28.5l-475 35q-78 -51 -78 -125q0 -72 85 -124.5t259 -52.5zM152 1143h-9l275 348h225l275 -348h-9l-424 135l158 90h-96z" />
    <glyph glyph-name="Gbreve" unicode="&#x11e;" horiz-adv-x="1597" 
d="M823 1321q-83 0 -155.5 -39.5t-128 -113t-87.5 -187t-32 -252.5q0 -278 118 -444t318 -166q207 0 363 153v56l-103 -80v233q0 69 -33 105.5t-104 40.5l-55 4v69h659v-69l-57 -4q-99 -6 -99 -146v-499l-198 149q-86 -70 -210.5 -109.5t-258.5 -39.5q-149 0 -279 54
t-223 148t-147 228.5t-54 289.5q0 210 95.5 383t261.5 271t366 98q139 0 261.5 -61t201.5 -172v79q-3 7 -34.5 36.5t-45.5 41.5l193 82v-516h-82l-43 86q-142 291 -408 291zM502 1935q28 -73 109 -121.5t200 -48.5t200 48.5t109 121.5h8q7 -167 -85 -267.5t-232 -100.5
t-232 100.5t-85 267.5h8z" />
    <glyph glyph-name="gbreve" unicode="&#x11f;" horiz-adv-x="1075" 
d="M508 -494q-264 0 -394 67t-130 173q0 26 12 49t27 38.5t47.5 33.5t53 27t63.5 27q8 3 12 5l100 41l-43 19l-96 -39q-60 54 -60 139q0 50 29 95.5t76.5 79.5t95.5 58t100 41l-45 25l-88 -31q-90 47 -142 125t-52 174q0 157 134.5 267t321.5 110q99 0 193 -33
q139 160 287 160q83 0 128.5 -44t45.5 -101q0 -52 -33 -85.5t-80 -33.5q-55 0 -91 42t-13 99h30v37q-52 5 -101.5 -18t-109.5 -82q94 -48 147.5 -127t53.5 -176q0 -157 -135 -267t-322 -110q-78 0 -127 10q-47 -19 -70.5 -43.5t-23.5 -46.5q0 -32 24.5 -51t92.5 -25l393 -31
q279 -22 279 -254q0 -43 -13 -85t-52.5 -90.5t-102 -84.5t-171.5 -60t-251 -24zM537 387q70 0 117.5 66.5t47.5 197.5q0 122 -45 202.5t-133 80.5q-73 0 -119.5 -68.5t-46.5 -197.5q0 -127 50.5 -204t128.5 -77zM553 -408q82 0 144 12.5t95.5 30t54 41.5t26.5 43t6 39
q0 49 -28.5 72.5t-88.5 28.5l-475 35q-78 -51 -78 -125q0 -72 85 -124.5t259 -52.5zM221 1511q28 -73 109 -121.5t200 -48.5t200.5 48.5t109.5 121.5h8q7 -166 -85.5 -267t-232.5 -101t-232 100.5t-85 267.5h8z" />
    <glyph glyph-name="Gdotaccent" unicode="&#x120;" horiz-adv-x="1597" 
d="M823 1321q-83 0 -155.5 -39.5t-128 -113t-87.5 -187t-32 -252.5q0 -278 118 -444t318 -166q207 0 363 153v56l-103 -80v233q0 69 -33 105.5t-104 40.5l-55 4v69h659v-69l-57 -4q-99 -6 -99 -146v-499l-198 149q-86 -70 -210.5 -109.5t-258.5 -39.5q-149 0 -279 54
t-223 148t-147 228.5t-54 289.5q0 210 95.5 383t261.5 271t366 98q139 0 261.5 -61t201.5 -172v79q-3 7 -34.5 36.5t-45.5 41.5l193 82v-516h-82l-43 86q-142 291 -408 291zM668 1620v270h286v-270h-286z" />
    <glyph glyph-name="gdotaccent" unicode="&#x121;" horiz-adv-x="1075" 
d="M508 -494q-264 0 -394 67t-130 173q0 26 12 49t27 38.5t47.5 33.5t53 27t63.5 27q8 3 12 5l100 41l-43 19l-96 -39q-60 54 -60 139q0 50 29 95.5t76.5 79.5t95.5 58t100 41l-45 25l-88 -31q-90 47 -142 125t-52 174q0 157 134.5 267t321.5 110q99 0 193 -33
q139 160 287 160q83 0 128.5 -44t45.5 -101q0 -52 -33 -85.5t-80 -33.5q-55 0 -91 42t-13 99h30v37q-52 5 -101.5 -18t-109.5 -82q94 -48 147.5 -127t53.5 -176q0 -157 -135 -267t-322 -110q-78 0 -127 10q-47 -19 -70.5 -43.5t-23.5 -46.5q0 -32 24.5 -51t92.5 -25l393 -31
q279 -22 279 -254q0 -43 -13 -85t-52.5 -90.5t-102 -84.5t-171.5 -60t-251 -24zM537 387q70 0 117.5 66.5t47.5 197.5q0 122 -45 202.5t-133 80.5q-73 0 -119.5 -68.5t-46.5 -197.5q0 -127 50.5 -204t128.5 -77zM553 -408q82 0 144 12.5t95.5 30t54 41.5t26.5 43t6 39
q0 49 -28.5 72.5t-88.5 28.5l-475 35q-78 -51 -78 -125q0 -72 85 -124.5t259 -52.5zM387 1196v270h287v-270h-287z" />
    <glyph glyph-name="Gcommaaccent" unicode="&#x122;" horiz-adv-x="1597" 
d="M823 1321q-83 0 -155.5 -39.5t-128 -113t-87.5 -187t-32 -252.5q0 -278 118 -444t318 -166q207 0 363 153v56l-103 -80v233q0 69 -33 105.5t-104 40.5l-55 4v69h659v-69l-57 -4q-99 -6 -99 -146v-499l-198 149q-86 -70 -210.5 -109.5t-258.5 -39.5q-149 0 -279 54
t-223 148t-147 228.5t-54 289.5q0 210 95.5 383t261.5 271t366 98q139 0 261.5 -61t201.5 -172v79q-3 7 -34.5 36.5t-45.5 41.5l193 82v-516h-82l-43 86q-142 291 -408 291zM956 -262q0 -86 -65.5 -161.5t-190.5 -100.5l-6 16q166 58 166 191v34h-37v-67q-20 -8 -49 -8
q-52 0 -88.5 37.5t-36.5 89.5q0 57 43 97t107 40q70 0 113.5 -46t43.5 -122z" />
    <glyph glyph-name="gcommaaccent" unicode="&#x123;" horiz-adv-x="1075" 
d="M508 -494q-264 0 -394 67t-130 173q0 26 12 49t27 38.5t47.5 33.5t53 27t63.5 27q8 3 12 5l100 41l-43 19l-96 -39q-60 54 -60 139q0 50 29 95.5t76.5 79.5t95.5 58t100 41l-45 25l-88 -31q-90 47 -142 125t-52 174q0 157 134.5 267t321.5 110q99 0 193 -33
q139 160 287 160q83 0 128.5 -44t45.5 -101q0 -52 -33 -85.5t-80 -33.5q-55 0 -91 42t-13 99h30v37q-52 5 -101.5 -18t-109.5 -82q94 -48 147.5 -127t53.5 -176q0 -157 -135 -267t-322 -110q-78 0 -127 10q-47 -19 -70.5 -43.5t-23.5 -46.5q0 -32 24.5 -51t92.5 -25l393 -31
q279 -22 279 -254q0 -43 -13 -85t-52.5 -90.5t-102 -84.5t-171.5 -60t-251 -24zM537 387q70 0 117.5 66.5t47.5 197.5q0 122 -45 202.5t-133 80.5q-73 0 -119.5 -68.5t-46.5 -197.5q0 -127 50.5 -204t128.5 -77zM553 -408q82 0 144 12.5t95.5 30t54 41.5t26.5 43t6 39
q0 49 -28.5 72.5t-88.5 28.5l-475 35q-78 -51 -78 -125q0 -72 85 -124.5t259 -52.5zM414 1348q0 86 65.5 161.5t190.5 100.5l6 -17q-166 -58 -166 -190v-35h37v68q20 8 49 8q52 0 88.5 -37.5t36.5 -89.5q0 -57 -43 -97t-107 -40q-70 0 -113.5 46t-43.5 122z" />
    <glyph glyph-name="Hcircumflex" unicode="&#x124;" horiz-adv-x="1716" 
d="M494 692v-45h79v-426q0 -138 138 -147l55 -4v-70h-725v70l55 4q137 9 137 147v991q0 139 -137 148l-55 4v70h725v-70l-55 -4q-138 -9 -138 -148v-428h570v428q0 139 -137 148l-56 4v70h725v-70l-55 -4q-137 -9 -137 -148v-991q0 -138 137 -147l55 -4v-70h-725v70l56 4
q137 9 137 147v426h80v45h-729zM479 1567h-8l274 348h226l274 -348h-8l-424 135l158 90h-97z" />
    <glyph glyph-name="hcircumflex" unicode="&#x125;" horiz-adv-x="1302" 
d="M399 741l43 56q187 237 379 237q141 0 222 -80.5t81 -224.5v-534q0 -57 27.5 -89.5t75.5 -37.5l47 -5v-63h-567v63l45 5q86 9 86 127v495q0 85 -43.5 131.5t-120.5 46.5q-111 0 -201 -123v-550q0 -118 86 -127l45 -5v-63h-565v63l47 5q100 10 100 127v1036q0 53 -20.5 79
t-87.5 58l-64 31l459 108v-608l-74 -92v-66zM-51 1567h-8l274 348h225l275 -348h-8l-424 135l157 90h-96z" />
    <glyph glyph-name="Hbar" unicode="&#x126;" horiz-adv-x="1716" 
d="M1483 1112h192v-94h-266v-41h74v-842q0 -28 4.5 -42t17.5 -18.5t26 -3.5t40 2.5t49 0.5l55 -4v-70h-725v70l56 4q137 9 137 147v426h80v45h-729v-45h79v-426q0 -138 138 -147l55 -4v-70h-725v70l55 4q137 9 137 147v756h74v41h-266v94h192v100q0 139 -137 148l-55 4v70
h725v-70l-55 -4q-138 -9 -138 -148v-100h570v100q0 139 -137 148l-56 4v70h725v-70l-55 -4q-137 -9 -137 -148v-100zM1143 1020h-570v-236h570v236z" />
    <glyph glyph-name="hbar" unicode="&#x127;" horiz-adv-x="1302" 
d="M604 63v-63h-565v63l47 5q100 10 100 127v899h70v43h-240v82h170v12q0 53 -20.5 79t-87.5 58l-64 31l459 108v-288h270v-82h-270v-238l-74 -92v-66l43 56q187 237 379 237q141 0 222 -80.5t81 -224.5v-534q0 -57 27.5 -89.5t75.5 -37.5l47 -5v-63h-567v63l45 5
q86 9 86 127v495q0 85 -43.5 131.5t-120.5 46.5q-111 0 -201 -123v-550q0 -118 86 -127z" />
    <glyph glyph-name="Itilde" unicode="&#x128;" horiz-adv-x="806" 
d="M573 221q0 -138 138 -147l55 -4v-70h-725v70l55 4q137 9 137 147v991q0 139 -137 148l-55 4v70h725v-70l-55 -4q-138 -9 -138 -148v-991zM797 1923h8q-53 -170 -111 -248t-143 -78q-55 0 -190 67t-181 67q-91 0 -170 -134h-8q53 172 111 250t143 78q49 0 123 -33.5
t143 -66.5t105 -33q97 0 170 131z" />
    <glyph glyph-name="itilde" unicode="&#x129;" horiz-adv-x="665" 
d="M20 915l459 121v-841q0 -118 103 -127l45 -5v-63h-582v63l47 5q101 10 101 127v553q0 50 -18 75.5t-79 55.5zM729 1499h8q-53 -170 -111 -247.5t-143 -77.5q-44 0 -117 33t-143.5 66.5t-109.5 33.5q-91 0 -170 -133h-9q53 171 111 249t143 78q49 0 123 -33.5t143 -66.5
t105 -33q97 0 170 131z" />
    <glyph glyph-name="Imacron" unicode="&#x12a;" horiz-adv-x="806" 
d="M573 221q0 -138 138 -147l55 -4v-70h-725v70l55 4q137 9 137 147v991q0 139 -137 148l-55 4v70h725v-70l-55 -4q-138 -9 -138 -148v-991zM59 1847h689v-174h-689v174z" />
    <glyph glyph-name="imacron" unicode="&#x12b;" horiz-adv-x="665" 
d="M20 915l459 121v-841q0 -118 103 -127l45 -5v-63h-582v63l47 5q101 10 101 127v553q0 50 -18 75.5t-79 55.5zM-8 1423h688v-174h-688v174z" />
    <glyph glyph-name="Ibreve" unicode="&#x12c;" horiz-adv-x="806" 
d="M573 221q0 -138 138 -147l55 -4v-70h-725v70l55 4q137 9 137 147v991q0 139 -137 148l-55 4v70h725v-70l-55 -4q-138 -9 -138 -148v-991zM94 1935q28 -73 109 -121.5t200 -48.5t200.5 48.5t109.5 121.5h8q7 -166 -85.5 -267t-232.5 -101t-232 100.5t-85 267.5h8z" />
    <glyph glyph-name="ibreve" unicode="&#x12d;" horiz-adv-x="665" 
d="M20 915l459 121v-841q0 -118 103 -127l45 -5v-63h-582v63l47 5q101 10 101 127v553q0 50 -18 75.5t-79 55.5zM27 1511q28 -73 109 -121.5t200 -48.5t200 48.5t109 121.5h8q7 -167 -85 -267.5t-232 -100.5t-232.5 101t-85.5 267h9z" />
    <glyph glyph-name="Iogonek" unicode="&#x12e;" horiz-adv-x="806" 
d="M573 221q0 -138 138 -147l55 -4v-70l-31 -16q-182 -98 -182 -205q0 -48 31 -75.5t80 -27.5q61 0 116 37l6 -6q-23 -68 -82 -110.5t-143 -42.5q-77 0 -123.5 44t-46.5 107q0 77 68.5 153.5t220.5 141.5h-639v70l55 4q137 9 137 147v991q0 139 -137 148l-55 4v70h725v-70
l-55 -4q-138 -9 -138 -148v-991z" />
    <glyph glyph-name="iogonek" unicode="&#x12f;" horiz-adv-x="665" 
d="M193 1196v270h286v-270h-286zM641 -287l6 -6q-23 -68 -82 -110.5t-143 -42.5q-77 0 -123.5 44t-46.5 107q0 77 68.5 153.5t220.5 141.5h-496v63l47 5q101 10 101 127v553q0 50 -18 75.5t-79 55.5l-76 36l459 121v-841q0 -118 103 -127l45 -5v-63l-31 -16
q-182 -98 -182 -205q0 -48 30.5 -75.5t79.5 -27.5q62 0 117 37z" />
    <glyph glyph-name="Idotaccent" unicode="&#x130;" horiz-adv-x="806" 
d="M573 221q0 -138 138 -147l55 -4v-70h-725v70l55 4q137 9 137 147v991q0 139 -137 148l-55 4v70h725v-70l-55 -4q-138 -9 -138 -148v-991zM260 1620v270h287v-270h-287z" />
    <glyph glyph-name="dotlessi" unicode="&#x131;" horiz-adv-x="665" 
d="M20 915l459 121v-841q0 -118 103 -127l45 -5v-63h-582v63l47 5q101 10 101 127v553q0 50 -18 75.5t-79 55.5z" />
    <glyph glyph-name="IJ" unicode="&#x132;" horiz-adv-x="2158" 
d="M573 221q0 -138 138 -147l55 -4v-70h-725v70l55 4q137 9 137 147v991q0 139 -137 148l-55 4v70h725v-70l-55 -4q-138 -9 -138 -148v-991zM1350 -23q-128 0 -239 42.5t-182 127t-71 193.5q0 60 38.5 101.5t98.5 41.5q70 0 109 -54t24 -146h-53q3 -86 60 -139.5t159 -53.5
q132 0 216.5 92t84.5 271v759q0 139 -137 148l-55 4v70h725v-70l-57 -4q-136 -9 -136 -148v-716q0 -165 -76 -283.5t-206.5 -177t-302.5 -58.5z" />
    <glyph glyph-name="ij" unicode="&#x133;" horiz-adv-x="1308" 
d="M193 1196v270h286v-270h-286zM20 915l459 121v-841q0 -118 103 -127l45 -5v-63h-582v63l47 5q101 10 101 127v553q0 50 -18 75.5t-79 55.5zM858 1196v270h287v-270h-287zM686 915l459 121v-1136q0 -189 -103.5 -289t-312.5 -100q-129 0 -209 60t-80 146q0 54 35 89.5
t84 35.5q67 0 99.5 -44t19.5 -132h-45q6 -65 86 -65q69 0 104 46t35 122v979q0 51 -18 76t-78 55z" />
    <glyph glyph-name="Jcircumflex" unicode="&#x134;" horiz-adv-x="1351" 
d="M543 -23q-128 0 -239 42.5t-182 127t-71 193.5q0 60 38.5 101.5t98.5 41.5q70 0 109.5 -54t24.5 -146h-54q3 -86 60 -139.5t159 -53.5q132 0 216.5 92t84.5 271v759q0 139 -137 148l-55 4v70h725v-70l-57 -4q-136 -9 -136 -148v-716q0 -165 -76 -283.5t-206.5 -177
t-302.5 -58.5zM586 1567h-8l274 348h225l275 -348h-9l-423 135l157 90h-96z" />
    <glyph glyph-name="jcircumflex" unicode="&#x135;" horiz-adv-x="643" 
d="M20 915l459 121v-1136q0 -189 -103.5 -289t-312.5 -100q-128 0 -208 60t-80 146q0 54 35 89.5t84 35.5q67 0 99 -44t19 -132h-45q6 -65 86 -65q69 0 104.5 46t35.5 122v979q0 50 -18 75.5t-79 55.5zM-55 1143h-8l274 348h225l275 -348h-9l-423 135l157 90h-96z" />
    <glyph glyph-name="Kcommaaccent" unicode="&#x136;" horiz-adv-x="1662" 
d="M573 221q0 -138 136 -147l57 -4v-70h-725v70l55 4q137 9 137 147v991q0 139 -137 148l-55 4v70h725v-70l-57 -4q-136 -9 -136 -148v-471l-75 -79v-60l610 602q51 53 41 103t-64 55l-45 4v68h490v-64q-81 -20 -159.5 -65t-137.5 -103l-293 -289l510 -698q93 -128 195 -152
v-63h-478l-458 686l-136 -133v-332zM1008 -262q0 -86 -65.5 -161.5t-190.5 -100.5l-7 16q166 58 166 191v34h-37v-67q-20 -8 -49 -8q-52 0 -88.5 37.5t-36.5 89.5q0 57 43 97t107 40q70 0 114 -46t44 -122z" />
    <glyph glyph-name="kcommaaccent" unicode="&#x137;" horiz-adv-x="1280" 
d="M889 0l-307 469l-109 -104v-170q0 -121 94 -127l54 -5v-63h-582v63l53 5q94 6 94 127v1038q0 50 -20.5 75.5t-87.5 59.5l-64 31l459 108v-970l-74 -72v-57l408 395q33 31 43 61t-5.5 49.5t-51.5 22.5l-43 4v70h464v-66q-84 -21 -165.5 -59.5t-130.5 -87.5l-138 -133
l336 -467q41 -58 78.5 -89t83.5 -45v-63h-389zM858 -262q0 -86 -65.5 -161.5t-190.5 -100.5l-6 16q166 58 166 191v34h-37v-67q-20 -8 -49 -8q-52 0 -88.5 37.5t-36.5 89.5q0 58 42.5 97.5t106.5 39.5q70 0 114 -46t44 -122z" />
    <glyph glyph-name="kgreenlandic" unicode="&#x138;" horiz-adv-x="1294" 
d="M492 195q0 -126 118 -138l43 -4v-53h-610v53l43 4q119 12 119 138v620q0 125 -119 137l-43 4v54h610v-54l-43 -4q-118 -12 -118 -137v-280l-50 -52v-59l404 397q49 51 41 85.5t-64 43.5l-24 4v56h385v-54q-132 -17 -295 -180l-152 -149l350 -469q36 -47 73.5 -70.5
t105.5 -34.5v-53h-400l-317 436l-57 -55v-186z" />
    <glyph glyph-name="Lacute" unicode="&#x139;" horiz-adv-x="1406" 
d="M573 143h-79v-47h409q128 0 208 68.5t126 212.5l37 115h86l-66 -492h-1253v70l55 4q137 9 137 147v991q0 139 -137 148l-55 4v70h725v-70l-55 -4q-138 -9 -138 -148v-1069zM231 1567h9l387 168q47 20 67 60t12 78t-42.5 66.5t-85.5 28.5q-48 0 -78.5 -26t-79.5 -97z" />
    <glyph glyph-name="lacute" unicode="&#x13a;" horiz-adv-x="659" 
d="M186 1233q0 50 -20.5 75.5t-87.5 59.5l-64 31l459 106v-1310q0 -121 94 -127l54 -5v-63h-582v63l53 5q94 6 94 127v1038zM158 1567h8l387 168q47 20 67 60t12 78t-42.5 66.5t-85.5 28.5q-48 0 -78.5 -26t-79.5 -97z" />
    <glyph glyph-name="Lcommaaccent" unicode="&#x13b;" horiz-adv-x="1406" 
d="M573 143h-79v-47h409q128 0 208 68.5t126 212.5l37 115h86l-66 -492h-1253v70l55 4q137 9 137 147v991q0 139 -137 148l-55 4v70h725v-70l-55 -4q-138 -9 -138 -148v-1069zM909 -262q0 -86 -65.5 -161.5t-190.5 -100.5l-6 16q166 58 166 191v34h-37v-67q-20 -8 -49 -8
q-52 0 -88.5 37.5t-36.5 89.5q0 57 43 97t107 40q70 0 113.5 -46t43.5 -122z" />
    <glyph glyph-name="lcommaaccent" unicode="&#x13c;" horiz-adv-x="659" 
d="M186 1233q0 50 -20.5 75.5t-87.5 59.5l-64 31l459 106v-1310q0 -121 94 -127l54 -5v-63h-582v63l53 5q94 6 94 127v1038zM487 -262q0 -86 -65.5 -161.5t-190.5 -100.5l-6 16q166 58 166 191v34h-37v-67q-20 -8 -49 -8q-52 0 -88.5 37.5t-36.5 89.5q0 57 43 97t107 40
q70 0 113.5 -46t43.5 -122z" />
    <glyph glyph-name="Lcaron" unicode="&#x13d;" horiz-adv-x="1406" 
d="M573 143h-79v-47h409q128 0 208 68.5t126 212.5l37 115h86l-66 -492h-1253v70l55 4q137 9 137 147v991q0 139 -137 148l-55 4v70h725v-70l-55 -4q-138 -9 -138 -148v-1069zM1270 1286q0 -86 -65.5 -161.5t-190.5 -100.5l-6 16q166 58 166 191v35h-37v-68q-20 -8 -50 -8
q-52 0 -88 37.5t-36 89.5q0 58 42.5 97.5t106.5 39.5q70 0 114 -46t44 -122z" />
    <glyph glyph-name="lcaron" unicode="&#x13e;" horiz-adv-x="659" 
d="M186 1233q0 50 -20.5 75.5t-87.5 59.5l-64 31l459 106v-1310q0 -121 94 -127l54 -5v-63h-582v63l53 5q94 6 94 127v1038zM864 1286q0 -86 -65.5 -161.5t-190.5 -100.5l-6 16q166 58 166 191v35h-37v-68q-20 -8 -49 -8q-52 0 -88.5 37.5t-36.5 89.5q0 57 43 97t107 40
q70 0 113.5 -46t43.5 -122z" />
    <glyph glyph-name="Ldot" unicode="&#x13f;" horiz-adv-x="1406" 
d="M573 143h-79v-47h409q128 0 208 68.5t126 212.5l37 115h86l-66 -492h-1253v70l55 4q137 9 137 147v991q0 139 -137 148l-55 4v70h725v-70l-55 -4q-138 -9 -138 -148v-1069zM963 799v270h286v-270h-286z" />
    <glyph glyph-name="ldot" unicode="&#x140;" horiz-adv-x="659" 
d="M186 1233q0 50 -20.5 75.5t-87.5 59.5l-64 31l459 106v-1310q0 -121 94 -127l54 -5v-63h-582v63l53 5q94 6 94 127v1038zM557 573v271h287v-271h-287z" />
    <glyph glyph-name="Lslash" unicode="&#x141;" horiz-adv-x="1406" 
d="M233 588l93 63v58l-314 -213v102l221 150v464q0 139 -137 148l-55 4v70h725v-70l-55 -4q-138 -9 -138 -148v-237l267 180v-102l-267 -181v-729h-79v-47h409q128 0 208 68.5t126 212.5l37 115h86l-66 -492h-1253v70l55 4q137 9 137 147v367z" />
    <glyph glyph-name="lslash" unicode="&#x142;" horiz-adv-x="700" 
d="M662 63v-63h-582v63l53 5q94 6 94 127v397l78 53v53l-299 -202v92l221 149v496q0 50 -20.5 75.5t-87.5 59.5l-64 31l459 106v-577l264 178v-92l-264 -176v-643q0 -121 94 -127z" />
    <glyph glyph-name="Nacute" unicode="&#x143;" horiz-adv-x="1634" 
d="M1411 1178v-1201h-29l-1024 1131v-852q0 -164 148 -182l47 -6v-68h-514v68l47 6q145 18 145 182v961l-233 217h520l717 -785v-92l49 -49v670q0 164 -147 182l-47 6v68h514v-68l-48 -6q-145 -18 -145 -182zM686 1567h8l387 168q47 20 67 60t12 78t-42.5 66.5t-85.5 28.5
q-48 0 -78.5 -26t-79.5 -97z" />
    <glyph glyph-name="nacute" unicode="&#x144;" horiz-adv-x="1308" 
d="M193 748q0 50 -18 75.5t-79 55.5l-76 36l459 121v-137l-73 -92v-66l30 35q99 123 190.5 190.5t200.5 67.5q141 0 222 -80.5t81 -224.5v-534q0 -57 27.5 -89.5t75.5 -37.5l47 -5v-63h-567v63l45 5q86 9 86 127v495q0 85 -43.5 131.5t-120.5 46.5q-114 0 -201 -125v-548
q0 -118 86 -127l45 -5v-63h-565v63l47 5q101 10 101 127v553zM494 1143h8l387 168q47 20 67 60t12 78t-42.5 66.5t-85.5 28.5q-48 0 -78.5 -26t-79.5 -97z" />
    <glyph glyph-name="Ncommaaccent" unicode="&#x145;" horiz-adv-x="1634" 
d="M1411 1178v-1201h-29l-1024 1131v-852q0 -164 148 -182l47 -6v-68h-514v68l47 6q145 18 145 182v961l-233 217h520l717 -785v-92l49 -49v670q0 164 -147 182l-47 6v68h514v-68l-48 -6q-145 -18 -145 -182zM969 -262q0 -86 -65.5 -161.5t-190.5 -100.5l-6 16
q165 58 165 191v34h-36v-67q-20 -8 -50 -8q-52 0 -88 37.5t-36 89.5q0 58 42.5 97.5t106.5 39.5q70 0 114 -46t44 -122z" />
    <glyph glyph-name="ncommaaccent" unicode="&#x146;" horiz-adv-x="1308" 
d="M193 748q0 50 -18 75.5t-79 55.5l-76 36l459 121v-137l-73 -92v-66l30 35q99 123 190.5 190.5t200.5 67.5q141 0 222 -80.5t81 -224.5v-534q0 -57 27.5 -89.5t75.5 -37.5l47 -5v-63h-567v63l45 5q86 9 86 127v495q0 85 -43.5 131.5t-120.5 46.5q-114 0 -201 -125v-548
q0 -118 86 -127l45 -5v-63h-565v63l47 5q101 10 101 127v553zM821 -262q0 -86 -65.5 -161.5t-190.5 -100.5l-6 16q166 58 166 191v34h-37v-67q-20 -8 -49 -8q-52 0 -88.5 37.5t-36.5 89.5q0 57 43 97t107 40q70 0 113.5 -46t43.5 -122z" />
    <glyph glyph-name="Ncaron" unicode="&#x147;" horiz-adv-x="1634" 
d="M1411 1178v-1201h-29l-1024 1131v-852q0 -164 148 -182l47 -6v-68h-514v68l47 6q145 18 145 182v961l-233 217h520l717 -785v-92l49 -49v670q0 164 -147 182l-47 6v68h514v-68l-48 -6q-145 -18 -145 -182zM1237 1972h8l-274 -348h-226l-274 348h8l424 -135l-158 -90h97z
" />
    <glyph glyph-name="ncaron" unicode="&#x148;" horiz-adv-x="1308" 
d="M193 748q0 50 -18 75.5t-79 55.5l-76 36l459 121v-137l-73 -92v-66l30 35q99 123 190.5 190.5t200.5 67.5q141 0 222 -80.5t81 -224.5v-534q0 -57 27.5 -89.5t75.5 -37.5l47 -5v-63h-567v63l45 5q86 9 86 127v495q0 85 -43.5 131.5t-120.5 46.5q-114 0 -201 -125v-548
q0 -118 86 -127l45 -5v-63h-565v63l47 5q101 10 101 127v553zM1044 1548h9l-275 -348h-225l-274 348h8l424 -135l-158 -90h96z" />
    <glyph glyph-name="Eng" unicode="&#x14a;" horiz-adv-x="1634" 
d="M1411 1178v-1256q0 -217 -102 -337t-273 -120q-157 0 -261.5 84t-104.5 218q0 60 38.5 101.5t98.5 41.5q70 0 109 -54.5t24 -146.5h-53q2 -59 46.5 -95t125.5 -36q98 0 161.5 76.5t63.5 224.5v207l-926 1022v-852q0 -164 148 -182l47 -6v-68h-514v68l47 6q145 18 145 182
v961l-233 217h520l717 -785v-92l49 -49v670q0 164 -147 182l-47 6v68h514v-68l-48 -6q-145 -18 -145 -182z" />
    <glyph glyph-name="eng" unicode="&#x14b;" horiz-adv-x="1308" 
d="M1130 729v-829q0 -189 -103 -289t-312 -100q-129 0 -209 60t-80 146q0 54 35 89.5t84 35.5q67 0 99.5 -44t19.5 -132h-46q6 -65 87 -65q69 0 104 46t35 122v921q0 85 -43.5 131.5t-120.5 46.5q-114 0 -201 -125v-548q0 -118 86 -127l45 -5v-63h-565v63l47 5
q101 10 101 127v553q0 50 -18 75.5t-79 55.5l-76 36l459 121v-137l-73 -92v-66l30 35q99 123 190.5 190.5t200.5 67.5q141 0 222 -80.5t81 -224.5z" />
    <glyph glyph-name="Omacron" unicode="&#x14c;" horiz-adv-x="1609" 
d="M801 -23q-205 0 -375 93.5t-269.5 262t-99.5 378.5t101 382t273 268.5t378 96.5q153 0 289.5 -54.5t236.5 -150t158.5 -232.5t58.5 -294q0 -210 -100.5 -382.5t-272.5 -270t-378 -97.5zM823 84q74 0 139 40t115.5 114.5t79.5 190t29 257.5q0 303 -109.5 484.5
t-294.5 181.5q-153 0 -256.5 -160.5t-103.5 -441.5q0 -303 108.5 -484.5t292.5 -181.5zM465 1847h688v-174h-688v174z" />
    <glyph glyph-name="omacron" unicode="&#x14d;" horiz-adv-x="1150" 
d="M575 1034q223 0 372 -149t149 -373q0 -148 -69 -271.5t-189 -194.5t-263 -71q-223 0 -371.5 150.5t-148.5 374.5q0 149 68.5 271.5t188 192.5t263.5 70zM559 934q-91 0 -145 -104t-54 -287q0 -218 60.5 -341.5t167.5 -123.5q91 0 147 104t56 287q0 218 -61.5 341.5
t-170.5 123.5zM233 1423h689v-174h-689v174z" />
    <glyph glyph-name="Obreve" unicode="&#x14e;" horiz-adv-x="1609" 
d="M801 -23q-205 0 -375 93.5t-269.5 262t-99.5 378.5t101 382t273 268.5t378 96.5q153 0 289.5 -54.5t236.5 -150t158.5 -232.5t58.5 -294q0 -210 -100.5 -382.5t-272.5 -270t-378 -97.5zM823 84q74 0 139 40t115.5 114.5t79.5 190t29 257.5q0 303 -109.5 484.5
t-294.5 181.5q-153 0 -256.5 -160.5t-103.5 -441.5q0 -303 108.5 -484.5t292.5 -181.5zM500 1935q28 -73 109 -121.5t200 -48.5t200 48.5t109 121.5h8q7 -167 -85 -267.5t-232 -100.5t-232 100.5t-85 267.5h8z" />
    <glyph glyph-name="obreve" unicode="&#x14f;" horiz-adv-x="1150" 
d="M575 1034q223 0 372 -149t149 -373q0 -148 -69 -271.5t-189 -194.5t-263 -71q-223 0 -371.5 150.5t-148.5 374.5q0 149 68.5 271.5t188 192.5t263.5 70zM559 934q-91 0 -145 -104t-54 -287q0 -218 60.5 -341.5t167.5 -123.5q91 0 147 104t56 287q0 218 -61.5 341.5
t-170.5 123.5zM268 1511q28 -73 109.5 -121.5t200.5 -48.5t200 48.5t109 121.5h8q7 -167 -85 -267.5t-232 -100.5t-232.5 101t-85.5 267h8z" />
    <glyph glyph-name="Ohungarumlaut" unicode="&#x150;" horiz-adv-x="1609" 
d="M801 -23q-205 0 -375 93.5t-269.5 262t-99.5 378.5t101 382t273 268.5t378 96.5q153 0 289.5 -54.5t236.5 -150t158.5 -232.5t58.5 -294q0 -210 -100.5 -382.5t-272.5 -270t-378 -97.5zM823 84q74 0 139 40t115.5 114.5t79.5 190t29 257.5q0 303 -109.5 484.5
t-294.5 181.5q-153 0 -256.5 -160.5t-103.5 -441.5q0 -303 108.5 -484.5t292.5 -181.5zM854 1751l-324 -188h-8l174 292q34 59 67.5 85t78.5 26q41 0 68 -23t32 -55t-17.5 -70.5t-70.5 -66.5zM1202 1751l-323 -188h-9l174 292q34 59 67.5 85t78.5 26q41 0 68 -23t32 -55
t-17.5 -70.5t-70.5 -66.5z" />
    <glyph glyph-name="ohungarumlaut" unicode="&#x151;" horiz-adv-x="1150" 
d="M575 1034q223 0 372 -149t149 -373q0 -148 -69 -271.5t-189 -194.5t-263 -71q-223 0 -371.5 150.5t-148.5 374.5q0 149 68.5 271.5t188 192.5t263.5 70zM559 934q-91 0 -145 -104t-54 -287q0 -218 60.5 -341.5t167.5 -123.5q91 0 147 104t56 287q0 218 -61.5 341.5
t-170.5 123.5zM623 1327l-324 -188h-8l174 293q34 59 67 84.5t78 25.5q41 0 68 -23t32 -55t-17 -70.5t-70 -66.5zM971 1327l-324 -188h-8l174 293q34 59 67 84.5t78 25.5q41 0 68 -23t32 -55t-17 -70.5t-70 -66.5z" />
    <glyph glyph-name="OE" unicode="&#x152;" horiz-adv-x="2244" 
d="M846 0q-169 0 -318.5 56t-256 152.5t-168.5 231.5t-62 287q0 201 106.5 363t293.5 253t419 91h1249l29 -482h-84l-45 144q-40 127 -117.5 184t-208.5 57h-305v-555h131q165 0 205 166l21 88h73v-598h-73l-21 88q-40 164 -205 164h-131v-549h-80v-45h431q129 0 209 68.5
t126 212.5l37 115h86l-65 -492h-1276zM1038 1290h80v47h-188q-105 0 -192 -33t-148.5 -91.5t-104 -141t-62.5 -181t-20 -210.5q0 -269 129.5 -426.5t350.5 -157.5h155v1194z" />
    <glyph glyph-name="oe" unicode="&#x153;" horiz-adv-x="1796" 
d="M1745 551h-731v-43h82q11 -167 98 -265t240 -98q183 0 268 156l16 -8q-52 -146 -166.5 -232t-251.5 -86q-111 0 -205 43t-161 121q-68 -77 -161 -120.5t-198 -43.5q-223 0 -371.5 150.5t-148.5 374.5q0 149 68.5 271.5t188 192.5t263.5 70q112 0 208 -44t163 -122
q144 164 363 164q199 0 320.5 -136t115.5 -345zM559 934q-91 0 -145 -104t-54 -287q0 -218 60.5 -341.5t167.5 -123.5q91 0 147 104t56 287q0 218 -61.5 341.5t-170.5 123.5zM1300 930q-90 0 -141.5 -82t-62.5 -217h403q0 128 -55 213.5t-144 85.5z" />
    <glyph glyph-name="Racute" unicode="&#x154;" horiz-adv-x="1583" 
d="M573 629v-408q0 -138 138 -147l55 -4v-70h-725v70l55 4q137 9 137 147v991q0 139 -137 148l-55 4v70h813q237 0 371.5 -106.5t134.5 -270.5q0 -120 -87.5 -211.5t-215.5 -132.5q161 -39 227 -187l162 -372q29 -67 115 -82l24 -4v-68h-446l-203 539q-29 75 -68 106
t-106 31h-268v-47h79zM573 768h172q121 0 198 74.5t77 204.5t-72 210t-205 80h-249v-47h79v-522zM594 1567h8l387 168q47 20 67 60t12 78t-42.5 66.5t-85.5 28.5q-48 0 -78.5 -26t-79.5 -97z" />
    <glyph glyph-name="racute" unicode="&#x155;" horiz-adv-x="989" 
d="M193 748q0 50 -18 75.5t-79 55.5l-76 36l459 121v-145q-61 -109 -67 -125v-98q65 175 164 267.5t210 92.5q93 0 144 -48t51 -122q0 -64 -38.5 -102.5t-94.5 -38.5q-53 0 -90 34t-37 80q0 17 6.5 35t13.5 21h31v39q-84 9 -159.5 -58t-133.5 -196v-477q0 -118 101 -127
l47 -5v-63h-582v63l47 5q101 9 101 127v553zM397 1143h9l387 168q63 27 77.5 84t-22.5 103t-105 46q-48 0 -78 -26t-79 -97z" />
    <glyph glyph-name="Rcommaaccent" unicode="&#x156;" horiz-adv-x="1583" 
d="M573 629v-408q0 -138 138 -147l55 -4v-70h-725v70l55 4q137 9 137 147v991q0 139 -137 148l-55 4v70h813q237 0 371.5 -106.5t134.5 -270.5q0 -120 -87.5 -211.5t-215.5 -132.5q161 -39 227 -187l162 -372q29 -67 115 -82l24 -4v-68h-446l-203 539q-29 75 -68 106
t-106 31h-268v-47h79zM573 768h172q121 0 198 74.5t77 204.5t-72 210t-205 80h-249v-47h79v-522zM997 -262q0 -86 -65.5 -161.5t-190.5 -100.5l-6 16q166 58 166 191v34h-37v-67q-20 -8 -49 -8q-52 0 -88.5 37.5t-36.5 89.5q0 57 43 97t107 40q70 0 113.5 -46t43.5 -122z
" />
    <glyph glyph-name="rcommaaccent" unicode="&#x157;" horiz-adv-x="989" 
d="M193 748q0 50 -18 75.5t-79 55.5l-76 36l459 121v-145q-61 -109 -67 -125v-98q65 175 164 267.5t210 92.5q93 0 144 -48t51 -122q0 -64 -38.5 -102.5t-94.5 -38.5q-53 0 -90 34t-37 80q0 17 6.5 35t13.5 21h31v39q-84 9 -159.5 -58t-133.5 -196v-477q0 -118 101 -127
l47 -5v-63h-582v63l47 5q101 9 101 127v553zM494 -262q0 -86 -65.5 -161.5t-190.5 -100.5l-7 16q166 58 166 191v34h-37v-67q-20 -8 -49 -8q-52 0 -88.5 37.5t-36.5 89.5q0 57 43 97t107 40q70 0 114 -46t44 -122z" />
    <glyph glyph-name="Rcaron" unicode="&#x158;" horiz-adv-x="1583" 
d="M573 629v-408q0 -138 138 -147l55 -4v-70h-725v70l55 4q137 9 137 147v991q0 139 -137 148l-55 4v70h813q237 0 371.5 -106.5t134.5 -270.5q0 -120 -87.5 -211.5t-215.5 -132.5q161 -39 227 -187l162 -372q29 -67 115 -82l24 -4v-68h-446l-203 539q-29 75 -68 106
t-106 31h-268v-47h79zM573 768h172q121 0 198 74.5t77 204.5t-72 210t-205 80h-249v-47h79v-522zM1145 1972h8l-274 -348h-226l-274 348h8l424 -135l-158 -90h97z" />
    <glyph glyph-name="rcaron" unicode="&#x159;" horiz-adv-x="989" 
d="M193 748q0 50 -18 75.5t-79 55.5l-76 36l459 121v-145q-61 -109 -67 -125v-98q65 175 164 267.5t210 92.5q93 0 144 -48t51 -122q0 -64 -38.5 -102.5t-94.5 -38.5q-53 0 -90 34t-37 80q0 17 6.5 35t13.5 21h31v39q-84 9 -159.5 -58t-133.5 -196v-477q0 -118 101 -127
l47 -5v-63h-582v63l47 5q101 9 101 127v553zM948 1548h8l-274 -348h-225l-275 348h8l424 -135l-157 -90h96z" />
    <glyph glyph-name="Sacute" unicode="&#x15a;" horiz-adv-x="1320" 
d="M1223 432q0 -130 -69.5 -233t-188.5 -159t-265 -56q-140 0 -253.5 59t-192.5 158v-74q6 -8 68 -61l-199 -97l-10 516h82l69 -114q158 -269 426 -269q117 0 185.5 56.5t68.5 150.5q0 131 -180 191l-354 121q-151 52 -229.5 153.5t-78.5 237.5q0 193 129 316.5t326 123.5
q256 0 424 -240v82q-7 11 -40 43.5t-42 38.5l199 76l10 -491h-84l-51 81q-85 142 -172.5 212.5t-208.5 70.5q-104 0 -165.5 -52.5t-61.5 -135.5q0 -130 153 -185l391 -133q150 -52 232 -151t82 -236zM440 1567h9l387 168q63 27 77.5 84t-22.5 103t-105 46q-48 0 -78 -26
t-79 -97z" />
    <glyph glyph-name="sacute" unicode="&#x15b;" horiz-adv-x="919" 
d="M416 918q-63 0 -101.5 -35.5t-38.5 -85.5q0 -86 103 -123l246 -80q124 -39 188 -114.5t64 -176.5q0 -134 -109 -225.5t-272 -91.5q-100 0 -189 49t-145 129v-72q41 -41 71 -61l-172 -56l-6 379h84l51 -84q53 -90 123 -136t166 -46q73 0 115.5 34.5t42.5 92.5
q0 41 -27.5 69.5t-93.5 51.5l-215 70q-126 39 -190 117.5t-64 185.5q0 137 96 226t244 89q88 0 169.5 -48t129.5 -124v74q-55 55 -70 65l172 37l7 -362h-88l-45 75q-51 86 -108 131.5t-138 45.5zM258 1143h8l387 168q47 20 67 60t12 78t-42.5 66.5t-85.5 28.5
q-48 0 -78.5 -26t-79.5 -97z" />
    <glyph glyph-name="Scircumflex" unicode="&#x15c;" horiz-adv-x="1320" 
d="M1223 432q0 -130 -69.5 -233t-188.5 -159t-265 -56q-140 0 -253.5 59t-192.5 158v-74q6 -8 68 -61l-199 -97l-10 516h82l69 -114q158 -269 426 -269q117 0 185.5 56.5t68.5 150.5q0 131 -180 191l-354 121q-151 52 -229.5 153.5t-78.5 237.5q0 193 129 316.5t326 123.5
q256 0 424 -240v82q-7 11 -40 43.5t-42 38.5l199 76l10 -491h-84l-51 81q-85 142 -172.5 212.5t-208.5 70.5q-104 0 -165.5 -52.5t-61.5 -135.5q0 -130 153 -185l391 -133q150 -52 232 -151t82 -236zM233 1567h-8l275 348h225l274 -348h-8l-424 135l158 90h-96z" />
    <glyph glyph-name="scircumflex" unicode="&#x15d;" horiz-adv-x="919" 
d="M416 918q-63 0 -101.5 -35.5t-38.5 -85.5q0 -86 103 -123l246 -80q124 -39 188 -114.5t64 -176.5q0 -134 -109 -225.5t-272 -91.5q-100 0 -189 49t-145 129v-72q41 -41 71 -61l-172 -56l-6 379h84l51 -84q53 -90 123 -136t166 -46q73 0 115.5 34.5t42.5 92.5
q0 41 -27.5 69.5t-93.5 51.5l-215 70q-126 39 -190 117.5t-64 185.5q0 137 96 226t244 89q88 0 169.5 -48t129.5 -124v74q-55 55 -70 65l172 37l7 -362h-88l-45 75q-51 86 -108 131.5t-138 45.5zM51 1143h-8l274 348h226l274 -348h-8l-424 135l158 90h-97z" />
    <glyph glyph-name="Scedilla" unicode="&#x15e;" horiz-adv-x="1320" 
d="M514 -416v8q103 -6 157 16t54 64q0 40 -51 62l-174 73l137 181q-229 22 -383 213v-74q6 -8 68 -61l-199 -97l-10 516h82l69 -114q158 -269 426 -269q117 0 185.5 56.5t68.5 150.5q0 131 -180 191l-354 121q-151 52 -229.5 153.5t-78.5 237.5q0 193 129 316.5t326 123.5
q256 0 424 -240v82q-7 11 -40 43.5t-42 38.5l199 76l10 -491h-84l-51 81q-85 142 -172.5 212.5t-208.5 70.5q-104 0 -165.5 -52.5t-61.5 -135.5q0 -130 153 -185l391 -133q150 -52 232 -151t82 -236q0 -192 -143.5 -317t-360.5 -131l-86 -117l43 -21l43 64l65 -27
q121 -50 121 -141q0 -82 -71 -136.5t-179 -54.5q-87 0 -141 33z" />
    <glyph glyph-name="scedilla" unicode="&#x15f;" horiz-adv-x="919" 
d="M313 -416v8q103 -6 157 16t54 64q0 40 -51 62l-174 73l139 183q-84 12 -156.5 58.5t-119.5 115.5v-72q41 -41 71 -61l-172 -56l-6 379h84l51 -84q53 -90 123 -136t166 -46q73 0 115.5 34.5t42.5 92.5q0 41 -27.5 69.5t-93.5 51.5l-215 70q-126 39 -190 117.5t-64 185.5
q0 137 96 226t244 89q88 0 169.5 -48t129.5 -124v74q-55 55 -70 65l172 37l7 -362h-88l-45 75q-51 86 -108 131.5t-138 45.5q-63 0 -101.5 -35.5t-38.5 -85.5q0 -86 103 -123l246 -80q124 -39 188 -114.5t64 -176.5q0 -129 -101 -219.5t-256 -97.5l-88 -119l43 -21l43 64
l66 -27q121 -50 121 -141q0 -82 -71 -136.5t-179 -54.5q-88 0 -142 33z" />
    <glyph glyph-name="Scaron" unicode="&#x160;" horiz-adv-x="1320" 
d="M1223 432q0 -130 -69.5 -233t-188.5 -159t-265 -56q-140 0 -253.5 59t-192.5 158v-74q6 -8 68 -61l-199 -97l-10 516h82l69 -114q158 -269 426 -269q117 0 185.5 56.5t68.5 150.5q0 131 -180 191l-354 121q-151 52 -229.5 153.5t-78.5 237.5q0 193 129 316.5t326 123.5
q256 0 424 -240v82q-7 11 -40 43.5t-42 38.5l199 76l10 -491h-84l-51 81q-85 142 -172.5 212.5t-208.5 70.5q-104 0 -165.5 -52.5t-61.5 -135.5q0 -130 153 -185l391 -133q150 -52 232 -151t82 -236zM991 1972h8l-274 -348h-225l-275 348h8l424 -135l-157 -90h96z" />
    <glyph glyph-name="scaron" unicode="&#x161;" horiz-adv-x="919" 
d="M416 918q-63 0 -101.5 -35.5t-38.5 -85.5q0 -86 103 -123l246 -80q124 -39 188 -114.5t64 -176.5q0 -134 -109 -225.5t-272 -91.5q-100 0 -189 49t-145 129v-72q41 -41 71 -61l-172 -56l-6 379h84l51 -84q53 -90 123 -136t166 -46q73 0 115.5 34.5t42.5 92.5
q0 41 -27.5 69.5t-93.5 51.5l-215 70q-126 39 -190 117.5t-64 185.5q0 137 96 226t244 89q88 0 169.5 -48t129.5 -124v74q-55 55 -70 65l172 37l7 -362h-88l-45 75q-51 86 -108 131.5t-138 45.5zM809 1548h8l-274 -348h-226l-274 348h8l424 -135l-158 -90h97z" />
    <glyph glyph-name="Tcaron" unicode="&#x164;" horiz-adv-x="1445" 
d="M33 1434h1380l19 -478h-74l-45 140q-41 128 -118 184.5t-206 56.5h-176v-47h80v-1069q0 -138 135 -147l57 -4v-70h-725v70l56 4q137 9 137 147v1116h-96q-129 0 -207 -56.5t-119 -184.5l-43 -140h-76zM1104 1972h8l-274 -348h-226l-274 348h8l424 -135l-158 -90h97z" />
    <glyph glyph-name="tcaron" unicode="&#x165;" horiz-adv-x="825" 
d="M373 930v-43h90v-588q0 -67 37.5 -105t99.5 -38q131 0 193 141l10 -4q-34 -152 -122 -230.5t-226 -78.5q-128 0 -203.5 70t-75.5 202v674h-190q160 102 283.5 229t193.5 264v-413h319v-80h-409zM864 1348q0 -86 -65.5 -162t-190.5 -101l-6 17q166 58 166 190v35h-37v-67
q-22 -9 -49 -9q-52 0 -88.5 37.5t-36.5 89.5q0 58 43 98t107 40q70 0 113.5 -46t43.5 -122z" />
    <glyph glyph-name="Tbar" unicode="&#x166;" horiz-adv-x="1445" 
d="M1229 778v-92h-336v-465q0 -138 135 -147l57 -4v-70h-725v70l56 4q137 9 137 147v414h74v51h-410v92h336v559h-96q-129 0 -207 -56.5t-119 -184.5l-43 -140h-76l21 478h1380l19 -478h-74l-45 140q-41 128 -118 184.5t-206 56.5h-176v-47h80v-512h336z" />
    <glyph glyph-name="tbar" unicode="&#x167;" horiz-adv-x="825" 
d="M266 582h-280v80h190v268h-190q160 102 283.5 229t193.5 264v-413h319v-80h-409v-43h90v-225h319v-80h-319v-283q0 -67 37.5 -105t99.5 -38q131 0 193 141l10 -4q-34 -152 -122 -230.5t-226 -78.5q-128 0 -203.5 70t-75.5 202v283h90v43z" />
    <glyph glyph-name="Utilde" unicode="&#x168;" horiz-adv-x="1630" 
d="M1262 1178q0 164 -140 182l-47 6v68h514v-68l-47 -6q-137 -18 -137 -182v-598q0 -275 -163 -439t-437 -164q-263 0 -421.5 141.5t-158.5 409.5v684q0 139 -137 148l-55 4v70h723v-70l-56 -4q-137 -9 -137 -148v-694q0 -175 90 -274t244 -99q169 0 267 121.5t98 321.5v590
zM1296 1923h9q-53 -170 -111 -248t-143 -78q-55 0 -190 67t-181 67q-91 0 -170 -134h-8q53 172 111 250t143 78q49 0 123 -33.5t142.5 -66.5t104.5 -33q97 0 170 131z" />
    <glyph glyph-name="utilde" unicode="&#x169;" horiz-adv-x="1292" 
d="M467 1036v-714q0 -86 40 -136.5t120 -50.5q60 0 113.5 33.5t90.5 93.5v486q0 53 -20.5 79t-87.5 58l-64 30l459 121v-813q0 -50 18.5 -75.5t80.5 -55.5l73 -37l-459 -75v122l74 95v65l-41 -53q-28 -36 -53 -64.5t-63 -61.5t-75.5 -55t-87.5 -36.5t-102 -14.5
q-141 0 -222 82.5t-81 223.5v465q0 53 -20.5 79t-87.5 58l-64 30zM1059 1499h8q-53 -170 -111 -247.5t-143 -77.5q-55 0 -190 66.5t-181 66.5q-91 0 -170 -133h-8q53 171 111 249t143 78q49 0 123 -33.5t143 -66.5t105 -33q97 0 170 131z" />
    <glyph glyph-name="Umacron" unicode="&#x16a;" horiz-adv-x="1630" 
d="M1262 1178q0 164 -140 182l-47 6v68h514v-68l-47 -6q-137 -18 -137 -182v-598q0 -275 -163 -439t-437 -164q-263 0 -421.5 141.5t-158.5 409.5v684q0 139 -137 148l-55 4v70h723v-70l-56 -4q-137 -9 -137 -148v-694q0 -175 90 -274t244 -99q169 0 267 121.5t98 321.5v590
zM559 1847h688v-174h-688v174z" />
    <glyph glyph-name="umacron" unicode="&#x16b;" horiz-adv-x="1292" 
d="M467 1036v-714q0 -86 40 -136.5t120 -50.5q60 0 113.5 33.5t90.5 93.5v486q0 53 -20.5 79t-87.5 58l-64 30l459 121v-813q0 -50 18.5 -75.5t80.5 -55.5l73 -37l-459 -75v122l74 95v65l-41 -53q-28 -36 -53 -64.5t-63 -61.5t-75.5 -55t-87.5 -36.5t-102 -14.5
q-141 0 -222 82.5t-81 223.5v465q0 53 -20.5 79t-87.5 58l-64 30zM322 1423h688v-174h-688v174z" />
    <glyph glyph-name="Ubreve" unicode="&#x16c;" horiz-adv-x="1630" 
d="M1262 1178q0 164 -140 182l-47 6v68h514v-68l-47 -6q-137 -18 -137 -182v-598q0 -275 -163 -439t-437 -164q-263 0 -421.5 141.5t-158.5 409.5v684q0 139 -137 148l-55 4v70h723v-70l-56 -4q-137 -9 -137 -148v-694q0 -175 90 -274t244 -99q169 0 267 121.5t98 321.5v590
zM594 1935q28 -73 109 -121.5t200 -48.5t200 48.5t109 121.5h9q7 -166 -85.5 -267t-232.5 -101t-232 100.5t-85 267.5h8z" />
    <glyph glyph-name="ubreve" unicode="&#x16d;" horiz-adv-x="1292" 
d="M467 1036v-714q0 -86 40 -136.5t120 -50.5q60 0 113.5 33.5t90.5 93.5v486q0 53 -20.5 79t-87.5 58l-64 30l459 121v-813q0 -50 18.5 -75.5t80.5 -55.5l73 -37l-459 -75v122l74 95v65l-41 -53q-28 -36 -53 -64.5t-63 -61.5t-75.5 -55t-87.5 -36.5t-102 -14.5
q-141 0 -222 82.5t-81 223.5v465q0 53 -20.5 79t-87.5 58l-64 30zM356 1511q28 -73 109.5 -121.5t200.5 -48.5t200 48.5t109 121.5h8q7 -167 -85 -267.5t-232 -100.5t-232.5 101t-85.5 267h8z" />
    <glyph glyph-name="Uring" unicode="&#x16e;" horiz-adv-x="1630" 
d="M1262 1178q0 164 -140 182l-47 6v68h514v-68l-47 -6q-137 -18 -137 -182v-598q0 -275 -163 -439t-437 -164q-263 0 -421.5 141.5t-158.5 409.5v684q0 139 -137 148l-55 4v70h723v-70l-56 -4q-137 -9 -137 -148v-694q0 -175 90 -274t244 -99q169 0 267 121.5t98 321.5v590
zM903 1980q96 0 160.5 -59t64.5 -152q0 -87 -64.5 -145.5t-160.5 -58.5t-160.5 58.5t-64.5 145.5q0 93 64.5 152t160.5 59zM903 1653q51 0 81 32.5t30 83.5q0 56 -29.5 88.5t-81.5 32.5t-81 -32.5t-29 -88.5q0 -51 29.5 -83.5t80.5 -32.5z" />
    <glyph glyph-name="uring" unicode="&#x16f;" horiz-adv-x="1292" 
d="M467 1036v-714q0 -86 40 -136.5t120 -50.5q60 0 113.5 33.5t90.5 93.5v486q0 53 -20.5 79t-87.5 58l-64 30l459 121v-813q0 -50 18.5 -75.5t80.5 -55.5l73 -37l-459 -75v122l74 95v65l-41 -53q-28 -36 -53 -64.5t-63 -61.5t-75.5 -55t-87.5 -36.5t-102 -14.5
q-141 0 -222 82.5t-81 223.5v465q0 53 -20.5 79t-87.5 58l-64 30zM666 1556q96 0 160.5 -58.5t64.5 -151.5q0 -87 -64.5 -146t-160.5 -59t-161 59t-65 146q0 93 64.5 151.5t161.5 58.5zM666 1229q51 0 80.5 33t29.5 84q0 56 -29 88t-81 32t-81.5 -32t-29.5 -88q0 -51 30 -84
t81 -33z" />
    <glyph glyph-name="Uhungarumlaut" unicode="&#x170;" horiz-adv-x="1630" 
d="M1262 1178q0 164 -140 182l-47 6v68h514v-68l-47 -6q-137 -18 -137 -182v-598q0 -275 -163 -439t-437 -164q-263 0 -421.5 141.5t-158.5 409.5v684q0 139 -137 148l-55 4v70h723v-70l-56 -4q-137 -9 -137 -148v-694q0 -175 90 -274t244 -99q169 0 267 121.5t98 321.5v590
zM948 1751l-323 -188h-9l175 292q34 60 67 85.5t78 25.5q41 0 68 -23t32 -55t-17.5 -70.5t-70.5 -66.5zM1296 1751l-323 -188h-8l174 292q34 60 67 85.5t78 25.5q41 0 68 -23t32 -55t-17.5 -70.5t-70.5 -66.5z" />
    <glyph glyph-name="uhungarumlaut" unicode="&#x171;" horiz-adv-x="1292" 
d="M467 1036v-714q0 -86 40 -136.5t120 -50.5q60 0 113.5 33.5t90.5 93.5v486q0 53 -20.5 79t-87.5 58l-64 30l459 121v-813q0 -50 18.5 -75.5t80.5 -55.5l73 -37l-459 -75v122l74 95v65l-41 -53q-28 -36 -53 -64.5t-63 -61.5t-75.5 -55t-87.5 -36.5t-102 -14.5
q-141 0 -222 82.5t-81 223.5v465q0 53 -20.5 79t-87.5 58l-64 30zM711 1327l-324 -188h-8l174 293q34 59 67 84.5t78 25.5q41 0 68 -23t32 -55t-17 -70.5t-70 -66.5zM1059 1327l-324 -188h-8l174 293q34 59 67.5 84.5t78.5 25.5q41 0 68 -23t32 -55t-17.5 -70.5t-70.5 -66.5
z" />
    <glyph glyph-name="Uogonek" unicode="&#x172;" horiz-adv-x="1630" 
d="M1036 -276l6 -7q-23 -68 -82 -110.5t-143 -42.5q-77 0 -123.5 44t-46.5 107q0 147 227 265q-34 -3 -69 -3q-263 0 -421.5 141.5t-158.5 409.5v684q0 139 -137 148l-55 4v70h723v-70l-56 -4q-137 -9 -137 -148v-694q0 -175 90 -274t244 -99q169 0 267 121.5t98 321.5v590
q0 164 -140 182l-47 6v68h514v-68l-47 -6q-137 -18 -137 -182v-598q0 -215 -102 -365t-285 -207l-27 -14q-182 -98 -182 -205q0 -48 31 -75t80 -27q61 0 116 37z" />
    <glyph glyph-name="uogonek" unicode="&#x173;" horiz-adv-x="1292" 
d="M467 1036v-714q0 -86 40 -136.5t120 -50.5q60 0 113.5 33.5t90.5 93.5v486q0 53 -20.5 79t-87.5 58l-64 30l459 121v-813q0 -50 18.5 -75.5t80.5 -55.5l73 -37l-30 -16q-183 -99 -183 -205q0 -48 31 -75t80 -27q62 0 117 37l6 -7q-23 -68 -82.5 -110.5t-143.5 -42.5
q-77 0 -123.5 44t-46.5 107q0 152 242 273l-326 -53v122l74 95v65l-41 -53q-28 -36 -53 -64.5t-63 -61.5t-75.5 -55t-87.5 -36.5t-102 -14.5q-141 0 -222 82.5t-81 223.5v465q0 53 -20.5 79t-87.5 58l-64 30z" />
    <glyph glyph-name="Wcircumflex" unicode="&#x174;" horiz-adv-x="2207" 
d="M1454 -29l-332 828l-385 -828h-75l-480 1243q-27 70 -63.5 105.5t-98.5 50.5v64h631v-68l-35 -4q-126 -15 -81 -145l266 -725l-37 -84l31 -60l270 592l-111 274q-28 71 -64 106t-99 50v64h620v-68l-35 -4q-55 -7 -72.5 -45.5t5.5 -99.5l260 -693l-31 -82l35 -65l297 778
q40 96 20 146.5t-112 60.5l-35 4v68h444v-64q-128 -38 -176 -172l-481 -1227h-76zM748 1567h-9l275 348h225l274 -348h-8l-424 135l158 90h-96z" />
    <glyph glyph-name="wcircumflex" unicode="&#x175;" horiz-adv-x="1845" 
d="M1163 -12l-243 569l-269 -569h-100l-379 819q-30 66 -59 98t-78 43v62h540v-64l-30 -4q-45 -6 -60.5 -44t7.5 -89l186 -410l-37 -80l31 -55l192 420l-53 123q-27 65 -60.5 100.5t-66.5 40.5v62h522v-64l-30 -4q-45 -6 -60 -43t6 -90l170 -408l-37 -73l29 -54l240 478
q84 169 -86 190l-31 4v64h403v-62q-48 -13 -83.5 -51t-69.5 -106l-393 -803h-101zM567 1143h-8l275 348h225l274 -348h-8l-424 135l158 90h-96z" />
    <glyph glyph-name="Ycircumflex" unicode="&#x176;" horiz-adv-x="1523" 
d="M825 631l355 538q52 82 31.5 133t-103.5 60l-35 4v68h426v-64q-89 -23 -174 -151l-391 -592v-404q0 -139 147 -151l45 -4v-68h-725v68l45 4q148 12 148 151v385l-418 639q-67 105 -151 123v64h622v-68l-55 -8q-59 -9 -69 -52.5t32 -109.5l287 -446l-49 -74zM446 1567h-8
l275 348h225l274 -348h-8l-424 135l158 90h-96z" />
    <glyph glyph-name="ycircumflex" unicode="&#x177;" horiz-adv-x="1251" 
d="M406 -223l147 274l-385 756q-33 65 -67 96.5t-91 44.5v62h621v-64l-31 -4q-59 -8 -79.5 -42t5.5 -91l181 -365l-43 -77l32 -52l234 437q42 80 21 129.5t-97 60.5l-31 4v64h418v-62q-50 -13 -89 -51t-75 -106l-553 -1035q-29 -55 -59.5 -94.5t-71.5 -73.5t-95 -51.5
t-120 -17.5q-87 0 -146 45.5t-59 120.5q0 52 38.5 91.5t92.5 39.5q63 0 94.5 -46t18.5 -118h-45v-33q86 -4 136 30.5t98 127.5zM315 1143h-8l275 348h225l274 -348h-8l-424 135l158 90h-96z" />
    <glyph glyph-name="Ydieresis" unicode="&#x178;" horiz-adv-x="1523" 
d="M825 631l355 538q52 82 31.5 133t-103.5 60l-35 4v68h426v-64q-89 -23 -174 -151l-391 -592v-404q0 -139 147 -151l45 -4v-68h-725v68l45 4q148 12 148 151v385l-418 639q-67 105 -151 123v64h622v-68l-55 -8q-59 -9 -69 -52.5t32 -109.5l287 -446l-49 -74zM506 1634v257
h272v-257h-272zM887 1634v257h272v-257h-272z" />
    <glyph glyph-name="Zacute" unicode="&#x179;" horiz-adv-x="1384" 
d="M852 1288h70l28 45h-428q-118 0 -187.5 -70.5t-117.5 -220.5l-37 -116h-86l33 508h1182l-834 -1293h-72l-28 -45h520q123 0 200.5 73t125.5 226l36 115h86l-55 -510h-1268zM547 1567h8l387 168q47 20 67 60t12 78t-42.5 66.5t-85.5 28.5q-48 0 -78.5 -26t-79.5 -97z" />
    <glyph glyph-name="zacute" unicode="&#x17a;" horiz-adv-x="1052" 
d="M330 82h276q115 0 186 57.5t103 179.5l23 87h88l-43 -406h-938l587 883h70l25 45h-238q-116 0 -181.5 -48.5t-101.5 -154.5l-36 -111h-84l16 396h932l-590 -883h-70zM348 1143h8l387 168q47 20 67 60t12 78t-42.5 66.5t-85.5 28.5q-48 0 -78 -26t-79 -97z" />
    <glyph glyph-name="Zdotaccent" unicode="&#x17b;" horiz-adv-x="1384" 
d="M852 1288h70l28 45h-428q-118 0 -187.5 -70.5t-117.5 -220.5l-37 -116h-86l33 508h1182l-834 -1293h-72l-28 -45h520q123 0 200.5 73t125.5 226l36 115h86l-55 -510h-1268zM575 1620v270h287v-270h-287z" />
    <glyph glyph-name="zdotaccent" unicode="&#x17c;" horiz-adv-x="1052" 
d="M330 82h276q115 0 186 57.5t103 179.5l23 87h88l-43 -406h-938l587 883h70l25 45h-238q-116 0 -181.5 -48.5t-101.5 -154.5l-36 -111h-84l16 396h932l-590 -883h-70zM377 1196v270h287v-270h-287z" />
    <glyph glyph-name="Zcaron" unicode="&#x17d;" horiz-adv-x="1384" 
d="M852 1288h70l28 45h-428q-118 0 -187.5 -70.5t-117.5 -220.5l-37 -116h-86l33 508h1182l-834 -1293h-72l-28 -45h520q123 0 200.5 73t125.5 226l36 115h86l-55 -510h-1268zM1098 1972h8l-275 -348h-225l-274 348h8l424 -135l-158 -90h96z" />
    <glyph glyph-name="zcaron" unicode="&#x17e;" horiz-adv-x="1052" 
d="M330 82h276q115 0 186 57.5t103 179.5l23 87h88l-43 -406h-938l587 883h70l25 45h-238q-116 0 -181.5 -48.5t-101.5 -154.5l-36 -111h-84l16 396h932l-590 -883h-70zM899 1548h8l-274 -348h-225l-275 348h8l424 -135l-157 -90h96z" />
    <glyph glyph-name="Scommaaccent" unicode="&#x218;" horiz-adv-x="1320" 
d="M1223 432q0 -130 -69.5 -233t-188.5 -159t-265 -56q-140 0 -253.5 59t-192.5 158v-74q6 -8 68 -61l-199 -97l-10 516h82l69 -114q158 -269 426 -269q117 0 185.5 56.5t68.5 150.5q0 131 -180 191l-354 121q-151 52 -229.5 153.5t-78.5 237.5q0 193 129 316.5t326 123.5
q256 0 424 -240v82q-7 11 -40 43.5t-42 38.5l199 76l10 -491h-84l-51 81q-85 142 -172.5 212.5t-208.5 70.5q-104 0 -165.5 -52.5t-61.5 -135.5q0 -130 153 -185l391 -133q150 -52 232 -151t82 -236zM854 -262q0 -86 -65.5 -161.5t-190.5 -100.5l-6 16q166 58 166 191v34
h-37v-67q-20 -8 -49 -8q-52 0 -88.5 37.5t-36.5 89.5q0 58 42.5 97.5t106.5 39.5q70 0 114 -46t44 -122z" />
    <glyph glyph-name="scommaaccent" unicode="&#x219;" horiz-adv-x="919" 
d="M416 918q-63 0 -101.5 -35.5t-38.5 -85.5q0 -86 103 -123l246 -80q124 -39 188 -114.5t64 -176.5q0 -134 -109 -225.5t-272 -91.5q-100 0 -189 49t-145 129v-72q41 -41 71 -61l-172 -56l-6 379h84l51 -84q53 -90 123 -136t166 -46q73 0 115.5 34.5t42.5 92.5
q0 41 -27.5 69.5t-93.5 51.5l-215 70q-126 39 -190 117.5t-64 185.5q0 137 96 226t244 89q88 0 169.5 -48t129.5 -124v74q-55 55 -70 65l172 37l7 -362h-88l-45 75q-51 86 -108 131.5t-138 45.5zM653 -262q0 -86 -65.5 -161.5t-190.5 -100.5l-6 16q166 58 166 191v34h-37
v-67q-20 -8 -49 -8q-52 0 -88.5 37.5t-36.5 89.5q0 57 43 97t107 40q70 0 113.5 -46t43.5 -122z" />
    <glyph glyph-name="uni021A" unicode="&#x21a;" horiz-adv-x="1445" 
d="M33 1434h1380l19 -478h-74l-45 140q-41 128 -118 184.5t-206 56.5h-176v-47h80v-1069q0 -138 135 -147l57 -4v-70h-725v70l56 4q137 9 137 147v1116h-96q-129 0 -207 -56.5t-119 -184.5l-43 -140h-76zM883 -262q0 -86 -65.5 -161.5t-190.5 -100.5l-6 16q165 58 165 191
v34h-36v-67q-20 -8 -50 -8q-52 0 -88.5 37.5t-36.5 89.5q0 57 43 97t107 40q70 0 114 -46t44 -122z" />
    <glyph glyph-name="uni021B" unicode="&#x21b;" horiz-adv-x="825" 
d="M373 930v-43h90v-588q0 -67 37.5 -105t99.5 -38q131 0 193 141l10 -4q-34 -152 -122 -230.5t-226 -78.5q-128 0 -203.5 70t-75.5 202v674h-190q160 102 283.5 229t193.5 264v-413h319v-80h-409zM596 -262q0 -86 -65.5 -161.5t-190.5 -100.5l-6 16q166 58 166 191v34h-37
v-67q-20 -8 -49 -8q-52 0 -88.5 37.5t-36.5 89.5q0 58 42.5 97.5t106.5 39.5q70 0 114 -46t44 -122z" />
    <glyph glyph-name="circumflex" unicode="&#x2c6;" horiz-adv-x="1024" 
d="M133 1143h-8l274 348h226l274 -348h-8l-424 135l158 90h-97z" />
    <glyph glyph-name="caron" unicode="&#x2c7;" horiz-adv-x="1024" 
d="M891 1542h8l-274 -348h-226l-274 348h8l424 -135l-158 -90h97z" />
    <glyph glyph-name="breve" unicode="&#x2d8;" horiz-adv-x="1024" 
d="M203 1511q28 -73 109 -121.5t200 -48.5t200 48.5t109 121.5h8q7 -167 -85 -267.5t-232 -100.5t-232 100.5t-85 267.5h8z" />
    <glyph glyph-name="dotaccent" unicode="&#x2d9;" horiz-adv-x="1024" 
d="M369 1196v270h286v-270h-286z" />
    <glyph glyph-name="ring" unicode="&#x2da;" horiz-adv-x="1024" 
d="M512 1556q96 0 160.5 -58.5t64.5 -151.5q0 -87 -64.5 -146t-160.5 -59t-160.5 59t-64.5 146q0 93 64.5 151.5t160.5 58.5zM512 1229q51 0 81 33t30 84q0 56 -29.5 88t-81.5 32t-81.5 -32t-29.5 -88q0 -51 30 -84t81 -33z" />
    <glyph glyph-name="ogonek" unicode="&#x2db;" horiz-adv-x="1024" 
d="M670 -287l6 -6q-23 -68 -82 -110.5t-143 -42.5q-77 0 -123.5 44t-46.5 107q0 78 71 155t232 146l28 12l43 -18l-30 -16q-183 -99 -183 -205q0 -48 31 -75.5t80 -27.5q62 0 117 37z" />
    <glyph glyph-name="tilde" unicode="&#x2dc;" horiz-adv-x="1024" 
d="M905 1499h8q-53 -170 -111 -247.5t-143 -77.5q-44 0 -117 33t-143.5 66.5t-109.5 33.5q-91 0 -170 -133h-8q53 171 111 249t143 78q49 0 123 -33.5t142.5 -66.5t104.5 -33q97 0 170 131z" />
    <glyph glyph-name="hungarumlaut" unicode="&#x2dd;" horiz-adv-x="1024" 
d="M557 1321l-324 -188h-8l174 292q34 59 67.5 85t78.5 26q41 0 68 -23t32 -55t-17.5 -70.5t-70.5 -66.5zM905 1321l-323 -188h-9l175 292q34 60 67 85.5t78 25.5q41 0 68 -23t32 -55t-17.5 -70.5t-70.5 -66.5z" />
    <glyph glyph-name="Wgrave" unicode="&#x1e80;" horiz-adv-x="2207" 
d="M1454 -29l-332 828l-385 -828h-75l-480 1243q-27 70 -63.5 105.5t-98.5 50.5v64h631v-68l-35 -4q-126 -15 -81 -145l266 -725l-37 -84l31 -60l270 592l-111 274q-28 71 -64 106t-99 50v64h620v-68l-35 -4q-55 -7 -72.5 -45.5t5.5 -99.5l260 -693l-31 -82l35 -65l297 778
q40 96 20 146.5t-112 60.5l-35 4v68h444v-64q-128 -38 -176 -172l-481 -1227h-76zM1298 1567h-8l-387 168q-47 20 -67 60t-12 78t42.5 66.5t85.5 28.5q48 0 78.5 -26t79.5 -97z" />
    <glyph glyph-name="wgrave" unicode="&#x1e81;" horiz-adv-x="1845" 
d="M1163 -12l-243 569l-269 -569h-100l-379 819q-30 66 -59 98t-78 43v62h540v-64l-30 -4q-45 -6 -60.5 -44t7.5 -89l186 -410l-37 -80l31 -55l192 420l-53 123q-27 65 -60.5 100.5t-66.5 40.5v62h522v-64l-30 -4q-45 -6 -60 -43t6 -90l170 -408l-37 -73l29 -54l240 478
q84 169 -86 190l-31 4v64h403v-62q-48 -13 -83.5 -51t-69.5 -106l-393 -803h-101zM1118 1143h-8l-387 168q-47 20 -67 60t-12 78t42.5 66.5t85.5 28.5q48 0 78.5 -26t79.5 -97z" />
    <glyph glyph-name="Wacute" unicode="&#x1e82;" horiz-adv-x="2207" 
d="M1454 -29l-332 828l-385 -828h-75l-480 1243q-27 70 -63.5 105.5t-98.5 50.5v64h631v-68l-35 -4q-126 -15 -81 -145l266 -725l-37 -84l31 -60l270 592l-111 274q-28 71 -64 106t-99 50v64h620v-68l-35 -4q-55 -7 -72.5 -45.5t5.5 -99.5l260 -693l-31 -82l35 -65l297 778
q40 96 20 146.5t-112 60.5l-35 4v68h444v-64q-128 -38 -176 -172l-481 -1227h-76zM954 1567h9l387 168q63 27 77.5 84t-22.5 103t-105 46q-48 0 -78 -26t-79 -97z" />
    <glyph glyph-name="wacute" unicode="&#x1e83;" horiz-adv-x="1845" 
d="M1163 -12l-243 569l-269 -569h-100l-379 819q-30 66 -59 98t-78 43v62h540v-64l-30 -4q-45 -6 -60.5 -44t7.5 -89l186 -410l-37 -80l31 -55l192 420l-53 123q-27 65 -60.5 100.5t-66.5 40.5v62h522v-64l-30 -4q-45 -6 -60 -43t6 -90l170 -408l-37 -73l29 -54l240 478
q84 169 -86 190l-31 4v64h403v-62q-48 -13 -83.5 -51t-69.5 -106l-393 -803h-101zM774 1143h8l387 168q47 20 67 60t12 78t-42.5 66.5t-85.5 28.5q-48 0 -78 -26t-79 -97z" />
    <glyph glyph-name="Wdieresis" unicode="&#x1e84;" horiz-adv-x="2207" 
d="M1454 -29l-332 828l-385 -828h-75l-480 1243q-27 70 -63.5 105.5t-98.5 50.5v64h631v-68l-35 -4q-126 -15 -81 -145l266 -725l-37 -84l31 -60l270 592l-111 274q-28 71 -64 106t-99 50v64h620v-68l-35 -4q-55 -7 -72.5 -45.5t5.5 -99.5l260 -693l-31 -82l35 -65l297 778
q40 96 20 146.5t-112 60.5l-35 4v68h444v-64q-128 -38 -176 -172l-481 -1227h-76zM807 1634v257h272v-257h-272zM1188 1634v257h272v-257h-272z" />
    <glyph glyph-name="wdieresis" unicode="&#x1e85;" horiz-adv-x="1845" 
d="M1163 -12l-243 569l-269 -569h-100l-379 819q-30 66 -59 98t-78 43v62h540v-64l-30 -4q-45 -6 -60.5 -44t7.5 -89l186 -410l-37 -80l31 -55l192 420l-53 123q-27 65 -60.5 100.5t-66.5 40.5v62h522v-64l-30 -4q-45 -6 -60 -43t6 -90l170 -408l-37 -73l29 -54l240 478
q84 169 -86 190l-31 4v64h403v-62q-48 -13 -83.5 -51t-69.5 -106l-393 -803h-101zM627 1210v257h272v-257h-272zM1008 1210v257h272v-257h-272z" />
    <glyph glyph-name="Ygrave" unicode="&#x1ef2;" horiz-adv-x="1523" 
d="M825 631l355 538q52 82 31.5 133t-103.5 60l-35 4v68h426v-64q-89 -23 -174 -151l-391 -592v-404q0 -139 147 -151l45 -4v-68h-725v68l45 4q148 12 148 151v385l-418 639q-67 105 -151 123v64h622v-68l-55 -8q-59 -9 -69 -52.5t32 -109.5l287 -446l-49 -74zM997 1567h-8
l-387 168q-47 20 -67 60t-12 78t42.5 66.5t85.5 28.5q48 0 78.5 -26t79.5 -97z" />
    <glyph glyph-name="ygrave" unicode="&#x1ef3;" horiz-adv-x="1251" 
d="M406 -223l147 274l-385 756q-33 65 -67 96.5t-91 44.5v62h621v-64l-31 -4q-59 -8 -79.5 -42t5.5 -91l181 -365l-43 -77l32 -52l234 437q42 80 21 129.5t-97 60.5l-31 4v64h418v-62q-50 -13 -89 -51t-75 -106l-553 -1035q-29 -55 -59.5 -94.5t-71.5 -73.5t-95 -51.5
t-120 -17.5q-87 0 -146 45.5t-59 120.5q0 52 38.5 91.5t92.5 39.5q63 0 94.5 -46t18.5 -118h-45v-33q86 -4 136 30.5t98 127.5zM866 1143h-8l-387 168q-47 20 -67 60t-12 78t42.5 66.5t85.5 28.5q48 0 78.5 -26t79.5 -97z" />
    <glyph glyph-name="endash" unicode="&#x2013;" 
d="M72 696h917v-92h-917v92z" />
    <glyph glyph-name="emdash" unicode="&#x2014;" horiz-adv-x="1368" 
d="M72 696h1224v-92h-1224v92z" />
    <glyph glyph-name="quoteleft" unicode="&#x2018;" horiz-adv-x="487" 
d="M80 1122q0 105 74 206.5t221 150.5l10 -17q-91 -39 -145 -120t-54 -158v-35h37v47q15 10 53 10q56 0 96 -42.5t40 -100.5q0 -66 -44.5 -111t-113.5 -45q-76 0 -125 57t-49 158z" />
    <glyph glyph-name="quoteright" unicode="&#x2019;" horiz-adv-x="487" 
d="M408 1270q0 -105 -74 -206.5t-221 -150.5l-11 17q91 39 145 120t54 158v35h-37v-47q-15 -10 -53 -10q-56 0 -95.5 42.5t-39.5 100.5q0 66 44 111t113 45q76 0 125.5 -57t49.5 -158z" />
    <glyph glyph-name="quotesinglbase" unicode="&#x201a;" horiz-adv-x="487" 
d="M408 88q0 -105 -74 -206t-221 -150l-11 16q91 39 145 120.5t54 158.5v34h-37v-47q-15 -10 -53 -10q-56 0 -95.5 42.5t-39.5 100.5q0 66 44 111t113 45q76 0 125.5 -57t49.5 -158z" />
    <glyph glyph-name="quotedblleft" unicode="&#x201c;" horiz-adv-x="897" 
d="M80 1122q0 105 74 206.5t221 150.5l10 -17q-91 -39 -145 -120t-54 -158v-35h37v47q15 10 53 10q56 0 96 -42.5t40 -100.5q0 -66 -44.5 -111t-113.5 -45q-76 0 -125 57t-49 158zM489 1122q0 105 74 206.5t221 150.5l11 -17q-91 -39 -145 -120t-54 -158v-35h37v47
q15 10 53 10q56 0 95.5 -42.5t39.5 -100.5q0 -66 -44 -111t-113 -45q-76 0 -125.5 57t-49.5 158z" />
    <glyph glyph-name="quotedblright" unicode="&#x201d;" horiz-adv-x="897" 
d="M817 1274q0 -105 -74 -206t-221 -150l-10 16q91 39 145 120t54 158v35h-37v-47q-15 -10 -53 -10q-56 0 -96 42.5t-40 100.5q0 66 44.5 111t113.5 45q76 0 125 -57t49 -158zM408 1274q0 -105 -74 -206t-221 -150l-11 16q91 39 145 120t54 158v35h-37v-47q-15 -10 -53 -10
q-56 0 -95.5 42.5t-39.5 100.5q0 66 44 111t113 45q76 0 125.5 -57t49.5 -158z" />
    <glyph glyph-name="quotedblbase" unicode="&#x201e;" horiz-adv-x="811" 
d="M817 53q0 -105 -74 -206t-221 -150l-10 16q91 39 145 120.5t54 158.5v35h-37v-47q-16 -11 -53 -11q-56 0 -96 43t-40 101q0 66 44.5 110.5t113.5 44.5q76 0 125 -57t49 -158zM408 53q0 -105 -74 -206t-221 -150l-11 16q91 39 145 120.5t54 158.5v35h-37v-47
q-16 -11 -53 -11q-56 0 -95.5 43t-39.5 101q0 66 44 110.5t113 44.5q76 0 125.5 -57t49.5 -158z" />
    <glyph glyph-name="dagger" unicode="&#x2020;" horiz-adv-x="1167" 
d="M731 655q-66 -200 -97 -445t-44 -683h-12q-13 437 -44.5 682t-97.5 446q59 66 89 161.5t30 174.5v13q0 51 -34 161t-34 156q0 56 26 84.5t71 28.5t70.5 -28t25.5 -85q0 -46 -34 -156t-34 -161v-13q0 -79 30 -174.5t89 -161.5zM520 1024q4 -28 0 -53q-57 -5 -153 -37.5
t-134 -32.5q-52 0 -79 26t-27 70t27 70.5t79 26.5q38 0 134 -32.5t153 -37.5zM647 1024q57 5 153 37.5t134 32.5q52 0 79 -26.5t27 -70.5t-27 -70t-79 -26q-38 0 -134 32.5t-153 37.5q-4 25 0 53z" />
    <glyph glyph-name="daggerdbl" unicode="&#x2021;" horiz-adv-x="1167" 
d="M612 -10v-33q0 -51 34 -161t34 -156q0 -54 -25 -83.5t-71 -29.5t-71.5 29.5t-25.5 83.5q0 46 34 156t34 161v33q0 118 -141 223q74 60 107.5 122.5t33.5 141.5v6q0 79 -33.5 142t-107.5 123q141 105 141 223v33q0 51 -34 161t-34 156q0 54 25.5 83.5t71.5 29.5t71 -29.5
t25 -83.5q0 -46 -34 -156t-34 -161v-33q0 -117 142 -223q-74 -60 -108 -123t-34 -142v-6q0 -79 34 -141t108 -123q-142 -106 -142 -223zM520 1024q4 -28 0 -53q-57 -5 -153 -37.5t-134 -32.5q-51 0 -78.5 25t-27.5 71t27.5 71.5t78.5 25.5q38 0 134 -32.5t153 -37.5z
M647 1024q57 5 153 37.5t134 32.5q51 0 78.5 -25.5t27.5 -71.5t-27.5 -71t-78.5 -25q-38 0 -134 32.5t-153 37.5q-4 25 0 53zM647 -63q-4 28 0 53q57 5 153 37t134 32q51 0 78.5 -25t27.5 -71t-27.5 -71t-78.5 -25q-38 0 -134 32.5t-153 37.5zM520 -63q-57 -5 -153 -37.5
t-134 -32.5q-51 0 -78.5 25t-27.5 71t27.5 71t78.5 25q38 0 134 -32t153 -37q4 -25 0 -53z" />
    <glyph glyph-name="bullet" unicode="&#x2022;" horiz-adv-x="673" 
d="M121 936h434v-438h-434v438z" />
    <glyph glyph-name="ellipsis" unicode="&#x2026;" horiz-adv-x="1474" 
d="M86 303h307v-303h-307v303zM578 303h307v-303h-307v303zM1069 303h307v-303h-307v303z" />
    <glyph glyph-name="guilsinglleft" unicode="&#x2039;" horiz-adv-x="688" 
d="M606 -8v-12l-545 528l545 528v-12l-268 -516z" />
    <glyph glyph-name="guilsinglright" unicode="&#x203a;" horiz-adv-x="688" 
d="M82 971v12l545 -528l-545 -529v13l268 516z" />
    <glyph glyph-name="fraction" unicode="&#x2044;" horiz-adv-x="1175" 
d="M1106 1434l-922 -1434h-104l921 1434h105z" />
    <glyph glyph-name="Euro" unicode="&#x20ac;" horiz-adv-x="1460" 
d="M332 506q-7 24 -10 49h-281v107h158v67h-158v107h168q40 266 218 442t415 176q245 0 405 -235v79q-5 8 -38.5 40t-43.5 40l193 80v-516h-82l-33 82q-118 297 -352 297q-152 0 -254.5 -137t-114.5 -348h699l-74 -107h-625q0 -21 4 -67h576l-74 -107h-485
q41 -186 150 -292.5t276 -106.5q126 0 224 62t163 181l22 -10q-75 -194 -211.5 -301.5t-322.5 -107.5q-229 0 -398.5 146t-224.5 380h111z" />
    <glyph glyph-name="trademark" unicode="&#x2122;" horiz-adv-x="2023" 
d="M35 1434h796l15 -285h-47l-19 68q-20 73 -63 106t-113 33h-117v-51h41v-547q0 -41 23 -65.5t63 -24.5h27v-68h-412v68h25q41 0 63.5 24t22.5 66v598h-74q-71 0 -112.5 -33t-63.5 -106l-20 -68h-50zM1417 905l-22 -57l24 -60l256 646h322v-66h-25q-43 0 -65.5 -23.5
t-22.5 -64.5v-522q0 -42 22.5 -66t65.5 -24h25v-68h-410v68h27q40 0 61 24t21 66v471l28 86h-34l-308 -748h-2l-313 764v-563q0 -43 21.5 -69t62.5 -29l29 -2v-68h-287v68l27 2q84 6 84 98v498q0 94 -84 100l-27 2v66h307z" />
    <glyph glyph-name="uni2157" unicode="&#x2157;" horiz-adv-x="1542" 
d="M623 918q0 -105 -83 -186t-231 -81q-106 0 -184 52.5t-78 142.5q0 35 22 59.5t58 24.5q46 0 67 -33t9 -86h-33q5 -42 35.5 -70t91.5 -28q63 0 100 46.5t37 112.5q0 154 -229 154h-15l244 303h-47l-37 -43h-129q-73 0 -100 -53l-19 -37h-41l23 238h528l-231 -287
q106 -9 174 -75t68 -154zM1290 1434l-921 -1434h-105l922 1434h104zM1085 635l5 55h-27l-19 -182q61 20 130 20q78 1 139.5 -16t96.5 -43.5t58 -62.5t31 -67.5t8 -62.5q0 -49 -18.5 -98t-54.5 -93t-99.5 -71.5t-144.5 -27.5q-103 0 -183.5 54.5t-80.5 147.5q0 35 22 58.5
t58 23.5q49 0 67.5 -35t5.5 -81h-28q3 -45 34 -78t89 -33q67 0 104 50.5t37 115.5q0 162 -197 162q-51 0 -149 -23l37 420h282q52 0 80.5 10t40.5 35l8 27h47l-12 -205h-367z" />
    <glyph glyph-name="minus" unicode="&#x2212;" 
d="M72 690h917v-92h-917v92z" />
    <glyph glyph-name="dotlessj" unicode="&#xf6be;" horiz-adv-x="643" 
d="M20 915l459 121v-1136q0 -189 -103.5 -289t-312.5 -100q-128 0 -208 60t-80 146q0 54 35 89.5t84 35.5q67 0 99 -44t19 -132h-45q6 -65 86 -65q69 0 104.5 46t35.5 122v979q0 50 -18 75.5t-79 55.5z" />
    <glyph glyph-name="commaaccent" unicode="&#xf6c3;" horiz-adv-x="1024" 
d="M670 -262q0 -86 -65.5 -161.5t-190.5 -100.5l-6 16q165 58 165 191v34h-36v-67q-20 -8 -50 -8q-52 0 -88.5 37.5t-36.5 89.5q0 57 43 97t107 40q70 0 114 -46t44 -122z" />
    <glyph glyph-name="fi" unicode="&#xfb01;" horiz-adv-x="1384" 
d="M166 195v735h-154v80h154v41q0 94 27.5 174.5t80 142.5t136.5 97.5t190 35.5q79 0 148 -24t114 -73.5t45 -115.5q0 -58 -32.5 -91.5t-81.5 -33.5q-69 0 -102 50.5t-21 125.5h45q-6 72 -111 72q-70 0 -110.5 -53.5t-40.5 -153.5v-194h233v-80h-324v-43h91v-692
q0 -118 104 -127l53 -5v-63h-592v63l54 5q94 6 94 127zM911 1196v270h287v-270h-287zM739 915l459 121v-841q0 -118 102 -127l46 -5v-63h-582v63l47 5q100 10 100 127v553q0 51 -18 76t-78 55z" />
    <glyph glyph-name="fl" unicode="&#xfb02;" horiz-adv-x="1378" 
d="M166 195v735h-154v80h154v41q0 94 27.5 174.5t80 142.5t136.5 97.5t190 35.5q152 0 242 -78l350 82v-1310q0 -121 94 -127l53 -5v-63h-581v63l53 5q94 6 94 127v1038v22q-9 -43 -39.5 -67.5t-72.5 -24.5q-69 0 -102 50.5t-21 125.5h45q-6 72 -111 72q-70 0 -110.5 -53.5
t-40.5 -153.5v-194h233v-80h-324v-43h91v-692q0 -118 104 -127l53 -5v-63h-592v63l54 5q94 6 94 127z" />
    <glyph glyph-name="NULL" horiz-adv-x="512" 
 />
    <glyph glyph-name="CR" horiz-adv-x="512" 
 />
    <glyph glyph-name="nbspace" horiz-adv-x="512" 
 />
    <glyph glyph-name="Tcedilla" horiz-adv-x="1445" 
d="M543 -416v8q103 -6 157 16t54 64q0 40 -52 62l-174 73l148 193h-316v70l56 4q137 9 137 147v1116h-96q-129 0 -207 -56.5t-119 -184.5l-43 -140h-76l21 478h1380l19 -478h-74l-45 140q-41 128 -118 184.5t-206 56.5h-176v-47h80v-1069q0 -138 135 -147l57 -4v-70h-325
l-98 -133l43 -21l43 64l65 -27q121 -50 121 -141q0 -82 -71 -136.5t-179 -54.5q-87 0 -141 33z" />
    <glyph glyph-name="idotaccent" horiz-adv-x="665" 
d="M20 915l459 121v-841q0 -118 103 -127l45 -5v-63h-582v63l47 5q101 10 101 127v553q0 50 -18 75.5t-79 55.5zM193 1196v270h286v-270h-286z" />
    <glyph glyph-name="tcedilla" horiz-adv-x="825" 
d="M256 -416v8q103 -6 157 16t54 64q0 40 -51 62l-174 73l141 183q-98 19 -152.5 86.5t-54.5 179.5v674h-190q160 102 283.5 229t193.5 264v-413h319v-80h-409v-43h90v-588q0 -67 37.5 -105t99.5 -38q131 0 193 141l10 -4q-34 -152 -121 -230.5t-221 -78.5l-86 -117l43 -21
l43 64l65 -27q121 -50 121 -141q0 -82 -71 -136.5t-179 -54.5q-87 0 -141 33z" />
    <glyph glyph-name="caronSlovak" horiz-adv-x="1024" 
d="M676 1333q0 -86 -65.5 -161.5t-190.5 -100.5l-6 16q166 58 166 191v35h-37v-68q-20 -8 -49 -8q-52 0 -88.5 37.5t-36.5 89.5q0 58 42.5 97.5t106.5 39.5q70 0 114 -46t44 -122z" />
    <glyph glyph-name="reversequoteleft" horiz-adv-x="487" 
d="M80 1264q0 101 49 158t125 57q69 0 113.5 -45t44.5 -111q0 -58 -40 -100.5t-96 -42.5q-38 0 -53 10v47h-37v-35q0 -77 54 -158t145 -120l-10 -17q-147 49 -221 150.5t-74 206.5z" />
    <glyph glyph-name="reversequotedblleft" horiz-adv-x="897" 
d="M80 1264q0 101 49 158t125 57q69 0 113.5 -45t44.5 -111q0 -58 -40 -100.5t-96 -42.5q-38 0 -53 10v47h-37v-35q0 -77 54 -158t145 -120l-10 -17q-147 49 -221 150.5t-74 206.5zM489 1264q0 101 49.5 158t125.5 57q69 0 113 -45t44 -111q0 -58 -39.5 -100.5t-95.5 -42.5
q-38 0 -53 10v47h-37v-35q0 -77 54 -158t145 -120l-11 -17q-147 49 -221 150.5t-74 206.5z" />
    <glyph glyph-name="enspace" 
 />
    <glyph glyph-name="emspace" horiz-adv-x="1368" 
 />
    <glyph glyph-name="thinspace" horiz-adv-x="358" 
 />
    <glyph glyph-name="hairspace" horiz-adv-x="307" 
 />
    <glyph glyph-name="zerowidthspace" horiz-adv-x="0" 
 />
    </font>
</defs>
</svg>
