<?xml version="1.0" standalone="no"?>
<!DOCTYPE svg PUBLIC "-//W3C//DTD SVG 1.1//EN" "http://www.w3.org/Graphics/SVG/1.1/DTD/svg11.dtd" >
<svg xmlns="http://www.w3.org/2000/svg" xmlns:xlink="http://www.w3.org/1999/xlink" version="1.1">
<metadata>
Created by FontForge 20170731 at Fri Apr 30 01:23:58 2021
 By Aleksey,,,
(c) 2019 MCKL. All Rights Reserved.
</metadata>
<defs>
<font id="Redaction20-Italic" horiz-adv-x="1105" >
  <font-face 
    font-family="Redaction 20"
    font-weight="400"
    font-style="italic"
    font-stretch="normal"
    units-per-em="2048"
    panose-1="2 10 5 3 6 5 4 13 3 3"
    ascent="1536"
    descent="-512"
    x-height="983"
    cap-height="1434"
    bbox="-532 -532 2417 1925"
    underline-thickness="102"
    underline-position="-307"
    unicode-range="U+0020-FB02"
  />
<missing-glyph horiz-adv-x="1052" 
d="M123 -205v1741h807v-1741h-807z" />
    <glyph glyph-name=".notdef" horiz-adv-x="1052" 
d="M123 -205v1741h807v-1741h-807z" />
    <glyph glyph-name=".null" horiz-adv-x="0" 
 />
    <glyph glyph-name="nonmarkingreturn" horiz-adv-x="682" 
 />
    <glyph glyph-name="space" unicode=" " horiz-adv-x="491" 
 />
    <glyph glyph-name="exclam" unicode="!" horiz-adv-x="491" 
d="M287 532h-41v123h41v164h41v123h41v164h41v164h41v123h41v41h163v-164h-41v-82h-41v-82h-41v-82h-40v-82h-41v-82h-41v-82h-41v-82h-41v-82h-41v-82zM205 451v41h41v-41h-41zM41 246h205v-123h-41v-82h-41v-41h-205v82h41v123h41v41z" />
    <glyph glyph-name="quotedbl" unicode="&#x22;" horiz-adv-x="819" 
d="M451 1024v-82h-41v123h41v328h41v41h81v41h41v-41h82v-123h-41v-82h-41v-41h-41v-41h-41v-82h-40v-41h-41zM778 1024v-82h-41v123h41v328h41v41h82v41h41v-41h82v-123h-41v-82h-41v-41h-41v-41h-41v-82h-41v-41h-41z" />
    <glyph glyph-name="numbersign" unicode="#" horiz-adv-x="1515" 
d="M82 451v41h410v40h40v82h41v82h41v82h41v82h41v82h-368v41h409v82h41v82h41v82h41v82h41v82h41v41h41v-123h-41v-82h-41v-82h-41v-82h-41v-82h328v41h41v82h41v82h41v82h41v82h41v82h82v-41h-41v-123h-41v-41h-41v-123h-41v-82h-41v-41h368v-41h-409v-82h-41v-82h-41v-82
h-41v-82h-41v-82h-41v-40h410v-41h-451v-123h-41v-41h-41v-123h-41v-82h-41v-82h-82v82h41v82h41v82h41v82h41v82h41v41h-369v-82h-40v-82h-41v-82h-41v-82h-41v-82h-41v-41h-41v123h41v82h41v82h41v82h41v82h-369zM573 492h369v81h41v82h41v123h41v41h41v123h-328v-41h-41
v-82h-41v-82h-41v-82h-41v-82h-41v-81z" />
    <glyph glyph-name="dollar" unicode="$" horiz-adv-x="1024" 
d="M328 -82v-41h-41v82h41v82h-82v41h-82v41h-41v41h-41v41h-41v164h41v41h41v41h123v-41h41v-82h-41v-41h-41v-82h41v-41h41v-41h82v82h41v82h41v123h41v122h40v82h41v-41h41v-41h-41v-81h-41v-123h-40v-123h-41v-82h122v41h82v41h41v82h41v205h-41v81h-41v41h-82v41h-41
v41h-40v41h-82v82h-41v41h-41v246h41v82h41v82h41v41h41v41h81v41h287v82h41v81h82v-81h-41v-82h41v-41h82v-41h41v-41h41v-205h-41v-41h-41v-41h-82v41h-41v164h41v82h-41v41h-82v-123h-41v-123h-41v-82h-41v-82h-41v123h41v123h41v82h41v82h-164v-41h-82v-41h-41v-287h41
v-41h82v-41h41v-41h41v-41h41v-41h82v-41h41v-82h41v-286h-41v-82h-41v-41h-41v-41h-41v-41h-41v-41h-82v-41h-245v-41h-41v-82h-41z" />
    <glyph glyph-name="percent" unicode="%" horiz-adv-x="1597" 
d="M614 696v-41h-204v41h-82v41h-41v369h41v82h41v82h41v41h41v41h41v41h81v41h205v-41h82v-82h41v-287h-41v-82h-41v-82h-41v-41h-41v-41h-41v-41h-41v-41h-41zM328 41v-41h-82v41h41v41h41v41h41v82h41v41h41v41h41v41h40v41h41v82h41v41h41v40h41v41h41v41h41v82h41v41
h41v41h41v41h41v82h41v41h41v41h41v41h41v41h41v82h41v41h41v41h41v41h41v41h41v82h41v41h82v-82h-41v-41h-41v-41h-41v-41h-41v-82h-41v-41h-41v-41h-41v-41h-41v-41h-41v-82h-41v-41h-41v-41h-41v-41h-41v-41h-41v-82h-41v-41h-41v-41h-41v-41h-41v-40h-41v-82h-41v-41
h-41v-41h-41v-41h-41v-41h-40v-82h-41v-41h-41v-41h-41v-41h-41zM451 696h41v41h81v41h41v41h41v82h41v82h41v164h41v164h-41v82h-123v-41h-41v-41h-41v-82h-40v-82h-41v-123h-41v-287h41v-41zM1188 41v-41h-205v41h-82v82h-41v246h41v123h41v81h41v41h41v41h41v41h41v41h82
v41h164v-41h82v-41h41v-368h-41v-82h-41v-82h-41v-41h-41v-41h-41v-41h-82zM1024 41h82v41h82v41h41v82h41v82h41v123h41v286h-41v41h-82v-41h-41v-41h-41v-41h-41v-82h-41v-81h-41v-164h-41v-164h41v-82z" />
    <glyph glyph-name="ampersand" unicode="&#x26;" horiz-adv-x="1433" 
d="M614 41v-41h-368v41h-82v41h-82v82h-41v328h41v81h41v41h41v41h41v41h82v41h82v41h82v41h41v123h-41v287h41v82h40v41h41v41h41v41h410v-41h41v-41h41v-82h41v-123h-41v-82h-41v-41h-41v-41h-82v-41h-82v-41h-82v-41h-82v-41h41v-82h41v-123h41v-82h41v-81h41v-82h82v41
h41v41h41v41h41v40h41v82h41v164h-82v41h410v-41h-82v-41h-41v-41h-41v-41h-41v-41h-41v-41h-41v-41h-41v-40h-41v-82h-41v-41h-41v-41h-41v-41h-41v-41h41v-41h41v-41h41v-41h82v-41h82v-41h-82v-41h-246v41h-82v82h41v41h-82v-41h-41v-41h-82v-41h-82zM696 901h41v41h82
v41h41v41h41v41h41v82h41v123h-41v82h-41v41h-164v-41h-41v-41h-41v-369h41v-41zM778 164v41h-41v82h-41v82h-41v82h-41v122h-41v82h-41v123h-40v-41h-82v-41h-41v-41h-41v-41h-41v-82h-41v-368h41v-41h41v-41h286v41h123v41h41zM1352 82h-82v41h82v-41z" />
    <glyph glyph-name="quotesingle" unicode="'" horiz-adv-x="491" 
d="M451 1024v-82h-41v123h41v328h41v41h81v41h41v-41h82v-123h-41v-82h-41v-41h-41v-41h-41v-82h-40v-41h-41z" />
    <glyph glyph-name="parenleft" unicode="(" horiz-adv-x="860" 
d="M451 -410v-41h-41v41h-82v41h-41v41h-41v41h-41v82h-41v82h-41v123h-41v410h41v163h41v123h41v82h41v82h41v41h41v82h41v41h41v41h41v82h41v41h40v41h82v41h41v41h41v41h82v41h82v41h123v41h123v-41h-82v-41h-82v-41h-41v-41h-41v-41h-82v-41h-41v-41h-41v-82h-41v-41
h-41v-41h-41v-82h-41v-41h-40v-82h-41v-82h-41v-82h-41v-123h-41v-163h-41v-574h41v-82h41v-82h41v-41h41z" />
    <glyph glyph-name="parenright" unicode=")" horiz-adv-x="860" 
d="M-82 -410v-41h-123v41h82v41h82v41h41v41h41v41h82v41h41v41h41v41h41v82h41v41h41v82h41v41h41v82h41v82h41v82h40v123h41v163h41v574h-41v82h-41v82h-40v41h-41v41h41v-41h81v-41h41v-41h41v-41h41v-82h41v-82h41v-123h41v-410h-41v-163h-41v-123h-41v-82h-41v-82h-41
v-41h-41v-82h-41v-41h-40v-82h-41v-41h-41v-41h-41v-41h-82v-41h-41v-41h-41v-41h-82v-41h-82v-41h-123z" />
    <glyph glyph-name="asterisk" unicode="*" horiz-adv-x="860" 
d="M737 1147h-41v-41h82v41h123v41h82v41h82v-82h-41v-41h-123v-41h-82v-41h-82v-41h41v-41h41v-41h41v-41h41v-82h-82v41h-41v41h-41v41h-41v41h-41v41h41v123h-41v123h41v123h41v82h82v-82h-41v-123h-41v-82zM614 1147v-82h-122v41h-41v41h-41v41h-41v82h82v-41h41v-41h40
v-41h82zM573 942h-81v-41h-123v-41h-82v-41h-41v41h-41v41h41v41h123v41h82v41h122v-82zM573 942h82v-41h-41v-82h-41v-123h-41v-82h-81v82h41v82h40v123h41v41z" />
    <glyph glyph-name="plus" unicode="+" horiz-adv-x="1064" 
d="M164 696h409v41h41v123h41v82h41v123h41v41h82v-41h-41v-82h-41v-123h-41v-123h-41v-41h410v-82h-451v-82h-41v-81h-41v-123h-40v-123h-82v123h41v82h41v122h40v82h-409v41h41v41z" />
    <glyph glyph-name="comma" unicode="," horiz-adv-x="491" 
d="M-41 -205v-41h-82v41h82v41h41v41h41v41h41v82h-82v41h-41v123h41v41h41v41h123v-41h41v-205h-41v-82h-41v-41h-41v-41h-41v-41h-82zM123 41h-41v-41h41v41z" />
    <glyph glyph-name="hyphen" unicode="-" horiz-adv-x="860" 
d="M164 696h696v-82h-737v41h41v41z" />
    <glyph glyph-name="period" unicode="." horiz-adv-x="491" 
d="M41 246h205v-82h-41v-123h-41v-41h-205v82h41v123h41v41z" />
    <glyph glyph-name="slash" unicode="/" horiz-adv-x="737" 
d="M1065 1434v-41h-41v-41h-41v-82h-41v-41h-41v-41h-41v-41h-41v-41h-41v-82h-41v-41h-41v-41h-41v-41h-41v-82h-41v-41h-41v-41h-40v-41h-41v-82h-41v-41h-41v-41h-41v-40h-41v-41h-41v-82h-41v-41h-41v-41h-41v-41h-41v-82h-41v-41h-41v-41h-41v-41h-41v-41h-41v-82h-41
v-41h-41v-41h-41v-41h-41v-82h-41v-41h-41v-41h-41v-41h-41v-82h-81v41h40v82h41v41h41v41h41v41h41v82h41v41h41v41h41v41h41v82h41v41h41v41h41v41h41v41h41v82h41v41h41v41h41v41h41v82h41v40h41v41h41v41h41v82h41v41h41v41h41v41h40v41h41v82h41v41h41v41h41v41h41v82
h41v41h41v41h41v41h41v41h41v82h41v41h82z" />
    <glyph glyph-name="zero" unicode="0" horiz-adv-x="1187" 
d="M655 41v-41h-286v41h-82v41h-41v41h-41v82h-41v164h-41v123h41v204h41v123h41v123h41v82h41v41h41v82h41v41h41v41h41v41h40v41h41v41h41v41h82v41h328v-41h82v-41h41v-82h41v-82h41v-369h-41v-164h-41v-123h-41v-81h-41v-41h-41v-82h-41v-41h-41v-82h-41v-41h-41v-41
h-41v-41h-82v-41h-82zM410 82h204v41h41v41h41v41h41v41h41v41h41v82h41v82h41v81h41v123h41v123h41v205h41v205h-41v123h-41v41h-205v-41h-82v-41h-41v-41h-41v-82h-41v-41h-41v-82h-40v-82h-41v-82h-41v-164h-41v-123h-41v-409h41v-41h41v-41z" />
    <glyph glyph-name="one" unicode="1" horiz-adv-x="737" 
d="M492 41v-41h-574v41h41v41h123v41h41v41h41v82h41v82h41v123h41v122h41v82h41v123h41v123h41v82h41v123h40v82h41v82h-41v41h-40v41h-41v41h204v41h164v-82h-41v-82h-41v-123h-41v-82h-41v-123h-41v-123h-41v-82h-41v-123h-40v-82h-41v-122h-41v-123h-41v-82h-41v-82h41
v-41h41v-41h82z" />
    <glyph glyph-name="two" unicode="2" horiz-adv-x="1024" 
d="M82 82h82v41h41v41h491v41h41v41h41v41h41v41h41v41h41v-82h-41v-82h-41v-82h-41v-82h-41v-41h-819v41h41v41h41v41h41v41h41v41h41v41h41v41h41v41h41v41h41v41h82v41h41v41h41v40h41v41h40v41h41v41h41v41h41v41h41v41h41v41h41v41h41v41h41v82h41v123h41v123h-41v82
h-41v41h-287v-41h-41v-41h-40v-41h-41v-82h41v-41h-41v-41h-41v-41h-82v41h-41v123h41v82h41v41h41v41h82v41h40v41h451v-41h41v-41h41v-41h41v-82h41v-164h-41v-82h-41v-82h-41v-41h-41v-41h-41v-41h-41v-41h-41v-41h-41v-41h-82v-41h-41v-41h-41v-41h-41v-40h-41v-41h-81
v-41h-41v-41h-41v-41h-41v-41h-82v-41h-41v-41h-41v-41h-41v-41h-82v-41z" />
    <glyph glyph-name="three" unicode="3" horiz-adv-x="1064" 
d="M573 41v-41h-409v41h-41v41h-41v41h-41v246h41v41h164v-123h-82v-123h41v-41h41v-41h286v41h41v41h41v41h41v41h41v41h41v123h41v82h-41v122h-41v41h-41v41h-82v41h-122v41h41v41h40v41h41v41h41v41h41v41h41v41h41v41h41v41h82v41h41v41h41v41h41v41h41v41h41v41h-41
v-41h-41v-41h-491v-41h-41v-41h-41v-82h-82v41h41v82h41v82h41v82h41v41h778v-41h-41v-41h-41v-41h-41v-41h-41v-41h-41v-41h-41v-41h-41v-41h-82v-41h-41v-41h-41v-41h-41v-41h-41v-41h-41v-41h41v-41h82v-41h41v-41h41v-41h41v-368h-41v-82h-41v-41h-41v-41h-41v-41h-41
v-41h-41v-41h-123z" />
    <glyph glyph-name="four" unicode="4" horiz-adv-x="1187" 
d="M369 0v41h82v41h81v41h41v123h41v82h41v123h-614v41h41v40h41v41h41v41h82v41h41v41h41v41h41v41h41v41h41v41h41v41h40v41h41v41h41v41h41v41h41v82h41v41h41v41h41v82h41v123h246v41h41v-82h-41v-41h-41v-82h-41v-41h-41v-41h-41v-41h-41v-41h-41v-41h-41v-41h-82v-41
h-41v-41h-41v-41h-41v-41h-41v-41h-41v-41h-40v-41h-82v-41h-41v-41h-41v-41h-41v-41h450v82h41v123h41v82h82v41h82v41h41v-82h-41v-123h-41v-123h-41v-41h41v41h82v41h82v41h41v41h41v41h41v-41h-41v-82h-41v-82h-41v-81h-41v-41h-287v-41h41v-82h-41v-123h-41v-123h41
v-41h82v-41h-491z" />
    <glyph glyph-name="five" unicode="5" horiz-adv-x="1064" 
d="M614 1270v41h41v41h-41v-41h-41v-82h-41v-82h-40v-82h-41v-82h-41v-82h286v-41h123v-41h41v-41h41v-41h41v-123h41v-122h-41v-123h-41v-82h-41v-82h-41v-41h-41v-41h-41v-41h-82v-41h-82v-41h-409v41h-41v41h-82v123h-41v82h41v82h41v41h41v41h82v-41h41v-123h-82v-123
h41v-82h287v41h81v41h41v41h41v41h41v82h41v327h-41v41h-41v41h-368v-41h-41v82h41v123h41v82h41v82h41v82h41v82h41v82h40v123h574v41h82v81h82v-40h-41v-82h-41v-82h-41v-82h-533z" />
    <glyph glyph-name="six" unicode="6" horiz-adv-x="1146" 
d="M737 41v-41h-368v41h-82v41h-41v41h-41v82h-41v164h-41v163h41v164h41v123h41v82h41v82h41v82h41v41h41v82h41v41h41v41h40v41h41v41h82v41h82v41h328v-41h82v-41h41v-41h41v-246h-41v-41h-41v-41h-41v41h-82v123h41v164h-41v41h-246v-41h-41v-41h-41v-41h-41v-41h-41
v-41h-41v-82h-41v-82h-40v-82h-41v-82h-41v-41h-41v-41h41v41h82v41h81v41h246v-41h82v-41h82v-82h41v-82h41v-204h-41v-123h-41v-82h-41v-41h-41v-41h-41v-41h-41v-41h-82zM410 82h245v41h82v82h41v41h41v82h41v286h-41v82h-41v41h-82v41h-123v-41h-122v-41h-82v-164h-41
v-286h41v-82h41v-82z" />
    <glyph glyph-name="seven" unicode="7" horiz-adv-x="983" 
d="M369 0h-82v-41h-205v82h41v82h41v82h41v41h41v41h41v82h41v41h41v41h41v41h41v81h41v41h40v41h41v41h41v41h41v82h41v41h41v41h41v41h41v41h41v41h41v82h41v41h41v41h41v41h41v41h41v41h41v41h-82v-82h-573v-41h-82v-41h-41v-82h-41v-41h-82v41h41v82h41v82h41v82h41v82
h860v-41h-41v-82h-41v-41h-41v-41h-41v-41h-41v-82h-41v-41h-41v-41h-41v-82h-41v-41h-41v-41h-41v-82h-41v-41h-41v-41h-41v-82h-41v-41h-41v-41h-41v-81h-41v-41h-40v-82h-41v-82h-41v-82h-41v-164z" />
    <glyph glyph-name="eight" unicode="8" 
d="M696 41v-41h-409v41h-82v41h-41v41h-41v41h-41v82h-41v123h41v123h41v81h41v41h41v41h82v41h82v41h82v41h122v41h-122v41h-41v123h-41v164h41v82h41v82h41v41h81v41h82v41h328v-41h82v-41h82v-82h41v-246h-41v-82h-41v-41h-41v-41h-82v-41h-82v-41h-123v-41h82v-41h41
v-41h41v-41h41v-368h-41v-41h-41v-41h-41v-41h-41v-41h-41v-41h-82zM737 819h82v41h41v41h82v82h41v41h41v246h-41v41h-41v41h-82v41h-82v-41h-82v-41h-82v-41h-41v-287h41v-41h41v-41h41v-41h41v-41zM328 82h286v41h82v41h41v41h41v82h41v123h-41v122h-41v41h-41v41h-41v41
h-41v41h-163v-41h-41v-41h-41v-41h-41v-41h-41v-40h-41v-328h41v-41h41v-41z" />
    <glyph glyph-name="nine" unicode="9" 
d="M573 41v-41h-368v41h-41v41h-41v41h-41v82h-41v123h41v82h164v-41h41v-41h-41v-41h-41v-123h41v-82h246v41h81v41h41v41h41v41h41v82h41v41h41v82h41v81h41v82h41v41h41v41h-41v-41h-82v-41h-82v-41h-286v41h-82v41h-41v41h-41v82h-41v287h41v123h41v41h41v41h41v41h41
v41h41v41h81v41h369v-41h41v-41h41v-41h41v-41h41v-82h41v-410h-41v-123h-41v-123h-41v-81h-41v-82h-41v-41h-41v-41h-41v-82h-41v-41h-41v-41h-82v-41h-41v-41h-82zM573 655h205v41h82v41h82v246h41v123h-41v164h-41v41h-41v41h-205v-41h-82v-41h-41v-82h-40v-41h-41v-369
h41v-41h40v-41h41v-41z" />
    <glyph glyph-name="colon" unicode=":" horiz-adv-x="491" 
d="M328 983h204v-82h-40v-123h-41v-41h-205v82h41v123h41v41zM41 246h205v-123h-41v-82h-41v-41h-205v82h41v123h41v41z" />
    <glyph glyph-name="semicolon" unicode=";" horiz-adv-x="491" 
d="M328 983h204v-82h-40v-123h-41v-41h-205v82h41v123h41v41zM-41 -205v-41h-82v41h82v41h41v41h41v41h41v41h41v82h-41v-41h-82v205h82v41h82v-41h41v-41h41v-123h-41v-82h-41v-41h-41v-41h-41v-41h-41v-41h-82z" />
    <glyph glyph-name="equal" unicode="=" horiz-adv-x="1064" 
d="M205 819h901v-82h-942v41h41v41zM82 532h942v-40h-41v-41h-901v81z" />
    <glyph glyph-name="question" unicode="?" horiz-adv-x="901" 
d="M451 573v-122h-82v163h41v82h82v41h40v41h82v41h41v41h82v41h41v41h41v41h41v41h41v123h41v82h-41v82h-41v41h-82v41h-123v-41h-82v-41h-81v-164h-41v-41h-123v41h-41v41h41v82h41v41h41v41h41v41h81v41h410v-41h82v-41h41v-82h41v-205h-41v-82h-41v-41h-41v-41h-41v-41
h-41v-41h-41v-41h-82v-41h-82v-41h-82v-41h-82v-41h-40v-41h-41zM246 246h205v-82h-41v-123h-41v-41h-205v82h41v123h41v41z" />
    <glyph glyph-name="at" unicode="@" horiz-adv-x="1556" 
d="M942 -205v-41h-410v41h-81v41h-82v41h-41v41h-82v82h-41v41h-41v82h-41v123h-41v286h41v164h41v82h41v82h41v41h41v41h41v41h41v41h41v41h41v41h81v41h123v41h451v-41h123v-41h41v-41h41v-41h41v-41h41v-41h41v-82h41v-123h41v-164h-41v-163h-41v-82h-41v-41h-41v-82h-82
v-41h-41v-41h-328v41h-41v41h-41v41h41v41h41v82h-41v-82h-41v-41h-41v-41h-41v-41h-41v-41h-245v41h-41v368h41v41h41v82h40v41h41v41h41v41h41v41h123v41h205v-41h164v41h41v-82h-41v-123h-41v-82h-41v-122h-41v-82h-41v-164h41v-41h82v41h123v41h41v41h41v41h41v41h41
v123h41v245h-41v123h-41v82h-41v41h-41v41h-41v41h-82v41h-123v41h-287v-41h-123v-41h-82v-41h-40v-41h-82v-41h-41v-41h-41v-41h-41v-82h-41v-82h-41v-123h-41v-327h41v-123h41v-82h41v-41h41v-41h41v-41h41v-41h82v-41h122v-41h287v41h164v41h82v-41h-82v-41h-123z
M573 205h123v41h41v41h41v41h41v41h41v82h41v81h41v123h41v123h-205v-41h-41v-41h-41v-41h-41v-82h-41v-81h-41v-287z" />
    <glyph glyph-name="A" unicode="A" horiz-adv-x="1433" 
d="M901 451h82v41h-614v-41h-41v-41h-41v-82h-41v-41h-41v-41h-41v-164h82v-82h-410v41h41v41h82v41h41v41h41v41h41v82h41v41h41v41h41v41h41v82h41v40h41v41h41v82h41v41h41v41h41v82h40v41h41v41h41v41h41v82h41v41h41v41h41v82h41v41h41v41h41v82h41v41h41v41h41v82h41
v-451h41v-614h41v-328h41v-41h41v-41h41v-41h-492v82h123v41h41v205h-41v123zM451 573h450v492h-41v41h-41v-41h-41v-82h-41v-41h-41v-41h-41v-82h-41v-41h-41v-41h-41v-82h-40v-41h-41v-41z" />
    <glyph glyph-name="B" unicode="B" horiz-adv-x="1310" 
d="M819 41v-41h-942v82h164v41h41v41h41v123h41v82h41v123h41v81h41v123h41v123h41v82h41v123h41v123h41v82h40v82h-40v41h-82v41h-41v41h737v-41h82v-41h82v-41h41v-82h41v-205h-41v-82h-41v-41h-41v-41h-41v-41h-82v-41h-82v-41h41v-41h41v-41h41v-41h41v-41h41v-245h-41
v-82h-41v-41h-41v-41h-41v-41h-41v-41h-82v-41h-123zM573 778h287v41h123v41h41v41h41v41h41v82h41v164h-41v82h-41v41h-41v41h-328v-41h41v-82h-41v-123h-41v-82h-41v-123h-41v-123zM205 82h491v41h123v41h41v41h41v41h41v41h41v123h41v122h-41v82h-41v41h-41v41h-123v41
h-246v-41h-40v-123h-41v-81h-41v-123h-41v-123h-41v-82h-41v-41h-82v-41z" />
    <glyph glyph-name="C" unicode="C" horiz-adv-x="1351" 
d="M901 41v-41h-409v41h-82v41h-41v41h-82v82h-41v41h-41v82h-41v164h-41v122h41v205h41v123h41v82h41v41h41v82h41v41h41v41h41v41h41v41h81v41h82v41h82v41h451v-41h82v-41h41v-41h41v-41h41v-82h41v82h-41v41h82v41h81v-82h-40v-123h-41v-123h-41v-123h-82v164h-41v123
h-41v41h-41v41h-41v41h-41v41h-287v-41h-82v-41h-82v-41h-41v-41h-41v-41h-41v-82h-41v-41h-40v-82h-41v-82h-41v-123h-41v-368h41v-82h41v-82h41v-41h40v-41h123v-41h246v41h123v41h41v41h82v41h41v41h41v-41h-41v-41h-41v-41h-41v-41h-41v-41h-82v-41h-82z" />
    <glyph glyph-name="D" unicode="D" horiz-adv-x="1474" 
d="M-123 0v41h41v41h123v41h41v41h41v82h41v82h41v123h41v122h41v82h41v123h41v82h41v123h41v123h41v82h40v164h-122v41h-41v41h696v-41h123v-41h82v-41h41v-41h41v-41h41v-41h41v-82h41v-82h41v-328h-41v-123h-41v-81h-41v-82h-41v-41h-41v-41h-41v-41h-41v-41h-41v-41h-41
v-41h-82v-41h-82v-41h-82v-41h-123v-41h-901zM246 82h450v41h123v41h82v41h82v41h41v41h41v41h41v41h41v82h41v81h41v82h41v451h-41v123h-41v41h-41v41h-41v41h-82v41h-328v-41h41v-123h-41v-123h-41v-82h-41v-123h-41v-82h-41v-123h-40v-123h-41v-81h-41v-123h-41v-82h-41
v-123h-82v-41z" />
    <glyph glyph-name="E" unicode="E" horiz-adv-x="1310" 
d="M287 123h-82v-41h573v41h82v41h82v41h41v41h41v41h41v82h41v41h41v82h82v-82h-41v-82h-41v-123h-41v-82h-41v-82h-41v-41h-1147v82h164v41h41v41h41v123h41v82h41v123h41v81h41v123h41v123h41v82h41v123h41v123h41v82h40v82h-40v41h-82v41h-41v41h1147v-82h-41v-164h-41
v-123h-41v-123h-82v328h-41v41h-41v41h-533v-41h41v-82h-41v-123h-41v-82h-41v-123h-41v-123h287v41h41v41h41v41h41v82h82v-82h-41v-123h-41v-123h-41v-82h-41v-122h-82v245h-327v-123h-41v-81h-41v-123h-41v-123h-41v-82h-41v-41z" />
    <glyph glyph-name="F" unicode="F" horiz-adv-x="1310" 
d="M492 41v-41h-615v41h41v41h123v41h41v41h41v41h41v123h41v123h41v81h41v123h41v123h41v82h41v123h41v123h41v82h40v164h-122v82h1106v-123h-41v-164h-41v-123h-41v-82h-82v82h41v205h-41v82h-41v41h-574v-41h41v-123h-41v-123h-41v-82h-41v-123h-41v-82h328v41h41v41h41
v82h41v41h82v-41h-41v-82h-41v-123h-41v-123h-41v-122h-41v-41h-41v204h-41v41h-368v-41h41v-123h-41v-81h-41v-123h-41v-82h-41v-164h123v-41h41z" />
    <glyph glyph-name="G" unicode="G" horiz-adv-x="1556" 
d="M860 41v-41h-368v41h-82v41h-41v41h-41v41h-41v41h-41v41h-41v82h-41v491h41v82h41v82h41v82h41v41h41v82h41v41h41v41h81v41h41v41h82v41h82v41h451v-41h82v-41h82v-41h41v-41h41v-123h41v123h-41v41h41v41h122v-82h-41v-123h-40v-123h-41v-82h-41v-41h-41v123h-41v164
h-41v41h-41v41h-41v41h-82v41h-246v-41h-123v-41h-41v-41h-82v-41h-41v-41h-41v-82h-41v-41h-40v-82h-41v-82h-41v-164h-41v-327h41v-82h41v-82h41v-41h81v-41h82v-41h164v41h123v41h123v41h41v41h-41v41h41v123h41v204h-123v82h573v-41h-41v-41h-122v-41h-41v-41h-41v-122
h-41v-82h-41v-123h-41v-82h-41v-123h-41v41h-41v41h-123v-41h-123zM1147 287h-41v-41h41v41z" />
    <glyph glyph-name="H" unicode="H" horiz-adv-x="1556" 
d="M451 696v-41h41v-123h-41v-81h-41v-123h-41v-82h-41v-164h123v-41h41v-41h-615v41h41v41h123v41h41v41h41v82h41v82h41v123h41v122h41v82h41v123h41v82h41v123h41v123h41v82h40v164h-122v41h-41v41h614v-41h-41v-41h-123v-41h-41v-41h-41v-82h-41v-123h-41v-82h-41v-123
h-41v-82h656v82h41v82h41v123h41v82h41v205h-82v41h-41v41h573v-82h-164v-41h-41v-41h-41v-123h-41v-82h-40v-123h-41v-123h-41v-82h-41v-123h-41v-82h-41v-122h-41v-123h-41v-82h-41v-82h41v-41h82v-41h41v-41h-615v41h41v41h164v41h41v82h41v123h41v82h41v122h41v82h41v41
h82v41h-819z" />
    <glyph glyph-name="I" unicode="I" horiz-adv-x="655" 
d="M451 82v-82h-574v82h164v41h41v41h41v123h41v82h41v123h41v81h41v123h41v123h41v82h41v123h41v123h41v82h40v82h-40v41h-82v41h-41v41h614v-41h-41v-41h-164v-41h-41v-82h-41v-123h-41v-82h-41v-123h-41v-82h-41v-123h-40v-123h-41v-81h-41v-123h-41v-82h-41v-205h123z
" />
    <glyph glyph-name="J" unicode="J" horiz-adv-x="1146" 
d="M1188 1229v-82h-41v-123h-41v-123h-41v-82h-41v-123h-41v-82h-41v-122h-41v-123h-41v-82h-41v-82h-41v-41h-41v-41h-41v-41h-41v-41h-82v-41h-163v-41h-123v41h-123v41h-82v41h-41v41h-41v82h-41v82h41v82h41v41h123v-41h41v-82h-41v-41h-41v-82h41v-41h41v-41h246v41h81
v41h41v41h41v82h41v123h41v82h41v122h41v82h41v123h41v82h41v123h41v123h41v123h41v41h-41v41h-82v41h-41v41h615v-41h-41v-41h-164v-41h-41v-82h-41z" />
    <glyph glyph-name="K" unicode="K" horiz-adv-x="1474" 
d="M-123 0v41h41v41h123v41h41v41h41v82h41v123h41v82h41v122h41v82h41v123h41v123h41v82h41v123h41v82h40v164h-122v41h-41v41h614v-41h-41v-41h-123v-41h-41v-41h-41v-82h-41v-82h-41v-123h-41v-123h-41v-82h-41v-82h-40v-41h-41v-41h41v41h40v41h82v41h41v41h41v41h82v41
h41v41h41v41h82v41h41v41h41v41h82v41h41v41h41v41h82v41h41v41h41v82h-82v82h450v-82h-123v-41h-81v-41h-82v-41h-41v-41h-82v-41h-41v-41h-41v-41h-82v-41h-41v-41h-41v-41h-82v-41h-41v-41h-41v-82h41v-123h41v-123h41v-81h41v-123h41v-82h41v-123h41v-41h82v-82h-328v82
h-41v123h-41v123h-41v123h-41v81h-41v123h-41v41h-41v-41h-41v-41h-41v-41h-81v-41h-41v-81h-41v-123h-41v-82h-41v-164h123v-41h41v-41h-615z" />
    <glyph glyph-name="L" unicode="L" horiz-adv-x="1310" 
d="M1065 123v-123h-1188v41h41v41h123v41h41v41h41v41h41v123h41v123h41v81h41v123h41v123h41v82h41v123h41v123h41v82h40v164h-122v82h573v-82h-164v-41h-41v-41h-41v-82h-41v-123h-41v-82h-41v-123h-41v-123h-41v-82h-40v-123h-41v-81h-41v-123h-41v-123h-41v-82h-82v-41
h573v41h82v41h41v41h41v41h41v41h41v41h41v82h41v41h41v41h82v-41h-41v-82h-41v-82h-41v-82h-41v-82h-41z" />
    <glyph glyph-name="M" unicode="M" horiz-adv-x="1843" 
d="M369 1393v41h491v-1106h-41v-41h41v41h41v82h41v41h41v41h41v81h41v41h41v41h41v41h41v82h41v41h41v41h41v82h41v41h41v41h41v41h41v82h41v41h40v41h41v82h41v41h41v41h41v41h410v-82h-164v-41h-41v-82h-41v-82h-41v-123h-41v-82h-41v-123h-41v-82h-41v-123h-41v-82h-41
v-122h-41v-123h-40v-205h81v-41h41v-41h-573v82h164v41h41v82h41v82h41v123h41v82h41v122h41v82h41v123h40v123h41v82h41v123h41v41h41v41h-82v-82h-41v-41h-41v-41h-40v-41h-41v-82h-41v-41h-41v-41h-41v-82h-41v-41h-41v-41h-41v-41h-41v-82h-41v-41h-41v-40h-41v-82h-41
v-41h-41v-41h-41v-41h-41v-82h-41v-41h-41v-41h-41v-82h-41v-41h-41v-41h-41v1311h-41v-123h-41v-82h-41v-123h-40v-123h-41v-82h-41v-123h-41v-82h-41v-122h-41v-123h-41v-205h123v-82h-492v82h164v41h41v41h41v82h41v123h41v123h41v81h41v123h41v82h41v123h41v123h41v82
h41v123h40v82h-40v41h-82v41h-41z" />
    <glyph glyph-name="N" unicode="N" horiz-adv-x="1515" 
d="M1556 1188v-82h-40v-123h-41v-123h-41v-82h-41v-123h-41v-82h-41v-122h-41v-123h-41v-82h-41v-123h-41v-123h-41v41h-41v82h-41v82h-41v82h-41v82h-41v123h-41v40h-41v123h-41v82h-41v82h-41v82h-41v82h-41v82h-82v-123h-40v-82h-41v-123h-41v-123h-41v-82h-41v-122h-41
v-82h-41v-246h123v-82h-492v41h41v41h123v41h41v41h41v82h41v123h41v82h41v122h41v123h41v82h41v123h41v123h41v82h41v205h-41v41h-41v82h286v-123h41v-82h41v-82h41v-82h41v-82h41v-82h41v-82h41v-82h41v-82h41v-82h41v-122h41v-41h-41v-41h82v123h41v122h41v82h41v123h41
v123h41v82h41v123h41v205h-123v82h491v-41h-41v-41h-123v-41h-41v-41h-41v-82h-41z" />
    <glyph glyph-name="O" unicode="O" horiz-adv-x="1515" 
d="M942 41v-41h-450v41h-82v41h-82v41h-41v41h-41v82h-41v82h-41v450h41v82h41v123h41v41h41v82h41v41h41v41h41v41h41v41h40v41h41v41h82v41h82v41h492v-41h82v-41h41v-41h41v-41h41v-41h41v-82h41v-164h40v-205h-40v-164h-41v-82h-41v-81h-41v-82h-41v-41h-41v-41h-41v-82
h-41v-41h-82v-41h-41v-41h-82v-41h-82zM532 82h328v41h82v41h41v41h41v41h41v41h41v41h41v82h41v82h41v81h41v123h41v451h-41v82h-41v41h-41v41h-41v41h-328v-41h-82v-41h-41v-41h-41v-41h-41v-41h-41v-82h-41v-41h-40v-123h-41v-82h-41v-164h-41v-327h41v-123h41v-41h41
v-41h40v-41z" />
    <glyph glyph-name="P" unicode="P" horiz-adv-x="1269" 
d="M492 614v-41h-41v-122h-41v-123h-41v-82h-41v-164h123v-41h41v-41h-615v82h164v41h41v41h41v82h41v123h41v82h41v122h41v123h41v82h41v123h41v82h41v123h41v123h40v123h-122v41h-41v41h778v-41h123v-41h41v-41h41v-41h41v-287h-41v-82h-41v-41h-41v-41h-41v-41h-41v-41
h-82v-41h-123v-41h-573v-41h82zM532 737h410v41h82v41h41v41h41v41h41v123h41v205h-41v82h-82v41h-369v-41h41v-123h-41v-82h-41v-123h-41v-82h-41v-123h-41v-41z" />
    <glyph glyph-name="Q" unicode="Q" horiz-adv-x="1515" 
d="M1147 -287v-41h-82v-41h-246v41h-41v41h-41v205h-41v205h-41v164h-41v41h-41v41h-41v-41h-40v-41h-41v-41h-41v-41h41v-41h41v-41h40v-41h123v-82h-163v41h-82v41h-82v41h-41v41h-41v82h-41v82h-41v450h41v82h41v123h41v41h41v82h41v41h41v41h41v41h41v41h40v41h41v41h82
v41h82v41h492v-41h82v-41h41v-41h41v-41h41v-41h41v-82h41v-164h40v-205h-40v-164h-41v-82h-41v-81h-41v-82h-41v-41h-41v-41h-41v-82h-41v-41h-82v-41h-41v-41h-82v-41h-82v-41h-41v-41h41v-164h41v-82h164zM860 123h82v41h41v41h41v41h41v41h41v41h41v82h41v82h41v81h41
v123h41v451h-41v82h-41v41h-41v41h-41v41h-328v-41h-82v-41h-41v-41h-41v-41h-41v-41h-41v-82h-41v-41h-40v-123h-41v-82h-41v-164h-41v-327h82v41h41v41h81v41h123v-41h82v-41h41v-82h41v-164z" />
    <glyph glyph-name="R" unicode="R" horiz-adv-x="1433" 
d="M1106 0v-41h-41v41h-82v41h-41v82h-41v369h-41v163h-41v41h-368v-41h41v-123h-41v-81h-41v-123h-41v-82h-41v-164h123v-41h41v-41h-615v41h41v41h123v41h41v41h41v82h41v82h41v123h41v122h41v82h41v123h41v82h41v123h41v123h41v82h40v164h-122v41h-41v41h737v-41h123v-41
h41v-41h41v-41h41v-41h41v-205h-41v-82h-41v-82h-41v-41h-82v-41h-82v-41h-123v-41h41v-41h41v-123h41v-327h41v-123h123v-41h-41v-41h-123zM573 778h410v41h41v41h41v41h41v41h41v123h41v82h-41v123h-41v41h-82v41h-328v-41h41v-123h-41v-123h-41v-82h-41v-123h-41v-82z
M1311 82h-41v41h41v-41z" />
    <glyph glyph-name="S" unicode="S" 
d="M573 0v-41h-81v41h-164v41h-82v41h-41v41h-41v41h-41v41h-41v-41h41v-41h-41v-41h-82v-41h-41v82h41v123h41v123h41v123h41v40h82v-245h41v-82h41v-41h41v-41h41v-41h286v41h82v41h41v41h41v287h-41v40h-41v41h-82v41h-41v41h-41v41h-81v41h-41v41h-41v41h-41v41h-41v82
h-41v205h41v82h41v82h41v41h41v41h81v41h410v-41h82v-41h41v-82h41v-82h41v123h-41v41h123v41h41v-123h-41v-123h-41v-123h-41v-123h-82v164h-41v164h-41v41h-41v41h-41v41h-287v-41h-41v-41h-41v-41h-40v-246h40v-41h41v-41h82v-41h41v-41h82v-41h41v-41h82v-41h41v-41h41
v-41h41v-122h41v-123h-41v-123h-41v-82h-41v-41h-41v-41h-82v-41h-41v-41h-205z" />
    <glyph glyph-name="T" unicode="T" horiz-adv-x="1310" 
d="M410 1434h1187v-123h-41v-123h-40v-123h-41v-82h-82v41h41v205h-41v82h-41v41h-328v-41h41v-123h-41v-82h-41v-82h-41v-123h-41v-82h-41v-123h-41v-123h-41v-81h-41v-123h-41v-82h-41v-205h82v-41h41v-41h-573v82h164v41h41v82h41v82h41v123h40v82h41v122h41v82h41v123
h41v82h41v123h41v82h41v123h41v123h-205v-41h-82v-41h-81v-41h-41v-41h-41v-41h-41v-82h-41v-41h-41v-41h-41v82h41v123h41v82h41v82h41v82z" />
    <glyph glyph-name="U" unicode="U" horiz-adv-x="1556" 
d="M778 0v-41h-123v41h-204v41h-41v41h-82v41h-41v82h-41v368h41v123h41v82h41v123h41v123h41v123h41v205h-82v41h-41v41h614v-41h-41v-41h-164v-41h-41v-82h-41v-82h-41v-123h-41v-123h-41v-123h-41v-123h-40v-123h-41v-245h41v-82h40v-41h41v-41h123v-41h123v41h123v41h82
v41h41v41h41v41h41v41h41v82h41v122h41v123h41v82h41v123h41v123h41v123h41v246h-82v41h-41v41h532v-41h-41v-41h-164v-41h-41v-41h-41v-82h-41v-123h-40v-123h-41v-123h-41v-123h-41v-123h-41v-122h-41v-82h-41v-82h-41v-41h-41v-82h-41v-41h-41v-41h-82v-41h-82v-41h-164z
" />
    <glyph glyph-name="V" unicode="V" horiz-adv-x="1433" 
d="M614 41v-82h-41v82h-41v573h-40v615h-41v123h-82v82h491v-41h-41v-41h-123v-738h41v-286h-41v-41h41v41h41v41h41v41h41v82h41v40h41v41h41v82h41v41h41v41h41v82h41v41h41v41h41v82h41v41h41v41h41v41h41v82h41v41h41v123h-123v82h409v-82h-82v-41h-82v-41h-41v-82h-40
v-41h-41v-41h-41v-41h-41v-82h-41v-41h-41v-41h-41v-82h-41v-41h-41v-41h-41v-82h-41v-41h-41v-41h-41v-81h-41v-41h-41v-41h-41v-82h-41v-41h-41v-41h-41v-82h-41v-41h-41v-41h-41v-41h-41z" />
    <glyph glyph-name="W" unicode="W" horiz-adv-x="2048" 
d="M573 0v-82h-41v819h-40v574h-41v41h-41v41h-41v41h491v-82h-123v-41h-41v-369h41v-614h-41v-41h41v41h41v82h41v41h41v41h41v81h41v41h41v41h41v82h41v41h41v82h41v41h41v410h-41v41h-41v41h-41v41h491v-82h-122v-41h-41v-983h-41v-41h41v41h41v41h41v82h41v41h40v81h41
v41h41v41h41v82h41v41h41v82h41v41h41v41h41v82h41v41h41v41h41v82h41v82h41v41h-41v41h-82v82h410v-82h-82v-41h-82v-41h-41v-82h-41v-41h-41v-41h-41v-82h-41v-41h-41v-82h-41v-41h-41v-41h-41v-82h-41v-41h-41v-82h-41v-41h-41v-41h-41v-81h-41v-41h-41v-41h-40v-82h-41
v-41h-41v-82h-41v-41h-41v-41h-41v-82h-41v-41h-41v860h-41v-41h-41v-82h-41v-41h-41v-41h-41v-82h-41v-40h-41v-41h-41v-82h-41v-41h-41v-82h-41v-41h-41v-41h-41v-82h-41v-41h-41v-41h-41z" />
    <glyph glyph-name="X" unicode="X" horiz-adv-x="1433" 
d="M287 41v-41h-451v41h41v41h123v41h41v41h82v41h41v41h41v41h41v41h41v41h41v41h41v41h41v41h82v40h40v41h41v41h41v41h41v41h41v205h-41v123h-41v164h-41v123h-41v41h-81v41h-41v41h573v-41h-41v-41h-123v-164h41v-205h41v-41h-41v-41h-41v-41h82v41h41v41h41v41h41v41
h41v41h41v41h41v41h82v41h41v41h41v41h41v82h-82v82h409v-82h-123v-41h-81v-41h-41v-41h-41v-41h-41v-41h-41v-41h-82v-41h-41v-41h-41v-41h-41v-41h-41v-41h-41v-41h-41v-41h-41v-123h41v-164h41v-163h41v-164h41v-82h41v-41h82v-41h41v-41h-574v82h123v41h41v123h-41v164
h-41v204h41v82h-41v-41h-41v-41h-41v-41h-41v-41h-41v-40h-41v-41h-41v-41h-81v-41h-41v-41h-41v-41h-41v-41h-41v-41h-41v-41h-41v-82h41v-41h41z" />
    <glyph glyph-name="Y" unicode="Y" horiz-adv-x="1433" 
d="M778 655h41v41h41v41h41v41h41v41h41v41h82v41h41v41h41v41h41v41h41v41h41v41h41v41h41v41h41v82h41v82h-123v82h450v-41h-41v-41h-82v-41h-41v-41h-41v-41h-40v-41h-41v-41h-82v-41h-41v-41h-41v-41h-41v-41h-41v-41h-41v-41h-41v-41h-41v-41h-41v-41h-41v-41h-41v-41
h-41v-41h-41v-82h-41v-81h-41v-123h-41v-82h-41v-205h123v-82h-573v82h164v41h41v41h40v82h41v123h41v123h41v245h-41v164h-41v123h-41v164h-40v123h-41v41h-41v41h-41v41h532v-41h-41v-41h-123v-287h41v-164h41v-205h-41v-41z" />
    <glyph glyph-name="Z" unicode="Z" horiz-adv-x="1228" 
d="M1147 1311h82v41h-533v-41h-82v-41h-41v-41h-41v-41h-40v-41h-41v-41h-41v-82h-41v-41h-41v-41h-41v123h41v82h41v123h41v123h41v41h1024v-41h-41v-41h-41v-82h-41v-41h-41v-41h-41v-41h-41v-41h-41v-41h-41v-41h-41v-41h-41v-41h-41v-41h-41v-41h-41v-41h-41v-41h-41
v-41h-41v-41h-41v-41h-41v-41h-41v-41h-41v-41h-41v-40h-41v-41h-41v-41h-40v-41h-41v-82h-41v-41h-41v-41h-41v-41h-41v-41h-123v-41h573v41h82v41h82v41h41v41h41v41h41v82h41v41h41v82h82v-82h-41v-82h-41v-82h-41v-82h-41v-82h-41v-82h-1065v41h41v41h41v41h41v41h41v41
h41v41h41v41h41v41h41v41h41v82h41v41h41v40h41v41h41v41h41v41h40v41h41v41h41v41h41v41h41v41h41v41h41v41h41v41h41v41h41v41h41v41h41v41h41v41h41v41h41v41h41v41z" />
    <glyph glyph-name="bracketleft" unicode="[" horiz-adv-x="737" 
d="M41 -328h-82v-41h369v-41h-533v82h41v82h41v123h41v82h41v123h41v123h41v82h41v123h41v82h41v122h41v123h41v82h41v123h41v82h41v123h41v82h41v123h41v123h40v41h492v-82h-410v-41h41v-123h-41v-123h-41v-82h-41v-123h-40v-82h-41v-123h-41v-123h-41v-82h-41v-122h-41
v-123h-41v-82h-41v-123h-41v-82h-41v-123h-41v-123h-41v-82z" />
    <glyph glyph-name="backslash" unicode="\" horiz-adv-x="737" 
d="M328 1434h82v-369h41v-369h41v-368h40v-410h41v-369h41v-41h-82v164h-40v410h-41v369h-41v368h-41v410h-41v205z" />
    <glyph glyph-name="bracketright" unicode="]" horiz-adv-x="737" 
d="M737 1393h82v41h-368v41h41v41h491v-82h-41v-123h-41v-123h-41v-82h-41v-123h-41v-82h-41v-123h-41v-123h-41v-82h-41v-122h-41v-82h-41v-123h-40v-123h-41v-82h-41v-123h-41v-123h-41v-82h-41v-123h-533v41h410v41h-41v123h41v123h41v82h41v123h41v82h41v123h41v123h41
v81h41v123h41v82h40v123h41v123h41v82h41v123h41v82h41v123z" />
    <glyph glyph-name="asciicircum" unicode="^" horiz-adv-x="1146" 
d="M328 778v-41h-123v41h41v41h41v41h41v41h41v41h41v41h41v41h41v41h40v41h41v41h41v41h41v41h41v41h41v41h41v41h41v41h41v41h123v-82h41v-164h41v-164h41v-123h41v-164h-82v82h-41v164h-41v164h-41v123h-123v-41h-41v-41h-41v-41h-41v-41h-41v-41h-41v-41h-41v-41h-41
v-41h-40v-41h-41v-41h-41v-41h-41v-41h-41z" />
    <glyph glyph-name="underscore" unicode="_" horiz-adv-x="901" 
d="M-287 -246h901v-82h-901v82z" />
    <glyph glyph-name="grave" unicode="`" horiz-adv-x="1024" 
d="M860 1188v-82h-41v41h-41v41h-82v41h-82v41h-82v41h-40v164h122v-41h41v-41h41v-41h41v-41h41v-82h41v-41h41z" />
    <glyph glyph-name="a" unicode="a" 
d="M410 41v-41h-246v41h-41v41h-41v41h-41v328h41v81h41v82h41v82h41v41h41v41h41v41h41v41h41v41h82v41h122v41h205v-41h123v-41h41v41h123v-82h-41v-82h-41v-123h-41v-82h-41v-122h-41v-82h-41v-123h-41v-123h123v41h41v41h41v41h41v-41h-41v-82h-41v-41h-82v-41h-41v-41
h-205v41h-41v82h41v82h41v41h-41v-41h-41v-41h-41v-41h-40v-41h-41v-41h-41zM287 123h164v41h41v41h40v41h41v41h41v41h41v82h41v82h41v122h41v82h41v164h-41v41h-205v-41h-81v-41h-41v-41h-41v-41h-41v-82h-41v-41h-41v-122h-41v-328h41v-41zM696 328h-41v-41h41v41z" />
    <glyph glyph-name="b" unicode="b" 
d="M410 696h-41v-41h41v41h41v41h41v41h40v41h41v41h41v41h41v41h82v41h164v-41h82v-41h41v-82h41v-287h-41v-122h-41v-82h-41v-41h-41v-82h-41v-41h-41v-41h-82v-41h-41v-41h-82v-41h-409v41h-82v41h-82v123h41v123h41v82h41v122h41v82h41v123h41v123h41v82h41v123h41v82
h41v123h41v41h-41v41h-41v82h204v41h82v-123h-41v-123h-41v-123h-41v-82h-41v-123h-40v-82h-41v-41h-41v-82zM410 614v-41h-41v41h-41v-41h41v-122h-41v-82h-41v-82h-41v-123h-41v-41h41v-41h286v41h82v41h41v41h41v41h41v82h41v82h41v82h41v286h-41v82h-123v-41h-82v-41
h-41v-41h-41v-41h-40v-41h-41v-41h-41z" />
    <glyph glyph-name="c" unicode="c" horiz-adv-x="860" 
d="M573 41v-41h-327v41h-82v41h-41v82h-41v368h41v82h41v82h41v82h41v41h41v41h41v41h82v41h82v41h245v-41h82v-41h41v-41h41v-164h-41v-41h-41v-41h-41v41h-82v123h41v82h-41v41h-164v-41h-81v-41h-41v-82h-41v-41h-41v-82h-41v-163h-41v-123h41v-123h41v-41h41v-41h245v41
h82v41h41v41h41v-41h-41v-41h-41v-41h-41v-41h-41v-41h-41z" />
    <glyph glyph-name="d" unicode="d" horiz-adv-x="1146" 
d="M1065 1229v123h-41v41h-41v41h246v41h82v-82h-41v-82h-41v-123h-41v-123h-41v-82h-41v-123h-41v-82h-41v-123h-41v-82h-41v-122h-41v-82h-41v-123h-41v-123h123v41h41v41h41v41h41v-41h-41v-41h-41v-82h-82v-41h-41v-41h-205v41h-41v82h41v82h41v41h-41v-41h-41v-41h-41
v-41h-41v-41h-40v-41h-82v-41h-246v41h-41v41h-41v82h-41v287h41v81h41v82h41v82h41v41h41v41h41v41h41v41h41v41h82v41h81v41h246v-41h82v-41h82v123h41v82h41v123h41zM287 123h205v41h40v41h41v41h41v41h41v41h41v82h41v82h41v122h41v82h41v123h-41v41h-41v41h-205v-41
h-41v-41h-81v-41h-41v-82h-41v-41h-41v-82h-41v-122h-41v-287h41v-41zM737 328h-41v-41h41v41z" />
    <glyph glyph-name="e" unicode="e" horiz-adv-x="860" 
d="M778 246v-41h-41v-41h-41v-41h-41v-41h-41v-41h-41v-41h-327v41h-82v41h-41v82h-41v123h-41v82h41v204h41v82h41v82h41v41h41v41h41v41h41v41h82v41h82v41h245v-41h82v-41h41v-41h41v-123h-41v-41h-41v-41h-41v-41h-41v-41h-82v-41h-163v-40h-287v-41h41v-123h41v-123h41
v-41h41v-41h245v41h82v41h41v41h41zM287 532h41v41h204v41h82v41h41v41h41v41h41v123h-41v41h-204v-41h-41v-41h-41v-41h-41v-82h-41v-82h-41v-82z" />
    <glyph glyph-name="f" unicode="f" horiz-adv-x="655" 
d="M-205 -451v-41h-82v41h-123v41h-41v164h82v41h41v-41h41v-82h-41v-82h123v41h41v41h41v41h41v82h41v123h41v123h41v123h41v123h41v82h41v123h41v122h41v82h41v123h41v82h-123v82h164v41h41v82h41v82h41v82h40v41h41v41h41v41h41v41h123v41h82v-41h164v-41h41v-164h-41
v-41h-123v41h-41v82h82v41h-41v41h-123v-41h-82v-82h-41v-41h-41v-123h-41v-123h246v-41h-41v-41h-246v-41h-40v-82h-41v-123h-41v-123h-41v-81h-41v-123h-41v-82h-41v-123h-41v-123h-41v-82h-41v-123h-41v-82h-41v-41h-41v-41h-41v-41h-41v-41h-123z" />
    <glyph glyph-name="g" unicode="g" horiz-adv-x="942" 
d="M983 983h-41v-41h-82v-41h-41v-82h41v-41h41v-246h-41v-81h-41v-41h-41v-41h-41v-41h-82v-41h-82v-41h-163v41h-123v-41h-82v-41h-41v-82h41v-41h246v-41h245v-41h82v-41h41v-41h41v-164h-41v-41h-41v-82h-82v-41h-41v-41h-163v-41h-410v41h-123v41h-82v41h-41v123h41v82
h41v41h82v41h82v41h-41v41h-41v164h41v41h41v41h41v41h82v82h-41v41h-41v122h-41v82h41v123h41v82h41v41h41v41h41v41h123v41h245v-41h82v-41h41v41h41v41h41v41h246v-164h-41v-41h-123v123h41v41zM410 328h82v41h81v41h41v41h41v41h41v327h-41v41h-41v41h-163v-41h-41v-41
h-41v-41h-41v-82h-41v-245h41v-82h82v-41zM287 369h-41v-41h41v41zM123 -410h369v41h122v41h41v41h41v82h-41v41h-163v41h-246v41h-123v-41h-41v-41h-41v-41h-41v-123h41v-41h82v-41z" />
    <glyph glyph-name="h" unicode="h" 
d="M164 41v-41h-164v82h41v123h41v82h41v123h41v82h41v122h41v123h41v82h41v123h41v82h41v123h41v82h41v123h-82v82h245v41h82v-41h-41v-123h-41v-123h-41v-82h-41v-123h-41v-82h-40v-123h-41v-41h-41v-41h-41v-82h41v-82h-41v-40h-41v-123h-41v-123h-41v-82h-41v-123h-41z
M451 655v-41h-41v41h41v82h41v41h40v41h41v41h41v41h82v41h41v41h205v-41h82v-246h-41v-82h-41v-122h-41v-82h-41v-123h-41v-82h-41v-82h123v41h82v41h41v41h41v-41h-41v-41h-41v-41h-41v-41h-41v-41h-82v-41h-205v246h41v82h41v123h41v81h41v123h41v82h41v123h-164v-41h-82
v-41h-41v-41h-41v-41h-40v-41h-41z" />
    <glyph glyph-name="i" unicode="i" horiz-adv-x="573" 
d="M451 1188v82h41v82h40v41h205v-41h-41v-82h-41v-82h-204zM287 41v-41h-205v41h-41v164h41v82h41v123h41v82h41v122h41v82h41v164h-41v41h-41v41h205v41h122v-123h-40v-82h-41v-82h-41v-123h-41v-122h-41v-82h-41v-123h-41v-123h123v-41h-41v-41h-41zM410 123h-41v41h41
v41h41v41h41v-41h-41v-41h-41v-41z" />
    <glyph glyph-name="j" unicode="j" horiz-adv-x="532" 
d="M451 1188v41h41v123h40v41h205v-41h-41v-82h-41v-82h-204zM-164 -451v-41h-164v41h-82v41h-41v164h82v41h41v-41h41v-82h-41v-82h123v41h41v41h41v41h41v123h41v123h41v82h41v123h41v82h41v123h41v123h41v81h41v123h41v164h-41v41h-41v41h205v41h163v-41h-41v-82h-40
v-123h-41v-82h-41v-123h-41v-122h-41v-82h-41v-123h-41v-82h-41v-123h-41v-82h-41v-123h-41v-82h-41v-41h-41v-41h-41v-41h-41v-41h-82z" />
    <glyph glyph-name="k" unicode="k" horiz-adv-x="1064" 
d="M205 123v-123h-205v41h41v123h41v123h41v82h41v123h41v81h41v123h41v82h41v123h41v123h41v82h41v123h41v123h-41v41h-41v41h245v41h82v-82h-41v-123h-41v-82h-41v-123h-41v-82h-41v-123h-40v-123h-41v-82h-41v-82h-41v-81h-41v-41h-41v-41h41v41h41v41h41v40h41v41h41v82
h40v41h41v41h41v41h41v41h41v41h82v41h41v41h82v41h164v-41h41v-123h-41v-41h-123v82h-123v-41h-41v-41h-41v-41h-82v-41h-41v-82h41v-82h41v-163h41v-123h41v-123h123v-41h-41v-41h-41v-41h-164v41h-41v41h-41v164h-41v123h-40v123h-41v-41h-41v-41h-41v-41h-41v-41h-41
v-82h-41v-123h-41zM942 123h-41v41h41v41h41v-41h-41v-41z" />
    <glyph glyph-name="l" unicode="l" horiz-adv-x="573" 
d="M737 1475v-82h-41v-82h-41v-123h-41v-82h-41v-123h-41v-82h-40v-123h-41v-82h-41v-123h-41v-81h-41v-123h-41v-123h-41v-123h123v-41h-41v-41h-41v-41h-205v41h-41v164h41v82h41v123h41v82h41v122h41v82h41v123h41v82h41v123h41v82h41v123h41v123h-82v82h245v41h82z
M410 123h-41v41h41v41h41v41h41v-41h-41v-41h-41v-41z" />
    <glyph glyph-name="m" unicode="m" horiz-adv-x="1638" 
d="M164 41v-41h-164v82h41v82h41v123h41v82h41v123h41v122h41v82h41v164h-41v41h-41v41h205v41h122v-123h-40v-82h-41v-41h-41v-82h-41v-41h41v41h41v82h41v41h40v41h41v41h41v41h82v41h41v41h205v-41h41v-41h41v-123h-41v-82h-41v-41h41v41h41v41h41v41h41v82h82v41h41v41
h82v41h164v-41h81v-246h-40v-82h-41v-122h-41v-82h-41v-123h-41v-82h-41v-82h123v41h82v41h40v41h41v-41h-41v-41h-40v-41h-41v-41h-41v-41h-82v-41h-205v246h41v82h41v123h41v81h41v123h41v82h41v82h-41v41h-123v-41h-41v-41h-82v-41h-41v-82h-41v-41h-41v-41h-41v-41h-41
v-122h-41v-82h-41v-123h-41v-123h-41v-82h-205v41h41v82h41v123h41v82h41v123h41v122h41v82h41v205h-123v-41h-82v-41h-41v-41h-41v-41h-40v-41h-41v-82h-41v-41h-41v-81h-41v-123h-41v-82h-41v-123h-41v-82h-41z" />
    <glyph glyph-name="n" unicode="n" horiz-adv-x="1146" 
d="M819 246v-123h123v41h41v41h41v41h41v-41h-41v-41h-41v-82h-82v-41h-41v-41h-205v41h-41v123h41v123h41v82h41v123h41v81h41v123h41v164h-164v-41h-41v-41h-41v-41h-41v-41h-41v-41h-40v-41h-41v-41h-41v41h-41v-41h41v-81h-41v-82h-41v-123h-41v-82h-41v-123h-41v-82
h-205v41h41v82h41v123h41v82h41v123h41v81h41v123h41v82h41v123h-41v41h-82v41h205v41h163v-41h-41v-123h-40v-82h-41v-41h-41v-41h41v41h41v41h40v41h41v41h41v41h41v41h41v41h82v41h205v-41h41v-41h41v-164h-41v-82h-41v-123h-41v-81h-41v-123h-41v-82h-41z" />
    <glyph glyph-name="o" unicode="o" horiz-adv-x="1024" 
d="M573 41v-41h-327v41h-82v41h-41v41h-41v123h-41v164h41v163h41v82h41v82h41v41h41v41h41v41h41v41h82v41h82v41h245v-41h82v-41h41v-41h41v-41h41v-164h41v-82h-41v-163h-41v-123h-41v-41h-41v-41h-41v-82h-82v-41h-41v-41h-82zM287 82h245v41h41v41h41v41h41v82h41v82
h41v163h41v246h-41v82h-41v41h-164v-41h-40v-41h-82v-82h-41v-41h-41v-123h-41v-122h-41v-287h41v-82z" />
    <glyph glyph-name="p" unicode="p" horiz-adv-x="1146" 
d="M451 737h-41v-82h41v41h41v82h40v41h41v41h41v41h82v41h41v41h205v-41h82v-82h41v-41h41v-287h-41v-122h-41v-82h-41v-41h-41v-82h-41v-41h-41v-41h-41v-41h-82v-41h-82v-41h-286v41h-123v41h-41v-123h-41v-82h-41v-123h-41v-164h123v-82h-533v41h41v41h123v41h41v82h41
v82h41v123h41v123h41v82h41v123h41v82h41v123h41v81h41v123h41v123h41v41h-41v82h-82v41h205v41h163v-41h-41v-82h-40v-82h-41v-41zM451 614v-41h-41v41h-41v-41h41v-81h-41v-82h-41v-123h-41v-164h82v-41h204v41h82v41h41v41h41v41h41v41h41v82h41v123h41v327h-41v41h-164
v-41h-41v-41h-82v-41h-41v-82h-40v-41h-41z" />
    <glyph glyph-name="q" unicode="q" 
d="M573 82h41v82h41v41h41v82h41v41h-41v-41h-41v-82h-41v-41h-41v-41h-41v-41h-40v-41h-82v-41h-246v41h-41v41h-41v82h-41v246h41v122h41v82h41v82h41v41h41v41h41v41h41v41h41v41h82v41h81v41h287v-41h82v-41h82v41h82v41h41v-82h-41v-123h-41v-123h-41v-82h-41v-122h-41
v-82h-41v-123h-41v-82h-41v-123h-41v-82h-41v-123h-41v-123h-41v-82h41v-41h82v-82h-491v82h123v41h41v41h41v82h41v123h40v123h41v82zM287 123h164v41h81v41h41v41h41v41h41v82h41v41h41v82h41v122h41v123h41v82h-41v41h-41v41h-205v-41h-41v-41h-81v-41h-41v-82h-41v-41
h-41v-82h-41v-122h-41v-287h41v-41z" />
    <glyph glyph-name="r" unicode="r" horiz-adv-x="860" 
d="M164 41v-41h-164v82h41v82h41v123h41v82h41v123h41v122h41v82h41v164h-41v41h-41v41h205v41h122v-123h-40v-82h-41v-41h-41v-41h-41v-82h41v41h41v82h41v41h40v41h41v41h41v41h41v41h82v41h123v-41h82v-205h-41v-41h-123v41h-41v82h41v41h-123v-41h-41v-41h-41v-41h-41
v-41h-40v-41h-41v-82h-41v-41h-41v-81h-41v-123h-41v-82h-41v-123h-41v-82h-41z" />
    <glyph glyph-name="s" unicode="s" horiz-adv-x="778" 
d="M492 41v-41h-369v41h-82v41h-41v205h41v41h82v-41h41v-82h-41v-82h41v-41h41v-41h123v41h82v41h41v205h-41v41h-41v41h-41v41h-41v41h-41v40h-41v82h-41v205h41v41h41v41h41v41h82v41h204v-41h123v-41h41v-82h41v-123h-41v-41h-123v41h-41v82h41v82h-41v41h-163v-41h-82
v-164h41v-82h82v-82h41v-40h40v-41h41v-41h41v-82h41v-123h-41v-82h-41v-41h-41v-41h-40z" />
    <glyph glyph-name="t" unicode="t" horiz-adv-x="696" 
d="M532 860v-41h-40v-82h-41v-123h-41v-82h-41v-122h-41v-123h-41v-123h41v-41h82v41h82v41h40v-41h-40v-41h-41v-41h-41v-41h-41v-41h-246v41h-41v205h41v123h41v82h41v122h41v82h41v123h41v123h-123v41h82v41h82v41h41v41h41v41h41v41h81v41h41v41h41v-82h-41v-82h-41v-82
h246v-82h-368v-41h81z" />
    <glyph glyph-name="u" unicode="u" 
d="M287 0v-41h-41v41h-123v41h-41v246h41v82h41v82h41v122h41v82h41v82h41v123h-41v41h-82v41h205v41h163v-41h-41v-123h-40v-82h-41v-82h-41v-123h-41v-81h-41v-123h-41v-123h-41v-82h41v-41h82v41h82v41h41v41h40v41h41v41h41v82h41v41h41v41h41v122h41v123h41v82h41v123
h41v82h205v-41h-41v-82h-41v-123h-41v-82h-41v-123h-41v-81h-41v-123h-41v-82h-41v-123h123v41h41v41h41v41h41v-41h-41v-82h-41v-41h-41v-41h-82v-41h-205v41h-41v123h41v41h41v41h41v82h-41v-41h-41v-82h-41v-41h-41v-41h-40v-41h-41v-41h-82v-41h-82z" />
    <glyph glyph-name="v" unicode="v" horiz-adv-x="1024" 
d="M901 819h-82v123h41v41h123v-41h41v-246h-41v-82h-41v-82h-41v-81h-41v-41h-41v-41h-41v-41h-41v-41h-41v-41h-41v-41h-41v-41h-41v-41h-41v-41h-81v-41h-41v-41h-82v-41h-82v82h41v737h-41v82h-41v41h-41v41h123v41h123v-41h41v-778h-41v-41h41v41h41v41h81v41h41v41h41
v41h41v41h41v82h41v41h41v81h41v82h41v164z" />
    <glyph glyph-name="w" unicode="w" horiz-adv-x="1433" 
d="M246 -41v901h-41v82h123v41h82v-41h41v-737h-41v-41h-41v-41h41v41h41v41h81v41h41v41h41v41h41v82h41v41h41v409h-41v41h-41v41h164v41h82v-205h41v-327h-41v-287h-41v-41h41v41h41v41h41v41h41v41h41v41h41v41h41v82h41v41h41v81h41v164h41v82h-82v41h-41v41h41v41h41
v41h123v-82h41v-123h-41v-123h-41v-82h-41v-81h-41v-82h-41v-41h-41v-41h-41v-41h-41v-41h-41v-41h-41v-41h-41v-41h-41v-41h-41v-41h-82v-41h-41v-41h-82v205h41v205h-41v-82h-41v-41h-41v-41h-41v-41h-41v-41h-81v-41h-41v-41h-41v-41h-82v-41h-41z" />
    <glyph glyph-name="x" unicode="x" horiz-adv-x="1024" 
d="M164 41v-41h-205v164h41v41h123v-82h41v41h82v41h41v82h41v41h41v82h41v122h-41v123h-41v123h-41v82h-41v41h-82v41h164v41h123v-41h41v-123h40v-205h-40v-41h40v41h41v41h41v82h41v41h41v82h41v41h41v41h82v41h164v-82h41v-41h-41v-82h-164v82h-41v-41h-41v-41h-41v-41
h-41v-41h-41v-41h-41v-82h-41v-41h41v-122h41v-82h41v-123h41v-82h164v-41h-41v-41h-41v-41h-205v41h-41v41h-41v123h-40v82h-41v41h41v82h-41v-41h-41v-82h-41v-41h-41v-82h-41v-41h-41v-41h-41v-41h-41zM942 123h-41v41h41v41h41v-41h-41v-41z" />
    <glyph glyph-name="y" unicode="y" horiz-adv-x="1064" 
d="M82 -410v-41h-287v41h-41v123h41v41h41v41h41v-41h82v-123h-41v-41h41v41h123v41h82v41h41v41h41v41h41v41h41v41h41v287h-41v368h-41v246h-41v82h-41v82h123v41h82v-41h41v-205h41v-286h40v-369h-40v-41h40v41h41v41h41v41h41v82h41v41h41v82h41v82h41v81h41v123h41v164
h-82v123h41v41h123v-41h41v-287h-41v-123h-41v-81h-41v-41h-41v-82h-41v-41h-41v-82h-41v-41h-41v-82h-41v-41h-41v-41h-41v-41h-41v-41h-40v-41h-41v-41h-41v-41h-41v-41h-41v-41h-41v-41h-41v-41h-82v-41h-82z" />
    <glyph glyph-name="z" unicode="z" horiz-adv-x="860" 
d="M942 983v-41h-41v-41h-41v-41h-41v-41h-41v-41h-41v-41h-41v-41h-41v-41h-41v-41h-41v-41h-41v-41h-40v-40h-41v-41h-41v-41h-41v-41h-41v-41h-41v-41h-41v-41h-41v-41h-41v-41h41v41h164v-41h123v-41h81v41h82v41h41v41h41v41h41v-82h-41v-41h-41v-82h-41v-41h-41v-41
h-82v-41h-81v41h-123v41h-123v41h-82v-41h-123v-41h-41v-41h-41v41h-41v41h41v41h41v41h41v41h41v41h41v41h41v41h41v41h41v41h41v41h41v41h41v41h41v40h41v41h41v41h41v41h40v41h41v41h41v41h41v41h41v41h-41v-41h-327v-41h-82v-41h-41v-41h-41v-41h-82v41h41v41h41v82h41
v82h41v82h696z" />
    <glyph glyph-name="braceleft" unicode="{" horiz-adv-x="819" 
d="M82 573h164v41h82v41h41v41h41v41h41v82h41v369h40v123h41v82h41v41h41v41h82v41h369v-41h-246v-41h-41v-41h-41v-41h-41v-205h-41v-287h-41v-82h-41v-82h-41v-41h-41v-41h-81v-41h-82v-41h-287v41zM369 -369v-82h-41v41h-123v41h-82v41h-41v41h-41v287h41v82h41v41h41
v82h41v41h41v82h41v164h82v-41h41v-41h41v-205h-41v-82h-41v-41h-41v-41h-41v-82h-41v-82h-41v-205h41v-41h123z" />
    <glyph glyph-name="bar" unicode="|" horiz-adv-x="737" 
d="M737 1434v-82h-41v-123h-41v-123h-41v-82h-41v-123h-41v-123h-40v-123h-41v-82h-41v-122h-41v-123h-41v-123h-41v-82h-41v-123h-41v-123h-41v-123h-41v-82h-41v-123h-41v-41h-41v123h41v123h41v82h41v123h41v123h41v123h41v82h41v123h41v122h41v82h41v123h41v123h41v123
h40v123h41v82h41v123h41v123h82z" />
    <glyph glyph-name="braceright" unicode="}" horiz-adv-x="819" 
d="M532 573h-40v41h-41v82h-41v205h41v82h41v82h40v41h41v41h41v82h41v164h-41v41h-41v41h-122v41h163v-41h82v-41h82v-82h41v-246h-41v-82h-41v-41h-41v-82h-41v-41h-41v-41h-41v-246h164v-41h-123v-40h-82v-41h-40v-41h-41v-41h-41v-82h-41v-328h-41v-164h-41v-82h-41v-41
h-41v-41h-82v-41h-82v-41h-287v82h246v41h41v41h41v41h41v369h41v123h41v82h41v82h41v41h82v41h41v40h122v41z" />
    <glyph glyph-name="asciitilde" unicode="~" horiz-adv-x="1146" 
d="M901 532v-40h-164v40h-123v41h-82v41h-286v-41h-41v41h41v82h41v41h41v41h286v-41h82v-41h123v-41h164v41h41v41h41v41h41v-41h-41v-82h-41v-41h-41v-41h-41v-41h-41z" />
    <glyph glyph-name="exclamdown" unicode="&#xa1;" horiz-adv-x="491" 
d="M614 1188h-204v123h41v82h41v41h204v-82h-41v-123h-41v-41zM451 942h-41v41h41v-41zM369 819v82h41v-123h-41v-164h-41v-122h-41v-164h-41v-164h-41v-123h-41v-41h-164v164h41v82h41v82h41v82h41v82h41v81h41v82h41v82h41v82h41z" />
    <glyph glyph-name="cent" unicode="&#xa2;" horiz-adv-x="860" 
d="M778 1147h41v-82h-41v-82h-41v-41h82v-41h41v-41h41v-164h-41v-41h-41v-41h-41v41h-82v123h41v82h-41v-41h-41v-82h-41v-82h-41v-82h-41v-81h-40v-82h-41v-82h-41v-82h-41v-82h-41v-82h-41v-82h-41v-82h-41v-82h-41v-41h-82v41h41v82h41v82h41v82h-82v82h-41v368h41v82
h41v82h41v82h41v41h41v41h41v41h82v41h82v41h204v41h41v82h41v41zM287 246h41v82h41v41h41v82h41v81h41v82h40v82h41v82h41v82h41v41h-123v-41h-81v-41h-41v-82h-41v-41h-41v-82h-41v-163h-41v-123h41v-82zM328 0v82h41v41h245v41h82v41h41v41h41v-41h-41v-41h-41v-41h-41
v-41h-41v-41h-41v-41h-245z" />
    <glyph glyph-name="sterling" unicode="&#xa3;" 
d="M123 0v-41h-41v41h-123v82h-41v82h41v82h41v41h328v-41h41v123h41v286h82v41h-287v82h205v328h41v123h41v41h40v41h41v41h41v41h82v41h369v-41h41v-41h82v-82h41v-164h-41v-41h-41v-41h-123v41h-41v123h82v123h-41v41h-287v-41h-41v-82h-41v-328h-41v-123h328v-82h-328
v-164h-41v-122h-41v-82h-40v-41h-41v-82h-41v-41h41v41h122v-41h246v41h82v41h41v41h41v-41h-41v-82h-41v-41h-41v-82h-82v-41h-123v-41h-82v41h-122v41h-41v41h-123v-41h-41v-41h-123zM41 41h164v41h41v41h41v41h-41v41h-82v41h-82v-41h-82v-123h41v-41z" />
    <glyph glyph-name="yen" unicode="&#xa5;" horiz-adv-x="1433" 
d="M573 328h82v41h-409v41h41v41h368v41h-368v40h41v41h327v164h-41v164h-41v123h-41v164h-40v123h-41v41h-41v41h-41v41h532v-41h-41v-41h-123v-246h41v-205h41v-164h82v41h41v41h82v41h41v41h41v41h41v41h41v41h41v41h41v41h41v41h41v41h41v82h41v82h-123v82h450v-41h-41
v-41h-82v-41h-41v-41h-41v-41h-40v-41h-41v-41h-82v-41h-41v-41h-41v-41h-41v-41h-41v-41h-41v-41h-41v-41h-41v-41h-41v-41h-41v-41h-41v-41h-41v-41h-41v-82h328v-41h-41v-40h-328v-41h287v-82h-369v-82h-41v-205h123v-82h-573v82h164v41h41v41h40v82h41v82z" />
    <glyph glyph-name="section" unicode="&#xa7;" horiz-adv-x="983" 
d="M410 -123v-41h-123v41h-123v41h-82v82h-41v205h41v41h123v-41h41v-123h-82v-82h41v-41h123v-41h41v41h123v41h40v41h41v123h-41v82h-40v41h-82v41h-41v41h-41v41h-41v41h-41v41h-41v40h-41v246h41v82h41v41h82v41h82v41h82v41h-82v205h41v82h41v41h40v41h82v41h328v-41
h82v-41h41v-82h41v-123h-41v-41h-41v-41h-123v164h41v82h-41v41h-246v-41h-41v-41h-41v-164h41v-41h41v-41h41v-41h41v-41h82v-41h41v-41h41v-41h41v-82h41v-164h-41v-81h-41v-82h-82v-41h-82v-41h-82v-41h82v-205h-41v-82h-41v-41h-41v-41h-82v-41h-122zM614 410h82v41h82
v81h41v82h-41v82h-82v41h-41v41h-41v41h-41v41h-41v41h-81v-41h-82v-41h-41v-164h41v-41h41v-41h41v-41h41v-40h81v-41h41v-41z" />
    <glyph glyph-name="dieresis" unicode="&#xa8;" horiz-adv-x="1024" 
d="M492 1188v82h40v82h41v41h164v-123h-41v-82h-204zM901 1188v82h41v82h41v41h164v-123h-41v-82h-205z" />
    <glyph glyph-name="copyright" unicode="&#xa9;" horiz-adv-x="1597" 
d="M1024 41v-41h-451v41h-81v41h-82v41h-41v41h-41v41h-41v41h-41v82h-41v82h-41v409h41v123h41v82h41v41h41v82h41v41h41v41h41v41h41v41h81v41h82v41h82v41h492v-41h82v-41h41v-41h82v-41h41v-41h41v-82h40v-82h41v-164h41v-164h-41v-164h-41v-122h-40v-41h-41v-82h-41
v-41h-41v-41h-41v-41h-41v-41h-41v-41h-41v-41h-82v-41h-123zM696 41h246v41h123v41h82v41h82v41h41v41h41v41h41v41h41v41h41v82h41v81h41v123h40v287h-40v123h-41v82h-41v41h-41v41h-41v41h-41v41h-82v41h-123v41h-287v-41h-123v-41h-82v-41h-41v-41h-81v-41h-41v-41h-41
v-41h-41v-82h-41v-41h-41v-123h-41v-450h41v-82h41v-82h41v-41h41v-41h82v-41h81v-41h123v-41zM1147 942v41h-41v41h-41v41h-123v-41h-82v-41h-41v-41h-41v-82h-41v-82h-41v-205h41v-81h41v-41h41v-41h164v41h82v41h41v-41h-41v-41h-41v-41h-41v-41h-287v41h-82v41h-41v82
h-41v327h41v82h41v41h41v41h41v41h41v41h41v41h123v41h164v-41h82v-41h82v-82h41v-123h-41v-41h-41v-41h-82v164h41z" />
    <glyph glyph-name="guillemotleft" unicode="&#xab;" horiz-adv-x="1146" 
d="M369 205v-164h-41v41h-41v82h-41v82h-41v82h-41v41h-41v82h-41v41h41v40h41v41h82v41h41v41h82v41h41v41h82v41h40v41h41v41h82v41h41v41h41v-41h-41v-41h-41v-41h-41v-41h-41v-82h-41v-41h-40v-41h-41v-41h-41v-41h-41v-40h-41v-41h-41v-41h41v-205h41zM778 205v-164
h-41v41h-41v82h-41v82h-41v82h-41v41h-41v82h-40v41h40v40h41v41h82v41h41v41h82v41h41v41h82v41h41v41h41v41h82v41h41v41h41v-41h-41v-41h-41v-41h-41v-41h-41v-82h-41v-41h-41v-41h-41v-41h-41v-41h-41v-40h-41v-41h-41v-41h41v-205h41z" />
    <glyph glyph-name="registered" unicode="&#xae;" horiz-adv-x="1146" 
d="M860 614v-41h-287v41h-81v41h-41v41h-41v41h-41v123h-41v246h41v82h41v82h41v41h41v41h40v41h41v41h82v41h369v-41h82v-41h41v-41h41v-82h41v-369h-41v-82h-41v-41h-41v-41h-41v-41h-41v-41h-82v-41h-82zM655 614h123v41h123v41h82v41h41v41h41v41h41v41h41v123h41v246
h-41v82h-41v41h-41v41h-82v41h-287v-41h-82v-41h-41v-41h-41v-41h-40v-41h-41v-82h-41v-164h-41v-41h41v-123h41v-82h41v-41h40v-41h123v-41zM1024 819v-41h-82v-41h-41v41h-41v164h-41v82h-164v-41h41v-82h-41v-82h82v-41h-245v41h81v82h41v123h41v82h41v164h-41v41h369
v-41h41v-123h-41v-41h-41v-41h-82v-41h41v-164h41v-41h41zM778 1229h41v-41h-41v-82h-41v-41h123v41h82v164h-164v-41z" />
    <glyph glyph-name="macron" unicode="&#xaf;" horiz-adv-x="1024" 
d="M532 1311h574v-82h-614v41h40v41z" />
    <glyph glyph-name="degree" unicode="&#xb0;" horiz-adv-x="778" 
d="M737 860v-41h-286v41h-82v82h-41v287h41v41h41v82h41v41h81v41h328v-41h41v-41h41v-123h41v-82h-41v-123h-41v-41h-41v-82h-82v-41h-41zM492 901h204v41h41v41h41v41h41v41h41v205h-41v41h-41v41h-205v-41h-41v-41h-40v-41h-41v-82h-41v-123h41v-82h41v-41z" />
    <glyph glyph-name="twosuperior" unicode="&#xb2;" horiz-adv-x="573" 
d="M369 819h-41v-41h245v41h41v41h41v41h41v-41h-41v-82h-41v-82h-41v-41h-491v41h41v41h82v41h41v41h41v41h41v41h41v41h41v41h41v41h81v41h41v41h41v82h41v205h-163v-41h-41v-123h-41v-41h-82v164h41v41h82v41h286v-41h41v-41h41v-123h-41v-82h-41v-41h-41v-41h-41v-41
h-82v-41h-41v-41h-40v-41h-82v-41h-41v-41zM246 737h41v41h-41v-41z" />
    <glyph glyph-name="threesuperior" unicode="&#xb3;" horiz-adv-x="614" 
d="M532 696v-41h-245v41h-82v82h-41v82h41v41h123v-82h-41v-82h41v-41h123v41h41v41h40v41h41v164h-41v41h-122v41h41v41h41v41h40v41h41v41h41v41h82v41h41v41h-41v-41h-245v-41h-41v-41h-41v82h41v82h41v41h450v-41h-41v-41h-41v-41h-82v-41h-41v-41h-41v-41h-41v-41h-41
v-41h82v-41h41v-82h41v-82h-41v-82h-41v-82h-41v-41h-82z" />
    <glyph glyph-name="acute" unicode="&#xb4;" horiz-adv-x="1024" 
d="M573 1106v41h41v41h41v41h41v41h41v41h41v41h41v82h82v41h123v-164h-82v-41h-82v-41h-41v-41h-123v-41h-41v-41h-82z" />
    <glyph glyph-name="paragraph" unicode="&#xb6;" horiz-adv-x="1269" 
d="M1229 1352h-246v-41h-41v-41h82v-82h-41v-123h-41v-82h-41v-123h-41v-82h-41v-123h-41v-123h-41v-81h-41v-123h-41v-82h-41v-123h-41v-123h-41v-82h-40v-123h-41v-82h-41v-123h-41v-82h-123v82h41v82h41v123h41v123h41v82h41v123h41v82h40v123h41v123h-41v41h-81v40h-82
v41h-41v41h-41v41h-41v123h-41v164h41v123h41v82h41v82h41v41h41v41h82v41h40v41h123v41h901v-82h-163v-41h-41v-41h-41v-82h-41v-123h-41v-82h-41v-123h-41v-82h-41v-123h-41v-123h-41v-81h-41v-123h-41v-82h-41v-123h-41v-123h-41v-82h-41v-123h-41v-82h-41v-123h-41v-82
h-123v82h41v82h41v123h41v123h41v82h41v123h41v82h41v123h41v123h41v81h41v123h41v82h41v123h41v123h41v82h41v123h41v82h41v82z" />
    <glyph glyph-name="periodcentered" unicode="&#xb7;" horiz-adv-x="491" 
d="M279 848h204v-82h-41v-123h-41v-41h-204v82h41v123h41v41z" />
    <glyph glyph-name="cedilla" unicode="&#xb8;" horiz-adv-x="1024" 
d="M41 -369v41h41v-41h123v41h41v82h-41v41h-41v123h41v41h41v41h41v41h82v-41h-41v-41h-41v-41h-41v-41h41v41h41v-41h41v-82h41v-82h-41v-41h-41v-41h-41v-41h-205v41h-41z" />
    <glyph glyph-name="onesuperior" unicode="&#xb9;" horiz-adv-x="409" 
d="M655 1434v-41h-41v-82h-41v-82h-41v-123h-40v-123h-41v-82h-41v-123h-41v-41h41v-41h41v-41h-328v41h82v41h41v82h41v123h41v123h41v82h41v123h41v82h-41v41h82v41h163z" />
    <glyph glyph-name="guillemotright" unicode="&#xbb;" horiz-adv-x="1146" 
d="M410 41v-41h-41v41h41v41h41v41h41v41h40v41h41v41h41v41h41v41h41v41h41v41h41v82h41v286h-41v164h41v-82h41v-82h41v-41h41v-82h41v-82h41v-41h41v-81h-82v-41h-41v-41h-41v-41h-82v-41h-41v-41h-82v-41h-41v-41h-82v-41h-41v-41h-40v-41h-82zM0 41v-41h-41v41h41v41
h41v41h41v41h41v41h41v41h41v41h41v41h41v41h41v41h41v82h41v286h-41v164h41v-82h41v-82h41v-41h40v-82h41v-82h41v-41h41v-81h-82v-41h-41v-41h-40v-41h-82v-41h-41v-41h-82v-41h-41v-41h-82v-41h-41v-41h-41v-41h-82z" />
    <glyph glyph-name="onequarter" unicode="&#xbc;" horiz-adv-x="1269" 
d="M655 1434v-41h-41v-123h-41v-82h-41v-123h-40v-123h-41v-82h-41v-164h82v-41h-369v41h82v41h41v41h41v123h41v82h41v123h41v123h41v123h-41v41h82v41h163zM123 41v-41h-82v41h41v41h41v41h41v82h41v41h41v41h41v41h41v41h41v82h41v41h41v40h41v41h40v82h41v41h41v41h41
v41h41v41h41v82h41v41h41v41h41v41h41v41h41v82h41v41h41v41h41v41h41v41h41v82h41v41h82v-82h-41v-41h-41v-41h-41v-41h-41v-82h-41v-41h-41v-41h-41v-41h-41v-41h-41v-82h-41v-41h-41v-41h-41v-41h-41v-41h-41v-82h-41v-41h-41v-41h-41v-41h-41v-40h-40v-82h-41v-41h-41
v-41h-41v-41h-41v-41h-41v-82h-41v-41h-41v-41h-41v-41h-41zM983 41v-41h-287v41h82v41h41v123h-327v41h40v41h41v41h41v41h82v41h41v41h41v41h41v40h41v41h41v82h41v82h82v41h123v-41h-41v-82h-41v-41h-82v-41h-41v-41h-41v-40h-41v-41h-41v-41h-82v-41h-41v-41h205v82h41
v41h41v41h82v40h41v-40h-41v-82h-41v-82h82v41h41v41h41v-41h-41v-82h-41v-41h-41v-41h-123v-164h41z" />
    <glyph glyph-name="onehalf" unicode="&#xbd;" horiz-adv-x="1310" 
d="M655 1434v-82h-41v-82h-41v-123h-41v-82h-40v-123h-41v-82h-41v-164h82v-41h-369v41h82v41h41v41h41v82h41v123h41v123h41v82h41v164h-41v41h82v41h163zM123 41v-41h-82v41h41v41h41v41h41v82h41v41h41v41h41v41h41v41h41v82h41v41h41v40h41v41h40v41h41v82h41v41h41v41
h41v41h41v82h41v41h41v41h41v41h41v41h41v82h41v41h41v41h41v41h41v41h41v82h41v41h82v-82h-41v-41h-41v-41h-41v-41h-41v-82h-41v-41h-41v-41h-41v-41h-41v-41h-41v-82h-41v-41h-41v-41h-41v-41h-41v-41h-41v-82h-41v-41h-41v-41h-41v-41h-41v-40h-40v-82h-41v-41h-41v-41
h-41v-41h-41v-41h-41v-82h-41v-41h-41v-41h-41v-41h-41zM1024 41v-41h-451v41h41v41h41v41h41v41h41v41h41v41h41v41h82v41h41v41h41v41h41v41h41v81h41v164h-41v41h-82v-41h-82v-164h-123v123h41v41h41v41h82v41h205v-41h82v-41h41v-164h-41v-40h-41v-41h-41v-41h-41v-41
h-82v-41h-41v-41h-41v-41h-41v-41h-82v-41h-41v-41h-41v-41h41v41h246v41h41v41h41v41h41v-82h-41v-41h-41v-82h-41z" />
    <glyph glyph-name="threequarters" unicode="&#xbe;" horiz-adv-x="1433" 
d="M532 696v-41h-245v41h-82v205h123v-82h-41v-82h41v-41h123v41h81v41h41v246h-122v82h41v41h40v41h82v41h41v41h41v41h41v41h-41v-41h-245v-41h-41v-41h-41v41h41v82h41v82h450v-41h-41v-41h-41v-41h-41v-41h-41v-41h-82v-41h-41v-41h-41v-41h82v-41h41v-41h41v-164h-41
v-82h-41v-41h-41v-41h-82zM287 41v-41h-82v41h41v41h41v41h41v82h41v41h41v41h41v41h41v41h40v82h41v41h41v40h41v41h41v82h41v41h41v41h41v41h41v41h41v82h41v41h41v41h41v41h41v41h41v82h41v41h41v41h41v41h41v41h41v82h41v41h82v-82h-41v-41h-41v-41h-41v-41h-41v-82h-41
v-41h-41v-41h-41v-41h-41v-41h-41v-82h-41v-41h-41v-41h-41v-41h-41v-41h-41v-82h-41v-41h-41v-41h-41v-41h-41v-40h-41v-82h-41v-41h-41v-41h-41v-41h-40v-41h-41v-82h-41v-41h-41v-41h-41v-41h-41zM1147 41v-41h-287v41h82v41h41v123h-328v41h41v41h41v41h41v41h82v41h41
v41h41v41h41v40h41v41h41v82h41v82h82v41h123v-41h-41v-82h-41v-41h-82v-41h-41v-41h-41v-40h-41v-41h-41v-41h-82v-41h-41v-41h205v82h41v41h41v41h82v40h41v-40h-41v-82h-41v-82h82v41h41v41h41v-41h-41v-82h-41v-41h-41v-41h-123v-164h41z" />
    <glyph glyph-name="questiondown" unicode="&#xbf;" horiz-adv-x="901" 
d="M860 1188h-246v41h41v82h41v123h246v-41h-41v-82h-41v-123zM614 1024h41v-41h41v-41h41v-82h-41v-82h-41v-41h-41v-41h-82v-41h-40v-41h-82v-41h-41v-41h-82v-40h-41v-41h-41v-82h-41v-205h41v-82h123v-41h82v41h122v41h41v41h41v41h-41v82h41v41h164v-123h-41v-82h-41
v-41h-82v-41h-82v-41h-368v41h-82v41h-41v41h-41v82h-41v82h41v123h41v82h41v40h41v41h41v41h82v41h82v41h41v41h82v41h81v41h41v41h41v82h41v41h-41v41z" />
    <glyph glyph-name="Agrave" unicode="&#xc0;" horiz-adv-x="1433" 
d="M901 451h82v41h-614v-41h-41v-41h-41v-82h-41v-41h-41v-41h-41v-164h82v-82h-410v41h41v41h82v41h41v41h41v41h41v82h41v41h41v41h41v41h41v82h41v40h41v41h41v82h41v41h41v41h41v82h40v41h41v41h41v41h41v82h41v41h41v41h41v82h41v41h41v41h41v82h41v41h41v41h41v82h41
v-451h41v-614h41v-328h41v-41h41v-41h41v-41h-492v82h123v41h41v205h-41v123zM451 573h450v492h-41v41h-41v-41h-41v-82h-41v-41h-41v-41h-41v-82h-41v-41h-41v-41h-41v-82h-40v-41h-41v-41zM1147 1638v-82h-41v41h-41v41h-82v41h-82v41h-82v41h-41v164h123v-41h41v-41h41
v-41h41v-41h41v-82h41v-41h41z" />
    <glyph glyph-name="Aacute" unicode="&#xc1;" horiz-adv-x="1433" 
d="M901 451h82v41h-614v-41h-41v-41h-41v-82h-41v-41h-41v-41h-41v-164h82v-82h-410v41h41v41h82v41h41v41h41v41h41v82h41v41h41v41h41v41h41v82h41v40h41v41h41v82h41v41h41v41h41v82h40v41h41v41h41v41h41v82h41v41h41v41h41v82h41v41h41v41h41v82h41v41h41v41h41v82h41
v-451h41v-614h41v-328h41v-41h41v-41h41v-41h-492v82h123v41h41v205h-41v123zM451 573h450v492h-41v41h-41v-41h-41v-82h-41v-41h-41v-41h-41v-82h-41v-41h-41v-41h-41v-82h-40v-41h-41v-41zM860 1556v41h41v41h41v41h41v41h41v41h41v41h41v82h82v41h123v-164h-82v-41h-82
v-41h-41v-41h-123v-41h-41v-41h-82z" />
    <glyph glyph-name="Acircumflex" unicode="&#xc2;" horiz-adv-x="1433" 
d="M901 451h82v41h-614v-41h-41v-41h-41v-82h-41v-41h-41v-41h-41v-164h82v-82h-410v41h41v41h82v41h41v41h41v41h41v82h41v41h41v41h41v41h41v82h41v40h41v41h41v82h41v41h41v41h41v82h40v41h41v41h41v41h41v82h41v41h41v41h41v82h41v41h41v41h41v82h41v41h41v41h41v82h41
v-451h41v-614h41v-328h41v-41h41v-41h41v-41h-492v82h123v41h41v205h-41v123zM451 573h450v492h-41v41h-41v-41h-41v-82h-41v-41h-41v-41h-41v-82h-41v-41h-41v-41h-41v-82h-40v-41h-41v-41zM819 1597v-41h-41v41h41v41h41v41h41v41h41v41h41v41h41v41h246v-123h41v-82h41
v-82h-41v41h-82v41h-82v41h-41v41h41v41h-41v-41h-82v-41h-82v-41h-82v-41h-41z" />
    <glyph glyph-name="Atilde" unicode="&#xc3;" horiz-adv-x="1433" 
d="M901 451h82v41h-614v-41h-41v-41h-41v-82h-41v-41h-41v-41h-41v-164h82v-82h-410v41h41v41h82v41h41v41h41v41h41v82h41v41h41v41h41v41h41v82h41v40h41v41h41v82h41v41h41v41h41v82h40v41h41v41h41v41h41v82h41v41h41v41h41v82h41v41h41v41h41v82h41v41h41v41h41v82h41
v-451h41v-614h41v-328h41v-41h41v-41h41v-41h-492v82h123v41h41v205h-41v123zM451 573h450v492h-41v41h-41v-41h-41v-82h-41v-41h-41v-41h-41v-82h-41v-41h-41v-41h-41v-82h-40v-41h-41v-41zM778 1638v-41h-41v41h41v82h41v41h41v82h82v41h82v-41h82v-41h82v-41h205v-82h-41
v-41h-41v-41h-205v41h-41v41h-82v41h-123v-41h-41v-41h-41zM1434 1761h-41v41h41v41h41v-41h-41v-41z" />
    <glyph glyph-name="Adieresis" unicode="&#xc4;" horiz-adv-x="1433" 
d="M901 451h82v41h-614v-41h-41v-41h-41v-82h-41v-41h-41v-41h-41v-164h82v-82h-410v41h41v41h82v41h41v41h41v41h41v82h41v41h41v41h41v41h41v82h41v40h41v41h41v82h41v41h41v41h41v82h40v41h41v41h41v41h41v82h41v41h41v41h41v82h41v41h41v41h41v82h41v41h41v41h41v82h41
v-451h41v-614h41v-328h41v-41h41v-41h41v-41h-492v82h123v41h41v205h-41v123zM451 573h450v492h-41v41h-41v-41h-41v-82h-41v-41h-41v-41h-41v-82h-41v-41h-41v-41h-41v-82h-40v-41h-41v-41zM778 1638v82h41v82h41v41h164v-123h-41v-82h-205zM1188 1638v82h41v82h41v41h164
v-123h-41v-82h-205z" />
    <glyph glyph-name="Aring" unicode="&#xc5;" horiz-adv-x="1433" 
d="M901 451h82v41h-614v-41h-41v-41h-41v-82h-41v-41h-41v-41h-41v-164h82v-82h-410v41h41v41h82v41h41v41h41v41h41v82h41v41h41v41h41v41h41v82h41v40h41v41h41v82h41v41h41v41h41v82h40v41h41v41h41v41h41v82h41v41h41v41h41v82h41v41h41v41h41v82h41v41h41v41h41v82h41
v-451h41v-614h41v-328h41v-41h41v-41h41v-41h-492v82h123v41h41v205h-41v123zM451 573h450v492h-41v41h-41v-41h-41v-82h-41v-41h-41v-41h-41v-82h-41v-41h-41v-41h-41v-82h-40v-41h-41v-41zM1188 1597v-41h-246v41h-41v41h-41v164h41v82h41v41h205v-41h82v-82h41v-123h-41
v-82h-41zM983 1597h82v41h82v82h41v41h-41v82h-164v-41h-41v-164h41v-41z" />
    <glyph glyph-name="AE" unicode="&#xc6;" horiz-adv-x="2211" 
d="M410 41v-41h-533v41h41v41h123v41h82v41h41v41h41v41h41v41h41v41h41v41h82v41h41v41h41v41h40v40h41v41h41v41h41v41h41v41h41v41h41v41h41v41h41v41h41v41h41v41h41v41h41v41h41v41h41v41h41v41h41v41h41v41h41v41h41v82h-41v41h-41v41h1188v-41h-41v-123h-41v-164h-41
v-123h-41v-41h-41v328h-41v41h-41v41h-492v-82h-41v-123h-41v-123h-40v-82h-41v-123h-41v-41h286v41h82v41h41v82h41v41h82v-41h-41v-123h-41v-123h-41v-123h-41v-81h-41v-41h-41v245h-327v-82h-41v-122h-41v-82h-41v-123h-41v-82h-41v-82h-82v-41h573v41h82v41h82v41h41v41
h41v82h41v41h41v41h41v82h82v-41h-41v-82h-41v-123h-41v-82h-41v-82h-41v-82h-1188v41h41v41h164v41h41v82h41v123h41v82h41v82h-533v-41h-41v-41h-40v-41h-41v-41h-41v-41h-41v-41h-41v-82h-41v-82h82v-41h41zM696 573h451v41h41v123h41v123h41v82h41v123h41v82h41v82h41
v41h41v41h-41v-41h-41v-41h-41v-41h-41v-41h-41v-41h-41v-41h-41v-41h-41v-41h-41v-41h-41v-41h-41v-41h-82v-41h-41v-41h-41v-41h-41v-41h-41v-41h-41v-41h-41v-41z" />
    <glyph glyph-name="Ccedilla" unicode="&#xc7;" horiz-adv-x="1351" 
d="M369 -369v41h41v-41h122v41h41v82h-41v41h-40v123h40v41h41v41h-81v41h-82v41h-41v41h-82v82h-41v41h-41v82h-41v164h-41v122h41v205h41v123h41v82h41v41h41v82h41v41h41v41h41v41h41v41h81v41h82v41h82v41h451v-41h82v-41h41v-41h41v-41h41v-82h41v82h-41v41h82v41h81
v-82h-40v-123h-41v-123h-41v-123h-82v164h-41v123h-41v41h-41v41h-41v41h-41v41h-287v-41h-82v-41h-82v-41h-41v-41h-41v-41h-41v-82h-41v-41h-40v-82h-41v-82h-41v-123h-41v-368h41v-82h41v-82h41v-41h40v-41h123v-41h246v41h123v41h41v41h82v41h41v41h41v-41h-41v-41h-41
v-41h-41v-41h-41v-41h-82v-41h-82v-41h-246v-41h-41v-41h-41v-41h41v41h41v-41h41v-82h41v-82h-41v-41h-41v-41h-41v-41h-204v41h-41z" />
    <glyph glyph-name="Egrave" unicode="&#xc8;" horiz-adv-x="1310" 
d="M287 123h-82v-41h573v41h82v41h82v41h41v41h41v41h41v82h41v41h41v82h82v-82h-41v-82h-41v-123h-41v-82h-41v-82h-41v-41h-1147v82h164v41h41v41h41v123h41v82h41v123h41v81h41v123h41v123h41v82h41v123h41v123h41v82h40v82h-40v41h-82v41h-41v41h1147v-82h-41v-164h-41
v-123h-41v-123h-82v328h-41v41h-41v41h-533v-41h41v-82h-41v-123h-41v-82h-41v-123h-41v-123h287v41h41v41h41v41h41v82h82v-82h-41v-123h-41v-123h-41v-82h-41v-122h-82v245h-327v-123h-41v-81h-41v-123h-41v-123h-41v-82h-41v-41zM1188 1638v-82h-41v41h-41v41h-82v41h-82
v41h-82v41h-41v164h123v-41h41v-41h41v-41h41v-41h41v-82h41v-41h41z" />
    <glyph glyph-name="Eacute" unicode="&#xc9;" horiz-adv-x="1310" 
d="M287 123h-82v-41h573v41h82v41h82v41h41v41h41v41h41v82h41v41h41v82h82v-82h-41v-82h-41v-123h-41v-82h-41v-82h-41v-41h-1147v82h164v41h41v41h41v123h41v82h41v123h41v81h41v123h41v123h41v82h41v123h41v123h41v82h40v82h-40v41h-82v41h-41v41h1147v-82h-41v-164h-41
v-123h-41v-123h-82v328h-41v41h-41v41h-533v-41h41v-82h-41v-123h-41v-82h-41v-123h-41v-123h287v41h41v41h41v41h41v82h82v-82h-41v-123h-41v-123h-41v-82h-41v-122h-82v245h-327v-123h-41v-81h-41v-123h-41v-123h-41v-82h-41v-41zM901 1556v41h41v41h41v41h41v41h41v41h41
v41h41v82h82v41h123v-164h-82v-41h-82v-41h-41v-41h-123v-41h-41v-41h-82z" />
    <glyph glyph-name="Ecircumflex" unicode="&#xca;" horiz-adv-x="1310" 
d="M287 123h-82v-41h573v41h82v41h82v41h41v41h41v41h41v82h41v41h41v82h82v-82h-41v-82h-41v-123h-41v-82h-41v-82h-41v-41h-1147v82h164v41h41v41h41v123h41v82h41v123h41v81h41v123h41v123h41v82h41v123h41v123h41v82h40v82h-40v41h-82v41h-41v41h1147v-82h-41v-164h-41
v-123h-41v-123h-82v328h-41v41h-41v41h-533v-41h41v-82h-41v-123h-41v-82h-41v-123h-41v-123h287v41h41v41h41v41h41v82h82v-82h-41v-123h-41v-123h-41v-82h-41v-122h-82v245h-327v-123h-41v-81h-41v-123h-41v-123h-41v-82h-41v-41zM860 1597v-41h-41v41h41v41h41v41h41v41
h41v41h41v41h41v41h246v-123h41v-82h41v-82h-41v41h-82v41h-82v41h-41v41h41v41h-41v-41h-82v-41h-82v-41h-82v-41h-41z" />
    <glyph glyph-name="Edieresis" unicode="&#xcb;" horiz-adv-x="1310" 
d="M287 123h-82v-41h573v41h82v41h82v41h41v41h41v41h41v82h41v41h41v82h82v-82h-41v-82h-41v-123h-41v-82h-41v-82h-41v-41h-1147v82h164v41h41v41h41v123h41v82h41v123h41v81h41v123h41v123h41v82h41v123h41v123h41v82h40v82h-40v41h-82v41h-41v41h1147v-82h-41v-164h-41
v-123h-41v-123h-82v328h-41v41h-41v41h-533v-41h41v-82h-41v-123h-41v-82h-41v-123h-41v-123h287v41h41v41h41v41h41v82h82v-82h-41v-123h-41v-123h-41v-82h-41v-122h-82v245h-327v-123h-41v-81h-41v-123h-41v-123h-41v-82h-41v-41zM819 1638v82h41v82h41v41h164v-123h-41
v-82h-205zM1229 1638v82h41v82h41v41h164v-123h-41v-82h-205z" />
    <glyph glyph-name="Igrave" unicode="&#xcc;" horiz-adv-x="655" 
d="M451 82v-82h-574v82h164v41h41v41h41v123h41v82h41v123h41v81h41v123h41v123h41v82h41v123h41v123h41v82h40v82h-40v41h-82v41h-41v41h614v-41h-41v-41h-164v-41h-41v-82h-41v-123h-41v-82h-41v-123h-41v-82h-41v-123h-40v-123h-41v-81h-41v-123h-41v-82h-41v-205h123z
M860 1638v-82h-41v41h-41v41h-82v41h-82v41h-82v41h-40v164h122v-41h41v-41h41v-41h41v-41h41v-82h41v-41h41z" />
    <glyph glyph-name="Iacute" unicode="&#xcd;" horiz-adv-x="655" 
d="M451 82v-82h-574v82h164v41h41v41h41v123h41v82h41v123h41v81h41v123h41v123h41v82h41v123h41v123h41v82h40v82h-40v41h-82v41h-41v41h614v-41h-41v-41h-164v-41h-41v-82h-41v-123h-41v-82h-41v-123h-41v-82h-41v-123h-40v-123h-41v-81h-41v-123h-41v-82h-41v-205h123z
M573 1556v41h41v41h41v41h41v41h41v41h41v41h41v82h82v41h123v-164h-82v-41h-82v-41h-41v-41h-123v-41h-41v-41h-82z" />
    <glyph glyph-name="Icircumflex" unicode="&#xce;" horiz-adv-x="655" 
d="M451 82v-82h-574v82h164v41h41v41h41v123h41v82h41v123h41v81h41v123h41v123h41v82h41v123h41v123h41v82h40v82h-40v41h-82v41h-41v41h614v-41h-41v-41h-164v-41h-41v-82h-41v-123h-41v-82h-41v-123h-41v-82h-41v-123h-40v-123h-41v-81h-41v-123h-41v-82h-41v-205h123z
M532 1597v-41h-40v41h40v41h41v41h41v41h41v41h41v41h41v41h246v-123h41v-82h41v-82h-41v41h-82v41h-82v41h-41v41h41v41h-41v-41h-82v-41h-82v-41h-82v-41h-41z" />
    <glyph glyph-name="Idieresis" unicode="&#xcf;" horiz-adv-x="655" 
d="M451 82v-82h-574v82h164v41h41v41h41v123h41v82h41v123h41v81h41v123h41v123h41v82h41v123h41v123h41v82h40v82h-40v41h-82v41h-41v41h614v-41h-41v-41h-164v-41h-41v-82h-41v-123h-41v-82h-41v-123h-41v-82h-41v-123h-40v-123h-41v-81h-41v-123h-41v-82h-41v-205h123z
M492 1638v82h40v82h41v41h164v-123h-41v-82h-204zM901 1638v82h41v82h41v41h164v-123h-41v-82h-205z" />
    <glyph glyph-name="Eth" unicode="&#xd0;" horiz-adv-x="1474" 
d="M737 41v-41h-860v82h164v41h41v41h41v123h41v82h41v123h41v122h41v41h82v41h-246v82h205v41h41v82h41v123h41v123h41v82h40v82h-40v41h-82v41h-41v41h655v-41h123v-41h82v-41h82v-41h41v-41h41v-82h41v-41h41v-164h41v-164h-41v-164h-41v-82h-41v-81h-41v-82h-41v-41h-41
v-41h-41v-41h-41v-41h-41v-41h-82v-41h-82v-41h-82v-41h-164zM205 82h491v41h123v41h82v41h41v41h41v41h82v82h41v41h41v41h41v81h41v123h41v369h-41v123h-41v41h-41v82h-82v41h-82v41h-287v-41h41v-82h-41v-123h-41v-82h-41v-123h-41v-82h-41v-41h205v-82h-245v-123h-41
v-81h-41v-123h-41v-123h-41v-82h-41v-41h-82v-41z" />
    <glyph glyph-name="Ntilde" unicode="&#xd1;" horiz-adv-x="1515" 
d="M1556 1188v-82h-40v-123h-41v-123h-41v-82h-41v-123h-41v-82h-41v-122h-41v-123h-41v-82h-41v-123h-41v-123h-41v41h-41v82h-41v82h-41v82h-41v82h-41v123h-41v40h-41v123h-41v82h-41v82h-41v82h-41v82h-41v82h-82v-123h-40v-82h-41v-123h-41v-123h-41v-82h-41v-122h-41
v-82h-41v-246h123v-82h-492v41h41v41h123v41h41v41h41v82h41v123h41v82h41v122h41v123h41v82h41v123h41v123h41v82h41v205h-41v41h-41v82h286v-123h41v-82h41v-82h41v-82h41v-82h41v-82h41v-82h41v-82h41v-82h41v-82h41v-122h41v-41h-41v-41h82v123h41v122h41v82h41v123h41
v123h41v82h41v123h41v205h-123v82h491v-41h-41v-41h-123v-41h-41v-41h-41v-82h-41zM860 1638v-41h-41v41h41v82h41v41h41v82h82v41h82v-41h82v-41h82v-41h205v-82h-41v-41h-41v-41h-205v41h-41v41h-82v41h-123v-41h-41v-41h-41zM1516 1761h-41v41h41v41h40v-41h-40v-41z" />
    <glyph glyph-name="Ograve" unicode="&#xd2;" horiz-adv-x="1515" 
d="M942 41v-41h-450v41h-82v41h-82v41h-41v41h-41v82h-41v82h-41v450h41v82h41v123h41v41h41v82h41v41h41v41h41v41h41v41h40v41h41v41h82v41h82v41h492v-41h82v-41h41v-41h41v-41h41v-41h41v-82h41v-164h40v-205h-40v-164h-41v-82h-41v-81h-41v-82h-41v-41h-41v-41h-41v-82
h-41v-41h-82v-41h-41v-41h-82v-41h-82zM532 82h328v41h82v41h41v41h41v41h41v41h41v41h41v82h41v82h41v81h41v123h41v451h-41v82h-41v41h-41v41h-41v41h-328v-41h-82v-41h-41v-41h-41v-41h-41v-41h-41v-82h-41v-41h-40v-123h-41v-82h-41v-164h-41v-327h41v-123h41v-41h41
v-41h40v-41zM1188 1638v-82h-41v41h-41v41h-82v41h-82v41h-82v41h-41v164h123v-41h41v-41h41v-41h41v-41h41v-82h41v-41h41z" />
    <glyph glyph-name="Oacute" unicode="&#xd3;" horiz-adv-x="1515" 
d="M942 41v-41h-450v41h-82v41h-82v41h-41v41h-41v82h-41v82h-41v450h41v82h41v123h41v41h41v82h41v41h41v41h41v41h41v41h40v41h41v41h82v41h82v41h492v-41h82v-41h41v-41h41v-41h41v-41h41v-82h41v-164h40v-205h-40v-164h-41v-82h-41v-81h-41v-82h-41v-41h-41v-41h-41v-82
h-41v-41h-82v-41h-41v-41h-82v-41h-82zM532 82h328v41h82v41h41v41h41v41h41v41h41v41h41v82h41v82h41v81h41v123h41v451h-41v82h-41v41h-41v41h-41v41h-328v-41h-82v-41h-41v-41h-41v-41h-41v-41h-41v-82h-41v-41h-40v-123h-41v-82h-41v-164h-41v-327h41v-123h41v-41h41
v-41h40v-41zM901 1556v41h41v41h41v41h41v41h41v41h41v41h41v82h82v41h123v-164h-82v-41h-82v-41h-41v-41h-123v-41h-41v-41h-82z" />
    <glyph glyph-name="Ocircumflex" unicode="&#xd4;" horiz-adv-x="1515" 
d="M942 41v-41h-450v41h-82v41h-82v41h-41v41h-41v82h-41v82h-41v450h41v82h41v123h41v41h41v82h41v41h41v41h41v41h41v41h40v41h41v41h82v41h82v41h492v-41h82v-41h41v-41h41v-41h41v-41h41v-82h41v-164h40v-205h-40v-164h-41v-82h-41v-81h-41v-82h-41v-41h-41v-41h-41v-82
h-41v-41h-82v-41h-41v-41h-82v-41h-82zM532 82h328v41h82v41h41v41h41v41h41v41h41v41h41v82h41v82h41v81h41v123h41v451h-41v82h-41v41h-41v41h-41v41h-328v-41h-82v-41h-41v-41h-41v-41h-41v-41h-41v-82h-41v-41h-40v-123h-41v-82h-41v-164h-41v-327h41v-123h41v-41h41
v-41h40v-41zM860 1597v-41h-41v41h41v41h41v41h41v41h41v41h41v41h41v41h246v-123h41v-82h41v-82h-41v41h-82v41h-82v41h-41v41h41v41h-41v-41h-82v-41h-82v-41h-82v-41h-41z" />
    <glyph glyph-name="Otilde" unicode="&#xd5;" horiz-adv-x="1515" 
d="M942 41v-41h-450v41h-82v41h-82v41h-41v41h-41v82h-41v82h-41v450h41v82h41v123h41v41h41v82h41v41h41v41h41v41h41v41h40v41h41v41h82v41h82v41h492v-41h82v-41h41v-41h41v-41h41v-41h41v-82h41v-164h40v-205h-40v-164h-41v-82h-41v-81h-41v-82h-41v-41h-41v-41h-41v-82
h-41v-41h-82v-41h-41v-41h-82v-41h-82zM532 82h328v41h82v41h41v41h41v41h41v41h41v41h41v82h41v82h41v81h41v123h41v451h-41v82h-41v41h-41v41h-41v41h-328v-41h-82v-41h-41v-41h-41v-41h-41v-41h-41v-82h-41v-41h-40v-123h-41v-82h-41v-164h-41v-327h41v-123h41v-41h41
v-41h40v-41zM819 1638v-41h-41v41h41v82h41v41h41v82h82v41h82v-41h82v-41h82v-41h205v-82h-41v-41h-41v-41h-205v41h-41v41h-82v41h-123v-41h-41v-41h-41zM1475 1761h-41v41h41v41h41v-41h-41v-41z" />
    <glyph glyph-name="Odieresis" unicode="&#xd6;" horiz-adv-x="1515" 
d="M942 41v-41h-450v41h-82v41h-82v41h-41v41h-41v82h-41v82h-41v450h41v82h41v123h41v41h41v82h41v41h41v41h41v41h41v41h40v41h41v41h82v41h82v41h492v-41h82v-41h41v-41h41v-41h41v-41h41v-82h41v-164h40v-205h-40v-164h-41v-82h-41v-81h-41v-82h-41v-41h-41v-41h-41v-82
h-41v-41h-82v-41h-41v-41h-82v-41h-82zM532 82h328v41h82v41h41v41h41v41h41v41h41v41h41v82h41v82h41v81h41v123h41v451h-41v82h-41v41h-41v41h-41v41h-328v-41h-82v-41h-41v-41h-41v-41h-41v-41h-41v-82h-41v-41h-40v-123h-41v-82h-41v-164h-41v-327h41v-123h41v-41h41
v-41h40v-41zM819 1638v82h41v82h41v41h164v-123h-41v-82h-205zM1229 1638v82h41v82h41v41h164v-123h-41v-82h-205z" />
    <glyph glyph-name="multiply" unicode="&#xd7;" horiz-adv-x="1064" 
d="M205 328v-41h-82v82h41v41h82v41h41v41h41v40h82v41h41v41h81v82h-40v82h-41v41h-41v82h-41v41h-41v41h41v41h41v-41h41v-41h41v-82h40v-41h41v-82h123v41h41v41h41v41h82v41h41v41h82v41h41v41h41v-82h-41v-41h-41v-41h-41v-41h-82v-41h-41v-41h-41v-41h-82v-41h-41v-41
h41v-82h41v-81h41v-41h41v-82h41v-41h-123v82h-41v82h-41v41h-41v81h-82v-41h-40v-40h-82v-41h-41v-41h-41v-41h-82v-41h-41z" />
    <glyph glyph-name="Oslash" unicode="&#xd8;" horiz-adv-x="1515" 
d="M82 41v-41h-123v41h41v41h41v41h82v41h41v41h41v41h41v41h-41v41h-41v450h41v82h41v123h41v41h41v82h41v41h41v41h41v41h41v41h40v41h41v41h82v41h82v41h492v-41h82v-41h41v-41h41v-41h41v41h82v41h40v41h41v41h123v-41h-41v-41h-41v-41h-41v-41h-41v-41h-81v-41h-41v-41
h-41v-41h82v41h41v-164h40v-205h-40v-164h-41v-82h-41v-81h-41v-82h-41v-41h-41v-41h-41v-82h-41v-41h-82v-41h-41v-41h-82v-41h-82v-41h-450v41h-82v41h-82v41h-41v41h-41v-41h-41v-41h-82v-41h-41zM369 369h41v41h41v41h41v41h40v40h41v41h82v41h41v41h41v41h41v41h41v41
h41v41h41v41h82v41h41v41h41v41h41v41h41v41h41v41h82v123h-41v41h-41v41h-41v41h-328v-41h-82v-41h-41v-41h-41v-41h-41v-41h-41v-82h-41v-41h-40v-123h-41v-82h-41v-164h-41v-286zM573 82h287v41h41v41h82v41h41v41h41v41h41v82h41v41h41v82h41v122h41v123h41v328h-41v-41
h-41v-41h-41v-41h-41v-41h-41v-41h-82v-41h-41v-41h-41v-41h-41v-41h-41v-41h-41v-41h-41v-41h-82v-41h-41v-40h-41v-41h-41v-41h-41v-41h-40v-41h-82v-123h41v-41h41v-41h81v-41zM287 328h-41v-41h41v41z" />
    <glyph glyph-name="Ugrave" unicode="&#xd9;" horiz-adv-x="1556" 
d="M778 0v-41h-123v41h-204v41h-41v41h-82v41h-41v82h-41v368h41v123h41v82h41v123h41v123h41v123h41v205h-82v41h-41v41h614v-41h-41v-41h-164v-41h-41v-82h-41v-82h-41v-123h-41v-123h-41v-123h-41v-123h-40v-123h-41v-245h41v-82h40v-41h41v-41h123v-41h123v41h123v41h82
v41h41v41h41v41h41v41h41v82h41v122h41v123h41v82h41v123h41v123h41v123h41v246h-82v41h-41v41h532v-41h-41v-41h-164v-41h-41v-41h-41v-82h-41v-123h-40v-123h-41v-123h-41v-123h-41v-123h-41v-122h-41v-82h-41v-82h-41v-41h-41v-82h-41v-41h-41v-41h-82v-41h-82v-41h-164z
M1311 1638v-82h-41v41h-41v41h-82v41h-82v41h-82v41h-41v164h123v-41h41v-41h41v-41h41v-41h41v-82h41v-41h41z" />
    <glyph glyph-name="Uacute" unicode="&#xda;" horiz-adv-x="1556" 
d="M778 0v-41h-123v41h-204v41h-41v41h-82v41h-41v82h-41v368h41v123h41v82h41v123h41v123h41v123h41v205h-82v41h-41v41h614v-41h-41v-41h-164v-41h-41v-82h-41v-82h-41v-123h-41v-123h-41v-123h-41v-123h-40v-123h-41v-245h41v-82h40v-41h41v-41h123v-41h123v41h123v41h82
v41h41v41h41v41h41v41h41v82h41v122h41v123h41v82h41v123h41v123h41v123h41v246h-82v41h-41v41h532v-41h-41v-41h-164v-41h-41v-41h-41v-82h-41v-123h-40v-123h-41v-123h-41v-123h-41v-123h-41v-122h-41v-82h-41v-82h-41v-41h-41v-82h-41v-41h-41v-41h-82v-41h-82v-41h-164z
M1024 1556v41h41v41h41v41h41v41h41v41h41v41h41v82h82v41h123v-164h-82v-41h-82v-41h-41v-41h-123v-41h-41v-41h-82z" />
    <glyph glyph-name="Ucircumflex" unicode="&#xdb;" horiz-adv-x="1556" 
d="M778 0v-41h-123v41h-204v41h-41v41h-82v41h-41v82h-41v368h41v123h41v82h41v123h41v123h41v123h41v205h-82v41h-41v41h614v-41h-41v-41h-164v-41h-41v-82h-41v-82h-41v-123h-41v-123h-41v-123h-41v-123h-40v-123h-41v-245h41v-82h40v-41h41v-41h123v-41h123v41h123v41h82
v41h41v41h41v41h41v41h41v82h41v122h41v123h41v82h41v123h41v123h41v123h41v246h-82v41h-41v41h532v-41h-41v-41h-164v-41h-41v-41h-41v-82h-41v-123h-40v-123h-41v-123h-41v-123h-41v-123h-41v-122h-41v-82h-41v-82h-41v-41h-41v-82h-41v-41h-41v-41h-82v-41h-82v-41h-164z
M983 1597v-41h-41v41h41v41h41v41h41v41h41v41h41v41h41v41h246v-123h41v-82h41v-82h-41v41h-82v41h-82v41h-41v41h41v41h-41v-41h-82v-41h-82v-41h-82v-41h-41z" />
    <glyph glyph-name="Udieresis" unicode="&#xdc;" horiz-adv-x="1556" 
d="M778 0v-41h-123v41h-204v41h-41v41h-82v41h-41v82h-41v368h41v123h41v82h41v123h41v123h41v123h41v205h-82v41h-41v41h614v-41h-41v-41h-164v-41h-41v-82h-41v-82h-41v-123h-41v-123h-41v-123h-41v-123h-40v-123h-41v-245h41v-82h40v-41h41v-41h123v-41h123v41h123v41h82
v41h41v41h41v41h41v41h41v82h41v122h41v123h41v82h41v123h41v123h41v123h41v246h-82v41h-41v41h532v-41h-41v-41h-164v-41h-41v-41h-41v-82h-41v-123h-40v-123h-41v-123h-41v-123h-41v-123h-41v-122h-41v-82h-41v-82h-41v-41h-41v-82h-41v-41h-41v-41h-82v-41h-82v-41h-164z
M942 1638v82h41v82h41v41h164v-123h-41v-82h-205zM1352 1638v82h41v82h41v41h163v-123h-41v-82h-204z" />
    <glyph glyph-name="Yacute" unicode="&#xdd;" horiz-adv-x="1433" 
d="M778 655h41v41h41v41h41v41h41v41h41v41h82v41h41v41h41v41h41v41h41v41h41v41h41v41h41v41h41v82h41v82h-123v82h450v-41h-41v-41h-82v-41h-41v-41h-41v-41h-40v-41h-41v-41h-82v-41h-41v-41h-41v-41h-41v-41h-41v-41h-41v-41h-41v-41h-41v-41h-41v-41h-41v-41h-41v-41
h-41v-41h-41v-82h-41v-81h-41v-123h-41v-82h-41v-205h123v-82h-573v82h164v41h41v41h40v82h41v123h41v123h41v245h-41v164h-41v123h-41v164h-40v123h-41v41h-41v41h-41v41h532v-41h-41v-41h-123v-287h41v-164h41v-205h-41v-41zM942 1556v41h41v41h41v41h41v41h41v41h41v41
h41v82h82v41h123v-164h-82v-41h-82v-41h-41v-41h-123v-41h-41v-41h-82z" />
    <glyph glyph-name="Thorn" unicode="&#xde;" horiz-adv-x="1269" 
d="M492 41v-41h-615v82h164v41h41v41h41v82h41v123h41v82h41v122h41v123h41v82h41v123h41v82h41v123h41v123h40v123h-122v41h-41v41h614v-41h-41v-41h-123v-41h-41v-41h-41v-41h-41v-82h287v-41h123v-41h82v-41h41v-41h41v-123h41v-41h-41v-164h-41v-82h-41v-41h-41v-40h-41
v-41h-82v-41h-123v-41h-573v-41h41v-82h-41v-164h123v-41h41zM451 451h409v41h41v40h41v41h41v41h41v82h41v246h-41v41h-41v41h-41v41h-369v-41h82v-41h-41v-82h-41v-123h-41v-123h-40v-82h-41v-122z" />
    <glyph glyph-name="germandbls" unicode="&#xdf;" horiz-adv-x="1187" 
d="M410 901h-205v82h164v41h41v82h41v82h41v82h40v41h41v41h41v41h82v41h123v41h164v-41h123v-41h82v-41h41v-123h41v-41h-41v-82h-41v-82h-82v-41h-41v-41h-82v-41h-41v-41h-82v-41h-41v-41h-41v-41h41v-82h41v-41h41v-82h41v-40h41v-82h41v-82h41v-123h-41v-82h-41v-41
h-41v-41h-41v-41h-369v41h-81v41h-41v205h41v41h81v-41h41v-82h-41v-82h41v-41h41v-41h123v41h82v41h41v41h41v82h-41v82h-41v41h-41v82h-41v41h-41v81h-41v205h41v82h41v41h82v41h41v41h82v41h41v41h41v41h41v246h-82v41h-164v-41h-82v-41h-41v-82h-41v-82h-41v-82h-41
v-123h-41v-82h-40v-123h-41v-123h-41v-82h-41v-122h-41v-82h-41v-123h-41v-123h-41v-82h-41v-123h-41v-82h-41v-82h-41v-41h-41v-41h-41v-41h-41v-41h-123v-41h-82v41h-123v41h-41v164h82v41h41v-41h41v-82h-41v-82h123v41h82v82h41v82h41v123h41v123h41v82h41v123h41v123
h41v82h41v122h41v82h41v123h41v82h82v41z" />
    <glyph glyph-name="agrave" unicode="&#xe0;" 
d="M410 41v-41h-246v41h-41v41h-41v41h-41v328h41v81h41v82h41v82h41v41h41v41h41v41h41v41h41v41h82v41h122v41h205v-41h123v-41h41v41h123v-82h-41v-82h-41v-123h-41v-82h-41v-122h-41v-82h-41v-123h-41v-123h123v41h41v41h41v41h41v-41h-41v-82h-41v-41h-82v-41h-41v-41
h-205v41h-41v82h41v82h41v41h-41v-41h-41v-41h-41v-41h-40v-41h-41v-41h-41zM287 123h164v41h41v41h40v41h41v41h41v41h41v82h41v82h41v122h41v82h41v164h-41v41h-205v-41h-81v-41h-41v-41h-41v-41h-41v-82h-41v-41h-41v-122h-41v-328h41v-41zM696 328h-41v-41h41v41z
M860 1188v-82h-41v41h-41v41h-82v41h-82v41h-82v41h-40v164h122v-41h41v-41h41v-41h41v-41h41v-82h41v-41h41z" />
    <glyph glyph-name="aacute" unicode="&#xe1;" 
d="M410 41v-41h-246v41h-41v41h-41v41h-41v328h41v81h41v82h41v82h41v41h41v41h41v41h41v41h41v41h82v41h122v41h205v-41h123v-41h41v41h123v-82h-41v-82h-41v-123h-41v-82h-41v-122h-41v-82h-41v-123h-41v-123h123v41h41v41h41v41h41v-41h-41v-82h-41v-41h-82v-41h-41v-41
h-205v41h-41v82h41v82h41v41h-41v-41h-41v-41h-41v-41h-40v-41h-41v-41h-41zM287 123h164v41h41v41h40v41h41v41h41v41h41v82h41v82h41v122h41v82h41v164h-41v41h-205v-41h-81v-41h-41v-41h-41v-41h-41v-82h-41v-41h-41v-122h-41v-328h41v-41zM696 328h-41v-41h41v41z
M573 1106v41h41v41h41v41h41v41h41v41h41v41h41v82h82v41h123v-164h-82v-41h-82v-41h-41v-41h-123v-41h-41v-41h-82z" />
    <glyph glyph-name="acircumflex" unicode="&#xe2;" 
d="M410 41v-41h-246v41h-41v41h-41v41h-41v328h41v81h41v82h41v82h41v41h41v41h41v41h41v41h41v41h82v41h122v41h205v-41h123v-41h41v41h123v-82h-41v-82h-41v-123h-41v-82h-41v-122h-41v-82h-41v-123h-41v-123h123v41h41v41h41v41h41v-41h-41v-82h-41v-41h-82v-41h-41v-41
h-205v41h-41v82h41v82h41v41h-41v-41h-41v-41h-41v-41h-40v-41h-41v-41h-41zM287 123h164v41h41v41h40v41h41v41h41v41h41v82h41v82h41v122h41v82h41v164h-41v41h-205v-41h-81v-41h-41v-41h-41v-41h-41v-82h-41v-41h-41v-122h-41v-328h41v-41zM696 328h-41v-41h41v41z
M532 1147v-41h-40v41h40v41h41v41h41v41h41v41h41v41h41v41h246v-123h41v-82h41v-82h-41v41h-82v41h-82v41h-41v41h41v41h-41v-41h-82v-41h-82v-41h-82v-41h-41z" />
    <glyph glyph-name="atilde" unicode="&#xe3;" 
d="M410 41v-41h-246v41h-41v41h-41v41h-41v328h41v81h41v82h41v82h41v41h41v41h41v41h41v41h41v41h82v41h122v41h205v-41h123v-41h41v41h123v-82h-41v-82h-41v-123h-41v-82h-41v-122h-41v-82h-41v-123h-41v-123h123v41h41v41h41v41h41v-41h-41v-82h-41v-41h-82v-41h-41v-41
h-205v41h-41v82h41v82h41v41h-41v-41h-41v-41h-41v-41h-40v-41h-41v-41h-41zM287 123h164v41h41v41h40v41h41v41h41v41h41v82h41v82h41v122h41v82h41v164h-41v41h-205v-41h-81v-41h-41v-41h-41v-41h-41v-82h-41v-41h-41v-122h-41v-328h41v-41zM696 328h-41v-41h41v41z
M492 1188v-41h-41v41h41v82h40v41h41v82h82v41h82v-41h82v-41h82v-41h205v-82h-41v-41h-41v-41h-205v41h-41v41h-82v41h-123v-41h-41v-41h-40zM1147 1311h-41v41h41v41h41v-41h-41v-41z" />
    <glyph glyph-name="adieresis" unicode="&#xe4;" 
d="M410 41v-41h-246v41h-41v41h-41v41h-41v328h41v81h41v82h41v82h41v41h41v41h41v41h41v41h41v41h82v41h122v41h205v-41h123v-41h41v41h123v-82h-41v-82h-41v-123h-41v-82h-41v-122h-41v-82h-41v-123h-41v-123h123v41h41v41h41v41h41v-41h-41v-82h-41v-41h-82v-41h-41v-41
h-205v41h-41v82h41v82h41v41h-41v-41h-41v-41h-41v-41h-40v-41h-41v-41h-41zM287 123h164v41h41v41h40v41h41v41h41v41h41v82h41v82h41v122h41v82h41v164h-41v41h-205v-41h-81v-41h-41v-41h-41v-41h-41v-82h-41v-41h-41v-122h-41v-328h41v-41zM696 328h-41v-41h41v41z
M492 1188v82h40v82h41v41h164v-123h-41v-82h-204zM901 1188v82h41v82h41v41h164v-123h-41v-82h-205z" />
    <glyph glyph-name="aring" unicode="&#xe5;" 
d="M410 41v-41h-246v41h-41v41h-41v41h-41v328h41v81h41v82h41v82h41v41h41v41h41v41h41v41h41v41h82v41h122v41h205v-41h123v-41h41v41h123v-82h-41v-82h-41v-123h-41v-82h-41v-122h-41v-82h-41v-123h-41v-123h123v41h41v41h41v41h41v-41h-41v-82h-41v-41h-82v-41h-41v-41
h-205v41h-41v82h41v82h41v41h-41v-41h-41v-41h-41v-41h-40v-41h-41v-41h-41zM287 123h164v41h41v41h40v41h41v41h41v41h41v82h41v82h41v122h41v82h41v164h-41v41h-205v-41h-81v-41h-41v-41h-41v-41h-41v-82h-41v-41h-41v-122h-41v-328h41v-41zM696 328h-41v-41h41v41z
M901 1147v-41h-246v41h-41v41h-41v164h41v82h41v41h205v-41h82v-82h41v-123h-41v-82h-41zM696 1147h82v41h82v82h41v41h-41v82h-164v-41h-41v-164h41v-41z" />
    <glyph glyph-name="ae" unicode="&#xe6;" horiz-adv-x="1515" 
d="M410 41v-41h-246v41h-41v41h-41v82h-41v246h41v122h41v82h41v82h41v41h41v41h41v41h41v41h41v41h82v41h122v41h246v-41h123v-41h123v41h82v41h287v-41h41v-41h41v-41h40v-82h-40v-82h-41v-41h-41v-41h-41v-41h-82v-41h-164v-40h-287v-41h41v-164h41v-82h41v-41h41v-41
h246v41h82v41h41v-41h-41v-41h-41v-41h-41v-41h-41v-41h-328v41h-82v41h-41v82h-41v164h-41v-41h-41v-82h-41v-41h-41v-41h-41v-41h-40v-41h-82zM942 532h41v41h205v41h82v41h41v41h41v82h41v41h-41v82h-205v-41h-41v-41h-41v-41h-41v-82h-41v-82h-41v-82zM287 123h164v41
h41v41h40v41h41v41h41v41h41v41h41v82h41v122h41v82h41v123h41v41h-41v41h-41v41h-205v-41h-41v-41h-81v-41h-41v-41h-41v-82h-41v-82h-41v-81h-41v-328h41v-41z" />
    <glyph glyph-name="ccedilla" unicode="&#xe7;" horiz-adv-x="860" 
d="M82 -369v41h41v-41h123v41h41v82h-41v41h-41v123h41v41h41v41h-41v41h-82v41h-41v82h-41v368h41v82h41v82h41v82h41v41h41v41h41v41h82v41h82v41h245v-41h82v-41h41v-41h41v-164h-41v-41h-41v-41h-41v41h-82v123h41v82h-41v41h-164v-41h-81v-41h-41v-82h-41v-41h-41v-82
h-41v-163h-41v-123h41v-123h41v-41h41v-41h245v41h82v41h41v41h41v-41h-41v-41h-41v-41h-41v-41h-41v-41h-41v-41h-204v-41h-41v-41h-41v-41h41v41h41v-41h41v-82h41v-82h-41v-41h-41v-41h-41v-41h-205v41h-41z" />
    <glyph glyph-name="egrave" unicode="&#xe8;" horiz-adv-x="860" 
d="M778 246v-41h-41v-41h-41v-41h-41v-41h-41v-41h-41v-41h-327v41h-82v41h-41v82h-41v123h-41v82h41v204h41v82h41v82h41v41h41v41h41v41h41v41h82v41h82v41h245v-41h82v-41h41v-41h41v-123h-41v-41h-41v-41h-41v-41h-41v-41h-82v-41h-163v-40h-287v-41h41v-123h41v-123h41
v-41h41v-41h245v41h82v41h41v41h41zM287 532h41v41h204v41h82v41h41v41h41v41h41v123h-41v41h-204v-41h-41v-41h-41v-41h-41v-82h-41v-82h-41v-82zM778 1188v-82h-41v41h-41v41h-82v41h-82v41h-81v41h-41v164h122v-41h41v-41h41v-41h41v-41h41v-82h41v-41h41z" />
    <glyph glyph-name="eacute" unicode="&#xe9;" horiz-adv-x="860" 
d="M778 246v-41h-41v-41h-41v-41h-41v-41h-41v-41h-41v-41h-327v41h-82v41h-41v82h-41v123h-41v82h41v204h41v82h41v82h41v41h41v41h41v41h41v41h82v41h82v41h245v-41h82v-41h41v-41h41v-123h-41v-41h-41v-41h-41v-41h-41v-41h-82v-41h-163v-40h-287v-41h41v-123h41v-123h41
v-41h41v-41h245v41h82v41h41v41h41zM287 532h41v41h204v41h82v41h41v41h41v41h41v123h-41v41h-204v-41h-41v-41h-41v-41h-41v-82h-41v-82h-41v-82zM492 1106v41h40v41h41v41h41v41h41v41h41v41h41v82h82v41h123v-164h-82v-41h-82v-41h-41v-41h-123v-41h-41v-41h-81z" />
    <glyph glyph-name="ecircumflex" unicode="&#xea;" horiz-adv-x="860" 
d="M778 246v-41h-41v-41h-41v-41h-41v-41h-41v-41h-41v-41h-327v41h-82v41h-41v82h-41v123h-41v82h41v204h41v82h41v82h41v41h41v41h41v41h41v41h82v41h82v41h245v-41h82v-41h41v-41h41v-123h-41v-41h-41v-41h-41v-41h-41v-41h-82v-41h-163v-40h-287v-41h41v-123h41v-123h41
v-41h41v-41h245v41h82v41h41v41h41zM287 532h41v41h204v41h82v41h41v41h41v41h41v123h-41v41h-204v-41h-41v-41h-41v-41h-41v-82h-41v-82h-41v-82zM451 1147v-41h-41v41h41v41h41v41h40v41h41v41h41v41h41v41h246v-123h41v-82h41v-82h-41v41h-82v41h-82v41h-41v41h41v41h-41
v-41h-82v-41h-82v-41h-81v-41h-41z" />
    <glyph glyph-name="edieresis" unicode="&#xeb;" horiz-adv-x="860" 
d="M778 246v-41h-41v-41h-41v-41h-41v-41h-41v-41h-41v-41h-327v41h-82v41h-41v82h-41v123h-41v82h41v204h41v82h41v82h41v41h41v41h41v41h41v41h82v41h82v41h245v-41h82v-41h41v-41h41v-123h-41v-41h-41v-41h-41v-41h-41v-41h-82v-41h-163v-40h-287v-41h41v-123h41v-123h41
v-41h41v-41h245v41h82v41h41v41h41zM287 532h41v41h204v41h82v41h41v41h41v41h41v123h-41v41h-204v-41h-41v-41h-41v-41h-41v-82h-41v-82h-41v-82zM410 1188v82h41v82h41v41h163v-123h-41v-82h-204zM819 1188v82h41v82h41v41h164v-123h-41v-82h-205z" />
    <glyph glyph-name="igrave" unicode="&#xec;" horiz-adv-x="573" 
d="M287 41v-41h-205v41h-41v164h41v82h41v123h41v82h41v122h41v82h41v164h-41v41h-41v41h205v41h122v-123h-40v-82h-41v-82h-41v-123h-41v-122h-41v-82h-41v-123h-41v-123h123v-41h-41v-41h-41zM410 123h-41v41h41v41h41v41h41v-41h-41v-41h-41v-41zM614 1188v-82h-41v41
h-41v41h-81v41h-82v41h-82v41h-41v164h123v-41h41v-41h41v-41h41v-41h40v-82h41v-41h41z" />
    <glyph glyph-name="iacute" unicode="&#xed;" horiz-adv-x="573" 
d="M287 41v-41h-205v41h-41v164h41v82h41v123h41v82h41v122h41v82h41v164h-41v41h-41v41h205v41h122v-123h-40v-82h-41v-82h-41v-123h-41v-122h-41v-82h-41v-123h-41v-123h123v-41h-41v-41h-41zM410 123h-41v41h41v41h41v41h41v-41h-41v-41h-41v-41zM328 1106v41h41v41h41
v41h41v41h41v41h40v41h41v82h82v41h123v-164h-82v-41h-82v-41h-41v-41h-122v-41h-41v-41h-82z" />
    <glyph glyph-name="icircumflex" unicode="&#xee;" horiz-adv-x="573" 
d="M287 41v-41h-205v41h-41v164h41v82h41v123h41v82h41v122h41v82h41v164h-41v41h-41v41h205v41h122v-123h-40v-82h-41v-82h-41v-123h-41v-122h-41v-82h-41v-123h-41v-123h123v-41h-41v-41h-41zM410 123h-41v41h41v41h41v41h41v-41h-41v-41h-41v-41zM287 1147v-41h-41v41h41
v41h41v41h41v41h41v41h41v41h41v41h245v-123h41v-82h41v-82h-41v41h-82v41h-82v41h-41v41h41v41h-41v-41h-81v-41h-82v-41h-82v-41h-41z" />
    <glyph glyph-name="idieresis" unicode="&#xef;" horiz-adv-x="573" 
d="M287 41v-41h-205v41h-41v164h41v82h41v123h41v82h41v122h41v82h41v164h-41v41h-41v41h205v41h122v-123h-40v-82h-41v-82h-41v-123h-41v-122h-41v-82h-41v-123h-41v-123h123v-41h-41v-41h-41zM410 123h-41v41h41v41h41v41h41v-41h-41v-41h-41v-41zM246 1188v82h41v82h41
v41h164v-123h-41v-82h-205zM655 1188v82h41v82h41v41h164v-123h-41v-82h-205z" />
    <glyph glyph-name="eth" unicode="&#xf0;" horiz-adv-x="1064" 
d="M737 1147v-41h-286v41h81v41h205v41h41v41h-41v82h-41v41h-41v41h-41v41h41v-41h41v-41h82v-41h41v-41h41v-82h82v41h205v41h82v-82h-82v-41h-205v-41h-205zM614 41v-41h-368v41h-82v41h-41v82h-41v82h-41v164h41v163h41v82h41v82h41v41h41v41h41v41h41v41h82v41h82v41
h245v-41h82v164h164v-123h41v-410h-41v-122h-41v-123h-41v-41h-41v-82h-41v-41h-41v-41h-41v-41h-82v-41h-41zM287 82h245v41h41v41h41v41h41v41h41v82h41v82h41v122h41v287h-41v41h-41v41h-164v-41h-81v-41h-41v-41h-41v-41h-41v-41h-41v-82h-41v-122h-41v-328h41v-82z" />
    <glyph glyph-name="ntilde" unicode="&#xf1;" horiz-adv-x="1146" 
d="M819 246v-123h123v41h41v41h41v41h41v-41h-41v-41h-41v-82h-82v-41h-41v-41h-205v41h-41v123h41v123h41v82h41v123h41v81h41v123h41v164h-164v-41h-41v-41h-41v-41h-41v-41h-41v-41h-40v-41h-41v-41h-41v41h-41v-41h41v-81h-41v-82h-41v-123h-41v-82h-41v-123h-41v-82
h-205v41h41v82h41v123h41v82h41v123h41v81h41v123h41v82h41v123h-41v41h-82v41h205v41h163v-41h-41v-123h-40v-82h-41v-41h-41v-41h41v41h41v41h40v41h41v41h41v41h41v41h41v41h82v41h205v-41h41v-41h41v-164h-41v-82h-41v-123h-41v-81h-41v-123h-41v-82h-41zM614 1188v-41
h-41v41h41v82h41v41h41v82h82v41h82v-41h82v-41h82v-41h205v-82h-41v-41h-41v-41h-205v41h-41v41h-82v41h-123v-41h-41v-41h-41zM1270 1311h-41v41h41v41h41v-41h-41v-41z" />
    <glyph glyph-name="ograve" unicode="&#xf2;" horiz-adv-x="1024" 
d="M573 41v-41h-327v41h-82v41h-41v41h-41v123h-41v164h41v163h41v82h41v82h41v41h41v41h41v41h41v41h82v41h82v41h245v-41h82v-41h41v-41h41v-41h41v-164h41v-82h-41v-163h-41v-123h-41v-41h-41v-41h-41v-82h-82v-41h-41v-41h-82zM287 82h245v41h41v41h41v41h41v82h41v82
h41v163h41v246h-41v82h-41v41h-164v-41h-40v-41h-82v-82h-41v-41h-41v-123h-41v-122h-41v-287h41v-82zM778 1188v-82h-41v41h-41v41h-82v41h-82v41h-81v41h-41v164h122v-41h41v-41h41v-41h41v-41h41v-82h41v-41h41z" />
    <glyph glyph-name="oacute" unicode="&#xf3;" horiz-adv-x="1024" 
d="M573 41v-41h-327v41h-82v41h-41v41h-41v123h-41v164h41v163h41v82h41v82h41v41h41v41h41v41h41v41h82v41h82v41h245v-41h82v-41h41v-41h41v-41h41v-164h41v-82h-41v-163h-41v-123h-41v-41h-41v-41h-41v-82h-82v-41h-41v-41h-82zM287 82h245v41h41v41h41v41h41v82h41v82
h41v163h41v246h-41v82h-41v41h-164v-41h-40v-41h-82v-82h-41v-41h-41v-123h-41v-122h-41v-287h41v-82zM492 1106v41h40v41h41v41h41v41h41v41h41v41h41v82h82v41h123v-164h-82v-41h-82v-41h-41v-41h-123v-41h-41v-41h-81z" />
    <glyph glyph-name="ocircumflex" unicode="&#xf4;" horiz-adv-x="1024" 
d="M573 41v-41h-327v41h-82v41h-41v41h-41v123h-41v164h41v163h41v82h41v82h41v41h41v41h41v41h41v41h82v41h82v41h245v-41h82v-41h41v-41h41v-41h41v-164h41v-82h-41v-163h-41v-123h-41v-41h-41v-41h-41v-82h-82v-41h-41v-41h-82zM287 82h245v41h41v41h41v41h41v82h41v82
h41v163h41v246h-41v82h-41v41h-164v-41h-40v-41h-82v-82h-41v-41h-41v-123h-41v-122h-41v-287h41v-82zM451 1147v-41h-41v41h41v41h41v41h40v41h41v41h41v41h41v41h246v-123h41v-82h41v-82h-41v41h-82v41h-82v41h-41v41h41v41h-41v-41h-82v-41h-82v-41h-81v-41h-41z" />
    <glyph glyph-name="otilde" unicode="&#xf5;" horiz-adv-x="1024" 
d="M573 41v-41h-327v41h-82v41h-41v41h-41v123h-41v164h41v163h41v82h41v82h41v41h41v41h41v41h41v41h82v41h82v41h245v-41h82v-41h41v-41h41v-41h41v-164h41v-82h-41v-163h-41v-123h-41v-41h-41v-41h-41v-82h-82v-41h-41v-41h-82zM287 82h245v41h41v41h41v41h41v82h41v82
h41v163h41v246h-41v82h-41v41h-164v-41h-40v-41h-82v-82h-41v-41h-41v-123h-41v-122h-41v-287h41v-82zM410 1188v-41h-41v41h41v82h41v41h41v82h81v41h82v-41h82v-41h82v-41h205v-82h-41v-41h-41v-41h-205v41h-41v41h-82v41h-122v-41h-41v-41h-41zM1065 1311h-41v41h41v41
h41v-41h-41v-41z" />
    <glyph glyph-name="odieresis" unicode="&#xf6;" horiz-adv-x="1024" 
d="M573 41v-41h-327v41h-82v41h-41v41h-41v123h-41v164h41v163h41v82h41v82h41v41h41v41h41v41h41v41h82v41h82v41h245v-41h82v-41h41v-41h41v-41h41v-164h41v-82h-41v-163h-41v-123h-41v-41h-41v-41h-41v-82h-82v-41h-41v-41h-82zM287 82h245v41h41v41h41v41h41v82h41v82
h41v163h41v246h-41v82h-41v41h-164v-41h-40v-41h-82v-82h-41v-41h-41v-123h-41v-122h-41v-287h41v-82zM410 1188v82h41v82h41v41h163v-123h-41v-82h-204zM819 1188v82h41v82h41v41h164v-123h-41v-82h-205z" />
    <glyph glyph-name="oslash" unicode="&#xf8;" horiz-adv-x="1024" 
d="M82 41v-41h-123v41h41v41h41v41h41v41h41v41h-41v41h-41v164h41v163h41v82h41v82h41v41h41v41h41v41h41v41h82v41h82v41h245v-41h82v-41h123v41h41v41h82v-41h-41v-41h-41v-41h-41v-41h-41v-41h-41v-41h41v41h41v-368h-41v-123h-41v-41h-41v-41h-41v-82h-82v-41h-41v-41
h-82v-41h-368v41h-41v41h-41v-41h-41zM246 287h41v41h41v41h41v41h41v41h41v41h41v40h40v41h41v41h41v41h41v41h41v41h41v123h-41v41h-164v-41h-40v-41h-82v-82h-41v-41h-41v-123h-41v-122h-41v-164zM287 82h245v41h41v41h41v41h41v82h41v82h41v163h41v123h-41v-41h-41v-41
h-41v-41h-41v-40h-82v-41h-40v-41h-41v-41h-41v-41h-41v-41h-41v-41h-41v-41h-41v-41h41v-82zM164 246h-41v-41h41v41z" />
    <glyph glyph-name="ugrave" unicode="&#xf9;" 
d="M287 0v-41h-41v41h-123v41h-41v246h41v82h41v82h41v122h41v82h41v82h41v123h-41v41h-82v41h205v41h163v-41h-41v-123h-40v-82h-41v-82h-41v-123h-41v-81h-41v-123h-41v-123h-41v-82h41v-41h82v41h82v41h41v41h40v41h41v41h41v82h41v41h41v41h41v122h41v123h41v82h41v123
h41v82h205v-41h-41v-82h-41v-123h-41v-82h-41v-123h-41v-81h-41v-123h-41v-82h-41v-123h123v41h41v41h41v41h41v-41h-41v-82h-41v-41h-41v-41h-82v-41h-205v41h-41v123h41v41h41v41h41v82h-41v-41h-41v-82h-41v-41h-41v-41h-40v-41h-41v-41h-82v-41h-82zM860 1188v-82h-41
v41h-41v41h-82v41h-82v41h-82v41h-40v164h122v-41h41v-41h41v-41h41v-41h41v-82h41v-41h41z" />
    <glyph glyph-name="uacute" unicode="&#xfa;" 
d="M287 0v-41h-41v41h-123v41h-41v246h41v82h41v82h41v122h41v82h41v82h41v123h-41v41h-82v41h205v41h163v-41h-41v-123h-40v-82h-41v-82h-41v-123h-41v-81h-41v-123h-41v-123h-41v-82h41v-41h82v41h82v41h41v41h40v41h41v41h41v82h41v41h41v41h41v122h41v123h41v82h41v123
h41v82h205v-41h-41v-82h-41v-123h-41v-82h-41v-123h-41v-81h-41v-123h-41v-82h-41v-123h123v41h41v41h41v41h41v-41h-41v-82h-41v-41h-41v-41h-82v-41h-205v41h-41v123h41v41h41v41h41v82h-41v-41h-41v-82h-41v-41h-41v-41h-40v-41h-41v-41h-82v-41h-82zM573 1106v41h41v41
h41v41h41v41h41v41h41v41h41v82h82v41h123v-164h-82v-41h-82v-41h-41v-41h-123v-41h-41v-41h-82z" />
    <glyph glyph-name="ucircumflex" unicode="&#xfb;" 
d="M287 0v-41h-41v41h-123v41h-41v246h41v82h41v82h41v122h41v82h41v82h41v123h-41v41h-82v41h205v41h163v-41h-41v-123h-40v-82h-41v-82h-41v-123h-41v-81h-41v-123h-41v-123h-41v-82h41v-41h82v41h82v41h41v41h40v41h41v41h41v82h41v41h41v41h41v122h41v123h41v82h41v123
h41v82h205v-41h-41v-82h-41v-123h-41v-82h-41v-123h-41v-81h-41v-123h-41v-82h-41v-123h123v41h41v41h41v41h41v-41h-41v-82h-41v-41h-41v-41h-82v-41h-205v41h-41v123h41v41h41v41h41v82h-41v-41h-41v-82h-41v-41h-41v-41h-40v-41h-41v-41h-82v-41h-82zM532 1147v-41h-40
v41h40v41h41v41h41v41h41v41h41v41h41v41h246v-123h41v-82h41v-82h-41v41h-82v41h-82v41h-41v41h41v41h-41v-41h-82v-41h-82v-41h-82v-41h-41z" />
    <glyph glyph-name="udieresis" unicode="&#xfc;" 
d="M287 0v-41h-41v41h-123v41h-41v246h41v82h41v82h41v122h41v82h41v82h41v123h-41v41h-82v41h205v41h163v-41h-41v-123h-40v-82h-41v-82h-41v-123h-41v-81h-41v-123h-41v-123h-41v-82h41v-41h82v41h82v41h41v41h40v41h41v41h41v82h41v41h41v41h41v122h41v123h41v82h41v123
h41v82h205v-41h-41v-82h-41v-123h-41v-82h-41v-123h-41v-81h-41v-123h-41v-82h-41v-123h123v41h41v41h41v41h41v-41h-41v-82h-41v-41h-41v-41h-82v-41h-205v41h-41v123h41v41h41v41h41v82h-41v-41h-41v-82h-41v-41h-41v-41h-40v-41h-41v-41h-82v-41h-82zM492 1188v82h40v82
h41v41h164v-123h-41v-82h-204zM901 1188v82h41v82h41v41h164v-123h-41v-82h-205z" />
    <glyph glyph-name="yacute" unicode="&#xfd;" horiz-adv-x="1064" 
d="M82 -410v-41h-287v41h-41v123h41v41h41v41h41v-41h82v-123h-41v-41h41v41h123v41h82v41h41v41h41v41h41v41h41v41h41v287h-41v368h-41v246h-41v82h-41v82h123v41h82v-41h41v-205h41v-286h40v-369h-40v-41h40v41h41v41h41v41h41v82h41v41h41v82h41v82h41v81h41v123h41v164
h-82v123h41v41h123v-41h41v-287h-41v-123h-41v-81h-41v-41h-41v-82h-41v-41h-41v-82h-41v-41h-41v-82h-41v-41h-41v-41h-41v-41h-41v-41h-40v-41h-41v-41h-41v-41h-41v-41h-41v-41h-41v-41h-41v-41h-82v-41h-82zM532 1106v41h41v41h41v41h41v41h41v41h41v41h41v82h82v41h123
v-164h-82v-41h-82v-41h-41v-41h-123v-41h-41v-41h-82z" />
    <glyph glyph-name="thorn" unicode="&#xfe;" horiz-adv-x="1146" 
d="M451 737h-41v-82h41v41h41v82h40v41h41v41h41v41h82v41h41v41h205v-41h82v-82h41v-41h41v-287h-41v-122h-41v-82h-41v-41h-41v-82h-41v-41h-41v-41h-41v-41h-82v-41h-82v-41h-286v41h-123v41h-41v-123h-41v-82h-41v-123h-41v-164h123v-82h-533v41h41v41h123v41h41v82h41
v82h41v123h41v123h41v82h41v123h41v82h41v123h41v81h41v123h41v123h41v82h41v123h41v82h41v123h41v164h-41v41h41v41h204v41h41v-123h-41v-123h-41v-82h-41v-123h-41v-82h-41v-82h-40v-82h-41v-41zM451 614v-41h-41v41h-41v-41h41v-81h-41v-82h-41v-123h-41v-164h82v-41h204
v41h82v41h41v41h41v41h41v41h41v82h41v123h41v327h-41v41h-164v-41h-41v-41h-82v-41h-41v-82h-40v-41h-41z" />
    <glyph glyph-name="ydieresis" unicode="&#xff;" horiz-adv-x="1064" 
d="M82 -410v-41h-287v41h-41v123h41v41h41v41h41v-41h82v-123h-41v-41h41v41h123v41h82v41h41v41h41v41h41v41h41v41h41v287h-41v368h-41v246h-41v82h-41v82h123v41h82v-41h41v-205h41v-286h40v-369h-40v-41h40v41h41v41h41v41h41v82h41v41h41v82h41v82h41v81h41v123h41v164
h-82v123h41v41h123v-41h41v-287h-41v-123h-41v-81h-41v-41h-41v-82h-41v-41h-41v-82h-41v-41h-41v-82h-41v-41h-41v-41h-41v-41h-41v-41h-40v-41h-41v-41h-41v-41h-41v-41h-41v-41h-41v-41h-41v-41h-82v-41h-82zM451 1188v82h41v82h40v41h164v-123h-41v-82h-204zM860 1188
v82h41v82h41v41h164v-123h-41v-82h-205z" />
    <glyph glyph-name="Amacron" unicode="&#x100;" horiz-adv-x="1433" 
d="M901 451h82v41h-614v-41h-41v-41h-41v-82h-41v-41h-41v-41h-41v-164h82v-82h-410v41h41v41h82v41h41v41h41v41h41v82h41v41h41v41h41v41h41v82h41v40h41v41h41v82h41v41h41v41h41v82h40v41h41v41h41v41h41v82h41v41h41v41h41v82h41v41h41v41h41v82h41v41h41v41h41v82h41
v-451h41v-614h41v-328h41v-41h41v-41h41v-41h-492v82h123v41h41v205h-41v123zM451 573h450v492h-41v41h-41v-41h-41v-82h-41v-41h-41v-41h-41v-82h-41v-41h-41v-41h-41v-82h-40v-41h-41v-41zM819 1761h574v-82h-615v41h41v41z" />
    <glyph glyph-name="amacron" unicode="&#x101;" 
d="M410 41v-41h-246v41h-41v41h-41v41h-41v328h41v81h41v82h41v82h41v41h41v41h41v41h41v41h41v41h82v41h122v41h205v-41h123v-41h41v41h123v-82h-41v-82h-41v-123h-41v-82h-41v-122h-41v-82h-41v-123h-41v-123h123v41h41v41h41v41h41v-41h-41v-82h-41v-41h-82v-41h-41v-41
h-205v41h-41v82h41v82h41v41h-41v-41h-41v-41h-41v-41h-40v-41h-41v-41h-41zM287 123h164v41h41v41h40v41h41v41h41v41h41v82h41v82h41v122h41v82h41v164h-41v41h-205v-41h-81v-41h-41v-41h-41v-41h-41v-82h-41v-41h-41v-122h-41v-328h41v-41zM696 328h-41v-41h41v41z
M532 1311h574v-82h-614v41h40v41z" />
    <glyph glyph-name="Abreve" unicode="&#x102;" horiz-adv-x="1433" 
d="M901 451h82v41h-614v-41h-41v-41h-41v-82h-41v-41h-41v-41h-41v-164h82v-82h-410v41h41v41h82v41h41v41h41v41h41v82h41v41h41v41h41v41h41v82h41v40h41v41h41v82h41v41h41v41h41v82h40v41h41v41h41v41h41v82h41v41h41v41h41v82h41v41h41v41h41v82h41v41h41v41h41v82h41
v-451h41v-614h41v-328h41v-41h41v-41h41v-41h-492v82h123v41h41v205h-41v123zM451 573h450v492h-41v41h-41v-41h-41v-82h-41v-41h-41v-41h-41v-82h-41v-41h-41v-41h-41v-82h-40v-41h-41v-41zM860 1884v-82h41v-41h82v-41h164v41h123v41h41v41h41v-82h-41v-82h-41v-41h-41
v-41h-82v-41h-164v41h-82v41h-41v41h-41v205h41z" />
    <glyph glyph-name="abreve" unicode="&#x103;" 
d="M410 41v-41h-246v41h-41v41h-41v41h-41v328h41v81h41v82h41v82h41v41h41v41h41v41h41v41h41v41h82v41h122v41h205v-41h123v-41h41v41h123v-82h-41v-82h-41v-123h-41v-82h-41v-122h-41v-82h-41v-123h-41v-123h123v41h41v41h41v41h41v-41h-41v-82h-41v-41h-82v-41h-41v-41
h-205v41h-41v82h41v82h41v41h-41v-41h-41v-41h-41v-41h-40v-41h-41v-41h-41zM287 123h164v41h41v41h40v41h41v41h41v41h41v82h41v82h41v122h41v82h41v164h-41v41h-205v-41h-81v-41h-41v-41h-41v-41h-41v-82h-41v-41h-41v-122h-41v-328h41v-41zM696 328h-41v-41h41v41z
M573 1434v-82h41v-41h82v-41h164v41h123v41h41v41h41v-82h-41v-82h-41v-41h-41v-41h-82v-41h-164v41h-82v41h-41v41h-41v205h41z" />
    <glyph glyph-name="Aogonek" unicode="&#x104;" horiz-adv-x="1433" 
d="M901 451h82v41h-614v-41h-41v-41h-41v-82h-41v-41h-41v-41h-41v-164h82v-82h-410v41h41v41h82v41h41v41h41v41h41v82h41v41h41v41h41v41h41v82h41v40h41v41h41v82h41v41h41v41h41v82h40v41h41v41h41v41h41v82h41v41h41v41h41v82h41v41h41v41h41v82h41v41h41v41h41v82h41
v-451h41v-614h41v-328h41v-41h41v-41h41v-82h-82v-41h-41v-41h-41v-41h-41v-41h-41v-123h164v41h41v-82h-41v-41h-82v-41h-82v41h-82v41h-41v123h41v82h41v41h41v41h82v41h82v41h-410v82h123v41h41v205h-41v123zM451 573h450v492h-41v41h-41v-41h-41v-82h-41v-41h-41v-41
h-41v-82h-41v-41h-41v-41h-41v-82h-40v-41h-41v-41z" />
    <glyph glyph-name="aogonek" unicode="&#x105;" 
d="M410 41v-41h-246v41h-41v41h-41v41h-41v328h41v81h41v82h41v82h41v41h41v41h41v41h41v41h41v41h82v41h122v41h205v-41h123v-41h41v41h123v-82h-41v-82h-41v-123h-41v-82h-41v-122h-41v-82h-41v-123h-41v-123h123v41h41v41h41v41h41v-41h-41v-82h-41v-41h-82v-41h-41v-82
h-82v-41h-41v-41h-41v-41h-41v-41h-41v-123h164v41h41v-82h-41v-41h-82v-41h-82v41h-81v41h-41v123h41v82h40v41h41v41h82v41h82v41h-123v41h-41v82h41v82h41v41h-41v-41h-41v-41h-41v-41h-40v-41h-41v-41h-41zM287 123h164v41h41v41h40v41h41v41h41v41h41v82h41v82h41v122
h41v82h41v164h-41v41h-205v-41h-81v-41h-41v-41h-41v-41h-41v-82h-41v-41h-41v-122h-41v-328h41v-41zM696 328h-41v-41h41v41z" />
    <glyph glyph-name="Cacute" unicode="&#x106;" horiz-adv-x="1351" 
d="M901 41v-41h-409v41h-82v41h-41v41h-82v82h-41v41h-41v82h-41v164h-41v122h41v205h41v123h41v82h41v41h41v82h41v41h41v41h41v41h41v41h81v41h82v41h82v41h451v-41h82v-41h41v-41h41v-41h41v-82h41v82h-41v41h82v41h81v-82h-40v-123h-41v-123h-41v-123h-82v164h-41v123
h-41v41h-41v41h-41v41h-41v41h-287v-41h-82v-41h-82v-41h-41v-41h-41v-41h-41v-82h-41v-41h-40v-82h-41v-82h-41v-123h-41v-368h41v-82h41v-82h41v-41h40v-41h123v-41h246v41h123v41h41v41h82v41h41v41h41v-41h-41v-41h-41v-41h-41v-41h-41v-41h-82v-41h-82zM901 1556v41h41
v41h41v41h41v41h41v41h41v41h41v82h82v41h123v-164h-82v-41h-82v-41h-41v-41h-123v-41h-41v-41h-82z" />
    <glyph glyph-name="cacute" unicode="&#x107;" horiz-adv-x="860" 
d="M573 41v-41h-327v41h-82v41h-41v82h-41v368h41v82h41v82h41v82h41v41h41v41h41v41h82v41h82v41h245v-41h82v-41h41v-41h41v-164h-41v-41h-41v-41h-41v41h-82v123h41v82h-41v41h-164v-41h-81v-41h-41v-82h-41v-41h-41v-82h-41v-163h-41v-123h41v-123h41v-41h41v-41h245v41
h82v41h41v41h41v-41h-41v-41h-41v-41h-41v-41h-41v-41h-41zM532 1106v41h41v41h41v41h41v41h41v41h41v41h41v82h82v41h123v-164h-82v-41h-82v-41h-41v-41h-123v-41h-41v-41h-82z" />
    <glyph glyph-name="Ccircumflex" unicode="&#x108;" horiz-adv-x="1351" 
d="M901 41v-41h-409v41h-82v41h-41v41h-82v82h-41v41h-41v82h-41v164h-41v122h41v205h41v123h41v82h41v41h41v82h41v41h41v41h41v41h41v41h81v41h82v41h82v41h451v-41h82v-41h41v-41h41v-41h41v-82h41v82h-41v41h82v41h81v-82h-40v-123h-41v-123h-41v-123h-82v164h-41v123
h-41v41h-41v41h-41v41h-41v41h-287v-41h-82v-41h-82v-41h-41v-41h-41v-41h-41v-82h-41v-41h-40v-82h-41v-82h-41v-123h-41v-368h41v-82h41v-82h41v-41h40v-41h123v-41h246v41h123v41h41v41h82v41h41v41h41v-41h-41v-41h-41v-41h-41v-41h-41v-41h-82v-41h-82zM860 1597v-41
h-41v41h41v41h41v41h41v41h41v41h41v41h41v41h246v-123h41v-82h41v-82h-41v41h-82v41h-82v41h-41v41h41v41h-41v-41h-82v-41h-82v-41h-82v-41h-41z" />
    <glyph glyph-name="ccircumflex" unicode="&#x109;" horiz-adv-x="860" 
d="M573 41v-41h-327v41h-82v41h-41v82h-41v368h41v82h41v82h41v82h41v41h41v41h41v41h82v41h82v41h245v-41h82v-41h41v-41h41v-164h-41v-41h-41v-41h-41v41h-82v123h41v82h-41v41h-164v-41h-81v-41h-41v-82h-41v-41h-41v-82h-41v-163h-41v-123h41v-123h41v-41h41v-41h245v41
h82v41h41v41h41v-41h-41v-41h-41v-41h-41v-41h-41v-41h-41zM492 1147v-41h-41v41h41v41h40v41h41v41h41v41h41v41h41v41h246v-123h41v-82h41v-82h-41v41h-82v41h-82v41h-41v41h41v41h-41v-41h-82v-41h-82v-41h-82v-41h-40z" />
    <glyph glyph-name="Cdotaccent" unicode="&#x10a;" horiz-adv-x="1351" 
d="M901 41v-41h-409v41h-82v41h-41v41h-82v82h-41v41h-41v82h-41v164h-41v122h41v205h41v123h41v82h41v41h41v82h41v41h41v41h41v41h41v41h81v41h82v41h82v41h451v-41h82v-41h41v-41h41v-41h41v-82h41v82h-41v41h82v41h81v-82h-40v-123h-41v-123h-41v-123h-82v164h-41v123
h-41v41h-41v41h-41v41h-41v41h-287v-41h-82v-41h-82v-41h-41v-41h-41v-41h-41v-82h-41v-41h-40v-82h-41v-82h-41v-123h-41v-368h41v-82h41v-82h41v-41h40v-41h123v-41h246v41h123v41h41v41h82v41h41v41h41v-41h-41v-41h-41v-41h-41v-41h-41v-41h-82v-41h-82zM973 1638v82h41
v82h41v41h164v-123h-41v-82h-205z" />
    <glyph glyph-name="cdotaccent" unicode="&#x10b;" horiz-adv-x="860" 
d="M573 41v-41h-327v41h-82v41h-41v82h-41v368h41v82h41v82h41v82h41v41h41v41h41v41h82v41h82v41h245v-41h82v-41h41v-41h41v-164h-41v-41h-41v-41h-41v41h-82v123h41v82h-41v41h-164v-41h-81v-41h-41v-82h-41v-41h-41v-82h-41v-163h-41v-123h41v-123h41v-41h41v-41h245v41
h82v41h41v41h41v-41h-41v-41h-41v-41h-41v-41h-41v-41h-41zM604 1188v82h41v82h41v41h164v-123h-41v-82h-205z" />
    <glyph glyph-name="Ccaron" unicode="&#x10c;" horiz-adv-x="1351" 
d="M901 41v-41h-409v41h-82v41h-41v41h-82v82h-41v41h-41v82h-41v164h-41v122h41v205h41v123h41v82h41v41h41v82h41v41h41v41h41v41h41v41h81v41h82v41h82v41h451v-41h82v-41h41v-41h41v-41h41v-82h41v82h-41v41h82v41h81v-82h-40v-123h-41v-123h-41v-123h-82v164h-41v123
h-41v41h-41v41h-41v41h-41v41h-287v-41h-82v-41h-82v-41h-41v-41h-41v-41h-41v-82h-41v-41h-40v-82h-41v-82h-41v-123h-41v-368h41v-82h41v-82h41v-41h40v-41h123v-41h246v41h123v41h41v41h82v41h41v41h41v-41h-41v-41h-41v-41h-41v-41h-41v-41h-82v-41h-82zM1188 1638v-41
h-205v82h-41v123h-41v82h-41v41h41v-41h82v-41h41v-41h82v-82h-82v-41h82v41h82v41h41v41h82v41h82v41h41v-41h-41v-41h-41v-41h-41v-41h-41v-41h-41v-41h-41z" />
    <glyph glyph-name="ccaron" unicode="&#x10d;" horiz-adv-x="860" 
d="M573 41v-41h-327v41h-82v41h-41v82h-41v368h41v82h41v82h41v82h41v41h41v41h41v41h82v41h82v41h245v-41h82v-41h41v-41h41v-164h-41v-41h-41v-41h-41v41h-82v123h41v82h-41v41h-164v-41h-81v-41h-41v-82h-41v-41h-41v-82h-41v-163h-41v-123h41v-123h41v-41h41v-41h245v41
h82v41h41v41h41v-41h-41v-41h-41v-41h-41v-41h-41v-41h-41zM819 1188v-41h-205v82h-41v123h-41v82h-40v41h40v-41h82v-41h41v-41h82v-82h-82v-41h82v41h82v41h41v41h82v41h82v41h41v-41h-41v-41h-41v-41h-41v-41h-41v-41h-41v-41h-41z" />
    <glyph glyph-name="Dcaron" unicode="&#x10e;" horiz-adv-x="1474" 
d="M-123 0v41h41v41h123v41h41v41h41v82h41v82h41v123h41v122h41v82h41v123h41v82h41v123h41v123h41v82h40v164h-122v41h-41v41h696v-41h123v-41h82v-41h41v-41h41v-41h41v-41h41v-82h41v-82h41v-328h-41v-123h-41v-81h-41v-82h-41v-41h-41v-41h-41v-41h-41v-41h-41v-41h-41
v-41h-82v-41h-82v-41h-82v-41h-123v-41h-901zM246 82h450v41h123v41h82v41h82v41h41v41h41v41h41v41h41v82h41v81h41v82h41v451h-41v123h-41v41h-41v41h-41v41h-82v41h-328v-41h41v-123h-41v-123h-41v-82h-41v-123h-41v-82h-41v-123h-40v-123h-41v-81h-41v-123h-41v-82h-41
v-123h-82v-41zM1229 1638v-41h-205v82h-41v123h-41v82h-41v41h41v-41h82v-41h41v-41h82v-82h-82v-41h82v41h82v41h41v41h82v41h82v41h41v-41h-41v-41h-41v-41h-41v-41h-41v-41h-41v-41h-41z" />
    <glyph glyph-name="dcaron" unicode="&#x10f;" horiz-adv-x="1187" 
d="M1065 1229v123h-41v41h-41v41h246v41h82v-82h-41v-82h-41v-123h-41v-123h-41v-82h-41v-123h-41v-82h-41v-123h-41v-82h-41v-122h-41v-82h-41v-123h-41v-123h123v41h41v41h41v41h41v-41h-41v-41h-41v-82h-82v-41h-41v-41h-205v41h-41v82h41v82h41v41h-41v-41h-41v-41h-41
v-41h-41v-41h-40v-41h-82v-41h-246v41h-41v41h-41v82h-41v287h41v81h41v82h41v82h41v41h41v41h41v41h41v41h41v41h82v41h81v41h246v-41h82v-41h82v123h41v82h41v123h41zM287 123h205v41h40v41h41v41h41v41h41v41h41v82h41v82h41v122h41v82h41v123h-41v41h-41v41h-205v-41
h-41v-41h-81v-41h-41v-82h-41v-41h-41v-82h-41v-122h-41v-287h41v-41zM737 328h-41v-41h41v41zM1393 1065v-41h-82v41h82v41h41v41h41v82h-82v41h-41v123h41v41h41v41h122v-41h41v-246h-41v-41h-40v-41h-41v-41h-82zM1516 1311h-41v-82h41v82z" />
    <glyph glyph-name="Dcroat" unicode="&#x110;" horiz-adv-x="1474" 
d="M778 41v-41h-901v41h41v41h123v41h41v41h41v82h41v123h41v82h41v122h41v82h82v41h-246v41h41v41h205v82h41v123h41v123h41v82h40v164h-122v41h-41v41h696v-41h123v-41h82v-41h41v-41h41v-41h41v-41h41v-82h41v-82h41v-328h-41v-123h-41v-81h-41v-82h-41v-41h-41v-41h-41
v-41h-41v-41h-41v-41h-41v-41h-82v-41h-82v-41h-82v-41h-123zM246 82h450v41h123v41h82v41h82v41h41v41h41v41h41v41h41v82h41v81h41v82h41v451h-41v123h-41v41h-41v41h-41v41h-82v41h-328v-41h41v-123h-41v-82h-41v-123h-41v-123h-41v-82h164v-82h-205v-41h-40v-123h-41
v-81h-41v-123h-41v-82h-41v-123h-82v-41z" />
    <glyph glyph-name="dcroat" unicode="&#x111;" horiz-adv-x="1146" 
d="M983 1065h82v41h-328v82h287v41h41v123h-41v41h-41v41h246v41h82v-82h-41v-82h-41v-123h164v-41h-41v-41h-164v-41h-41v-82h-41v-123h-41v-82h-41v-123h-41v-82h-41v-122h-41v-82h-41v-123h-41v-123h123v41h41v41h41v41h41v-41h-41v-41h-41v-82h-82v-41h-41v-41h-205v41
h-41v82h41v82h41v41h-41v-41h-41v-41h-41v-41h-41v-41h-40v-41h-82v-41h-246v41h-41v41h-41v82h-41v287h41v81h41v82h41v82h41v41h41v41h41v41h41v41h41v41h82v41h81v41h246v-41h82v-41h82v123h41v41zM287 123h205v41h40v41h41v41h41v41h41v41h41v82h41v82h41v122h41v82h41
v123h-41v41h-41v41h-205v-41h-41v-41h-81v-41h-41v-82h-41v-41h-41v-82h-41v-122h-41v-287h41v-41zM737 328h-41v-41h41v41z" />
    <glyph glyph-name="Emacron" unicode="&#x112;" horiz-adv-x="1310" 
d="M287 123h-82v-41h573v41h82v41h82v41h41v41h41v41h41v82h41v41h41v82h82v-82h-41v-82h-41v-123h-41v-82h-41v-82h-41v-41h-1147v82h164v41h41v41h41v123h41v82h41v123h41v81h41v123h41v123h41v82h41v123h41v123h41v82h40v82h-40v41h-82v41h-41v41h1147v-82h-41v-164h-41
v-123h-41v-123h-82v328h-41v41h-41v41h-533v-41h41v-82h-41v-123h-41v-82h-41v-123h-41v-123h287v41h41v41h41v41h41v82h82v-82h-41v-123h-41v-123h-41v-82h-41v-122h-82v245h-327v-123h-41v-81h-41v-123h-41v-123h-41v-82h-41v-41zM860 1761h574v-82h-615v41h41v41z" />
    <glyph glyph-name="emacron" unicode="&#x113;" horiz-adv-x="860" 
d="M778 246v-41h-41v-41h-41v-41h-41v-41h-41v-41h-41v-41h-327v41h-82v41h-41v82h-41v123h-41v82h41v204h41v82h41v82h41v41h41v41h41v41h41v41h82v41h82v41h245v-41h82v-41h41v-41h41v-123h-41v-41h-41v-41h-41v-41h-41v-41h-82v-41h-163v-40h-287v-41h41v-123h41v-123h41
v-41h41v-41h245v41h82v41h41v41h41zM287 532h41v41h204v41h82v41h41v41h41v41h41v123h-41v41h-204v-41h-41v-41h-41v-41h-41v-82h-41v-82h-41v-82zM451 1311h573v-82h-614v41h41v41z" />
    <glyph glyph-name="Ebreve" unicode="&#x114;" horiz-adv-x="1310" 
d="M287 123h-82v-41h573v41h82v41h82v41h41v41h41v41h41v82h41v41h41v82h82v-82h-41v-82h-41v-123h-41v-82h-41v-82h-41v-41h-1147v82h164v41h41v41h41v123h41v82h41v123h41v81h41v123h41v123h41v82h41v123h41v123h41v82h40v82h-40v41h-82v41h-41v41h1147v-82h-41v-164h-41
v-123h-41v-123h-82v328h-41v41h-41v41h-533v-41h41v-82h-41v-123h-41v-82h-41v-123h-41v-123h287v41h41v41h41v41h41v82h82v-82h-41v-123h-41v-123h-41v-82h-41v-122h-82v245h-327v-123h-41v-81h-41v-123h-41v-123h-41v-82h-41v-41zM901 1884v-82h41v-41h82v-41h164v41h123
v41h41v41h41v-82h-41v-82h-41v-41h-41v-41h-82v-41h-164v41h-82v41h-41v41h-41v205h41z" />
    <glyph glyph-name="ebreve" unicode="&#x115;" horiz-adv-x="860" 
d="M778 246v-41h-41v-41h-41v-41h-41v-41h-41v-41h-41v-41h-327v41h-82v41h-41v82h-41v123h-41v82h41v204h41v82h41v82h41v41h41v41h41v41h41v41h82v41h82v41h245v-41h82v-41h41v-41h41v-123h-41v-41h-41v-41h-41v-41h-41v-41h-82v-41h-163v-40h-287v-41h41v-123h41v-123h41
v-41h41v-41h245v41h82v41h41v41h41zM287 532h41v41h204v41h82v41h41v41h41v41h41v123h-41v41h-204v-41h-41v-41h-41v-41h-41v-82h-41v-82h-41v-82zM492 1434v-82h40v-41h82v-41h164v41h123v41h41v41h41v-82h-41v-82h-41v-41h-41v-41h-82v-41h-164v41h-82v41h-40v41h-41v205
h41z" />
    <glyph glyph-name="Edotaccent" unicode="&#x116;" horiz-adv-x="1310" 
d="M287 123h-82v-41h573v41h82v41h82v41h41v41h41v41h41v82h41v41h41v82h82v-82h-41v-82h-41v-123h-41v-82h-41v-82h-41v-41h-1147v82h164v41h41v41h41v123h41v82h41v123h41v81h41v123h41v123h41v82h41v123h41v123h41v82h40v82h-40v41h-82v41h-41v41h1147v-82h-41v-164h-41
v-123h-41v-123h-82v328h-41v41h-41v41h-533v-41h41v-82h-41v-123h-41v-82h-41v-123h-41v-123h287v41h41v41h41v41h41v82h82v-82h-41v-123h-41v-123h-41v-82h-41v-122h-82v245h-327v-123h-41v-81h-41v-123h-41v-123h-41v-82h-41v-41zM973 1638v82h41v82h41v41h164v-123h-41
v-82h-205z" />
    <glyph glyph-name="edotaccent" unicode="&#x117;" horiz-adv-x="860" 
d="M778 246v-41h-41v-41h-41v-41h-41v-41h-41v-41h-41v-41h-327v41h-82v41h-41v82h-41v123h-41v82h41v204h41v82h41v82h41v41h41v41h41v41h41v41h82v41h82v41h245v-41h82v-41h41v-41h41v-123h-41v-41h-41v-41h-41v-41h-41v-41h-82v-41h-163v-40h-287v-41h41v-123h41v-123h41
v-41h41v-41h245v41h82v41h41v41h41zM287 532h41v41h204v41h82v41h41v41h41v41h41v123h-41v41h-204v-41h-41v-41h-41v-41h-41v-82h-41v-82h-41v-82zM563 1188v82h41v82h41v41h164v-123h-41v-82h-205z" />
    <glyph glyph-name="Eogonek" unicode="&#x118;" horiz-adv-x="1310" 
d="M287 123h-82v-41h573v41h82v41h82v41h41v41h41v41h41v82h41v41h41v82h82v-82h-41v-82h-41v-123h-41v-82h-41v-82h-41v-82h-82v-41h-41v-41h-41v-41h-41v-41h-41v-123h164v41h41v-82h-41v-41h-82v-41h-82v41h-82v41h-41v123h41v82h41v41h41v41h82v41h82v41h-1065v82h164
v41h41v41h41v123h41v82h41v123h41v81h41v123h41v123h41v82h41v123h41v123h41v82h40v82h-40v41h-82v41h-41v41h1147v-82h-41v-164h-41v-123h-41v-123h-82v328h-41v41h-41v41h-533v-41h41v-82h-41v-123h-41v-82h-41v-123h-41v-123h287v41h41v41h41v41h41v82h82v-82h-41v-123
h-41v-123h-41v-82h-41v-122h-82v245h-327v-123h-41v-81h-41v-123h-41v-123h-41v-82h-41v-41z" />
    <glyph glyph-name="eogonek" unicode="&#x119;" horiz-adv-x="860" 
d="M492 -328v41h40v-82h-40v-41h-82v-41h-82v41h-82v41h-41v123h41v82h41v41h41v41h82v41h82v41h-246v41h-82v41h-41v82h-41v123h-41v82h41v204h41v82h41v82h41v41h41v41h41v41h41v41h82v41h82v41h245v-41h82v-41h41v-41h41v-123h-41v-41h-41v-41h-41v-41h-41v-41h-82v-41
h-163v-40h-287v-41h41v-123h41v-123h41v-41h41v-41h245v41h82v41h41v41h41v-41h-41v-41h-41v-41h-41v-41h-41v-41h-41v-82h-81v-41h-41v-41h-41v-41h-41v-41h-41v-123h164zM287 532h41v41h204v41h82v41h41v41h41v41h41v123h-41v41h-204v-41h-41v-41h-41v-41h-41v-82h-41v-82
h-41v-82z" />
    <glyph glyph-name="Ecaron" unicode="&#x11a;" horiz-adv-x="1310" 
d="M287 123h-82v-41h573v41h82v41h82v41h41v41h41v41h41v82h41v41h41v82h82v-82h-41v-82h-41v-123h-41v-82h-41v-82h-41v-41h-1147v82h164v41h41v41h41v123h41v82h41v123h41v81h41v123h41v123h41v82h41v123h41v123h41v82h40v82h-40v41h-82v41h-41v41h1147v-82h-41v-164h-41
v-123h-41v-123h-82v328h-41v41h-41v41h-533v-41h41v-82h-41v-123h-41v-82h-41v-123h-41v-123h287v41h41v41h41v41h41v82h82v-82h-41v-123h-41v-123h-41v-82h-41v-122h-82v245h-327v-123h-41v-81h-41v-123h-41v-123h-41v-82h-41v-41zM1188 1638v-41h-205v82h-41v123h-41v82
h-41v41h41v-41h82v-41h41v-41h82v-82h-82v-41h82v41h82v41h41v41h82v41h82v41h41v-41h-41v-41h-41v-41h-41v-41h-41v-41h-41v-41h-41z" />
    <glyph glyph-name="ecaron" unicode="&#x11b;" horiz-adv-x="860" 
d="M778 246v-41h-41v-41h-41v-41h-41v-41h-41v-41h-41v-41h-327v41h-82v41h-41v82h-41v123h-41v82h41v204h41v82h41v82h41v41h41v41h41v41h41v41h82v41h82v41h245v-41h82v-41h41v-41h41v-123h-41v-41h-41v-41h-41v-41h-41v-41h-82v-41h-163v-40h-287v-41h41v-123h41v-123h41
v-41h41v-41h245v41h82v41h41v41h41zM287 532h41v41h204v41h82v41h41v41h41v41h41v123h-41v41h-204v-41h-41v-41h-41v-41h-41v-82h-41v-82h-41v-82zM778 1188v-41h-205v82h-41v123h-40v82h-41v41h41v-41h81v-41h41v-41h82v-82h-82v-41h82v41h82v41h41v41h82v41h82v41h41v-41
h-41v-41h-41v-41h-41v-41h-41v-41h-41v-41h-41z" />
    <glyph glyph-name="Gcircumflex" unicode="&#x11c;" horiz-adv-x="1556" 
d="M860 41v-41h-368v41h-82v41h-41v41h-41v41h-41v41h-41v41h-41v82h-41v491h41v82h41v82h41v82h41v41h41v82h41v41h41v41h81v41h41v41h82v41h82v41h451v-41h82v-41h82v-41h41v-41h41v-123h41v123h-41v41h41v41h122v-82h-41v-123h-40v-123h-41v-82h-41v-41h-41v123h-41v164
h-41v41h-41v41h-41v41h-82v41h-246v-41h-123v-41h-41v-41h-82v-41h-41v-41h-41v-82h-41v-41h-40v-82h-41v-82h-41v-164h-41v-327h41v-82h41v-82h41v-41h81v-41h82v-41h164v41h123v41h123v41h41v41h-41v41h41v123h41v204h-123v82h573v-41h-41v-41h-122v-41h-41v-41h-41v-122
h-41v-82h-41v-123h-41v-82h-41v-123h-41v41h-41v41h-123v-41h-123zM1147 287h-41v-41h41v41zM901 1597v-41h-41v41h41v41h41v41h41v41h41v41h41v41h41v41h246v-123h41v-82h41v-82h-41v41h-82v41h-82v41h-41v41h41v41h-41v-41h-82v-41h-82v-41h-82v-41h-41z" />
    <glyph glyph-name="gcircumflex" unicode="&#x11d;" horiz-adv-x="942" 
d="M983 983h-41v-41h-82v-41h-41v-82h41v-41h41v-246h-41v-81h-41v-41h-41v-41h-41v-41h-82v-41h-82v-41h-163v41h-123v-41h-82v-41h-41v-82h41v-41h246v-41h245v-41h82v-41h41v-41h41v-164h-41v-41h-41v-82h-82v-41h-41v-41h-163v-41h-410v41h-123v41h-82v41h-41v123h41v82
h41v41h82v41h82v41h-41v41h-41v164h41v41h41v41h41v41h82v82h-41v41h-41v122h-41v82h41v123h41v82h41v41h41v41h41v41h123v41h245v-41h82v-41h41v41h41v41h41v41h246v-164h-41v-41h-123v123h41v41zM410 328h82v41h81v41h41v41h41v41h41v327h-41v41h-41v41h-163v-41h-41v-41
h-41v-41h-41v-82h-41v-245h41v-82h82v-41zM287 369h-41v-41h41v41zM123 -410h369v41h122v41h41v41h41v82h-41v41h-163v41h-246v41h-123v-41h-41v-41h-41v-41h-41v-123h41v-41h82v-41zM410 1147v-41h-41v41h41v41h41v41h41v41h40v41h41v41h41v41h246v-123h41v-82h41v-82h-41
v41h-82v41h-82v41h-41v41h41v41h-41v-41h-82v-41h-82v-41h-81v-41h-41z" />
    <glyph glyph-name="Gbreve" unicode="&#x11e;" horiz-adv-x="1556" 
d="M860 41v-41h-368v41h-82v41h-41v41h-41v41h-41v41h-41v41h-41v82h-41v491h41v82h41v82h41v82h41v41h41v82h41v41h41v41h81v41h41v41h82v41h82v41h451v-41h82v-41h82v-41h41v-41h41v-123h41v123h-41v41h41v41h122v-82h-41v-123h-40v-123h-41v-82h-41v-41h-41v123h-41v164
h-41v41h-41v41h-41v41h-82v41h-246v-41h-123v-41h-41v-41h-82v-41h-41v-41h-41v-82h-41v-41h-40v-82h-41v-82h-41v-164h-41v-327h41v-82h41v-82h41v-41h81v-41h82v-41h164v41h123v41h123v41h41v41h-41v41h41v123h41v204h-123v82h573v-41h-41v-41h-122v-41h-41v-41h-41v-122
h-41v-82h-41v-123h-41v-82h-41v-123h-41v41h-41v41h-123v-41h-123zM1147 287h-41v-41h41v41zM942 1884v-82h41v-41h82v-41h164v41h123v41h41v41h41v-82h-41v-82h-41v-41h-41v-41h-82v-41h-164v41h-82v41h-41v41h-41v205h41z" />
    <glyph glyph-name="gbreve" unicode="&#x11f;" horiz-adv-x="942" 
d="M983 983h-41v-41h-82v-41h-41v-82h41v-41h41v-246h-41v-81h-41v-41h-41v-41h-41v-41h-82v-41h-82v-41h-163v41h-123v-41h-82v-41h-41v-82h41v-41h246v-41h245v-41h82v-41h41v-41h41v-164h-41v-41h-41v-82h-82v-41h-41v-41h-163v-41h-410v41h-123v41h-82v41h-41v123h41v82
h41v41h82v41h82v41h-41v41h-41v164h41v41h41v41h41v41h82v82h-41v41h-41v122h-41v82h41v123h41v82h41v41h41v41h41v41h123v41h245v-41h82v-41h41v41h41v41h41v41h246v-164h-41v-41h-123v123h41v41zM410 328h82v41h81v41h41v41h41v41h41v327h-41v41h-41v41h-163v-41h-41v-41
h-41v-41h-41v-82h-41v-245h41v-82h82v-41zM287 369h-41v-41h41v41zM123 -410h369v41h122v41h41v41h41v82h-41v41h-163v41h-246v41h-123v-41h-41v-41h-41v-41h-41v-123h41v-41h82v-41zM451 1434v-82h41v-41h81v-41h164v41h123v41h41v41h41v-82h-41v-82h-41v-41h-41v-41h-82
v-41h-164v41h-81v41h-41v41h-41v205h41z" />
    <glyph glyph-name="Gdotaccent" unicode="&#x120;" horiz-adv-x="1556" 
d="M860 41v-41h-368v41h-82v41h-41v41h-41v41h-41v41h-41v41h-41v82h-41v491h41v82h41v82h41v82h41v41h41v82h41v41h41v41h81v41h41v41h82v41h82v41h451v-41h82v-41h82v-41h41v-41h41v-123h41v123h-41v41h41v41h122v-82h-41v-123h-40v-123h-41v-82h-41v-41h-41v123h-41v164
h-41v41h-41v41h-41v41h-82v41h-246v-41h-123v-41h-41v-41h-82v-41h-41v-41h-41v-82h-41v-41h-40v-82h-41v-82h-41v-164h-41v-327h41v-82h41v-82h41v-41h81v-41h82v-41h164v41h123v41h123v41h41v41h-41v41h41v123h41v204h-123v82h573v-41h-41v-41h-122v-41h-41v-41h-41v-122
h-41v-82h-41v-123h-41v-82h-41v-123h-41v41h-41v41h-123v-41h-123zM1147 287h-41v-41h41v41zM1014 1638v82h41v82h41v41h164v-123h-41v-82h-205z" />
    <glyph glyph-name="gdotaccent" unicode="&#x121;" horiz-adv-x="942" 
d="M983 983h-41v-41h-82v-41h-41v-82h41v-41h41v-246h-41v-81h-41v-41h-41v-41h-41v-41h-82v-41h-82v-41h-163v41h-123v-41h-82v-41h-41v-82h41v-41h246v-41h245v-41h82v-41h41v-41h41v-164h-41v-41h-41v-82h-82v-41h-41v-41h-163v-41h-410v41h-123v41h-82v41h-41v123h41v82
h41v41h82v41h82v41h-41v41h-41v164h41v41h41v41h41v41h82v82h-41v41h-41v122h-41v82h41v123h41v82h41v41h41v41h41v41h123v41h245v-41h82v-41h41v41h41v41h41v41h246v-164h-41v-41h-123v123h41v41zM410 328h82v41h81v41h41v41h41v41h41v327h-41v41h-41v41h-163v-41h-41v-41
h-41v-41h-41v-82h-41v-245h41v-82h82v-41zM287 369h-41v-41h41v41zM123 -410h369v41h122v41h41v41h41v82h-41v41h-163v41h-246v41h-123v-41h-41v-41h-41v-41h-41v-123h41v-41h82v-41zM522 1188v82h41v82h41v41h164v-123h-41v-82h-205z" />
    <glyph glyph-name="Gcommaaccent" unicode="&#x122;" horiz-adv-x="1556" 
d="M860 41v-41h-368v41h-82v41h-41v41h-41v41h-41v41h-41v41h-41v82h-41v491h41v82h41v82h41v82h41v41h41v82h41v41h41v41h81v41h41v41h82v41h82v41h451v-41h82v-41h82v-41h41v-41h41v-123h41v123h-41v41h41v41h122v-82h-41v-123h-40v-123h-41v-82h-41v-41h-41v123h-41v164
h-41v41h-41v41h-41v41h-82v41h-246v-41h-123v-41h-41v-41h-82v-41h-41v-41h-41v-82h-41v-41h-40v-82h-41v-82h-41v-164h-41v-327h41v-82h41v-82h41v-41h81v-41h82v-41h164v41h123v41h123v41h41v41h-41v41h41v123h41v204h-123v82h573v-41h-41v-41h-122v-41h-41v-41h-41v-122
h-41v-82h-41v-123h-41v-82h-41v-123h-41v41h-41v41h-123v-41h-123zM1147 287h-41v-41h41v41zM532 -492v-40h-81v40h81v41h41v41h41v82h-82v41h-40v123h40v41h41v41h123v-41h41v-246h-41v-41h-41v-41h-41v-41h-82zM655 -246h-41v-82h41v82z" />
    <glyph glyph-name="gcommaaccent" unicode="&#x123;" horiz-adv-x="942" 
d="M983 983h-41v-41h-82v-41h-41v-82h41v-41h41v-246h-41v-81h-41v-41h-41v-41h-41v-41h-82v-41h-82v-41h-163v41h-123v-41h-82v-41h-41v-82h41v-41h246v-41h245v-41h82v-41h41v-41h41v-164h-41v-41h-41v-82h-82v-41h-41v-41h-163v-41h-410v41h-123v41h-82v41h-41v123h41v82
h41v41h82v41h82v41h-41v41h-41v164h41v41h41v41h41v41h82v82h-41v41h-41v122h-41v82h41v123h41v82h41v41h41v41h41v41h123v41h245v-41h82v-41h41v41h41v41h41v41h246v-164h-41v-41h-123v123h41v41zM410 328h82v41h81v41h41v41h41v41h41v327h-41v41h-41v41h-163v-41h-41v-41
h-41v-41h-41v-82h-41v-245h41v-82h82v-41zM287 369h-41v-41h41v41zM123 -410h369v41h122v41h41v41h41v82h-41v41h-163v41h-246v41h-123v-41h-41v-41h-41v-41h-41v-123h41v-41h82v-41zM696 1516v40h82v-40h-82v-41h-41v-41h-41v-82h82v-41h41v-123h-41v-41h-41v-41h-123v41
h-40v246h40v41h41v41h41v41h82zM573 1270h41v82h-41v-82z" />
    <glyph glyph-name="Hcircumflex" unicode="&#x124;" horiz-adv-x="1556" 
d="M451 696v-41h41v-123h-41v-81h-41v-123h-41v-82h-41v-164h123v-41h41v-41h-615v41h41v41h123v41h41v41h41v82h41v82h41v123h41v122h41v82h41v123h41v82h41v123h41v123h41v82h40v164h-122v41h-41v41h614v-41h-41v-41h-123v-41h-41v-41h-41v-82h-41v-123h-41v-82h-41v-123
h-41v-82h656v82h41v82h41v123h41v82h41v205h-82v41h-41v41h573v-82h-164v-41h-41v-41h-41v-123h-41v-82h-40v-123h-41v-123h-41v-82h-41v-123h-41v-82h-41v-122h-41v-123h-41v-82h-41v-82h41v-41h82v-41h41v-41h-615v41h41v41h164v41h41v82h41v123h41v82h41v122h41v82h41v41
h82v41h-819zM983 1597v-41h-41v41h41v41h41v41h41v41h41v41h41v41h41v41h246v-123h41v-82h41v-82h-41v41h-82v41h-82v41h-41v41h41v41h-41v-41h-82v-41h-82v-41h-82v-41h-41z" />
    <glyph glyph-name="hcircumflex" unicode="&#x125;" 
d="M164 41v-41h-164v82h41v123h41v82h41v123h41v82h41v122h41v123h41v82h41v123h41v82h41v123h41v82h41v123h-82v82h245v41h82v-41h-41v-123h-41v-123h-41v-82h-41v-123h-41v-82h-40v-123h-41v-41h-41v-41h-41v-82h41v-82h-41v-40h-41v-123h-41v-123h-41v-82h-41v-123h-41z
M451 655v-41h-41v41h41v82h41v41h40v41h41v41h41v41h82v41h41v41h205v-41h82v-246h-41v-82h-41v-122h-41v-82h-41v-123h-41v-82h-41v-82h123v41h82v41h41v41h41v-41h-41v-41h-41v-41h-41v-41h-41v-41h-82v-41h-205v246h41v82h41v123h41v81h41v123h41v82h41v123h-164v-41h-82
v-41h-41v-41h-41v-41h-40v-41h-41zM451 1597v-41h-41v41h41v41h41v41h40v41h41v41h41v41h41v41h246v-123h41v-82h41v-82h-41v41h-82v41h-82v41h-41v41h41v41h-41v-41h-82v-41h-82v-41h-81v-41h-41z" />
    <glyph glyph-name="Hbar" unicode="&#x126;" horiz-adv-x="1556" 
d="M492 41v-41h-615v41h41v41h123v41h41v41h41v82h41v82h41v123h41v81h41v123h41v123h41v82h41v123h82v41h-246v41h41v41h205v82h40v164h-122v41h-41v41h614v-41h-41v-41h-123v-41h-41v-41h-41v-82h-41v-82h656v41h41v205h-82v41h-41v41h573v-82h-164v-41h-41v-41h-41v-123
h-41v-41h205v-41h-41v-41h-286v-41h82v-41h-41v-123h-41v-82h-41v-123h-41v-82h-41v-122h-41v-123h-41v-82h-41v-82h41v-41h82v-41h41v-41h-615v41h41v41h164v41h41v82h41v123h41v82h41v122h41v82h41v41h82v41h-819v-41h41v-123h-41v-81h-41v-123h-41v-82h-41v-164h123v-41
h41zM573 778h656v41h41v123h41v82h-656v-41h-41v-123h-41v-82z" />
    <glyph glyph-name="hbar" unicode="&#x127;" 
d="M164 41v-41h-164v82h41v123h41v82h41v123h41v82h41v122h41v82h41v123h41v123h41v82h41v41h82v41h-246v41h41v41h164v41h41v123h-82v82h245v41h82v-41h-41v-123h-41v-82h-41v-41h287v-41h-41v-41h-287v-123h-41v-82h-40v-123h-41v-41h-41v-41h-41v-82h41v-82h-41v-40h-41
v-123h-41v-123h-41v-82h-41v-123h-41zM1065 246v-41h-41v-41h-41v-41h-41v-41h-41v-41h-82v-41h-205v246h41v82h41v123h41v81h41v123h41v82h41v123h-164v-41h-82v-41h-41v-41h-41v-41h-40v-41h-41v-41h-41v41h41v82h41v41h40v41h41v41h41v41h82v41h41v41h205v-41h82v-246
h-41v-82h-41v-122h-41v-82h-41v-123h-41v-82h-41v-82h123v41h82v41h41v41h41z" />
    <glyph glyph-name="Itilde" unicode="&#x128;" horiz-adv-x="655" 
d="M451 82v-82h-574v82h164v41h41v41h41v123h41v82h41v123h41v81h41v123h41v123h41v82h41v123h41v123h41v82h40v82h-40v41h-82v41h-41v41h614v-41h-41v-41h-164v-41h-41v-82h-41v-123h-41v-82h-41v-123h-41v-82h-41v-123h-40v-123h-41v-81h-41v-123h-41v-82h-41v-205h123z
M492 1638v-41h-41v41h41v82h40v41h41v82h82v41h82v-41h82v-41h82v-41h205v-82h-41v-41h-41v-41h-205v41h-41v41h-82v41h-123v-41h-41v-41h-40zM1147 1761h-41v41h41v41h41v-41h-41v-41z" />
    <glyph glyph-name="itilde" unicode="&#x129;" horiz-adv-x="573" 
d="M287 41v-41h-205v41h-41v164h41v82h41v123h41v82h41v122h41v82h41v164h-41v41h-41v41h205v41h122v-123h-40v-82h-41v-82h-41v-123h-41v-122h-41v-82h-41v-123h-41v-123h123v-41h-41v-41h-41zM410 123h-41v41h41v41h41v41h41v-41h-41v-41h-41v-41zM246 1188v-41h-41v41h41
v82h41v41h41v82h82v41h82v-41h81v-41h82v-41h205v-82h-41v-41h-41v-41h-205v41h-41v41h-81v41h-123v-41h-41v-41h-41zM901 1311h-41v41h41v41h41v-41h-41v-41z" />
    <glyph glyph-name="Imacron" unicode="&#x12a;" horiz-adv-x="655" 
d="M451 82v-82h-574v82h164v41h41v41h41v123h41v82h41v123h41v81h41v123h41v123h41v82h41v123h41v123h41v82h40v82h-40v41h-82v41h-41v41h614v-41h-41v-41h-164v-41h-41v-82h-41v-123h-41v-82h-41v-123h-41v-82h-41v-123h-40v-123h-41v-81h-41v-123h-41v-82h-41v-205h123z
M532 1761h574v-82h-614v41h40v41z" />
    <glyph glyph-name="imacron" unicode="&#x12b;" horiz-adv-x="573" 
d="M287 41v-41h-205v41h-41v164h41v82h41v123h41v82h41v122h41v82h41v164h-41v41h-41v41h205v41h122v-123h-40v-82h-41v-82h-41v-123h-41v-122h-41v-82h-41v-123h-41v-123h123v-41h-41v-41h-41zM410 123h-41v41h41v41h41v41h41v-41h-41v-41h-41v-41zM287 1311h573v-82h-614
v41h41v41z" />
    <glyph glyph-name="Ibreve" unicode="&#x12c;" horiz-adv-x="655" 
d="M451 82v-82h-574v82h164v41h41v41h41v123h41v82h41v123h41v81h41v123h41v123h41v82h41v123h41v123h41v82h40v82h-40v41h-82v41h-41v41h614v-41h-41v-41h-164v-41h-41v-82h-41v-123h-41v-82h-41v-123h-41v-82h-41v-123h-40v-123h-41v-81h-41v-123h-41v-82h-41v-205h123z
M573 1884v-82h41v-41h82v-41h164v41h123v41h41v41h41v-82h-41v-82h-41v-41h-41v-41h-82v-41h-164v41h-82v41h-41v41h-41v205h41z" />
    <glyph glyph-name="ibreve" unicode="&#x12d;" horiz-adv-x="573" 
d="M287 41v-41h-205v41h-41v164h41v82h41v123h41v82h41v122h41v82h41v164h-41v41h-41v41h205v41h122v-123h-40v-82h-41v-82h-41v-123h-41v-122h-41v-82h-41v-123h-41v-123h123v-41h-41v-41h-41zM410 123h-41v41h41v41h41v41h41v-41h-41v-41h-41v-41zM328 1434v-82h41v-41h82
v-41h163v41h123v41h41v41h41v-82h-41v-82h-41v-41h-41v-41h-82v-41h-163v41h-82v41h-41v41h-41v205h41z" />
    <glyph glyph-name="Iogonek" unicode="&#x12e;" horiz-adv-x="655" 
d="M451 82v-123h-82v-41h-41v-41h-41v-41h-41v-41h-41v-123h164v41h41v-82h-41v-41h-82v-41h-82v41h-82v41h-41v123h41v82h41v41h41v41h82v41h82v41h-492v82h164v41h41v41h41v123h41v82h41v123h41v81h41v123h41v123h41v82h41v123h41v123h41v82h40v82h-40v41h-82v41h-41v41
h614v-41h-41v-41h-164v-41h-41v-82h-41v-123h-41v-82h-41v-123h-41v-82h-41v-123h-40v-123h-41v-81h-41v-123h-41v-82h-41v-205h123z" />
    <glyph glyph-name="iogonek" unicode="&#x12f;" horiz-adv-x="573" 
d="M451 1188v82h41v82h40v41h205v-41h-41v-82h-41v-82h-204zM287 41v-82h-82v-41h-41v-41h-41v-41h-41v-41h-41v-123h164v41h41v-82h-41v-41h-82v-41h-82v41h-82v41h-41v123h41v82h41v41h41v41h82v41h82v41h-123v41h-41v164h41v82h41v123h41v82h41v122h41v82h41v164h-41v41
h-41v41h205v41h122v-123h-40v-82h-41v-82h-41v-123h-41v-122h-41v-82h-41v-123h-41v-123h123v-41h-41v-41h-41zM410 123h-41v41h41v41h41v41h41v-41h-41v-41h-41v-41z" />
    <glyph glyph-name="Idotaccent" unicode="&#x130;" horiz-adv-x="655" 
d="M451 82v-82h-574v82h164v41h41v41h41v123h41v82h41v123h41v81h41v123h41v123h41v82h41v123h41v123h41v82h40v82h-40v41h-82v41h-41v41h614v-41h-41v-41h-164v-41h-41v-82h-41v-123h-41v-82h-41v-123h-41v-82h-41v-123h-40v-123h-41v-81h-41v-123h-41v-82h-41v-205h123z
M645 1638v82h41v82h41v41h164v-123h-41v-82h-205z" />
    <glyph glyph-name="dotlessi" unicode="&#x131;" horiz-adv-x="573" 
d="M287 41v-41h-205v41h-41v164h41v82h41v123h41v82h41v122h41v82h41v164h-41v41h-41v41h205v41h122v-123h-40v-82h-41v-82h-41v-123h-41v-122h-41v-82h-41v-123h-41v-123h123v-41h-41v-41h-41zM410 123h-41v41h41v41h41v41h41v-41h-41v-41h-41v-41z" />
    <glyph glyph-name="IJ" unicode="&#x132;" horiz-adv-x="1802" 
d="M451 82v-82h-574v82h164v41h41v41h41v123h41v82h41v123h41v81h41v123h41v123h41v82h41v123h41v123h41v82h40v82h-40v41h-82v41h-41v41h614v-41h-41v-41h-164v-41h-41v-82h-41v-123h-41v-82h-41v-123h-41v-82h-41v-123h-40v-123h-41v-81h-41v-123h-41v-82h-41v-205h123z
M1843 1229v-82h-41v-123h-41v-123h-41v-82h-41v-123h-41v-82h-41v-122h-41v-123h-40v-82h-41v-82h-41v-41h-41v-41h-41v-41h-41v-41h-82v-41h-164v-41h-123v41h-123v41h-82v41h-41v41h-41v82h-41v82h41v82h41v41h123v-41h41v-82h-41v-41h-41v-82h41v-41h41v-41h246v41h82v41
h41v41h41v82h41v123h41v82h41v122h41v82h41v123h41v82h40v123h41v123h41v123h41v41h-41v41h-82v41h-40v41h614v-41h-41v-41h-164v-41h-41v-82h-41z" />
    <glyph glyph-name="ij" unicode="&#x133;" 
d="M451 1188v82h41v82h40v41h205v-41h-41v-82h-41v-82h-204zM287 41v-41h-205v41h-41v164h41v82h41v123h41v82h41v122h41v82h41v164h-41v41h-41v41h205v41h122v-123h-40v-82h-41v-82h-41v-123h-41v-122h-41v-82h-41v-123h-41v-123h123v-41h-41v-41h-41zM410 123h-41v41h41
v41h41v41h41v-41h-41v-41h-41v-41zM1024 1188v41h41v123h41v41h205v-41h-41v-82h-41v-82h-205zM410 -451v-41h-164v41h-82v41h-41v164h82v41h41v-41h41v-82h-41v-82h123v41h41v41h41v41h41v123h40v123h41v82h41v123h41v82h41v123h41v123h41v81h41v123h41v164h-41v41h-41v41
h205v41h164v-41h-41v-82h-41v-123h-41v-82h-41v-123h-41v-122h-41v-82h-41v-123h-41v-82h-41v-123h-41v-82h-41v-123h-41v-82h-41v-41h-41v-41h-41v-41h-40v-41h-82z" />
    <glyph glyph-name="Jcircumflex" unicode="&#x134;" horiz-adv-x="1146" 
d="M1188 1229v-82h-41v-123h-41v-123h-41v-82h-41v-123h-41v-82h-41v-122h-41v-123h-41v-82h-41v-82h-41v-41h-41v-41h-41v-41h-41v-41h-82v-41h-163v-41h-123v41h-123v41h-82v41h-41v41h-41v82h-41v82h41v82h41v41h123v-41h41v-82h-41v-41h-41v-82h41v-41h41v-41h246v41h81
v41h41v41h41v82h41v123h41v82h41v122h41v82h41v123h41v82h41v123h41v123h41v123h41v41h-41v41h-82v41h-41v41h615v-41h-41v-41h-164v-41h-41v-82h-41zM1024 1597v-41h-41v41h41v41h41v41h41v41h41v41h41v41h41v41h246v-123h41v-82h40v-82h-40v41h-82v41h-82v41h-41v41h41v41
h-41v-41h-82v-41h-82v-41h-82v-41h-41z" />
    <glyph glyph-name="jcircumflex" unicode="&#x135;" horiz-adv-x="532" 
d="M-164 -451v-41h-164v41h-82v41h-41v164h82v41h41v-41h41v-82h-41v-82h123v41h41v41h41v41h41v123h41v123h41v82h41v123h41v82h41v123h41v123h41v81h41v123h41v164h-41v41h-41v41h205v41h163v-41h-41v-82h-40v-123h-41v-82h-41v-123h-41v-122h-41v-82h-41v-123h-41v-82
h-41v-123h-41v-82h-41v-123h-41v-82h-41v-41h-41v-41h-41v-41h-41v-41h-82zM287 1147v-41h-41v41h41v41h41v41h41v41h41v41h41v41h41v41h245v-123h41v-82h41v-82h-41v41h-82v41h-82v41h-41v41h41v41h-41v-41h-81v-41h-82v-41h-82v-41h-41z" />
    <glyph glyph-name="Kcommaaccent" unicode="&#x136;" horiz-adv-x="1474" 
d="M-123 0v41h41v41h123v41h41v41h41v82h41v123h41v82h41v122h41v82h41v123h41v123h41v82h41v123h41v82h40v164h-122v41h-41v41h614v-41h-41v-41h-123v-41h-41v-41h-41v-82h-41v-82h-41v-123h-41v-123h-41v-82h-41v-82h-40v-41h-41v-41h41v41h40v41h82v41h41v41h41v41h82v41
h41v41h41v41h82v41h41v41h41v41h82v41h41v41h41v41h82v41h41v41h41v82h-82v82h450v-82h-123v-41h-81v-41h-82v-41h-41v-41h-82v-41h-41v-41h-41v-41h-82v-41h-41v-41h-41v-41h-82v-41h-41v-41h-41v-82h41v-123h41v-123h41v-81h41v-123h41v-82h41v-123h41v-41h82v-82h-328v82
h-41v123h-41v123h-41v123h-41v81h-41v123h-41v41h-41v-41h-41v-41h-41v-41h-81v-41h-41v-81h-41v-123h-41v-82h-41v-164h123v-41h41v-41h-615zM492 -492v-40h-82v40h82v41h40v41h41v82h-81v41h-41v123h41v41h40v41h123v-41h41v-246h-41v-41h-41v-41h-41v-41h-81zM614 -246
h-41v-82h41v82z" />
    <glyph glyph-name="kcommaaccent" unicode="&#x137;" horiz-adv-x="1064" 
d="M205 123v-123h-205v41h41v123h41v123h41v82h41v123h41v81h41v123h41v82h41v123h41v123h41v82h41v123h41v123h-41v41h-41v41h245v41h82v-82h-41v-123h-41v-82h-41v-123h-41v-82h-41v-123h-40v-123h-41v-82h-41v-82h-41v-81h-41v-41h-41v-41h41v41h41v41h41v40h41v41h41v82
h40v41h41v41h41v41h41v41h41v41h82v41h41v41h82v41h164v-41h41v-123h-41v-41h-123v82h-123v-41h-41v-41h-41v-41h-82v-41h-41v-82h41v-82h41v-163h41v-123h41v-123h123v-41h-41v-41h-41v-41h-164v41h-41v41h-41v164h-41v123h-40v123h-41v-41h-41v-41h-41v-41h-41v-41h-41
v-82h-41v-123h-41zM942 123h-41v41h41v41h41v-41h-41v-41zM246 -492v-40h-82v40h82v41h41v41h41v82h-82v41h-41v123h41v41h41v41h123v-41h41v-246h-41v-41h-41v-41h-41v-41h-82zM369 -246h-41v-82h41v82z" />
    <glyph glyph-name="kgreenlandic" unicode="&#x138;" horiz-adv-x="1064" 
d="M573 983v-41h-41v-82h-40v-123h-41v-82h-41v-123h-41v-40h-41v-41h41v41h41v40h41v41h41v41h40v41h41v82h41v41h41v41h82v41h41v41h41v41h82v41h164v-41h41v-123h-41v-41h-123v82h-82v-41h-82v-41h-41v-41h-41v-41h-41v-164h41v-122h41v-164h41v-82h41v-41h82v41h41v41
h41v-41h-41v-82h-41v-41h-82v-41h-164v41h-41v82h-41v164h-41v123h-40v82h-41v-41h-41v-41h-41v-41h-41v-41h-41v-123h-41v-82h-41v-123h-205v41h41v82h41v123h41v123h41v82h41v122h41v82h41v123h41v41h-41v41h-41v41h-41v41h205v41h163z" />
    <glyph glyph-name="Lacute" unicode="&#x139;" horiz-adv-x="1310" 
d="M1065 123v-123h-1188v41h41v41h123v41h41v41h41v41h41v123h41v123h41v81h41v123h41v123h41v82h41v123h41v123h41v82h40v164h-122v82h573v-82h-164v-41h-41v-41h-41v-82h-41v-123h-41v-82h-41v-123h-41v-123h-41v-82h-40v-123h-41v-81h-41v-123h-41v-123h-41v-82h-82v-41
h573v41h82v41h41v41h41v41h41v41h41v41h41v82h41v41h41v41h82v-41h-41v-82h-41v-82h-41v-82h-41v-82h-41zM614 1556v41h41v41h41v41h41v41h41v41h41v41h41v82h82v41h123v-164h-82v-41h-82v-41h-41v-41h-123v-41h-41v-41h-82z" />
    <glyph glyph-name="lacute" unicode="&#x13a;" horiz-adv-x="573" 
d="M737 1475v-82h-41v-82h-41v-123h-41v-82h-41v-123h-41v-82h-40v-123h-41v-82h-41v-123h-41v-81h-41v-123h-41v-123h-41v-123h123v-41h-41v-41h-41v-41h-205v41h-41v164h41v82h41v123h41v82h41v122h41v82h41v123h41v82h41v123h41v82h41v123h41v123h-82v82h245v41h82z
M410 123h-41v41h41v41h41v41h41v-41h-41v-41h-41v-41zM492 1556v41h40v41h41v41h41v41h41v41h41v41h41v82h82v41h123v-164h-82v-41h-82v-41h-41v-41h-123v-41h-41v-41h-81z" />
    <glyph glyph-name="Lcommaaccent" unicode="&#x13b;" horiz-adv-x="1310" 
d="M1065 123v-123h-1188v41h41v41h123v41h41v41h41v41h41v123h41v123h41v81h41v123h41v123h41v82h41v123h41v123h41v82h40v164h-122v82h573v-82h-164v-41h-41v-41h-41v-82h-41v-123h-41v-82h-41v-123h-41v-123h-41v-82h-40v-123h-41v-81h-41v-123h-41v-123h-41v-82h-82v-41
h573v41h82v41h41v41h41v41h41v41h41v41h41v82h41v41h41v41h82v-41h-41v-82h-41v-82h-41v-82h-41v-82h-41zM369 -492v-40h-82v40h82v41h41v41h41v82h-82v41h-41v123h41v41h41v41h122v-41h41v-246h-41v-41h-40v-41h-41v-41h-82zM492 -246h-41v-82h41v82z" />
    <glyph glyph-name="lcommaaccent" unicode="&#x13c;" horiz-adv-x="573" 
d="M737 1475v-82h-41v-82h-41v-123h-41v-82h-41v-123h-41v-82h-40v-123h-41v-82h-41v-123h-41v-81h-41v-123h-41v-123h-41v-123h123v-41h-41v-41h-41v-41h-205v41h-41v164h41v82h41v123h41v82h41v122h41v82h41v123h41v82h41v123h41v82h41v123h41v123h-82v82h245v41h82z
M410 123h-41v41h41v41h41v41h41v-41h-41v-41h-41v-41zM123 -492v-40h-82v40h82v41h41v41h41v82h-82v41h-41v123h41v41h41v41h123v-41h41v-246h-41v-41h-41v-41h-41v-41h-82zM246 -246h-41v-82h41v82z" />
    <glyph glyph-name="Lcaron" unicode="&#x13d;" horiz-adv-x="1310" 
d="M1065 123v-123h-1188v41h41v41h123v41h41v41h41v41h41v123h41v123h41v81h41v123h41v123h41v82h41v123h41v123h41v82h40v164h-122v82h573v-82h-164v-41h-41v-41h-41v-82h-41v-123h-41v-82h-41v-123h-41v-123h-41v-82h-40v-123h-41v-81h-41v-123h-41v-123h-41v-82h-82v-41
h573v41h82v41h41v41h41v41h41v41h41v41h41v82h41v41h41v41h82v-41h-41v-82h-41v-82h-41v-82h-41v-82h-41zM1229 1065v-41h-82v41h82v41h41v41h41v82h-82v41h-41v123h41v41h41v41h123v-41h41v-246h-41v-41h-41v-41h-41v-41h-82zM1352 1311h-41v-82h41v82z" />
    <glyph glyph-name="lcaron" unicode="&#x13e;" horiz-adv-x="614" 
d="M737 1475v-82h-41v-82h-41v-123h-41v-82h-41v-123h-41v-82h-40v-123h-41v-82h-41v-123h-41v-81h-41v-123h-41v-123h-41v-123h123v-41h-41v-41h-41v-41h-205v41h-41v164h41v82h41v123h41v82h41v122h41v82h41v123h41v82h41v123h41v82h41v123h41v123h-82v82h245v41h82z
M410 123h-41v41h41v41h41v41h41v-41h-41v-41h-41v-41zM819 1065v-41h-82v41h82v41h41v41h41v82h-82v41h-41v123h41v41h41v41h123v-41h41v-246h-41v-41h-41v-41h-41v-41h-82zM942 1311h-41v-82h41v82z" />
    <glyph glyph-name="Ldot" unicode="&#x13f;" horiz-adv-x="1310" 
d="M1065 123v-123h-1188v41h41v41h123v41h41v41h41v41h41v123h41v123h41v81h41v123h41v123h41v82h41v123h41v123h41v82h40v164h-122v82h573v-82h-164v-41h-41v-41h-41v-82h-41v-123h-41v-82h-41v-123h-41v-123h-41v-82h-40v-123h-41v-81h-41v-123h-41v-123h-41v-82h-82v-41
h573v41h82v41h41v41h41v41h41v41h41v41h41v82h41v41h41v41h82v-41h-41v-82h-41v-82h-41v-82h-41v-82h-41zM1024 778v82h41v82h41v41h164v-123h-41v-82h-205z" />
    <glyph glyph-name="ldot" unicode="&#x140;" horiz-adv-x="614" 
d="M737 1475v-82h-41v-82h-41v-123h-41v-82h-41v-123h-41v-82h-40v-123h-41v-82h-41v-123h-41v-81h-41v-123h-41v-123h-41v-123h123v-41h-41v-41h-41v-41h-205v41h-41v164h41v82h41v123h41v82h41v122h41v82h41v123h41v82h41v123h41v82h41v123h41v123h-82v82h245v41h82z
M410 123h-41v41h41v41h41v41h41v-41h-41v-41h-41v-41zM532 573v82h41v82h41v41h164v-123h-41v-82h-205z" />
    <glyph glyph-name="Lslash" unicode="&#x141;" horiz-adv-x="1310" 
d="M1065 123v-123h-1188v41h41v41h123v41h41v41h41v82h41v82h41v123h41v122h82v41h41v41h41v41h-41v-41h-82v-41h-41v-41h-82v-41h-82v82h82v41h41v41h82v41h41v41h41v82h41v123h41v123h41v82h40v164h-122v82h573v-82h-164v-41h-41v-41h-41v-82h-41v-123h-41v-82h-41v-41h82
v41h82v41h82v41h41v-82h-41v-41h-82v-41h-82v-41h-41v-41h-82v-82h-41v-82h-40v-123h-41v-81h-41v-123h-41v-123h-41v-82h-82v-41h573v41h82v41h41v41h41v41h41v41h41v41h41v82h41v41h41v41h82v-41h-41v-82h-41v-82h-41v-82h-41v-82h-41z" />
    <glyph glyph-name="lslash" unicode="&#x142;" horiz-adv-x="573" 
d="M287 41v-41h-205v41h-41v164h41v82h41v123h41v82h41v81h41v41h41v41h41v41h-41v-41h-82v-41h-41v-41h-82v-41h-82v82h82v41h82v41h41v41h82v82h41v82h41v123h41v82h41v123h41v123h-82v82h245v41h82v-82h-41v-82h-41v-123h-41v-82h-41v-123h-41v-82h41v41h41v41h82v41h82
v-82h-82v-41h-82v-41h-41v-41h-81v-41h-41v-82h-41v-123h-41v-122h-41v-82h-41v-123h-41v-123h123v-41h-41v-41h-41zM410 123h-41v41h41v41h41v41h41v-41h-41v-41h-41v-41z" />
    <glyph glyph-name="Nacute" unicode="&#x143;" horiz-adv-x="1515" 
d="M1556 1188v-82h-40v-123h-41v-123h-41v-82h-41v-123h-41v-82h-41v-122h-41v-123h-41v-82h-41v-123h-41v-123h-41v41h-41v82h-41v82h-41v82h-41v82h-41v123h-41v40h-41v123h-41v82h-41v82h-41v82h-41v82h-41v82h-82v-123h-40v-82h-41v-123h-41v-123h-41v-82h-41v-122h-41
v-82h-41v-246h123v-82h-492v41h41v41h123v41h41v41h41v82h41v123h41v82h41v122h41v123h41v82h41v123h41v123h41v82h41v205h-41v41h-41v82h286v-123h41v-82h41v-82h41v-82h41v-82h41v-82h41v-82h41v-82h41v-82h41v-82h41v-122h41v-41h-41v-41h82v123h41v122h41v82h41v123h41
v123h41v82h41v123h41v205h-123v82h491v-41h-41v-41h-123v-41h-41v-41h-41v-82h-41zM942 1556v41h41v41h41v41h41v41h41v41h41v41h41v82h82v41h123v-164h-82v-41h-82v-41h-41v-41h-123v-41h-41v-41h-82z" />
    <glyph glyph-name="nacute" unicode="&#x144;" horiz-adv-x="1146" 
d="M819 246v-123h123v41h41v41h41v41h41v-41h-41v-41h-41v-82h-82v-41h-41v-41h-205v41h-41v123h41v123h41v82h41v123h41v81h41v123h41v164h-164v-41h-41v-41h-41v-41h-41v-41h-41v-41h-40v-41h-41v-41h-41v41h-41v-41h41v-81h-41v-82h-41v-123h-41v-82h-41v-123h-41v-82
h-205v41h41v82h41v123h41v82h41v123h41v81h41v123h41v82h41v123h-41v41h-82v41h205v41h163v-41h-41v-123h-40v-82h-41v-41h-41v-41h41v41h41v41h40v41h41v41h41v41h41v41h41v41h82v41h205v-41h41v-41h41v-164h-41v-82h-41v-123h-41v-81h-41v-123h-41v-82h-41zM696 1106v41
h41v41h41v41h41v41h41v41h41v41h41v82h82v41h123v-164h-82v-41h-82v-41h-41v-41h-123v-41h-41v-41h-82z" />
    <glyph glyph-name="Ncommaaccent" unicode="&#x145;" horiz-adv-x="1515" 
d="M1556 1188v-82h-40v-123h-41v-123h-41v-82h-41v-123h-41v-82h-41v-122h-41v-123h-41v-82h-41v-123h-41v-123h-41v41h-41v82h-41v82h-41v82h-41v82h-41v123h-41v40h-41v123h-41v82h-41v82h-41v82h-41v82h-41v82h-82v-123h-40v-82h-41v-123h-41v-123h-41v-82h-41v-122h-41
v-82h-41v-246h123v-82h-492v41h41v41h123v41h41v41h41v82h41v123h41v82h41v122h41v123h41v82h41v123h41v123h41v82h41v205h-41v41h-41v82h286v-123h41v-82h41v-82h41v-82h41v-82h41v-82h41v-82h41v-82h41v-82h41v-82h41v-122h41v-41h-41v-41h82v123h41v122h41v82h41v123h41
v123h41v82h41v123h41v205h-123v82h491v-41h-41v-41h-123v-41h-41v-41h-41v-82h-41zM492 -492v-40h-82v40h82v41h40v41h41v82h-81v41h-41v123h41v41h40v41h123v-41h41v-246h-41v-41h-41v-41h-41v-41h-81zM614 -246h-41v-82h41v82z" />
    <glyph glyph-name="ncommaaccent" unicode="&#x146;" horiz-adv-x="1146" 
d="M819 246v-123h123v41h41v41h41v41h41v-41h-41v-41h-41v-82h-82v-41h-41v-41h-205v41h-41v123h41v123h41v82h41v123h41v81h41v123h41v164h-164v-41h-41v-41h-41v-41h-41v-41h-41v-41h-40v-41h-41v-41h-41v41h-41v-41h41v-81h-41v-82h-41v-123h-41v-82h-41v-123h-41v-82
h-205v41h41v82h41v123h41v82h41v123h41v81h41v123h41v82h41v123h-41v41h-82v41h205v41h163v-41h-41v-123h-40v-82h-41v-41h-41v-41h41v41h41v41h40v41h41v41h41v41h41v41h41v41h82v41h205v-41h41v-41h41v-164h-41v-82h-41v-123h-41v-81h-41v-123h-41v-82h-41zM246 -492v-40
h-82v40h82v41h41v41h41v82h-82v41h-41v123h41v41h41v41h123v-41h41v-246h-41v-41h-41v-41h-41v-41h-82zM369 -246h-41v-82h41v82z" />
    <glyph glyph-name="Ncaron" unicode="&#x147;" horiz-adv-x="1515" 
d="M1556 1188v-82h-40v-123h-41v-123h-41v-82h-41v-123h-41v-82h-41v-122h-41v-123h-41v-82h-41v-123h-41v-123h-41v41h-41v82h-41v82h-41v82h-41v82h-41v123h-41v40h-41v123h-41v82h-41v82h-41v82h-41v82h-41v82h-82v-123h-40v-82h-41v-123h-41v-123h-41v-82h-41v-122h-41
v-82h-41v-246h123v-82h-492v41h41v41h123v41h41v41h41v82h41v123h41v82h41v122h41v123h41v82h41v123h41v123h41v82h41v205h-41v41h-41v82h286v-123h41v-82h41v-82h41v-82h41v-82h41v-82h41v-82h41v-82h41v-82h41v-82h41v-122h41v-41h-41v-41h82v123h41v122h41v82h41v123h41
v123h41v82h41v123h41v205h-123v82h491v-41h-41v-41h-123v-41h-41v-41h-41v-82h-41zM1229 1638v-41h-205v82h-41v123h-41v82h-41v41h41v-41h82v-41h41v-41h82v-82h-82v-41h82v41h82v41h41v41h82v41h82v41h41v-41h-41v-41h-41v-41h-41v-41h-41v-41h-41v-41h-41z" />
    <glyph glyph-name="ncaron" unicode="&#x148;" horiz-adv-x="1146" 
d="M819 246v-123h123v41h41v41h41v41h41v-41h-41v-41h-41v-82h-82v-41h-41v-41h-205v41h-41v123h41v123h41v82h41v123h41v81h41v123h41v164h-164v-41h-41v-41h-41v-41h-41v-41h-41v-41h-40v-41h-41v-41h-41v41h-41v-41h41v-81h-41v-82h-41v-123h-41v-82h-41v-123h-41v-82
h-205v41h41v82h41v123h41v82h41v123h41v81h41v123h41v82h41v123h-41v41h-82v41h205v41h163v-41h-41v-123h-40v-82h-41v-41h-41v-41h41v41h41v41h40v41h41v41h41v41h41v41h41v41h82v41h205v-41h41v-41h41v-164h-41v-82h-41v-123h-41v-81h-41v-123h-41v-82h-41zM983 1188v-41
h-205v82h-41v123h-41v82h-41v41h41v-41h82v-41h41v-41h82v-82h-82v-41h82v41h82v41h41v41h82v41h82v41h41v-41h-41v-41h-41v-41h-41v-41h-41v-41h-41v-41h-41z" />
    <glyph glyph-name="Eng" unicode="&#x14a;" horiz-adv-x="1515" 
d="M1556 1188v-82h-40v-123h-41v-123h-41v-82h-41v-123h-41v-123h-41v-81h-41v-123h-41v-82h-41v-123h-41v-123h-41v-82h-41v-123h-41v-82h-41v-82h-41v-41h-41v-41h-41v-41h-82v-40h-246v40h-81v41h-41v41h-41v82h-41v123h41v82h41v41h122v-41h41v-82h-41v-41h-40v-123h40
v-41h41v-41h164v41h82v41h41v41h41v82h41v123h41v82h41v123h41v41h-41v82h-41v82h-41v82h-41v123h-41v40h-41v123h-41v82h-41v82h-41v82h-41v82h-41v82h-82v-123h-40v-82h-41v-123h-41v-123h-41v-82h-41v-122h-41v-82h-41v-246h123v-82h-492v41h41v41h123v41h41v41h41v82h41
v123h41v82h41v122h41v123h41v82h41v123h41v123h41v82h41v205h-41v41h-41v82h286v-123h41v-82h41v-82h41v-82h41v-82h41v-82h41v-82h41v-82h41v-82h41v-82h41v-122h41v-41h-41v-41h82v123h41v122h41v123h41v82h41v123h41v123h41v82h41v205h-123v82h491v-41h-41v-41h-123v-41
h-41v-41h-41v-82h-41z" />
    <glyph glyph-name="eng" unicode="&#x14b;" 
d="M369 -451v-41h-164v41h-82v82h-41v82h41v41h41v41h41v-41h82v-82h-82v-82h164v41h41v82h41v82h41v82h40v123h41v82h41v123h41v82h41v123h41v82h41v81h41v123h41v164h-164v-41h-41v-41h-41v-41h-82v-82h-40v-41h-41v-41h-41v-41h-41v-122h-41v-82h-41v-123h-41v-82h-41
v-123h-205v41h41v82h41v123h41v123h41v82h41v122h41v82h41v123h41v41h-41v41h-41v41h-41v41h205v41h163v-41h-41v-82h-40v-82h-41v-82h-41v-41h41v41h41v41h40v41h41v41h41v41h41v41h41v41h82v41h205v-41h41v-41h41v-123h-41v-123h-41v-123h-41v-81h-41v-123h-41v-82h-41
v-82h-41v-123h-41v-82h-41v-123h-41v-82h-41v-82h-41v-41h-41v-41h-81v-41h-82z" />
    <glyph glyph-name="Omacron" unicode="&#x14c;" horiz-adv-x="1515" 
d="M942 41v-41h-450v41h-82v41h-82v41h-41v41h-41v82h-41v82h-41v450h41v82h41v123h41v41h41v82h41v41h41v41h41v41h41v41h40v41h41v41h82v41h82v41h492v-41h82v-41h41v-41h41v-41h41v-41h41v-82h41v-164h40v-205h-40v-164h-41v-82h-41v-81h-41v-82h-41v-41h-41v-41h-41v-82
h-41v-41h-82v-41h-41v-41h-82v-41h-82zM532 82h328v41h82v41h41v41h41v41h41v41h41v41h41v82h41v82h41v81h41v123h41v451h-41v82h-41v41h-41v41h-41v41h-328v-41h-82v-41h-41v-41h-41v-41h-41v-41h-41v-82h-41v-41h-40v-123h-41v-82h-41v-164h-41v-327h41v-123h41v-41h41
v-41h40v-41zM860 1761h574v-82h-615v41h41v41z" />
    <glyph glyph-name="omacron" unicode="&#x14d;" horiz-adv-x="1024" 
d="M573 41v-41h-327v41h-82v41h-41v41h-41v123h-41v164h41v163h41v82h41v82h41v41h41v41h41v41h41v41h82v41h82v41h245v-41h82v-41h41v-41h41v-41h41v-164h41v-82h-41v-163h-41v-123h-41v-41h-41v-41h-41v-82h-82v-41h-41v-41h-82zM287 82h245v41h41v41h41v41h41v82h41v82
h41v163h41v246h-41v82h-41v41h-164v-41h-40v-41h-82v-82h-41v-41h-41v-123h-41v-122h-41v-287h41v-82zM451 1311h573v-82h-614v41h41v41z" />
    <glyph glyph-name="Obreve" unicode="&#x14e;" horiz-adv-x="1515" 
d="M942 41v-41h-450v41h-82v41h-82v41h-41v41h-41v82h-41v82h-41v450h41v82h41v123h41v41h41v82h41v41h41v41h41v41h41v41h40v41h41v41h82v41h82v41h492v-41h82v-41h41v-41h41v-41h41v-41h41v-82h41v-164h40v-205h-40v-164h-41v-82h-41v-81h-41v-82h-41v-41h-41v-41h-41v-82
h-41v-41h-82v-41h-41v-41h-82v-41h-82zM532 82h328v41h82v41h41v41h41v41h41v41h41v41h41v82h41v82h41v81h41v123h41v451h-41v82h-41v41h-41v41h-41v41h-328v-41h-82v-41h-41v-41h-41v-41h-41v-41h-41v-82h-41v-41h-40v-123h-41v-82h-41v-164h-41v-327h41v-123h41v-41h41
v-41h40v-41zM901 1884v-82h41v-41h82v-41h164v41h123v41h41v41h41v-82h-41v-82h-41v-41h-41v-41h-82v-41h-164v41h-82v41h-41v41h-41v205h41z" />
    <glyph glyph-name="obreve" unicode="&#x14f;" horiz-adv-x="1024" 
d="M573 41v-41h-327v41h-82v41h-41v41h-41v123h-41v164h41v163h41v82h41v82h41v41h41v41h41v41h41v41h82v41h82v41h245v-41h82v-41h41v-41h41v-41h41v-164h41v-82h-41v-163h-41v-123h-41v-41h-41v-41h-41v-82h-82v-41h-41v-41h-82zM287 82h245v41h41v41h41v41h41v82h41v82
h41v163h41v246h-41v82h-41v41h-164v-41h-40v-41h-82v-82h-41v-41h-41v-123h-41v-122h-41v-287h41v-82zM492 1434v-82h40v-41h82v-41h164v41h123v41h41v41h41v-82h-41v-82h-41v-41h-41v-41h-82v-41h-164v41h-82v41h-40v41h-41v205h41z" />
    <glyph glyph-name="Ohungarumlaut" unicode="&#x150;" horiz-adv-x="1515" 
d="M942 41v-41h-450v41h-82v41h-82v41h-41v41h-41v82h-41v82h-41v450h41v82h41v123h41v41h41v82h41v41h41v41h41v41h41v41h40v41h41v41h82v41h82v41h492v-41h82v-41h41v-41h41v-41h41v-41h41v-82h41v-164h40v-205h-40v-164h-41v-82h-41v-81h-41v-82h-41v-41h-41v-41h-41v-82
h-41v-41h-82v-41h-41v-41h-82v-41h-82zM532 82h328v41h82v41h41v41h41v41h41v41h41v41h41v82h41v82h41v81h41v123h41v451h-41v82h-41v41h-41v41h-41v41h-328v-41h-82v-41h-41v-41h-41v-41h-41v-41h-41v-82h-41v-41h-40v-123h-41v-82h-41v-164h-41v-327h41v-123h41v-41h41
v-41h40v-41zM1024 1843h41v41h41v41h123v-123h-41v-41h-41v-41h-82v-41h-41v-41h-82v-41h-82v41h41v41h41v82h41v41h41v41zM1352 1843h41v41h41v41h122v-123h-40v-41h-41v-41h-82v-41h-41v-41h-82v-41h-82v41h41v41h41v82h41v41h41v41z" />
    <glyph glyph-name="ohungarumlaut" unicode="&#x151;" horiz-adv-x="1024" 
d="M573 41v-41h-327v41h-82v41h-41v41h-41v123h-41v164h41v163h41v82h41v82h41v41h41v41h41v41h41v41h82v41h82v41h245v-41h82v-41h41v-41h41v-41h41v-164h41v-82h-41v-163h-41v-123h-41v-41h-41v-41h-41v-82h-82v-41h-41v-41h-82zM287 82h245v41h41v41h41v41h41v82h41v82
h41v163h41v246h-41v82h-41v41h-164v-41h-40v-41h-82v-82h-41v-41h-41v-123h-41v-122h-41v-287h41v-82zM614 1393h41v41h41v41h123v-123h-41v-41h-41v-41h-82v-41h-41v-41h-82v-41h-81v41h41v41h40v82h41v41h41v41zM942 1393h41v41h41v41h123v-123h-41v-41h-41v-41h-82v-41
h-41v-41h-82v-41h-82v41h41v41h41v82h41v41h41v41z" />
    <glyph glyph-name="OE" unicode="&#x152;" horiz-adv-x="2129" 
d="M1843 0h-1229v41h-122v41h-82v41h-41v41h-82v41h-41v82h-41v82h-41v409h41v123h41v82h41v41h41v82h41v41h41v41h41v41h81v41h41v41h82v41h82v41h164v41h1434v-82h-41v-123h-41v-123h-41v-123h-41v-41h-41v328h-41v41h-41v41h-492v-123h-40v-82h-41v-123h-41v-82h-41v-123
h-41v-41h327v41h41v41h41v41h41v82h82v-82h-41v-82h-41v-123h-41v-123h-41v-122h-82v245h-327v-82h-41v-122h-41v-123h-41v-82h-41v-123h-41v-41h-82v-41h573v41h82v41h82v41h41v41h41v41h41v82h41v41h41v82h82v-82h-41v-82h-41v-82h-41v-82h-41v-123h-41v-41zM1434 1352
h-451v-41h-123v-41h-82v-41h-82v-41h-41v-41h-41v-41h-41v-41h-41v-41h-40v-82h-41v-82h-41v-164h-41v-245h41v-164h41v-41h41v-41h40v-41h41v-41h82v-41h246v123h41v82h41v123h41v82h41v122h41v123h41v82h41v123h41v82h41v123h41v123h41v41h82v41z" />
    <glyph glyph-name="oe" unicode="&#x153;" horiz-adv-x="1556" 
d="M573 41v-41h-327v41h-82v41h-41v82h-41v368h41v123h41v41h41v82h41v41h41v41h41v41h82v41h82v41h245v-41h82v-41h41v-41h41v-41h82v41h41v41h82v41h82v41h246v-41h82v-41h40v-205h-40v-41h-41v-41h-41v-41h-123v-41h-123v-40h-287v-41h41v-164h41v-82h41v-41h41v-41h246
v41h82v41h41v-41h-41v-41h-41v-41h-41v-41h-82v-41h-287v41h-82v41h-41v82h-41v-41h-82v-41h-41v-41h-82zM983 573h246v41h82v41h41v41h41v205h-205v-41h-41v-41h-41v-41h-41v-41h-41v-82h-41v-82zM328 82h204v41h41v41h41v41h41v82h41v41h41v123h41v368h-41v41h-41v41h-123
v-41h-81v-41h-41v-41h-41v-41h-41v-82h-41v-82h-41v-163h-41v-205h41v-82h41v-41z" />
    <glyph glyph-name="Racute" unicode="&#x154;" horiz-adv-x="1433" 
d="M1106 0v-41h-41v41h-82v41h-41v82h-41v369h-41v163h-41v41h-368v-41h41v-123h-41v-81h-41v-123h-41v-82h-41v-164h123v-41h41v-41h-615v41h41v41h123v41h41v41h41v82h41v82h41v123h41v122h41v82h41v123h41v82h41v123h41v123h41v82h40v164h-122v41h-41v41h737v-41h123v-41
h41v-41h41v-41h41v-41h41v-205h-41v-82h-41v-82h-41v-41h-82v-41h-82v-41h-123v-41h41v-41h41v-123h41v-327h41v-123h123v-41h-41v-41h-123zM573 778h410v41h41v41h41v41h41v41h41v123h41v82h-41v123h-41v41h-82v41h-328v-41h41v-123h-41v-123h-41v-82h-41v-123h-41v-82z
M1311 82h-41v41h41v-41zM819 1556v41h41v41h41v41h41v41h41v41h41v41h41v82h82v41h123v-164h-82v-41h-82v-41h-41v-41h-123v-41h-41v-41h-82z" />
    <glyph glyph-name="racute" unicode="&#x155;" horiz-adv-x="860" 
d="M164 41v-41h-164v82h41v82h41v123h41v82h41v123h41v122h41v82h41v164h-41v41h-41v41h205v41h122v-123h-40v-82h-41v-41h-41v-41h-41v-82h41v41h41v82h41v41h40v41h41v41h41v41h41v41h82v41h123v-41h82v-205h-41v-41h-123v41h-41v82h41v41h-123v-41h-41v-41h-41v-41h-41
v-41h-40v-41h-41v-82h-41v-41h-41v-81h-41v-123h-41v-82h-41v-123h-41v-82h-41zM573 1106v41h41v41h41v41h41v41h41v41h41v41h41v82h82v41h123v-164h-82v-41h-82v-41h-41v-41h-123v-41h-41v-41h-82z" />
    <glyph glyph-name="Rcommaaccent" unicode="&#x156;" horiz-adv-x="1433" 
d="M1106 0v-41h-41v41h-82v41h-41v82h-41v369h-41v163h-41v41h-368v-41h41v-123h-41v-81h-41v-123h-41v-82h-41v-164h123v-41h41v-41h-615v41h41v41h123v41h41v41h41v82h41v82h41v123h41v122h41v82h41v123h41v82h41v123h41v123h41v82h40v164h-122v41h-41v41h737v-41h123v-41
h41v-41h41v-41h41v-41h41v-205h-41v-82h-41v-82h-41v-41h-82v-41h-82v-41h-123v-41h41v-41h41v-123h41v-327h41v-123h123v-41h-41v-41h-123zM573 778h410v41h41v41h41v41h41v41h41v123h41v82h-41v123h-41v41h-82v41h-328v-41h41v-123h-41v-123h-41v-82h-41v-123h-41v-82z
M1311 82h-41v41h41v-41zM492 -492v-40h-82v40h82v41h40v41h41v82h-81v41h-41v123h41v41h40v41h123v-41h41v-246h-41v-41h-41v-41h-41v-41h-81zM614 -246h-41v-82h41v82z" />
    <glyph glyph-name="rcommaaccent" unicode="&#x157;" horiz-adv-x="860" 
d="M164 41v-41h-164v82h41v82h41v123h41v82h41v123h41v122h41v82h41v164h-41v41h-41v41h205v41h122v-123h-40v-82h-41v-41h-41v-41h-41v-82h41v41h41v82h41v41h40v41h41v41h41v41h41v41h82v41h123v-41h82v-205h-41v-41h-123v41h-41v82h41v41h-123v-41h-41v-41h-41v-41h-41
v-41h-40v-41h-41v-82h-41v-41h-41v-81h-41v-123h-41v-82h-41v-123h-41v-82h-41zM-82 -492v-40h-82v40h82v41h41v41h41v82h-82v41h-41v123h41v41h41v41h123v-41h41v-246h-41v-41h-41v-41h-41v-41h-82zM41 -246h-41v-82h41v82z" />
    <glyph glyph-name="Rcaron" unicode="&#x158;" horiz-adv-x="1433" 
d="M1106 0v-41h-41v41h-82v41h-41v82h-41v369h-41v163h-41v41h-368v-41h41v-123h-41v-81h-41v-123h-41v-82h-41v-164h123v-41h41v-41h-615v41h41v41h123v41h41v41h41v82h41v82h41v123h41v122h41v82h41v123h41v82h41v123h41v123h41v82h40v164h-122v41h-41v41h737v-41h123v-41
h41v-41h41v-41h41v-41h41v-205h-41v-82h-41v-82h-41v-41h-82v-41h-82v-41h-123v-41h41v-41h41v-123h41v-327h41v-123h123v-41h-41v-41h-123zM573 778h410v41h41v41h41v41h41v41h41v123h41v82h-41v123h-41v41h-82v41h-328v-41h41v-123h-41v-123h-41v-82h-41v-123h-41v-82z
M1311 82h-41v41h41v-41zM1106 1638v-41h-205v82h-41v123h-41v82h-41v41h41v-41h82v-41h41v-41h82v-82h-82v-41h82v41h82v41h41v41h82v41h82v41h41v-41h-41v-41h-41v-41h-41v-41h-41v-41h-41v-41h-41z" />
    <glyph glyph-name="rcaron" unicode="&#x159;" horiz-adv-x="860" 
d="M164 41v-41h-164v82h41v82h41v123h41v82h41v123h41v122h41v82h41v164h-41v41h-41v41h205v41h122v-123h-40v-82h-41v-41h-41v-41h-41v-82h41v41h41v82h41v41h40v41h41v41h41v41h41v41h82v41h123v-41h82v-205h-41v-41h-123v41h-41v82h41v41h-123v-41h-41v-41h-41v-41h-41
v-41h-40v-41h-41v-82h-41v-41h-41v-81h-41v-123h-41v-82h-41v-123h-41v-82h-41zM860 1188v-41h-205v82h-41v123h-41v82h-41v41h41v-41h82v-41h41v-41h82v-82h-82v-41h82v41h82v41h41v41h82v41h82v41h41v-41h-41v-41h-41v-41h-41v-41h-41v-41h-41v-41h-41z" />
    <glyph glyph-name="Sacute" unicode="&#x15a;" 
d="M573 0v-41h-81v41h-164v41h-82v41h-41v41h-41v41h-41v41h-41v-41h41v-41h-41v-41h-82v-41h-41v82h41v123h41v123h41v123h41v40h82v-245h41v-82h41v-41h41v-41h41v-41h286v41h82v41h41v41h41v287h-41v40h-41v41h-82v41h-41v41h-41v41h-81v41h-41v41h-41v41h-41v41h-41v82
h-41v205h41v82h41v82h41v41h41v41h81v41h410v-41h82v-41h41v-82h41v-82h41v123h-41v41h123v41h41v-123h-41v-123h-41v-123h-41v-123h-82v164h-41v164h-41v41h-41v41h-41v41h-287v-41h-41v-41h-41v-41h-40v-246h40v-41h41v-41h82v-41h41v-41h82v-41h41v-41h82v-41h41v-41h41
v-41h41v-122h41v-123h-41v-123h-41v-82h-41v-41h-41v-41h-82v-41h-41v-41h-205zM655 1556v41h41v41h41v41h41v41h41v41h41v41h41v82h82v41h123v-164h-82v-41h-82v-41h-41v-41h-123v-41h-41v-41h-82z" />
    <glyph glyph-name="sacute" unicode="&#x15b;" horiz-adv-x="778" 
d="M492 41v-41h-369v41h-82v41h-41v205h41v41h82v-41h41v-82h-41v-82h41v-41h41v-41h123v41h82v41h41v205h-41v41h-41v41h-41v41h-41v41h-41v40h-41v82h-41v205h41v41h41v41h41v41h82v41h204v-41h123v-41h41v-82h41v-123h-41v-41h-123v41h-41v82h41v82h-41v41h-163v-41h-82
v-164h41v-82h82v-82h41v-40h40v-41h41v-41h41v-82h41v-123h-41v-82h-41v-41h-41v-41h-40zM369 1106v41h41v41h41v41h41v41h40v41h41v41h41v82h82v41h123v-164h-82v-41h-82v-41h-41v-41h-122v-41h-41v-41h-82z" />
    <glyph glyph-name="Scircumflex" unicode="&#x15c;" 
d="M573 0v-41h-81v41h-164v41h-82v41h-41v41h-41v41h-41v41h-41v-41h41v-41h-41v-41h-82v-41h-41v82h41v123h41v123h41v123h41v40h82v-245h41v-82h41v-41h41v-41h41v-41h286v41h82v41h41v41h41v287h-41v40h-41v41h-82v41h-41v41h-41v41h-81v41h-41v41h-41v41h-41v41h-41v82
h-41v205h41v82h41v82h41v41h41v41h81v41h410v-41h82v-41h41v-82h41v-82h41v123h-41v41h123v41h41v-123h-41v-123h-41v-123h-41v-123h-82v164h-41v164h-41v41h-41v41h-41v41h-287v-41h-41v-41h-41v-41h-40v-246h40v-41h41v-41h82v-41h41v-41h82v-41h41v-41h82v-41h41v-41h41
v-41h41v-122h41v-123h-41v-123h-41v-82h-41v-41h-41v-41h-82v-41h-41v-41h-205zM614 1597v-41h-41v41h41v41h41v41h41v41h41v41h41v41h41v41h246v-123h41v-82h41v-82h-41v41h-82v41h-82v41h-41v41h41v41h-41v-41h-82v-41h-82v-41h-82v-41h-41z" />
    <glyph glyph-name="scircumflex" unicode="&#x15d;" horiz-adv-x="778" 
d="M492 41v-41h-369v41h-82v41h-41v205h41v41h82v-41h41v-82h-41v-82h41v-41h41v-41h123v41h82v41h41v205h-41v41h-41v41h-41v41h-41v41h-41v40h-41v82h-41v205h41v41h41v41h41v41h82v41h204v-41h123v-41h41v-82h41v-123h-41v-41h-123v41h-41v82h41v82h-41v41h-163v-41h-82
v-164h41v-82h82v-82h41v-40h40v-41h41v-41h41v-82h41v-123h-41v-82h-41v-41h-41v-41h-40zM328 1147v-41h-41v41h41v41h41v41h41v41h41v41h41v41h40v41h246v-123h41v-82h41v-82h-41v41h-82v41h-82v41h-41v41h41v41h-41v-41h-82v-41h-81v-41h-82v-41h-41z" />
    <glyph glyph-name="Scedilla" unicode="&#x15e;" 
d="M164 -369v41h41v-41h123v41h41v82h-41v41h-41v123h41v41h41v41h-41v41h-82v41h-41v41h-41v41h-41v41h-41v-41h41v-41h-41v-41h-82v-41h-41v82h41v123h41v123h41v123h41v40h82v-245h41v-82h41v-41h41v-41h41v-41h286v41h82v41h41v41h41v287h-41v40h-41v41h-82v41h-41v41
h-41v41h-81v41h-41v41h-41v41h-41v41h-41v82h-41v205h41v82h41v82h41v41h41v41h81v41h410v-41h82v-41h41v-82h41v-82h41v123h-41v41h123v41h41v-123h-41v-123h-41v-123h-41v-123h-82v164h-41v164h-41v41h-41v41h-41v41h-287v-41h-41v-41h-41v-41h-40v-246h40v-41h41v-41h82
v-41h41v-41h82v-41h41v-41h82v-41h41v-41h41v-41h41v-122h41v-123h-41v-123h-41v-82h-41v-41h-41v-41h-82v-41h-41v-41h-205v-41h-81v41h-41v-41h-41v-41h-41v-41h41v41h41v-41h41v-82h40v-82h-40v-41h-41v-41h-41v-41h-205v41h-41z" />
    <glyph glyph-name="scedilla" unicode="&#x15f;" horiz-adv-x="778" 
d="M-41 -369v41h41v-41h123v41h41v82h-41v41h-41v123h41v41h41v41h-41v41h-82v41h-41v205h41v41h82v-41h41v-82h-41v-82h41v-41h41v-41h123v41h82v41h41v205h-41v41h-41v41h-41v41h-41v41h-41v40h-41v82h-41v205h41v41h41v41h41v41h82v41h204v-41h123v-41h41v-82h41v-123
h-41v-41h-123v41h-41v82h41v82h-41v41h-163v-41h-82v-164h41v-82h82v-82h41v-40h40v-41h41v-41h41v-82h41v-123h-41v-82h-41v-41h-41v-41h-40v-41h-246v-41h-41v-41h-41v-41h41v41h41v-41h41v-82h41v-82h-41v-41h-41v-41h-41v-41h-205v41h-41z" />
    <glyph glyph-name="Scaron" unicode="&#x160;" 
d="M573 0v-41h-81v41h-164v41h-82v41h-41v41h-41v41h-41v41h-41v-41h41v-41h-41v-41h-82v-41h-41v82h41v123h41v123h41v123h41v40h82v-245h41v-82h41v-41h41v-41h41v-41h286v41h82v41h41v41h41v287h-41v40h-41v41h-82v41h-41v41h-41v41h-81v41h-41v41h-41v41h-41v41h-41v82
h-41v205h41v82h41v82h41v41h41v41h81v41h410v-41h82v-41h41v-82h41v-82h41v123h-41v41h123v41h41v-123h-41v-123h-41v-123h-41v-123h-82v164h-41v164h-41v41h-41v41h-41v41h-287v-41h-41v-41h-41v-41h-40v-246h40v-41h41v-41h82v-41h41v-41h82v-41h41v-41h82v-41h41v-41h41
v-41h41v-122h41v-123h-41v-123h-41v-82h-41v-41h-41v-41h-82v-41h-41v-41h-205zM942 1638v-41h-205v82h-41v123h-41v82h-41v41h41v-41h82v-41h41v-41h82v-82h-82v-41h82v41h82v41h41v41h82v41h82v41h41v-41h-41v-41h-41v-41h-41v-41h-41v-41h-41v-41h-41z" />
    <glyph glyph-name="scaron" unicode="&#x161;" horiz-adv-x="778" 
d="M492 41v-41h-369v41h-82v41h-41v205h41v41h82v-41h41v-82h-41v-82h41v-41h41v-41h123v41h82v41h41v205h-41v41h-41v41h-41v41h-41v41h-41v40h-41v82h-41v205h41v41h41v41h41v41h82v41h204v-41h123v-41h41v-82h41v-123h-41v-41h-123v41h-41v82h41v82h-41v41h-163v-41h-82
v-164h41v-82h82v-82h41v-40h40v-41h41v-41h41v-82h41v-123h-41v-82h-41v-41h-41v-41h-40zM655 1188v-41h-204v82h-41v123h-41v82h-41v41h41v-41h82v-41h41v-41h81v-82h-81v-41h81v41h82v41h41v41h82v41h82v41h41v-41h-41v-41h-41v-41h-41v-41h-41v-41h-41v-41h-41z" />
    <glyph glyph-name="Tcaron" unicode="&#x164;" horiz-adv-x="1310" 
d="M410 1434h1187v-123h-41v-123h-40v-123h-41v-82h-82v41h41v205h-41v82h-41v41h-328v-41h41v-123h-41v-82h-41v-82h-41v-123h-41v-82h-41v-123h-41v-123h-41v-81h-41v-123h-41v-82h-41v-205h82v-41h41v-41h-573v82h164v41h41v82h41v82h41v123h40v82h41v122h41v82h41v123
h41v82h41v123h41v82h41v123h41v123h-205v-41h-82v-41h-81v-41h-41v-41h-41v-41h-41v-82h-41v-41h-41v-41h-41v82h41v123h41v82h41v82h41v82zM1147 1638v-41h-205v82h-41v123h-41v82h-41v41h41v-41h82v-41h41v-41h82v-82h-82v-41h82v41h82v41h41v41h82v41h82v41h41v-41h-41
v-41h-41v-41h-41v-41h-41v-41h-41v-41h-41z" />
    <glyph glyph-name="tcaron" unicode="&#x165;" horiz-adv-x="681" 
d="M532 860v-41h-40v-82h-41v-123h-41v-82h-41v-122h-41v-123h-41v-123h41v-41h82v41h82v41h40v-41h-40v-41h-41v-41h-41v-41h-41v-41h-246v41h-41v205h41v123h41v82h41v122h41v82h41v123h41v123h-123v41h82v41h82v41h41v41h41v41h41v41h81v41h41v41h41v-82h-41v-82h-41v-82
h246v-82h-368v-41h81zM776 1085v-41h-82v41h82v41h41v41h41v82h-82v41h-41v123h41v41h41v41h123v-41h41v-246h-41v-41h-41v-41h-41v-41h-82zM899 1331h-41v-82h41v82z" />
    <glyph glyph-name="Tbar" unicode="&#x166;" horiz-adv-x="1310" 
d="M614 655h82v41h-368v82h327v41h41v82h41v123h41v82h41v123h41v123h-205v-41h-82v-41h-81v-41h-41v-41h-41v-41h-41v-82h-41v-41h-41v-41h-41v82h41v123h41v82h41v82h41v82h1187v-123h-41v-123h-40v-123h-41v-82h-82v41h41v205h-41v82h-41v41h-328v-41h41v-123h-41v-82
h-41v-82h-41v-123h-41v-82h-41v-41h328v-82h-369v-123h-41v-81h-41v-123h-41v-82h-41v-205h82v-41h41v-41h-573v82h164v41h41v82h41v82h41v123h40v82h41v122h41v41z" />
    <glyph glyph-name="tbar" unicode="&#x167;" horiz-adv-x="696" 
d="M287 532h-246v41h41v41h164v41h41v123h41v123h-123v41h82v41h82v41h41v41h41v41h41v41h81v41h41v41h41v-82h-41v-82h-41v-82h246v-82h-368v-41h81v-41h-40v-82h-41v-123h245v-82h-327v-122h-41v-123h-41v-123h41v-41h82v41h82v41h40v-41h-40v-41h-41v-41h-41v-41h-41v-41
h-246v41h-41v205h41v123h41v82h41v41h82v40z" />
    <glyph glyph-name="Utilde" unicode="&#x168;" horiz-adv-x="1556" 
d="M778 0v-41h-123v41h-204v41h-41v41h-82v41h-41v82h-41v368h41v123h41v82h41v123h41v123h41v123h41v205h-82v41h-41v41h614v-41h-41v-41h-164v-41h-41v-82h-41v-82h-41v-123h-41v-123h-41v-123h-41v-123h-40v-123h-41v-245h41v-82h40v-41h41v-41h123v-41h123v41h123v41h82
v41h41v41h41v41h41v41h41v82h41v122h41v123h41v82h41v123h41v123h41v123h41v246h-82v41h-41v41h532v-41h-41v-41h-164v-41h-41v-41h-41v-82h-41v-123h-40v-123h-41v-123h-41v-123h-41v-123h-41v-122h-41v-82h-41v-82h-41v-41h-41v-82h-41v-41h-41v-41h-82v-41h-82v-41h-164z
M942 1638v-41h-41v41h41v82h41v41h41v82h82v41h82v-41h82v-41h82v-41h204v-82h-40v-41h-41v-41h-205v41h-41v41h-82v41h-123v-41h-41v-41h-41zM1597 1761h-41v41h41v41h41v-41h-41v-41z" />
    <glyph glyph-name="utilde" unicode="&#x169;" 
d="M287 0v-41h-41v41h-123v41h-41v246h41v82h41v82h41v122h41v82h41v82h41v123h-41v41h-82v41h205v41h163v-41h-41v-123h-40v-82h-41v-82h-41v-123h-41v-81h-41v-123h-41v-123h-41v-82h41v-41h82v41h82v41h41v41h40v41h41v41h41v82h41v41h41v41h41v122h41v123h41v82h41v123
h41v82h205v-41h-41v-82h-41v-123h-41v-82h-41v-123h-41v-81h-41v-123h-41v-82h-41v-123h123v41h41v41h41v41h41v-41h-41v-82h-41v-41h-41v-41h-82v-41h-205v41h-41v123h41v41h41v41h41v82h-41v-41h-41v-82h-41v-41h-41v-41h-40v-41h-41v-41h-82v-41h-82zM492 1188v-41h-41
v41h41v82h40v41h41v82h82v41h82v-41h82v-41h82v-41h205v-82h-41v-41h-41v-41h-205v41h-41v41h-82v41h-123v-41h-41v-41h-40zM1147 1311h-41v41h41v41h41v-41h-41v-41z" />
    <glyph glyph-name="Umacron" unicode="&#x16a;" horiz-adv-x="1556" 
d="M778 0v-41h-123v41h-204v41h-41v41h-82v41h-41v82h-41v368h41v123h41v82h41v123h41v123h41v123h41v205h-82v41h-41v41h614v-41h-41v-41h-164v-41h-41v-82h-41v-82h-41v-123h-41v-123h-41v-123h-41v-123h-40v-123h-41v-245h41v-82h40v-41h41v-41h123v-41h123v41h123v41h82
v41h41v41h41v41h41v41h41v82h41v122h41v123h41v82h41v123h41v123h41v123h41v246h-82v41h-41v41h532v-41h-41v-41h-164v-41h-41v-41h-41v-82h-41v-123h-40v-123h-41v-123h-41v-123h-41v-123h-41v-122h-41v-82h-41v-82h-41v-41h-41v-82h-41v-41h-41v-41h-82v-41h-82v-41h-164z
M983 1761h573v-82h-614v41h41v41z" />
    <glyph glyph-name="umacron" unicode="&#x16b;" 
d="M287 0v-41h-41v41h-123v41h-41v246h41v82h41v82h41v122h41v82h41v82h41v123h-41v41h-82v41h205v41h163v-41h-41v-123h-40v-82h-41v-82h-41v-123h-41v-81h-41v-123h-41v-123h-41v-82h41v-41h82v41h82v41h41v41h40v41h41v41h41v82h41v41h41v41h41v122h41v123h41v82h41v123
h41v82h205v-41h-41v-82h-41v-123h-41v-82h-41v-123h-41v-81h-41v-123h-41v-82h-41v-123h123v41h41v41h41v41h41v-41h-41v-82h-41v-41h-41v-41h-82v-41h-205v41h-41v123h41v41h41v41h41v82h-41v-41h-41v-82h-41v-41h-41v-41h-40v-41h-41v-41h-82v-41h-82zM532 1311h574v-82
h-614v41h40v41z" />
    <glyph glyph-name="Ubreve" unicode="&#x16c;" horiz-adv-x="1556" 
d="M778 0v-41h-123v41h-204v41h-41v41h-82v41h-41v82h-41v368h41v123h41v82h41v123h41v123h41v123h41v205h-82v41h-41v41h614v-41h-41v-41h-164v-41h-41v-82h-41v-82h-41v-123h-41v-123h-41v-123h-41v-123h-40v-123h-41v-245h41v-82h40v-41h41v-41h123v-41h123v41h123v41h82
v41h41v41h41v41h41v41h41v82h41v122h41v123h41v82h41v123h41v123h41v123h41v246h-82v41h-41v41h532v-41h-41v-41h-164v-41h-41v-41h-41v-82h-41v-123h-40v-123h-41v-123h-41v-123h-41v-123h-41v-122h-41v-82h-41v-82h-41v-41h-41v-82h-41v-41h-41v-41h-82v-41h-82v-41h-164z
M1024 1884v-82h41v-41h82v-41h164v41h123v41h41v41h41v-82h-41v-82h-41v-41h-41v-41h-82v-41h-164v41h-82v41h-41v41h-41v205h41z" />
    <glyph glyph-name="ubreve" unicode="&#x16d;" 
d="M287 0v-41h-41v41h-123v41h-41v246h41v82h41v82h41v122h41v82h41v82h41v123h-41v41h-82v41h205v41h163v-41h-41v-123h-40v-82h-41v-82h-41v-123h-41v-81h-41v-123h-41v-123h-41v-82h41v-41h82v41h82v41h41v41h40v41h41v41h41v82h41v41h41v41h41v122h41v123h41v82h41v123
h41v82h205v-41h-41v-82h-41v-123h-41v-82h-41v-123h-41v-81h-41v-123h-41v-82h-41v-123h123v41h41v41h41v41h41v-41h-41v-82h-41v-41h-41v-41h-82v-41h-205v41h-41v123h41v41h41v41h41v82h-41v-41h-41v-82h-41v-41h-41v-41h-40v-41h-41v-41h-82v-41h-82zM573 1434v-82h41
v-41h82v-41h164v41h123v41h41v41h41v-82h-41v-82h-41v-41h-41v-41h-82v-41h-164v41h-82v41h-41v41h-41v205h41z" />
    <glyph glyph-name="Uring" unicode="&#x16e;" horiz-adv-x="1556" 
d="M778 0v-41h-123v41h-204v41h-41v41h-82v41h-41v82h-41v368h41v123h41v82h41v123h41v123h41v123h41v205h-82v41h-41v41h614v-41h-41v-41h-164v-41h-41v-82h-41v-82h-41v-123h-41v-123h-41v-123h-41v-123h-40v-123h-41v-245h41v-82h40v-41h41v-41h123v-41h123v41h123v41h82
v41h41v41h41v41h41v41h41v82h41v122h41v123h41v82h41v123h41v123h41v123h41v246h-82v41h-41v41h532v-41h-41v-41h-164v-41h-41v-41h-41v-82h-41v-123h-40v-123h-41v-123h-41v-123h-41v-123h-41v-122h-41v-82h-41v-82h-41v-41h-41v-82h-41v-41h-41v-41h-82v-41h-82v-41h-164z
M1352 1597v-41h-246v41h-41v41h-41v164h41v82h41v41h205v-41h82v-82h41v-123h-41v-82h-41zM1147 1597h82v41h82v82h41v41h-41v82h-164v-41h-41v-164h41v-41z" />
    <glyph glyph-name="uring" unicode="&#x16f;" 
d="M287 0v-41h-41v41h-123v41h-41v246h41v82h41v82h41v122h41v82h41v82h41v123h-41v41h-82v41h205v41h163v-41h-41v-123h-40v-82h-41v-82h-41v-123h-41v-81h-41v-123h-41v-123h-41v-82h41v-41h82v41h82v41h41v41h40v41h41v41h41v82h41v41h41v41h41v122h41v123h41v82h41v123
h41v82h205v-41h-41v-82h-41v-123h-41v-82h-41v-123h-41v-81h-41v-123h-41v-82h-41v-123h123v41h41v41h41v41h41v-41h-41v-82h-41v-41h-41v-41h-82v-41h-205v41h-41v123h41v41h41v41h41v82h-41v-41h-41v-82h-41v-41h-41v-41h-40v-41h-41v-41h-82v-41h-82zM901 1147v-41h-246
v41h-41v41h-41v164h41v82h41v41h205v-41h82v-82h41v-123h-41v-82h-41zM696 1147h82v41h82v82h41v41h-41v82h-164v-41h-41v-164h41v-41z" />
    <glyph glyph-name="Uhungarumlaut" unicode="&#x170;" horiz-adv-x="1556" 
d="M778 0v-41h-123v41h-204v41h-41v41h-82v41h-41v82h-41v368h41v123h41v82h41v123h41v123h41v123h41v205h-82v41h-41v41h614v-41h-41v-41h-164v-41h-41v-82h-41v-82h-41v-123h-41v-123h-41v-123h-41v-123h-40v-123h-41v-245h41v-82h40v-41h41v-41h123v-41h123v41h123v41h82
v41h41v41h41v41h41v41h41v82h41v122h41v123h41v82h41v123h41v123h41v123h41v246h-82v41h-41v41h532v-41h-41v-41h-164v-41h-41v-41h-41v-82h-41v-123h-40v-123h-41v-123h-41v-123h-41v-123h-41v-122h-41v-82h-41v-82h-41v-41h-41v-82h-41v-41h-41v-41h-82v-41h-82v-41h-164z
M1147 1843h41v41h41v41h123v-123h-41v-41h-41v-41h-82v-41h-41v-41h-82v-41h-82v41h41v41h41v82h41v41h41v41zM1475 1843h41v41h40v41h123v-123h-41v-41h-41v-41h-81v-41h-41v-41h-82v-41h-82v41h41v41h41v82h41v41h41v41z" />
    <glyph glyph-name="uhungarumlaut" unicode="&#x171;" 
d="M287 0v-41h-41v41h-123v41h-41v246h41v82h41v82h41v122h41v82h41v82h41v123h-41v41h-82v41h205v41h163v-41h-41v-123h-40v-82h-41v-82h-41v-123h-41v-81h-41v-123h-41v-123h-41v-82h41v-41h82v41h82v41h41v41h40v41h41v41h41v82h41v41h41v41h41v122h41v123h41v82h41v123
h41v82h205v-41h-41v-82h-41v-123h-41v-82h-41v-123h-41v-81h-41v-123h-41v-82h-41v-123h123v41h41v41h41v41h41v-41h-41v-82h-41v-41h-41v-41h-82v-41h-205v41h-41v123h41v41h41v41h41v82h-41v-41h-41v-82h-41v-41h-41v-41h-40v-41h-41v-41h-82v-41h-82zM696 1393h41v41h41
v41h123v-123h-41v-41h-41v-41h-82v-41h-41v-41h-82v-41h-82v41h41v41h41v82h41v41h41v41zM1024 1393h41v41h41v41h123v-123h-41v-41h-41v-41h-82v-41h-41v-41h-82v-41h-82v41h41v41h41v82h41v41h41v41z" />
    <glyph glyph-name="Uogonek" unicode="&#x172;" horiz-adv-x="1556" 
d="M860 -328v41h41v-82h-41v-41h-82v-41h-82v41h-82v41h-41v123h41v82h41v41h41v41h82v41h-123v41h-204v41h-41v41h-82v41h-41v82h-41v368h41v123h41v82h41v123h41v123h41v123h41v205h-82v41h-41v41h614v-41h-41v-41h-164v-41h-41v-82h-41v-82h-41v-123h-41v-123h-41v-123
h-41v-123h-40v-123h-41v-245h41v-82h40v-41h41v-41h123v-41h123v41h123v41h82v41h41v41h41v41h41v41h41v82h41v122h41v123h41v82h41v123h41v123h41v123h41v246h-82v41h-41v41h532v-41h-41v-41h-164v-41h-41v-41h-41v-82h-41v-123h-40v-123h-41v-123h-41v-123h-41v-123h-41
v-122h-41v-82h-41v-82h-41v-41h-41v-82h-41v-41h-41v-41h-82v-41h-82v-82h-82v-41h-41v-41h-41v-41h-41v-41h-41v-123h164zM778 0v-41h82v41h-82z" />
    <glyph glyph-name="uogonek" unicode="&#x173;" 
d="M287 0v-41h-41v41h-123v41h-41v246h41v82h41v82h41v122h41v82h41v82h41v123h-41v41h-82v41h205v41h163v-41h-41v-123h-40v-82h-41v-82h-41v-123h-41v-81h-41v-123h-41v-123h-41v-82h41v-41h82v41h82v41h41v41h40v41h41v41h41v82h41v41h41v41h41v122h41v123h41v82h41v123
h41v82h205v-41h-41v-82h-41v-123h-41v-82h-41v-123h-41v-81h-41v-123h-41v-82h-41v-123h123v41h41v41h41v41h41v-41h-41v-82h-41v-41h-41v-41h-82v-82h-82v-41h-41v-41h-41v-41h-41v-41h-41v-123h164v41h41v-82h-41v-41h-82v-41h-82v41h-81v41h-41v123h41v82h40v41h41v41h82
v41h82v41h-123v41h-41v123h41v41h41v41h41v82h-41v-41h-41v-82h-41v-41h-41v-41h-40v-41h-41v-41h-82v-41h-82z" />
    <glyph glyph-name="Wcircumflex" unicode="&#x174;" horiz-adv-x="2048" 
d="M573 0v-82h-41v819h-40v574h-41v41h-41v41h-41v41h491v-82h-123v-41h-41v-369h41v-614h-41v-41h41v41h41v82h41v41h41v41h41v81h41v41h41v41h41v82h41v41h41v82h41v41h41v410h-41v41h-41v41h-41v41h491v-82h-122v-41h-41v-983h-41v-41h41v41h41v41h41v82h41v41h40v81h41
v41h41v41h41v82h41v41h41v82h41v41h41v41h41v82h41v41h41v41h41v82h41v82h41v41h-41v41h-82v82h410v-82h-82v-41h-82v-41h-41v-82h-41v-41h-41v-41h-41v-82h-41v-41h-41v-82h-41v-41h-41v-41h-41v-82h-41v-41h-41v-82h-41v-41h-41v-41h-41v-81h-41v-41h-41v-41h-40v-82h-41
v-41h-41v-82h-41v-41h-41v-41h-41v-82h-41v-41h-41v860h-41v-41h-41v-82h-41v-41h-41v-41h-41v-82h-41v-40h-41v-41h-41v-82h-41v-41h-41v-82h-41v-41h-41v-41h-41v-82h-41v-41h-41v-41h-41zM1147 1597v-41h-41v41h41v41h41v41h41v41h41v41h41v41h41v41h245v-123h41v-82h41
v-82h-41v41h-82v41h-81v41h-41v41h41v41h-41v-41h-82v-41h-82v-41h-82v-41h-41z" />
    <glyph glyph-name="wcircumflex" unicode="&#x175;" horiz-adv-x="1433" 
d="M246 -41v901h-41v82h123v41h82v-41h41v-737h-41v-41h-41v-41h41v41h41v41h81v41h41v41h41v41h41v82h41v41h41v409h-41v41h-41v41h164v41h82v-205h41v-327h-41v-287h-41v-41h41v41h41v41h41v41h41v41h41v41h41v41h41v82h41v41h41v81h41v164h41v82h-82v41h-41v41h41v41h41
v41h123v-82h41v-123h-41v-123h-41v-82h-41v-81h-41v-82h-41v-41h-41v-41h-41v-41h-41v-41h-41v-41h-41v-41h-41v-41h-41v-41h-41v-41h-82v-41h-41v-41h-82v205h41v205h-41v-82h-41v-41h-41v-41h-41v-41h-41v-41h-81v-41h-41v-41h-41v-41h-82v-41h-41zM655 1147v-41h-41v41
h41v41h41v41h41v41h41v41h41v41h41v41h246v-123h41v-82h41v-82h-41v41h-82v41h-82v41h-41v41h41v41h-41v-41h-82v-41h-82v-41h-82v-41h-41z" />
    <glyph glyph-name="Ycircumflex" unicode="&#x176;" horiz-adv-x="1433" 
d="M778 655h41v41h41v41h41v41h41v41h41v41h82v41h41v41h41v41h41v41h41v41h41v41h41v41h41v41h41v82h41v82h-123v82h450v-41h-41v-41h-82v-41h-41v-41h-41v-41h-40v-41h-41v-41h-82v-41h-41v-41h-41v-41h-41v-41h-41v-41h-41v-41h-41v-41h-41v-41h-41v-41h-41v-41h-41v-41
h-41v-41h-41v-82h-41v-81h-41v-123h-41v-82h-41v-205h123v-82h-573v82h164v41h41v41h40v82h41v123h41v123h41v245h-41v164h-41v123h-41v164h-40v123h-41v41h-41v41h-41v41h532v-41h-41v-41h-123v-287h41v-164h41v-205h-41v-41zM901 1597v-41h-41v41h41v41h41v41h41v41h41v41
h41v41h41v41h246v-123h41v-82h41v-82h-41v41h-82v41h-82v41h-41v41h41v41h-41v-41h-82v-41h-82v-41h-82v-41h-41z" />
    <glyph glyph-name="ycircumflex" unicode="&#x177;" horiz-adv-x="1064" 
d="M82 -410v-41h-287v41h-41v123h41v41h41v41h41v-41h82v-123h-41v-41h41v41h123v41h82v41h41v41h41v41h41v41h41v41h41v287h-41v368h-41v246h-41v82h-41v82h123v41h82v-41h41v-205h41v-286h40v-369h-40v-41h40v41h41v41h41v41h41v82h41v41h41v82h41v82h41v81h41v123h41v164
h-82v123h41v41h123v-41h41v-287h-41v-123h-41v-81h-41v-41h-41v-82h-41v-41h-41v-82h-41v-41h-41v-82h-41v-41h-41v-41h-41v-41h-41v-41h-40v-41h-41v-41h-41v-41h-41v-41h-41v-41h-41v-41h-41v-41h-82v-41h-82zM492 1147v-41h-41v41h41v41h40v41h41v41h41v41h41v41h41v41
h246v-123h41v-82h41v-82h-41v41h-82v41h-82v41h-41v41h41v41h-41v-41h-82v-41h-82v-41h-82v-41h-40z" />
    <glyph glyph-name="Ydieresis" unicode="&#x178;" horiz-adv-x="1433" 
d="M778 655h41v41h41v41h41v41h41v41h41v41h82v41h41v41h41v41h41v41h41v41h41v41h41v41h41v41h41v82h41v82h-123v82h450v-41h-41v-41h-82v-41h-41v-41h-41v-41h-40v-41h-41v-41h-82v-41h-41v-41h-41v-41h-41v-41h-41v-41h-41v-41h-41v-41h-41v-41h-41v-41h-41v-41h-41v-41
h-41v-41h-41v-82h-41v-81h-41v-123h-41v-82h-41v-205h123v-82h-573v82h164v41h41v41h40v82h41v123h41v123h41v245h-41v164h-41v123h-41v164h-40v123h-41v41h-41v41h-41v41h532v-41h-41v-41h-123v-287h41v-164h41v-205h-41v-41zM860 1638v82h41v82h41v41h164v-123h-41v-82
h-205zM1270 1638v82h41v82h41v41h164v-123h-41v-82h-205z" />
    <glyph glyph-name="Zacute" unicode="&#x179;" horiz-adv-x="1228" 
d="M1147 1311h82v41h-533v-41h-82v-41h-41v-41h-41v-41h-40v-41h-41v-41h-41v-82h-41v-41h-41v-41h-41v123h41v82h41v123h41v123h41v41h1024v-41h-41v-41h-41v-82h-41v-41h-41v-41h-41v-41h-41v-41h-41v-41h-41v-41h-41v-41h-41v-41h-41v-41h-41v-41h-41v-41h-41v-41h-41
v-41h-41v-41h-41v-41h-41v-41h-41v-41h-41v-41h-41v-40h-41v-41h-41v-41h-40v-41h-41v-82h-41v-41h-41v-41h-41v-41h-41v-41h-123v-41h573v41h82v41h82v41h41v41h41v41h41v82h41v41h41v82h82v-82h-41v-82h-41v-82h-41v-82h-41v-82h-41v-82h-1065v41h41v41h41v41h41v41h41v41
h41v41h41v41h41v41h41v41h41v82h41v41h41v40h41v41h41v41h41v41h40v41h41v41h41v41h41v41h41v41h41v41h41v41h41v41h41v41h41v41h41v41h41v41h41v41h41v41h41v41h41v41zM819 1556v41h41v41h41v41h41v41h41v41h41v41h41v82h82v41h123v-164h-82v-41h-82v-41h-41v-41h-123v-41
h-41v-41h-82z" />
    <glyph glyph-name="zacute" unicode="&#x17a;" horiz-adv-x="860" 
d="M942 983v-41h-41v-41h-41v-41h-41v-41h-41v-41h-41v-41h-41v-41h-41v-41h-41v-41h-41v-41h-41v-41h-40v-40h-41v-41h-41v-41h-41v-41h-41v-41h-41v-41h-41v-41h-41v-41h-41v-41h41v41h164v-41h123v-41h81v41h82v41h41v41h41v41h41v-82h-41v-41h-41v-82h-41v-41h-41v-41
h-82v-41h-81v41h-123v41h-123v41h-82v-41h-123v-41h-41v-41h-41v41h-41v41h41v41h41v41h41v41h41v41h41v41h41v41h41v41h41v41h41v41h41v41h41v41h41v40h41v41h41v41h41v41h40v41h41v41h41v41h41v41h41v41h-41v-41h-327v-41h-82v-41h-41v-41h-41v-41h-82v41h41v41h41v82h41
v82h41v82h696zM451 1106v41h41v41h40v41h41v41h41v41h41v41h41v82h82v41h123v-164h-82v-41h-82v-41h-41v-41h-123v-41h-41v-41h-81z" />
    <glyph glyph-name="Zdotaccent" unicode="&#x17b;" horiz-adv-x="1228" 
d="M1147 1311h82v41h-533v-41h-82v-41h-41v-41h-41v-41h-40v-41h-41v-41h-41v-82h-41v-41h-41v-41h-41v123h41v82h41v123h41v123h41v41h1024v-41h-41v-41h-41v-82h-41v-41h-41v-41h-41v-41h-41v-41h-41v-41h-41v-41h-41v-41h-41v-41h-41v-41h-41v-41h-41v-41h-41v-41h-41
v-41h-41v-41h-41v-41h-41v-41h-41v-41h-41v-41h-41v-40h-41v-41h-41v-41h-40v-41h-41v-82h-41v-41h-41v-41h-41v-41h-41v-41h-123v-41h573v41h82v41h82v41h41v41h41v41h41v82h41v41h41v82h82v-82h-41v-82h-41v-82h-41v-82h-41v-82h-41v-82h-1065v41h41v41h41v41h41v41h41v41
h41v41h41v41h41v41h41v41h41v82h41v41h41v40h41v41h41v41h41v41h40v41h41v41h41v41h41v41h41v41h41v41h41v41h41v41h41v41h41v41h41v41h41v41h41v41h41v41h41v41h41v41zM891 1638v82h41v82h41v41h164v-123h-41v-82h-205z" />
    <glyph glyph-name="zdotaccent" unicode="&#x17c;" horiz-adv-x="860" 
d="M942 983v-41h-41v-41h-41v-41h-41v-41h-41v-41h-41v-41h-41v-41h-41v-41h-41v-41h-41v-41h-41v-41h-40v-40h-41v-41h-41v-41h-41v-41h-41v-41h-41v-41h-41v-41h-41v-41h-41v-41h41v41h164v-41h123v-41h81v41h82v41h41v41h41v41h41v-82h-41v-41h-41v-82h-41v-41h-41v-41
h-82v-41h-81v41h-123v41h-123v41h-82v-41h-123v-41h-41v-41h-41v41h-41v41h41v41h41v41h41v41h41v41h41v41h41v41h41v41h41v41h41v41h41v41h41v41h41v40h41v41h41v41h41v41h40v41h41v41h41v41h41v41h41v41h-41v-41h-327v-41h-82v-41h-41v-41h-41v-41h-82v41h41v41h41v82h41
v82h41v82h696zM522 1188v82h41v82h41v41h164v-123h-41v-82h-205z" />
    <glyph glyph-name="Zcaron" unicode="&#x17d;" horiz-adv-x="1228" 
d="M1147 1311h82v41h-533v-41h-82v-41h-41v-41h-41v-41h-40v-41h-41v-41h-41v-82h-41v-41h-41v-41h-41v123h41v82h41v123h41v123h41v41h1024v-41h-41v-41h-41v-82h-41v-41h-41v-41h-41v-41h-41v-41h-41v-41h-41v-41h-41v-41h-41v-41h-41v-41h-41v-41h-41v-41h-41v-41h-41
v-41h-41v-41h-41v-41h-41v-41h-41v-41h-41v-41h-41v-40h-41v-41h-41v-41h-40v-41h-41v-82h-41v-41h-41v-41h-41v-41h-41v-41h-123v-41h573v41h82v41h82v41h41v41h41v41h41v82h41v41h41v82h82v-82h-41v-82h-41v-82h-41v-82h-41v-82h-41v-82h-1065v41h41v41h41v41h41v41h41v41
h41v41h41v41h41v41h41v41h41v82h41v41h41v40h41v41h41v41h41v41h40v41h41v41h41v41h41v41h41v41h41v41h41v41h41v41h41v41h41v41h41v41h41v41h41v41h41v41h41v41h41v41zM1106 1638v-41h-205v82h-41v123h-41v82h-41v41h41v-41h82v-41h41v-41h82v-82h-82v-41h82v41h82v41h41
v41h82v41h82v41h41v-41h-41v-41h-41v-41h-41v-41h-41v-41h-41v-41h-41z" />
    <glyph glyph-name="zcaron" unicode="&#x17e;" horiz-adv-x="860" 
d="M942 983v-41h-41v-41h-41v-41h-41v-41h-41v-41h-41v-41h-41v-41h-41v-41h-41v-41h-41v-41h-41v-41h-40v-40h-41v-41h-41v-41h-41v-41h-41v-41h-41v-41h-41v-41h-41v-41h-41v-41h41v41h164v-41h123v-41h81v41h82v41h41v41h41v41h41v-82h-41v-41h-41v-82h-41v-41h-41v-41
h-82v-41h-81v41h-123v41h-123v41h-82v-41h-123v-41h-41v-41h-41v41h-41v41h41v41h41v41h41v41h41v41h41v41h41v41h41v41h41v41h41v41h41v41h41v41h41v40h41v41h41v41h41v41h40v41h41v41h41v41h41v41h41v41h-41v-41h-327v-41h-82v-41h-41v-41h-41v-41h-82v41h41v41h41v82h41
v82h41v82h696zM737 1188v-41h-205v82h-40v123h-41v82h-41v41h41v-41h81v-41h41v-41h82v-82h-82v-41h82v41h82v41h41v41h82v41h82v41h41v-41h-41v-41h-41v-41h-41v-41h-41v-41h-41v-41h-41z" />
    <glyph glyph-name="Scommaaccent" unicode="&#x218;" 
d="M573 0v-41h-81v41h-164v41h-82v41h-41v41h-41v41h-41v41h-41v-41h41v-41h-41v-41h-82v-41h-41v82h41v123h41v123h41v123h41v40h82v-245h41v-82h41v-41h41v-41h41v-41h286v41h82v41h41v41h41v287h-41v40h-41v41h-82v41h-41v41h-41v41h-81v41h-41v41h-41v41h-41v41h-41v82
h-41v205h41v82h41v82h41v41h41v41h81v41h410v-41h82v-41h41v-82h41v-82h41v123h-41v41h123v41h41v-123h-41v-123h-41v-123h-41v-123h-82v164h-41v164h-41v41h-41v41h-41v41h-287v-41h-41v-41h-41v-41h-40v-246h40v-41h41v-41h82v-41h41v-41h82v-41h41v-41h82v-41h41v-41h41
v-41h41v-122h41v-123h-41v-123h-41v-82h-41v-41h-41v-41h-82v-41h-41v-41h-205zM328 -492v-40h-82v40h82v41h41v41h41v82h-82v41h-41v123h41v41h41v41h123v-41h40v-246h-40v-41h-41v-41h-41v-41h-82zM451 -246h-41v-82h41v82z" />
    <glyph glyph-name="scommaaccent" unicode="&#x219;" horiz-adv-x="778" 
d="M492 41v-41h-369v41h-82v41h-41v205h41v41h82v-41h41v-82h-41v-82h41v-41h41v-41h123v41h82v41h41v205h-41v41h-41v41h-41v41h-41v41h-41v40h-41v82h-41v205h41v41h41v41h41v41h82v41h204v-41h123v-41h41v-82h41v-123h-41v-41h-123v41h-41v82h41v82h-41v41h-163v-41h-82
v-164h41v-82h82v-82h41v-40h40v-41h41v-41h41v-82h41v-123h-41v-82h-41v-41h-41v-41h-40zM123 -492v-40h-82v40h82v41h41v41h41v82h-82v41h-41v123h41v41h41v41h123v-41h41v-246h-41v-41h-41v-41h-41v-41h-82zM246 -246h-41v-82h41v82z" />
    <glyph glyph-name="uni021A" unicode="&#x21a;" horiz-adv-x="1310" 
d="M410 1434h1187v-123h-41v-123h-40v-123h-41v-82h-82v41h41v205h-41v82h-41v41h-328v-41h41v-123h-41v-82h-41v-82h-41v-123h-41v-82h-41v-123h-41v-123h-41v-81h-41v-123h-41v-82h-41v-205h82v-41h41v-41h-573v82h164v41h41v82h41v82h41v123h40v82h41v122h41v82h41v123
h41v82h41v123h41v82h41v123h41v123h-205v-41h-82v-41h-81v-41h-41v-41h-41v-41h-41v-82h-41v-41h-41v-41h-41v82h41v123h41v82h41v82h41v82zM328 -492v-40h-82v40h82v41h41v41h41v82h-82v41h-41v123h41v41h41v41h123v-41h40v-246h-40v-41h-41v-41h-41v-41h-82zM451 -246h-41
v-82h41v82z" />
    <glyph glyph-name="uni021B" unicode="&#x21b;" horiz-adv-x="696" 
d="M532 860v-41h-40v-82h-41v-123h-41v-82h-41v-122h-41v-123h-41v-123h41v-41h82v41h82v41h40v-41h-40v-41h-41v-41h-41v-41h-41v-41h-246v41h-41v205h41v123h41v82h41v122h41v82h41v123h41v123h-123v41h82v41h82v41h41v41h41v41h41v41h81v41h41v41h41v-82h-41v-82h-41v-82
h246v-82h-368v-41h81zM82 -492v-40h-82v40h82v41h41v41h41v82h-82v41h-41v123h41v41h41v41h123v-41h41v-246h-41v-41h-41v-41h-41v-41h-82zM205 -246h-41v-82h41v82z" />
    <glyph glyph-name="circumflex" unicode="&#x2c6;" horiz-adv-x="1024" 
d="M532 1147v-41h-40v41h40v41h41v41h41v41h41v41h41v41h41v41h246v-123h41v-82h41v-82h-41v41h-82v41h-82v41h-41v41h41v41h-41v-41h-82v-41h-82v-41h-82v-41h-41z" />
    <glyph glyph-name="caron" unicode="&#x2c7;" horiz-adv-x="1024" 
d="M860 1188v-41h-205v82h-41v123h-41v82h-41v41h41v-41h82v-41h41v-41h82v-82h-82v-41h82v41h82v41h41v41h82v41h82v41h41v-41h-41v-41h-41v-41h-41v-41h-41v-41h-41v-41h-41z" />
    <glyph glyph-name="breve" unicode="&#x2d8;" horiz-adv-x="1024" 
d="M573 1434v-82h41v-41h82v-41h164v41h123v41h41v41h41v-82h-41v-82h-41v-41h-41v-41h-82v-41h-164v41h-82v41h-41v41h-41v205h41z" />
    <glyph glyph-name="dotaccent" unicode="&#x2d9;" horiz-adv-x="1024" 
d="M696 1188v82h41v82h41v41h164v-123h-41v-82h-205z" />
    <glyph glyph-name="ring" unicode="&#x2da;" horiz-adv-x="1024" 
d="M901 1147v-41h-246v41h-41v41h-41v164h41v82h41v41h205v-41h82v-82h41v-123h-41v-82h-41zM696 1147h82v41h82v82h41v41h-41v82h-164v-41h-41v-164h41v-41z" />
    <glyph glyph-name="ogonek" unicode="&#x2db;" horiz-adv-x="1024" 
d="M287 -328v41h41v-82h-41v-41h-82v-41h-82v41h-82v41h-41v123h41v82h41v41h41v41h82v41h82v41h82v-41h-82v-41h-41v-41h-41v-41h-41v-41h-41v-123h164z" />
    <glyph glyph-name="tilde" unicode="&#x2dc;" horiz-adv-x="1024" 
d="M492 1188v-41h-41v41h41v82h40v41h41v82h82v41h82v-41h82v-41h82v-41h205v-82h-41v-41h-41v-41h-205v41h-41v41h-82v41h-123v-41h-41v-41h-40zM1147 1311h-41v41h41v41h41v-41h-41v-41z" />
    <glyph glyph-name="hungarumlaut" unicode="&#x2dd;" horiz-adv-x="1024" 
d="M696 1393h41v41h41v41h123v-123h-41v-41h-41v-41h-82v-41h-41v-41h-82v-41h-82v41h41v41h41v82h41v41h41v41zM1024 1393h41v41h41v41h123v-123h-41v-41h-41v-41h-82v-41h-41v-41h-82v-41h-82v41h41v41h41v82h41v41h41v41z" />
    <glyph glyph-name="Wgrave" unicode="&#x1e80;" horiz-adv-x="2048" 
d="M573 0v-82h-41v819h-40v574h-41v41h-41v41h-41v41h491v-82h-123v-41h-41v-369h41v-614h-41v-41h41v41h41v82h41v41h41v41h41v81h41v41h41v41h41v82h41v41h41v82h41v41h41v410h-41v41h-41v41h-41v41h491v-82h-122v-41h-41v-983h-41v-41h41v41h41v41h41v82h41v41h40v81h41
v41h41v41h41v82h41v41h41v82h41v41h41v41h41v82h41v41h41v41h41v82h41v82h41v41h-41v41h-82v82h410v-82h-82v-41h-82v-41h-41v-82h-41v-41h-41v-41h-41v-82h-41v-41h-41v-82h-41v-41h-41v-41h-41v-82h-41v-41h-41v-82h-41v-41h-41v-41h-41v-81h-41v-41h-41v-41h-40v-82h-41
v-41h-41v-82h-41v-41h-41v-41h-41v-82h-41v-41h-41v860h-41v-41h-41v-82h-41v-41h-41v-41h-41v-82h-41v-40h-41v-41h-41v-82h-41v-41h-41v-82h-41v-41h-41v-41h-41v-82h-41v-41h-41v-41h-41zM1475 1638v-82h-41v41h-41v41h-82v41h-82v41h-82v41h-41v164h123v-41h41v-41h41
v-41h41v-41h41v-82h41v-41h41z" />
    <glyph glyph-name="wgrave" unicode="&#x1e81;" horiz-adv-x="1433" 
d="M246 -41v901h-41v82h123v41h82v-41h41v-737h-41v-41h-41v-41h41v41h41v41h81v41h41v41h41v41h41v82h41v41h41v409h-41v41h-41v41h164v41h82v-205h41v-327h-41v-287h-41v-41h41v41h41v41h41v41h41v41h41v41h41v41h41v82h41v41h41v81h41v164h41v82h-82v41h-41v41h41v41h41
v41h123v-82h41v-123h-41v-123h-41v-82h-41v-81h-41v-82h-41v-41h-41v-41h-41v-41h-41v-41h-41v-41h-41v-41h-41v-41h-41v-41h-41v-41h-82v-41h-41v-41h-82v205h41v205h-41v-82h-41v-41h-41v-41h-41v-41h-41v-41h-81v-41h-41v-41h-41v-41h-82v-41h-41zM983 1188v-82h-41v41
h-41v41h-82v41h-82v41h-82v41h-41v164h123v-41h41v-41h41v-41h41v-41h41v-82h41v-41h41z" />
    <glyph glyph-name="Wacute" unicode="&#x1e82;" horiz-adv-x="2048" 
d="M573 0v-82h-41v819h-40v574h-41v41h-41v41h-41v41h491v-82h-123v-41h-41v-369h41v-614h-41v-41h41v41h41v82h41v41h41v41h41v81h41v41h41v41h41v82h41v41h41v82h41v41h41v410h-41v41h-41v41h-41v41h491v-82h-122v-41h-41v-983h-41v-41h41v41h41v41h41v82h41v41h40v81h41
v41h41v41h41v82h41v41h41v82h41v41h41v41h41v82h41v41h41v41h41v82h41v82h41v41h-41v41h-82v82h410v-82h-82v-41h-82v-41h-41v-82h-41v-41h-41v-41h-41v-82h-41v-41h-41v-82h-41v-41h-41v-41h-41v-82h-41v-41h-41v-82h-41v-41h-41v-41h-41v-81h-41v-41h-41v-41h-40v-82h-41
v-41h-41v-82h-41v-41h-41v-41h-41v-82h-41v-41h-41v860h-41v-41h-41v-82h-41v-41h-41v-41h-41v-82h-41v-40h-41v-41h-41v-82h-41v-41h-41v-82h-41v-41h-41v-41h-41v-82h-41v-41h-41v-41h-41zM1188 1556v41h41v41h41v41h41v41h41v41h41v41h41v82h82v41h122v-164h-82v-41h-81
v-41h-41v-41h-123v-41h-41v-41h-82z" />
    <glyph glyph-name="wacute" unicode="&#x1e83;" horiz-adv-x="1433" 
d="M246 -41v901h-41v82h123v41h82v-41h41v-737h-41v-41h-41v-41h41v41h41v41h81v41h41v41h41v41h41v82h41v41h41v409h-41v41h-41v41h164v41h82v-205h41v-327h-41v-287h-41v-41h41v41h41v41h41v41h41v41h41v41h41v41h41v82h41v41h41v81h41v164h41v82h-82v41h-41v41h41v41h41
v41h123v-82h41v-123h-41v-123h-41v-82h-41v-81h-41v-82h-41v-41h-41v-41h-41v-41h-41v-41h-41v-41h-41v-41h-41v-41h-41v-41h-41v-41h-82v-41h-41v-41h-82v205h41v205h-41v-82h-41v-41h-41v-41h-41v-41h-41v-41h-81v-41h-41v-41h-41v-41h-82v-41h-41zM696 1106v41h41v41h41
v41h41v41h41v41h41v41h41v82h82v41h123v-164h-82v-41h-82v-41h-41v-41h-123v-41h-41v-41h-82z" />
    <glyph glyph-name="Wdieresis" unicode="&#x1e84;" horiz-adv-x="2048" 
d="M573 0v-82h-41v819h-40v574h-41v41h-41v41h-41v41h491v-82h-123v-41h-41v-369h41v-614h-41v-41h41v41h41v82h41v41h41v41h41v81h41v41h41v41h41v82h41v41h41v82h41v41h41v410h-41v41h-41v41h-41v41h491v-82h-122v-41h-41v-983h-41v-41h41v41h41v41h41v82h41v41h40v81h41
v41h41v41h41v82h41v41h41v82h41v41h41v41h41v82h41v41h41v41h41v82h41v82h41v41h-41v41h-82v82h410v-82h-82v-41h-82v-41h-41v-82h-41v-41h-41v-41h-41v-82h-41v-41h-41v-82h-41v-41h-41v-41h-41v-82h-41v-41h-41v-82h-41v-41h-41v-41h-41v-81h-41v-41h-41v-41h-40v-82h-41
v-41h-41v-82h-41v-41h-41v-41h-41v-82h-41v-41h-41v860h-41v-41h-41v-82h-41v-41h-41v-41h-41v-82h-41v-40h-41v-41h-41v-82h-41v-41h-41v-82h-41v-41h-41v-41h-41v-82h-41v-41h-41v-41h-41zM1106 1638v82h41v82h41v41h164v-123h-41v-82h-205zM1516 1638v82h40v82h41v41h164
v-123h-41v-82h-204z" />
    <glyph glyph-name="wdieresis" unicode="&#x1e85;" horiz-adv-x="1433" 
d="M246 -41v901h-41v82h123v41h82v-41h41v-737h-41v-41h-41v-41h41v41h41v41h81v41h41v41h41v41h41v82h41v41h41v409h-41v41h-41v41h164v41h82v-205h41v-327h-41v-287h-41v-41h41v41h41v41h41v41h41v41h41v41h41v41h41v82h41v41h41v81h41v164h41v82h-82v41h-41v41h41v41h41
v41h123v-82h41v-123h-41v-123h-41v-82h-41v-81h-41v-82h-41v-41h-41v-41h-41v-41h-41v-41h-41v-41h-41v-41h-41v-41h-41v-41h-41v-41h-82v-41h-41v-41h-82v205h41v205h-41v-82h-41v-41h-41v-41h-41v-41h-41v-41h-81v-41h-41v-41h-41v-41h-82v-41h-41zM614 1188v82h41v82h41
v41h164v-123h-41v-82h-205zM1024 1188v82h41v82h41v41h164v-123h-41v-82h-205z" />
    <glyph glyph-name="Ygrave" unicode="&#x1ef2;" horiz-adv-x="1433" 
d="M778 655h41v41h41v41h41v41h41v41h41v41h82v41h41v41h41v41h41v41h41v41h41v41h41v41h41v41h41v82h41v82h-123v82h450v-41h-41v-41h-82v-41h-41v-41h-41v-41h-40v-41h-41v-41h-82v-41h-41v-41h-41v-41h-41v-41h-41v-41h-41v-41h-41v-41h-41v-41h-41v-41h-41v-41h-41v-41
h-41v-41h-41v-82h-41v-81h-41v-123h-41v-82h-41v-205h123v-82h-573v82h164v41h41v41h40v82h41v123h41v123h41v245h-41v164h-41v123h-41v164h-40v123h-41v41h-41v41h-41v41h532v-41h-41v-41h-123v-287h41v-164h41v-205h-41v-41zM1229 1638v-82h-41v41h-41v41h-82v41h-82v41
h-82v41h-41v164h123v-41h41v-41h41v-41h41v-41h41v-82h41v-41h41z" />
    <glyph glyph-name="ygrave" unicode="&#x1ef3;" horiz-adv-x="1064" 
d="M82 -410v-41h-287v41h-41v123h41v41h41v41h41v-41h82v-123h-41v-41h41v41h123v41h82v41h41v41h41v41h41v41h41v41h41v287h-41v368h-41v246h-41v82h-41v82h123v41h82v-41h41v-205h41v-286h40v-369h-40v-41h40v41h41v41h41v41h41v82h41v41h41v82h41v82h41v81h41v123h41v164
h-82v123h41v41h123v-41h41v-287h-41v-123h-41v-81h-41v-41h-41v-82h-41v-41h-41v-82h-41v-41h-41v-82h-41v-41h-41v-41h-41v-41h-41v-41h-40v-41h-41v-41h-41v-41h-41v-41h-41v-41h-41v-41h-41v-41h-82v-41h-82zM819 1188v-82h-41v41h-41v41h-82v41h-82v41h-81v41h-41v164
h122v-41h41v-41h41v-41h41v-41h41v-82h41v-41h41z" />
    <glyph glyph-name="endash" unicode="&#x2013;" horiz-adv-x="1064" 
d="M164 696h901v-82h-942v41h41v41z" />
    <glyph glyph-name="emdash" unicode="&#x2014;" horiz-adv-x="1351" 
d="M164 696h1188v-82h-1229v41h41v41z" />
    <glyph glyph-name="quoteleft" unicode="&#x2018;" horiz-adv-x="491" 
d="M737 1475v-41h-82v-41h-82v-41h-41v-41h-40v-41h-41v-82h122v-164h-41v-41h-163v41h-41v164h41v82h41v41h41v41h41v41h81v41h82v41h82z" />
    <glyph glyph-name="quoteright" unicode="&#x2019;" horiz-adv-x="491" 
d="M451 1024v-41h-82v41h41v41h82v41h40v82h41v82h-41v-41h-81v164h41v41h163v-41h41v-123h-41v-82h-41v-82h-41v-41h-81v-41h-41zM246 942v41h82v-41h-82z" />
    <glyph glyph-name="quotesinglbase" unicode="&#x201a;" horiz-adv-x="487" 
d="M-41 -205v-41h-82v41h82v41h41v41h41v41h41v82h-82v41h-41v123h41v41h41v41h123v-41h41v-205h-41v-82h-41v-41h-41v-41h-41v-41h-82zM123 41h-41v-41h41v41z" />
    <glyph glyph-name="quotedblleft" unicode="&#x201c;" horiz-adv-x="819" 
d="M737 1475v-41h-82v-41h-82v-41h-41v-41h-40v-41h-41v-82h-41v-41h41v41h122v-164h-41v-41h-163v41h-41v164h41v82h41v41h41v41h41v41h81v41h82v41h82zM1065 1475v-41h-82v-41h-82v-41h-41v-41h-41v-41h-41v-82h123v-164h-41v-41h-164v41h-41v164h41v82h41v41h41v41h41v41
h82v41h82v41h82z" />
    <glyph glyph-name="quotedblright" unicode="&#x201d;" horiz-adv-x="819" 
d="M778 1024v-41h-82v41h41v41h82v41h41v82h41v41h-123v164h41v41h164v-41h41v-123h-41v-82h-41v-82h-41v-41h-41v-41h-82zM451 1024v-41h-82v41h41v41h82v41h40v82h41v82h-41v-41h-81v164h41v41h163v-41h41v-123h-41v-82h-41v-82h-41v-41h-81v-41h-41zM942 1270h-41v-41h41
v41zM614 942v41h41v-41h-41zM246 942v41h82v-41h-82z" />
    <glyph glyph-name="quotedblbase" unicode="&#x201e;" horiz-adv-x="811" 
d="M309 -197v-41h-82v41h41v41h82v41h41v82h41v41h-123v164h41v41h164v-41h41v-123h-41v-82h-41v-82h-41v-41h-41v-41h-82zM-18 -197v-41h-82v41h41v41h82v41h40v82h41v82h-41v-41h-81v164h41v41h163v-41h41v-123h-41v-82h-41v-82h-41v-41h-81v-41h-41zM473 49h-41v-41h41
v41zM145 -279v41h41v-41h-41zM-223 -279v41h82v-41h-82z" />
    <glyph glyph-name="dagger" unicode="&#x2020;" horiz-adv-x="1146" 
d="M328 -246h-41v82h41v123h41v123h41v164h41v123h41v163h40v164h41v41h41v41h41v82h41v82h41v123h41v123h41v205h41v41h82v-41h41v-82h-41v-82h-41v-41h-41v-82h-41v-82h-41v-123h-41v-287h-41v-82h-41v-81h-41v-82h-41v-82h-41v-82h-40v-82h-41v-82h-41v-123h-41v-82h-41
v-82zM696 1024v-41h-327v123h163v-41h123v-41h41zM819 983h205v41h82v-41h41v-123h-164v41h-41v41h-123v41zM246 -328v41h41v-41h-41zM205 -451v41h41v-41h-41z" />
    <glyph glyph-name="daggerdbl" unicode="&#x2021;" horiz-adv-x="1146" 
d="M328 -41h-328v123h41v41h41v-41h82v-41h82v-41h82v-41h41v287h41v41h41v41h41v82h40v82h41v286h41v41h41v41h41v82h41v123h41v123h41v205h41v41h82v-41h41v-82h-41v-82h-41v-41h-41v-82h-41v-82h-41v-328h-41v-41h-41v-41h-41v-41h-41v-122h-41v-287h-41v-41h-40v-41h-41
v-41h-41v-123h-41v-164h-41v-164h-41v-41h-41v-41h-41v41h-41v82h41v82h41v82h41v41h41v123zM696 1024v-41h-327v123h163v-41h123v-41h41zM819 983h205v41h82v-41h41v-123h-164v41h-41v41h-123v41zM451 -82v41h122v41h164v-41h41v-123h-164v41h-82v41h-81z" />
    <glyph glyph-name="bullet" unicode="&#x2022;" horiz-adv-x="573" 
d="M287 860h286v-82h-41v-123h-40v-82h-328v41h41v123h41v82h41v41z" />
    <glyph glyph-name="ellipsis" unicode="&#x2026;" horiz-adv-x="1474" 
d="M41 246h205v-123h-41v-82h-41v-41h-205v82h41v123h41v41zM532 246h205v-123h-41v-82h-41v-41h-204v82h41v123h40v41zM1024 246h205v-123h-41v-82h-41v-41h-205v82h41v123h41v41z" />
    <glyph glyph-name="guilsinglleft" unicode="&#x2039;" horiz-adv-x="737" 
d="M369 205v-164h-41v41h-41v82h-41v82h-41v82h-41v41h-41v82h-41v41h41v40h41v41h82v41h41v41h82v41h41v41h82v41h40v41h41v41h82v41h41v41h41v-41h-41v-41h-41v-41h-41v-41h-41v-82h-41v-41h-40v-41h-41v-41h-41v-41h-41v-40h-41v-41h-41v-41h41v-205h41z" />
    <glyph glyph-name="guilsinglright" unicode="&#x203a;" horiz-adv-x="737" 
d="M0 41v-41h-41v41h41v41h41v41h41v41h41v41h41v41h41v41h41v41h41v41h41v41h41v82h41v286h-41v164h41v-82h41v-82h41v-41h40v-82h41v-82h41v-41h41v-81h-82v-41h-41v-41h-40v-41h-82v-41h-41v-41h-82v-41h-41v-41h-82v-41h-41v-41h-41v-41h-82z" />
    <glyph glyph-name="fraction" unicode="&#x2044;" horiz-adv-x="1187" 
d="M123 41v-41h-82v41h41v41h41v41h41v82h41v41h41v41h41v41h41v41h41v82h41v41h41v40h41v41h40v82h41v41h41v41h41v41h41v41h41v82h41v41h41v41h41v41h41v41h41v82h41v41h41v41h41v41h41v41h41v82h41v41h82v-82h-41v-41h-41v-41h-41v-41h-41v-82h-41v-41h-41v-41h-41v-41
h-41v-41h-41v-82h-41v-41h-41v-41h-41v-41h-41v-41h-41v-82h-41v-41h-41v-41h-41v-41h-41v-40h-40v-82h-41v-41h-41v-41h-41v-41h-41v-41h-41v-82h-41v-41h-41v-41h-41v-41h-41z" />
    <glyph glyph-name="Euro" unicode="&#x20ac;" horiz-adv-x="1269" 
d="M205 532h82v41h-246v82h205v82h-164v41h41v41h164v123h41v82h41v82h41v41h41v41h41v82h81v41h41v41h41v41h123v41h369v-41h41v-41h41v-41h41v-41h41v-82h41v82h-41v41h82v41h82v-82h-41v-123h-41v-123h-41v-123h-82v164h-41v123h-41v82h-41v41h-41v41h-205v-41h-82v-41
h-82v-41h-41v-41h-41v-82h-41v-41h-41v-82h-41v-82h-40v-82h614v-82h-655v-82h491v-41h-41v-41h-450v-204h41v-123h40v-41h41v-41h41v-41h41v-41h205v41h82v41h82v41h41v41h41v41h41v-41h-41v-41h-41v-41h-41v-41h-41v-41h-41v-41h-82v-41h-328v41h-81v41h-41v41h-41v41h-41
v41h-41v82h-41v205h-41v40z" />
    <glyph glyph-name="trademark" unicode="&#x2122;" horiz-adv-x="1761" 
d="M410 1434h655v-82h-41v-123h-41v-41h-41v164h-82v41h-123v-82h41v-41h-41v-82h-41v-82h-41v-123h-41v-123h-41v-123h82v-41h-41v-41h-327v82h123v41h41v123h41v82h40v123h41v123h41v82h41v82h-82v-41h-122v-41h-41v-41h-41v-82h-41v82h41v123h41v41zM1106 737v-82h-246
v82h82v41h41v41h41v123h41v123h41v82h41v123h41v123h-82v41h287v-533h-41v-41h41v41h41v41h41v82h41v41h40v41h41v41h41v82h41v41h41v41h41v41h41v82h287v-41h-82v-41h-41v-41h-41v-123h-41v-82h-41v-123h-41v-82h-41v-164h41v-82h-327v82h122v41h41v123h41v123h41v82h41
v123h41v41h-41v-41h-41v-41h-41v-41h-41v-82h-41v-41h-41v-41h-40v-41h-41v-82h-41v-41h-41v-41h-41v-41h-41v-82h-41v697h-41v-123h-41v-123h-41v-82h-41v-123h-41v-164h41z" />
    <glyph glyph-name="uni2157" unicode="&#x2157;" horiz-adv-x="1515" 
d="M532 696v-41h-245v41h-82v205h123v-82h-41v-82h41v-41h123v41h81v41h41v246h-122v82h41v41h40v41h41v41h82v41h41v41h41v41h-41v-41h-245v-41h-41v-41h-41v41h41v82h41v82h450v-41h-41v-41h-41v-41h-41v-41h-41v-41h-82v-41h-41v-41h-41v-41h82v-41h41v-41h41v-164h-41
v-82h-41v-41h-41v-41h-82zM287 41v-41h-82v41h41v41h41v82h41v41h41v41h41v41h41v41h41v82h40v41h41v41h41v40h41v41h41v82h41v41h41v41h41v41h41v41h41v82h41v41h41v41h41v41h41v82h41v41h41v41h41v41h41v41h41v82h41v41h41v41h82v-82h-41v-41h-41v-41h-41v-41h-41v-41h-41
v-82h-41v-41h-41v-41h-41v-41h-41v-41h-41v-82h-41v-41h-41v-41h-41v-41h-41v-41h-41v-82h-41v-41h-41v-41h-41v-40h-41v-41h-41v-82h-41v-41h-41v-41h-40v-41h-41v-82h-41v-41h-41v-41h-41v-41h-41zM1188 41v-41h-287v41h-41v41h-41v123h41v41h82v-82h-41v-82h41v-41h164
v41h41v41h41v41h41v164h-41v41h-82v41h-82v-41h-82v41h41v82h41v81h41v123h41v82h369v41h81v-41h-40v-41h-41v-82h-287v41h-41v-41h-41v-82h-41v-81h205v-41h41v-41h41v-82h41v-41h-41v-123h-41v-41h-41v-41h-41v-41h-41z" />
    <glyph glyph-name="minus" unicode="&#x2212;" horiz-adv-x="1064" 
d="M164 696h901v-82h-942v41h41v41z" />
    <glyph glyph-name="dotlessj" unicode="&#xf6be;" horiz-adv-x="532" 
d="M-164 -451v-41h-164v41h-82v41h-41v164h82v41h41v-41h41v-82h-41v-82h123v41h41v41h41v41h41v123h41v123h41v82h41v123h41v82h41v123h41v123h41v81h41v123h41v164h-41v41h-41v41h205v41h163v-41h-41v-82h-40v-123h-41v-82h-41v-123h-41v-122h-41v-82h-41v-123h-41v-82
h-41v-123h-41v-82h-41v-123h-41v-82h-41v-41h-41v-41h-41v-41h-41v-41h-82z" />
    <glyph glyph-name="commaaccent" unicode="&#xf6c3;" horiz-adv-x="1024" 
d="M164 -492v-40h-82v40h82v41h41v41h41v82h-82v41h-41v123h41v41h41v41h123v-41h41v-246h-41v-41h-41v-41h-41v-41h-82zM287 -246h-41v-82h41v82z" />
    <glyph glyph-name="fi" unicode="&#xfb01;" horiz-adv-x="1228" 
d="M-205 -451v-41h-82v41h-123v41h-41v164h82v41h41v-41h41v-82h-41v-82h123v41h41v41h41v41h41v82h41v123h41v123h41v123h41v123h41v82h41v123h41v122h41v82h41v123h41v82h-123v82h164v41h41v82h41v82h41v82h40v41h41v41h41v41h41v41h123v41h82v-41h164v-41h41v-164h-41
v-41h-123v41h-41v82h82v41h-41v41h-123v-41h-82v-82h-41v-41h-41v-123h-41v-123h246v-41h-41v-41h-246v-41h-40v-82h-41v-123h-41v-123h-41v-81h-41v-123h-41v-82h-41v-123h-41v-123h-41v-82h-41v-123h-41v-82h-41v-41h-41v-41h-41v-41h-41v-41h-123zM1106 1188v82h41v82h41
v41h205v-41h-41v-82h-41v-82h-205zM942 41v-41h-205v41h-41v164h41v82h41v123h41v82h41v122h41v82h41v164h-41v41h-41v41h205v41h123v-123h-41v-82h-41v-82h-41v-123h-41v-122h-41v-82h-41v-123h-41v-123h123v-41h-41v-41h-41zM1065 123h-41v41h41v41h41v41h41v-41h-41v-41
h-41v-41z" />
    <glyph glyph-name="fl" unicode="&#xfb02;" horiz-adv-x="1228" 
d="M-205 -451v-41h-82v41h-123v41h-41v164h82v41h41v-41h41v-82h-41v-82h123v41h41v41h41v41h41v82h41v123h41v123h41v123h41v123h41v82h41v123h41v122h41v82h41v123h41v82h-123v82h164v41h41v82h41v82h41v82h40v41h41v41h41v41h41v41h123v41h82v-41h164v-41h41v41h246v41
h82v-82h-41v-82h-41v-123h-41v-82h-41v-123h-41v-82h-41v-123h-41v-82h-41v-123h-41v-81h-41v-123h-41v-123h-41v-123h123v-41h-41v-41h-41v-41h-205v41h-41v164h41v82h41v123h41v82h41v122h41v82h41v123h41v82h41v123h41v82h41v123h41v123h-82v-123h-41v-41h-123v41h-41v82
h82v41h-41v41h-123v-41h-82v-82h-41v-41h-41v-123h-41v-123h246v-41h-41v-41h-246v-41h-40v-82h-41v-123h-41v-123h-41v-81h-41v-123h-41v-82h-41v-123h-41v-123h-41v-82h-41v-123h-41v-82h-41v-41h-41v-41h-41v-41h-41v-41h-123zM1065 123h-41v41h41v41h41v41h41v-41h-41
v-41h-41v-41z" />
    <glyph glyph-name="NULL" horiz-adv-x="501" 
 />
    <glyph glyph-name="CR" horiz-adv-x="501" 
 />
    <glyph glyph-name="nbspace" horiz-adv-x="491" 
 />
    <glyph glyph-name="Tcedilla" horiz-adv-x="1310" 
d="M164 -369v41h41v-41h123v41h41v82h-41v41h-41v123h41v41h41v41h-164v82h164v41h41v82h41v82h41v123h40v82h41v122h41v82h41v123h41v82h41v123h41v82h41v123h41v123h-205v-41h-82v-41h-81v-41h-41v-41h-41v-41h-41v-82h-41v-41h-41v-41h-41v82h41v123h41v82h41v82h41v82
h1187v-123h-41v-123h-40v-123h-41v-82h-82v41h41v205h-41v82h-41v41h-328v-41h41v-123h-41v-82h-41v-82h-41v-123h-41v-82h-41v-123h-41v-123h-41v-81h-41v-123h-41v-82h-41v-205h82v-41h41v-41h-327v-41h-41v-41h-41v-41h41v41h41v-41h41v-82h40v-82h-40v-41h-41v-41h-41
v-41h-205v41h-41z" />
    <glyph glyph-name="idotaccent" horiz-adv-x="573" 
d="M451 1188v82h41v82h40v41h205v-41h-41v-82h-41v-82h-204zM287 41v-41h-205v41h-41v164h41v82h41v123h41v82h41v122h41v82h41v164h-41v41h-41v41h205v41h122v-123h-40v-82h-41v-82h-41v-123h-41v-122h-41v-82h-41v-123h-41v-123h123v-41h-41v-41h-41zM410 123h-41v41h41
v41h41v41h41v-41h-41v-41h-41v-41z" />
    <glyph glyph-name="tcedilla" horiz-adv-x="696" 
d="M-82 -369v41h41v-41h123v41h41v82h-41v41h-41v123h41v41h41v82h-41v205h41v123h41v82h41v122h41v82h41v123h41v123h-123v41h82v41h82v41h41v41h41v41h41v41h81v41h41v41h41v-82h-41v-82h-41v-82h246v-82h-368v-41h81v-41h-40v-82h-41v-123h-41v-82h-41v-122h-41v-123h-41
v-123h41v-41h82v41h82v41h40v-41h-40v-41h-41v-41h-41v-41h-41v-41h-164v-41h-41v-41h-41v-41h41v41h41v-41h41v-82h41v-82h-41v-41h-41v-41h-41v-41h-205v41h-41z" />
    <glyph glyph-name="caronSlovak" horiz-adv-x="1024" 
d="M737 1065v-41h-82v41h82v41h41v41h41v82h-82v41h-41v123h41v41h41v41h123v-41h41v-246h-41v-41h-41v-41h-41v-41h-82zM860 1311h-41v-82h41v82z" />
    <glyph glyph-name="reversequoteleft" horiz-adv-x="491" 
d="M573 1024v-41h-41v41h-40v41h-41v41h-41v287h41v41h163v-41h41v-123h-41v-41h-122v-123h40v-82h41zM655 942h-41v41h41v-41z" />
    <glyph glyph-name="reversequotedblleft" horiz-adv-x="819" 
d="M901 1024v-41h-41v41h-41v41h-41v41h-41v287h41v41h164v-41h41v-123h-41v-41h-123v-123h41v-82h41zM573 1024v-41h-41v41h-40v41h-41v82h-41v246h41v41h163v-41h41v-123h-41v-41h-122v-123h40v-82h41zM655 942h-41v41h41v-41zM983 942h-41v41h41v-41z" />
    <glyph glyph-name="enspace" horiz-adv-x="1064" 
d="M164 696h901v-82h-942v41h41v41z" />
    </font>
</defs>
</svg>
