<?xml version="1.0" standalone="no"?>
<!DOCTYPE svg PUBLIC "-//W3C//DTD SVG 1.1//EN" "http://www.w3.org/Graphics/SVG/1.1/DTD/svg11.dtd" >
<svg xmlns="http://www.w3.org/2000/svg" xmlns:xlink="http://www.w3.org/1999/xlink" version="1.1">
<metadata>
Created by FontForge 20170731 at Fri Apr 30 01:23:59 2021
 By Aleksey,,,
(c) 2019 MCKL. All Rights Reserved.
</metadata>
<defs>
<font id="Redaction20-Bold" horiz-adv-x="1310" >
  <font-face 
    font-family="Redaction 20"
    font-weight="700"
    font-stretch="normal"
    units-per-em="2048"
    panose-1="2 10 8 3 6 5 4 6 3 3"
    ascent="1536"
    descent="-512"
    x-height="1024"
    cap-height="1434"
    bbox="-205 -532 2212 1980"
    underline-thickness="102"
    underline-position="-307"
    unicode-range="U+0020-FB02"
  />
<missing-glyph horiz-adv-x="1052" 
d="M123 -205v1741h807v-1741h-807z" />
    <glyph glyph-name=".notdef" horiz-adv-x="1052" 
d="M123 -205v1741h807v-1741h-807z" />
    <glyph glyph-name=".null" horiz-adv-x="0" 
 />
    <glyph glyph-name="nonmarkingreturn" horiz-adv-x="682" 
 />
    <glyph glyph-name="space" unicode=" " horiz-adv-x="491" 
 />
    <glyph glyph-name="exclam" unicode="!" horiz-adv-x="491" 
d="M287 655v-204h-41v41h-41v204h-41v164h-41v205h-41v328h41v41h41v41h123v-41h82v-41h41v-328h-41v-205h-41v-205h-41zM82 287h328v-287h-328v287z" />
    <glyph glyph-name="quotedbl" unicode="&#x22;" horiz-adv-x="819" 
d="M246 983v-82h-41v123h-41v123h-41v123h-41v82h41v82h82v41h41v-41h82v-41h41v-205h-41v-82h-41v-123h-41zM614 1024v-123h-41v41h-41v123h-40v123h-41v205h41v41h81v41h41v-41h82v-82h41v-82h-41v-123h-41v-123h-41z" />
    <glyph glyph-name="numbersign" unicode="#" horiz-adv-x="1515" 
d="M41 451v41h41v40h369v82h41v164h40v123h-368v41h41v41h368v82h41v123h41v164h41v82h82v-123h-41v-123h-41v-164h-41v-41h369v123h41v164h41v164h123v-41h-41v-123h-41v-164h-41v-123h369v-82h-410v-82h-41v-164h-41v-123h369v-40h-41v-41h-369v-41h-41v-164h-41v-164h-41
v-82h-82v123h41v123h41v164h41v41h-368v-123h-41v-164h-41v-164h-123v41h41v123h41v164h41v123h-369zM532 532h328v41h41v123h41v164h41v41h-328v-41h-41v-123h-41v-123h-41v-82z" />
    <glyph glyph-name="dollar" unicode="$" horiz-adv-x="1187" 
d="M532 -164v205h-204v41h-82v41h-41v41h-41v41h-41v205h41v41h164v-41h41v-164h-41v-41h41v-41h41v-41h122v369h82v-369h82v41h82v82h41v164h-41v41h-41v41h-82v40h-123v41h-81v41h-82v41h-82v41h-41v41h-82v82h-41v82h-41v205h41v82h41v82h41v41h82v41h41v41h204v163h82
v-163h164v-41h82v-41h82v-41h41v-82h41v-164h-41v-41h-205v41h-41v123h41v82h-41v41h-41v41h-82v-369h-41v41h-41v328h-81v-41h-41v-41h-41v-41h-41v-123h41v-82h82v-41h81v-41h82v-41h82v-41h82v-41h123v-41h41v-41h41v-41h41v-82h41v-245h-41v-82h-41v-82h-41v-41h-82v-41
h-41v-41h-205v-205h-82z" />
    <glyph glyph-name="percent" unicode="%" horiz-adv-x="1720" 
d="M532 696v-41h-245v41h-82v41h-41v41h-41v41h-41v123h-41v205h41v123h41v41h41v41h41v41h41v41h286v-41h82v-41h41v-41h41v-82h41v-328h-41v-82h-41v-41h-41v-41h-41v-41h-41zM451 41v-41h-82v82h41v41h41v82h41v41h40v82h41v41h41v82h41v41h41v81h41v41h41v82h41v82h41
v41h41v82h41v41h41v82h41v41h41v82h41v82h41v41h41v82h41v41h41v41h82v-41h-41v-82h-41v-82h-41v-41h-41v-82h-41v-41h-41v-82h-41v-41h-41v-82h-41v-41h-41v-82h-41v-82h-41v-41h-41v-82h-41v-40h-41v-82h-41v-41h-41v-82h-41v-82h-41v-41h-41v-82h-40v-41h-41zM328 737
h123v41h41v123h40v246h-40v164h-41v41h-41v41h-82v-82h-41v-492h41v-82zM1475 41v-41h-287v41h-82v41h-41v41h-41v82h-41v368h41v41h41v82h41v41h82v41h246v-41h82v-41h40v-41h41v-123h41v-286h-41v-123h-41v-41h-40v-41h-41zM1311 41h41v41h41v41h41v491h-41v82h-123v-41
h-41v-123h-41v-245h41v-164h41v-41h41v-41z" />
    <glyph glyph-name="ampersand" unicode="&#x26;" horiz-adv-x="1556" 
d="M778 41v-41h-491v41h-82v41h-41v41h-41v41h-41v41h-41v287h41v40h41v41h41v41h41v41h41v41h82v41h41v82h-41v82h-41v82h-41v164h41v123h41v41h41v41h41v41h82v41h409v-41h82v-41h41v-82h41v-164h-41v-41h-41v-41h-41v-41h-41v-41h-82v-41h-82v-41h-41v-82h41v-41h41v-41
h41v-41h41v-82h41v-41h41v-40h41v-41h41v-41h41v41h41v81h41v123h41v123h-82v41h-41v41h410v-82h-82v-41h-41v-41h-41v-82h-41v-41h-41v-81h-41v-82h-41v-123h41v-41h82v-41h82v-41h204v-41h-40v-41h-82v-41h-82v-41h-287v41h-82v82h-82v-41h-41v-41h-82zM655 901h41v41h41
v41h41v82h41v205h-41v82h-164v-41h-41v-41h-41v-164h41v-82h41v-82h41v-41zM573 82h123v41h123v82h-41v41h-41v41h-41v41h-41v82h-41v41h-41v41h-41v81h-40v41h-41v82h-41v-82h-41v-122h-41v-123h41v-123h41v-82h41v-41h122v-41zM1597 164h-41v41h41v-41z" />
    <glyph glyph-name="quotesingle" unicode="'" horiz-adv-x="491" 
d="M246 942v-41h-41v164h-41v82h-41v246h41v41h41v41h41v-41h82v-41h41v-205h-41v-123h-41v-123h-41z" />
    <glyph glyph-name="parenleft" unicode="(" horiz-adv-x="901" 
d="M819 -410v-41h-82v41h-82v41h-82v41h-81v41h-41v41h-41v41h-41v41h-41v41h-41v41h-41v82h-41v41h-41v123h-41v123h-41v491h41v123h41v82h41v82h41v82h41v41h41v41h41v41h41v41h41v41h41v41h81v41h41v41h123v41h82v-41h-41v-41h-41v-41h-41v-41h-41v-41h-41v-41h-41v-82
h-41v-82h-40v-123h-41v-123h-41v-655h41v-164h41v-82h40v-82h41v-82h41v-41h41v-41h41v-41h41v-41h41v-41h41z" />
    <glyph glyph-name="parenright" unicode=")" horiz-adv-x="901" 
d="M164 -410v-41h-82v41h41v41h41v41h41v41h41v41h41v41h41v82h41v82h41v82h41v164h41v655h-41v123h-41v123h-41v82h-41v82h-41v41h-41v41h-41v41h-41v41h-41v41h-41v41h82v-41h82v-41h82v-41h82v-41h41v-41h41v-41h40v-41h41v-41h41v-41h41v-82h41v-41h41v-123h41v-123h41
v-491h-41v-123h-41v-82h-41v-82h-41v-82h-41v-41h-41v-41h-41v-41h-40v-41h-41v-41h-41v-41h-41v-41h-82v-41h-123z" />
    <glyph glyph-name="asterisk" unicode="*" horiz-adv-x="860" 
d="M492 942v164h-123v328h123v-328h40v41h41v41h82v41h82v41h41v-123h-82v-41h-82v-41h-41v-82h41v-41h82v-41h82v-123h-41v41h-82v41h-41v41h-82v41h-40zM369 1106v-164h-41v-41h-41v-41h-82v-41h-82v-41h-41v123h82v41h41v41h82v82h-41v41h-82v41h-82v123h41v-41h82v-41
h82v-41h41v-41h41zM369 942h123v-328h-123v328z" />
    <glyph glyph-name="plus" unicode="+" horiz-adv-x="1064" 
d="M82 696h410v410h81v-410h410v-82h-410v-409h-81v409h-410v82z" />
    <glyph glyph-name="comma" unicode="," horiz-adv-x="491" 
d="M205 -205v-41h-41v41h41v41h41v41h41v205h-41v-82h-82v41h-41v41h-41v164h41v41h205v-41h41v-41h41v-205h-41v-82h-41v-82h-41v-41h-82z" />
    <glyph glyph-name="hyphen" unicode="-" horiz-adv-x="860" 
d="M82 696h696v-82h-696v82z" />
    <glyph glyph-name="period" unicode="." horiz-adv-x="491" 
d="M82 287h328v-287h-328v287z" />
    <glyph glyph-name="slash" unicode="/" horiz-adv-x="737" 
d="M737 1434v-41h-41v-82h-41v-82h-41v-123h-41v-82h-41v-123h-40v-82h-41v-82h-41v-123h-41v-82h-41v-81h-41v-82h-41v-123h-41v-82h-41v-82h-41v-123h-41v-82h-41v-123h-41v-82h-41v-82h-41v-82h-82v82h41v123h41v82h41v82h41v123h41v82h41v82h41v123h41v82h41v82h41v122
h41v82h41v82h41v123h41v82h41v82h41v123h40v82h41v82h41v123h123z" />
    <glyph glyph-name="zero" unicode="0" 
d="M737 0v-41h-123v41h-163v41h-82v41h-41v41h-41v41h-41v41h-41v41h-41v82h-41v123h-41v532h41v82h41v82h41v82h41v41h41v41h41v41h41v41h82v41h122v41h123v-41h164v-41h82v-41h41v-41h41v-41h41v-41h41v-41h41v-82h41v-123h41v-532h-41v-123h-41v-41h-41v-82h-41v-41h-41
v-41h-41v-41h-41v-41h-82v-41h-123zM614 82h123v41h41v41h41v82h41v123h41v655h-41v123h-41v82h-41v82h-82v41h-123v-41h-41v-41h-40v-41h-41v-123h-41v-696h41v-164h41v-41h40v-82h82v-41z" />
    <glyph glyph-name="one" unicode="1" horiz-adv-x="737" 
d="M532 1475v-1352h41v-41h123v-82h-655v82h123v41h41v1147h-82v41h-82v41h123v41h164v41h123v41h81z" />
    <glyph glyph-name="two" unicode="2" horiz-adv-x="1105" 
d="M1024 328v-328h-983v41h41v41h41v82h41v41h41v41h41v41h41v82h41v41h41v41h41v41h41v81h41v41h40v41h41v82h41v41h41v123h41v328h-41v41h-41v41h-41v41h-204v-41h-41v-41h-41v-123h41v-164h-41v-41h-205v41h-41v205h41v82h41v41h41v41h82v41h82v41h450v-41h82v-41h41v-41
h41v-41h41v-41h41v-287h-41v-82h-41v-41h-41v-82h-41v-41h-41v-41h-41v-41h-41v-41h-41v-41h-82v-40h-41v-41h-41v-41h-40v-41h-41v-41h-41v-41h-41v-41h-41v-41h-41v-41h41v41h450v41h82v41h41v41h41v41h41v82h82v-123h-41z" />
    <glyph glyph-name="three" unicode="3" horiz-adv-x="1105" 
d="M1065 451h-41v-164h-41v-82h-41v-41h-41v-41h-41v-41h-41v-41h-82v-41h-164v-41h-163v41h-164v41h-41v41h-82v82h-41v82h-41v123h41v82h164v-41h41v-41h41v-82h-82v-82h41v-82h41v-41h245v41h41v41h82v82h41v286h-41v82h-82v41h-82v41h-204v82h41v41h41v41h41v41h41v41
h40v41h41v82h41v41h41v41h41v41h41v41h41v41h-82v-41h-286v-41h-164v-41h-41v-82h-41v-41h-82v123h41v287h901v-41h-41v-41h-41v-82h-41v-41h-41v-41h-41v-41h-41v-41h-41v-41h-41v-82h-41v-41h-41v-41h82v-41h123v-41h41v-41h82v-82h41v-41h41v-163h41v-41z" />
    <glyph glyph-name="four" unicode="4" 
d="M41 369v41h41v41h41v41h41v81h41v41h41v41h41v82h41v41h41v82h41v41h41v82h41v41h40v164h41v164h-41v41h123v41h205v41h82v-82h-41v-123h-41v-41h-41v-82h-41v-41h-41v-41h-41v-82h-41v-41h-41v-41h-41v-41h-41v-41h-40v-82h-41v-41h-41v-41h-41v-41h-41v-41h409v287h82
v41h82v41h82v41h41v-369h82v41h41v82h41v41h82v-123h-41v-286h-287v-41h82v-205h41v-41h123v-82h-615v82h123v41h41v246h-696z" />
    <glyph glyph-name="five" unicode="5" horiz-adv-x="1105" 
d="M328 1229v82h-41v-164h-41v-246h41v41h409v-41h123v-41h41v-41h41v-41h41v-41h41v-82h41v-327h-41v-82h-41v-82h-41v-41h-41v-41h-41v-41h-82v-41h-164v-41h-122v41h-164v41h-82v41h-41v41h-41v41h-41v82h-41v123h41v82h205v-82h41v-82h-82v-82h41v-82h82v-41h245v41h41
v41h41v41h41v123h41v164h-41v81h-41v82h-82v41h-163v41h-41v-41h-287v123h41v451h41v164h655v41h41v81h82v-327h-655z" />
    <glyph glyph-name="six" unicode="6" horiz-adv-x="1228" 
d="M696 0v-41h-82v41h-163v41h-82v41h-41v41h-41v41h-41v41h-41v41h-41v82h-41v123h-41v450h41v123h41v123h41v41h41v41h41v82h82v41h41v41h82v41h122v41h123v-41h164v-41h82v-41h41v-82h41v-205h-41v-41h-164v41h-41v164h41v82h-41v41h-205v-41h-82v-41h-40v-82h-41v-82
h-41v-205h-41v-164h-41v-82h41v41h41v41h41v41h41v41h40v41h123v41h123v-41h164v-41h41v-41h41v-41h41v-41h41v-41h41v-327h-41v-82h-41v-82h-41v-41h-41v-41h-41v-41h-82v-41h-164zM573 82h164v41h41v41h41v82h41v286h-41v123h-41v41h-41v41h-205v-41h-81v-41h-41v-41h-41
v-41h41v-245h41v-123h41v-41h40v-41h41v-41z" />
    <glyph glyph-name="seven" unicode="7" horiz-adv-x="1105" 
d="M410 0v-41h-164v246h41v123h41v82h41v82h41v81h41v82h41v41h40v82h41v41h41v82h41v41h41v82h41v41h41v41h41v82h41v41h41v41h-82v-41h-573v-41h-82v-82h-41v-82h-82v164h41v246h983v-82h-41v-82h-41v-41h-41v-82h-41v-82h-41v-41h-41v-82h-41v-82h-41v-82h-41v-82h-41
v-82h-41v-122h-41v-492h-163z" />
    <glyph glyph-name="eight" unicode="8" horiz-adv-x="1228" 
d="M655 0v-41h-82v41h-204v41h-82v41h-82v41h-41v41h-41v82h-41v246h41v40h41v82h41v41h82v41h82v41h-41v41h-82v41h-41v82h-41v82h-41v164h41v82h41v82h41v41h41v41h82v41h204v41h41v-41h246v-41h82v-41h41v-41h41v-82h41v-205h-41v-82h-41v-41h-41v-41h-41v-41h-82v-41
h-82v-41h82v41h82v-41h41v-41h82v-41h41v-41h41v-82h41v-245h-41v-82h-41v-82h-82v-41h-41v-41h-82v-41h-205zM737 860v41h41v82h41v205h-41v82h-41v82h-123v41h-41v-41h-122v-41h-41v-246h41v-41h41v-41h40v-41h41v-41h82v-41h82zM451 778h-82v-41h82v41zM492 82h245v41h41
v41h41v82h41v123h-41v82h-41v41h-41v40h-41v41h-82v41h-82v41h-81v-41h-41v-41h-41v-327h41v-82h41v-41h41v-41z" />
    <glyph glyph-name="nine" unicode="9" horiz-adv-x="1228" 
d="M573 0v-41h-81v41h-164v41h-82v41h-41v41h-41v41h-41v164h41v41h41v41h164v-41h41v-164h-41v-82h41v-41h204v41h82v41h41v82h41v82h41v286h41v82h41v82h-41v-41h-41v-41h-41v-41h-41v-41h-82v-41h-163v-41h-82v41h-123v41h-82v41h-41v41h-41v82h-41v369h41v82h41v41h41
v41h41v41h41v41h82v41h123v41h122v-41h164v-41h82v-41h41v-41h41v-41h41v-41h41v-41h41v-82h41v-123h41v-451h-41v-122h-41v-82h-41v-82h-41v-41h-41v-41h-41v-41h-41v-41h-41v-41h-82v-41h-164zM532 696h164v41h82v41h41v41h41v164h-41v164h-41v82h-41v41h-41v41h-41v41
h-163v-41h-41v-41h-41v-82h-41v-287h41v-123h41v-41h81v-41z" />
    <glyph glyph-name="colon" unicode=":" horiz-adv-x="491" 
d="M82 1065h328v-328h-328v328zM82 287h328v-287h-328v287z" />
    <glyph glyph-name="semicolon" unicode=";" horiz-adv-x="491" 
d="M82 1065h328v-328h-328v328zM205 -205v-41h-41v41h41v41h41v41h41v205h-41v-82h-82v41h-41v41h-41v164h41v41h205v-41h41v-41h41v-205h-41v-82h-41v-82h-41v-41h-82z" />
    <glyph glyph-name="equal" unicode="=" horiz-adv-x="1064" 
d="M82 860h901v-123h-901v123zM82 532h901v-81h-901v81z" />
    <glyph glyph-name="question" unicode="?" horiz-adv-x="1064" 
d="M532 614v-163h-81v41h-41v204h41v41h41v41h40v41h41v41h41v41h41v82h41v123h41v82h-41v82h-41v41h-41v41h-245v-41h-82v-82h-41v-82h82v-82h-41v-82h-82v-41h-41v41h-82v41h-41v205h41v41h41v82h82v41h82v41h450v-41h123v-41h41v-41h41v-41h41v-123h41v-82h-41v-123h-41
v-41h-41v-82h-82v-41h-41v-41h-82v-41h-82v-41h-41v-41h-41zM328 287h327v-287h-327v287z" />
    <glyph glyph-name="at" unicode="@" horiz-adv-x="1597" 
d="M819 -246v-41h-164v41h-163v41h-82v41h-82v41h-41v41h-41v41h-41v41h-41v82h-41v123h-41v409h41v123h41v82h41v41h41v82h41v41h41v41h41v41h82v41h41v41h122v41h123v41h287v-41h123v-41h82v-41h82v-41h41v-41h41v-41h41v-41h41v-123h41v-368h-41v-123h-41v-41h-41v-41
h-41v-41h-41v-41h-41v-41h-123v-41h-164v41h-123v41h-41v41h41v41h41v82h-41v-41h-41v-82h-41v-41h-82v-41h-82v-41h-82v41h-81v41h-41v41h-41v246h41v122h41v82h41v41h40v41h41v41h82v41h82v41h246v-41h205v41h82v-41h-41v-123h-41v-82h-41v-122h-41v-82h-41v-123h-41v-41
h41v-41h164v41h82v41h41v82h41v82h41v327h-41v82h-41v82h-41v41h-41v41h-41v41h-82v41h-123v41h-246v-41h-164v-41h-82v-41h-40v-41h-82v-41h-41v-41h-41v-82h-41v-41h-41v-82h-41v-123h-41v-327h41v-123h41v-82h41v-41h41v-41h41v-41h82v-41h41v-41h163v-41h246v41h164v41
h82v41h41v-41h-41v-41h-41v-41h-82v-41h-205zM655 205h41v41h82v41h41v82h41v82h41v122h41v82h41v123h-205v-41h-41v-82h-41v-82h-41v-81h-41v-246h41v-41z" />
    <glyph glyph-name="A" unicode="A" horiz-adv-x="1556" 
d="M942 369h82v41h-41v41h-573v-41h-41v-82h-41v-123h-41v-41h41v-82h123v-82h-451v82h82v41h41v41h41v41h41v82h41v123h41v82h41v81h41v123h41v82h41v82h41v82h40v123h41v82h41v82h41v123h41v82h41v41h123v-123h41v-82h41v-82h41v-123h41v-82h41v-82h41v-123h41v-82h41v-82
h41v-82h41v-122h41v-82h41v-82h41v-82h41v-41h41v-41h81v-82h-655v82h82v205h-41v82zM451 532h409v82h-41v82h-41v123h-41v82h-41v82h-82v-123h-41v-82h-41v-82h-40v-82h-41v-82z" />
    <glyph glyph-name="B" unicode="B" horiz-adv-x="1474" 
d="M1065 41v-41h-1024v82h164v41h41v1188h-41v41h-164v82h983v-41h123v-41h41v-41h82v-82h41v-82h41v-123h-41v-82h-41v-41h-41v-41h-41v-41h-82v-41h-82v-41h164v-41h41v-41h82v-41h41v-82h41v-245h-41v-82h-41v-82h-41v-41h-82v-41h-123zM573 819h287v41h41v41h41v41h41
v287h-41v41h-41v41h-82v41h-327v-41h81v-492zM492 82h368v41h82v41h41v41h41v41h41v286h-41v82h-41v41h-82v41h-328v-573h-81v-41z" />
    <glyph glyph-name="C" unicode="C" horiz-adv-x="1351" 
d="M737 1475v-41h205v-41h82v-41h41v-41h41v-41h41v-41h41v82h-41v41h-41v41h82v41h82v-492h-82v82h-41v82h-41v41h-41v82h-82v41h-41v41h-287v-41h-82v-41h-41v-82h-40v-41h-41v-123h-41v-410h41v-122h41v-82h40v-82h41v-41h41v-41h82v-41h328v41h82v41h82v41h41v41h41v-41
h-41v-82h-41v-41h-41v-41h-41v-41h-41v-41h-82v-41h-491v41h-82v41h-82v41h-41v41h-41v41h-41v41h-41v82h-41v82h-41v163h-41v287h41v123h41v82h41v82h41v41h41v82h41v41h82v41h41v41h82v41h204v41h41zM1311 369h-41v41h41v-41z" />
    <glyph glyph-name="D" unicode="D" horiz-adv-x="1638" 
d="M41 0v82h164v41h41v1147h-41v82h-164v82h901v-41h164v-41h82v-41h82v-41h82v-41h41v-41h41v-41h41v-82h41v-41h40v-123h41v-328h-41v-122h-40v-82h-41v-41h-41v-82h-41v-41h-82v-41h-41v-41h-82v-41h-82v-41h-123v-41h-942zM573 164h-81v-82h327v41h123v41h82v41h41v41
h41v82h41v82h41v163h41v205h-41v205h-41v82h-41v82h-41v41h-41v41h-41v41h-82v41h-123v41h-286v-41h81v-1147z" />
    <glyph glyph-name="E" unicode="E" horiz-adv-x="1433" 
d="M573 123h-81v-41h491v41h123v41h41v41h41v41h41v123h41v82h41v41h82v-41h-41v-328h-41v-123h-1270v82h123v41h41v41h41v1065h-41v82h-41v41h-123v82h1270v-492h-82v82h-41v164h-41v41h-41v41h-41v41h-123v41h-450v-41h81v-533h205v41h82v41h41v164h82v-573h-82v122h-41
v82h-82v41h-205v-573z" />
    <glyph glyph-name="F" unicode="F" horiz-adv-x="1433" 
d="M778 82v-82h-737v82h164v41h41v1188h-41v41h-164v82h1270v-328h41v-164h-123v164h-41v82h-41v82h-82v41h-82v41h-491v-41h81v-533h246v41h41v41h41v82h41v82h82v-614h-82v82h-41v122h-41v41h-82v41h-286v-41h81v-532h41v-41h164z" />
    <glyph glyph-name="G" unicode="G" horiz-adv-x="1597" 
d="M1024 41v-41h-532v41h-82v41h-82v41h-41v41h-41v41h-41v41h-41v82h-41v82h-41v204h-41v164h41v205h41v82h41v82h41v41h41v41h41v41h41v41h41v41h82v41h81v41h451v-41h82v-41h82v-41h41v-41h41v41h-41v41h-41v41h82v41h123v-492h-82v41h-41v82h-41v82h-41v41h-41v41h-41
v41h-82v41h-287v-41h-82v-41h-41v-41h-41v-41h-40v-82h-41v-123h-41v-410h41v-122h41v-82h40v-82h41v-41h41v-41h82v-41h328v41h82v41h82v41h41v82h-41v-41h-41v-41h-41v327h-41v41h-123v82h655v-82h-163v-614h-41v41h-82v41h-41v41h-82v-41h-82v-41h-82z" />
    <glyph glyph-name="H" unicode="H" horiz-adv-x="1720" 
d="M492 696v-41h81v-532h41v-41h164v-82h-737v82h164v82h41v1106h-41v82h-164v82h737v-82h-164v-41h-41v-533h574v533h-41v41h-164v82h737v-82h-163v-41h-41v-1188h41v-41h163v-82h-737v82h164v41h41v532h82v41h-737z" />
    <glyph glyph-name="I" unicode="I" horiz-adv-x="819" 
d="M778 82v-82h-737v82h164v41h41v1147h-41v82h-164v82h737v-82h-164v-41h-41v-1188h41v-41h164z" />
    <glyph glyph-name="J" unicode="J" horiz-adv-x="1351" 
d="M614 0v-41h-122v41h-205v41h-82v41h-41v41h-41v41h-41v82h-41v164h41v41h41v41h123v-41h41v-41h41v-123h-41v-123h41v-41h82v-41h163v41h82v41h41v41h41v82h41v1024h-41v41h-123v82h697v-82h-123v-41h-82v-983h-41v-82h-41v-82h-41v-41h-41v-41h-41v-41h-82v-41h-205z
" />
    <glyph glyph-name="K" unicode="K" horiz-adv-x="1679" 
d="M778 82v-82h-737v82h164v41h41v1188h-41v41h-164v82h737v-82h-164v-41h-41v-615h-41v-41h-40v-41h40v41h41v41h41v41h41v41h41v41h41v41h41v41h41v41h41v41h41v41h41v41h41v41h41v41h41v41h41v41h41v123h-82v82h491v-82h-122v-41h-82v-41h-41v-41h-82v-41h-41v-41h-41
v-41h-41v-41h-41v-41h-41v-41h-41v-41h-41v-82h41v-41h41v-41h41v-82h41v-41h41v-41h41v-82h41v-40h41v-82h41v-41h41v-82h41v-41h41v-82h82v-41h40v-41h82v-82h-491v82h-41v41h-41v82h-41v41h-41v82h-41v41h-41v82h-41v41h-41v81h-41v41h-41v82h-41v-41h-41v-41h-41v-41
h-41v-450h41v-41h164z" />
    <glyph glyph-name="L" unicode="L" horiz-adv-x="1392" 
d="M573 164h-81v-82h450v41h123v41h41v41h41v41h41v82h41v123h41v41h82v-164h-41v-287h-41v-41h-1229v82h123v41h41v82h41v1024h-41v82h-41v41h-123v82h696v-82h-123v-41h-41v-1147z" />
    <glyph glyph-name="M" unicode="M" horiz-adv-x="2007" 
d="M41 1352v82h614v-123h41v-82h41v-123h41v-82h41v-82h41v-123h41v-82h41v-123h41v-122h-41v-41h82v122h41v82h41v123h41v82h41v123h41v82h41v123h41v82h41v123h41v41h573v-82h-123v-41h-41v-41h-41v-1106h41v-41h41v-41h123v-82h-696v82h123v41h41v1024h41v82h-41v-41h-41
v-123h-41v-82h-41v-123h-41v-82h-41v-82h-41v-123h-41v-81h-41v-123h-41v-82h-41v-123h-41v-82h-41v-82h-41v-41h-41v123h-41v123h-41v82h-41v82h-41v123h-41v81h-41v123h-41v82h-41v123h-40v82h-41v82h-41v123h-41v-1065h41v-41h163v-82h-532v82h123v41h41v41h41v1106h-41
v41h-41v41h-123z" />
    <glyph glyph-name="N" unicode="N" horiz-adv-x="1638" 
d="M1393 1188v-1188h-41v41h-41v41h-41v41h-41v41h-41v41h-41v41h-41v41h-41v82h-41v41h-41v41h-41v41h-41v40h-41v41h-41v41h-41v41h-41v41h-41v82h-41v41h-41v41h-41v41h-41v41h-40v41h-41v41h-41v41h-41v-942h41v-41h163v-82h-532v82h123v41h41v41h41v1065h-41v41h-41v41
h-41v41h-41v41h-41v41h491v-41h41v-41h41v-41h41v-41h41v-41h41v-41h41v-41h41v-82h41v-41h41v-41h41v-41h41v-41h41v-41h41v-41h41v-41h41v-41h41v-41h41v-164h41v779h-41v41h-123v82h491v-82h-122v-41h-41v-123h-41z" />
    <glyph glyph-name="O" unicode="O" horiz-adv-x="1597" 
d="M860 0v-41h-123v41h-205v41h-81v41h-82v41h-41v41h-41v41h-41v41h-41v41h-41v41h-41v123h-41v122h-41v246h41v164h41v82h41v82h41v41h41v41h41v41h41v41h41v41h82v41h81v41h164v41h164v-41h205v-41h82v-41h82v-41h41v-41h82v-82h41v-41h41v-41h41v-82h41v-164h40v-246
h-40v-163h-41v-82h-41v-82h-41v-41h-41v-41h-41v-41h-41v-41h-41v-41h-82v-41h-82v-41h-205zM696 82h205v41h82v41h41v41h41v41h41v82h41v123h41v450h-41v164h-41v82h-41v82h-41v41h-41v41h-82v41h-205v-41h-82v-41h-41v-41h-41v-41h-40v-82h-41v-123h-41v-451h41v-163h41
v-82h40v-82h41v-41h41v-41h82v-41z" />
    <glyph glyph-name="P" unicode="P" horiz-adv-x="1474" 
d="M573 573v-450h41v-41h164v-82h-737v82h164v41h41v1188h-41v41h-164v82h1024v-41h123v-41h41v-41h82v-41h41v-82h41v-246h-41v-123h-41v-41h-41v-41h-41v-41h-82v-41h-164v-41h-451v-41h41zM573 696h205v41h123v41h41v41h41v41h41v123h41v82h-41v164h-41v41h-41v41h-123
v41h-287v-41h41v-615z" />
    <glyph glyph-name="Q" unicode="Q" horiz-adv-x="1597" 
d="M1270 -287v-41h-205v41h-82v82h-41v82h-41v41h-41v82h-41v82h-41v82h-41v82h-41v41h-41v41h-82v-41h-41v-41h41v-82h82v-41h41v-41h82v-82h41v-41h-82v41h-205v41h-81v41h-82v41h-41v41h-41v41h-41v41h-41v41h-41v41h-41v123h-41v122h-41v246h41v164h41v82h41v82h41v41
h41v41h41v41h41v41h41v41h82v41h81v41h164v41h205v-41h164v-41h82v-41h82v-41h41v-41h82v-41h41v-82h41v-41h41v-82h41v-123h40v-328h-40v-122h-41v-82h-41v-82h-41v-41h-41v-41h-41v-41h-41v-41h-41v-41h-82v-123h41v-41h41v-82h41v-41h82v41h82v-41h-41v-41h-41v-41h-82z
M1024 205h41v41h41v82h41v164h41v368h-41v164h-41v123h-41v41h-41v82h-82v41h-41v41h-246v-41h-41v-41h-41v-41h-41v-41h-40v-82h-41v-123h-41v-451h41v-163h81v41h82v41h205v-41h82v-41h41v-41h41v-82h41v-41z" />
    <glyph glyph-name="R" unicode="R" horiz-adv-x="1597" 
d="M573 614v-491h41v-41h164v-82h-737v82h164v41h41v1188h-41v41h-164v82h983v-41h123v-41h82v-41h41v-41h41v-82h41v-246h-41v-82h-41v-41h-41v-41h-41v-41h-123v-41h82v-41h82v-41h41v-82h41v-81h41v-82h41v-123h41v-82h41v-82h122v-82h-450v41h-41v123h-41v82h-41v123
h-41v123h-41v81h-41v82h-409v-41h81zM573 778h328v41h41v41h41v41h41v287h-41v41h-41v41h-41v41h-82v41h-327v-41h81v-533z" />
    <glyph glyph-name="S" unicode="S" 
d="M164 0v-41h-41v533h82v-41h41v-82h41v-82h41v-41h41v-41h41v-41h82v-41h163v-41h41v41h164v41h41v41h41v164h-41v82h-82v41h-82v40h-123v41h-122v41h-123v41h-82v41h-41v41h-41v41h-41v41h-41v123h-41v123h41v123h41v82h41v41h41v41h41v41h82v41h368v-41h82v-41h41v-41
h41v-41h41v-41h41v82h-41v41h-41v41h82v41h123v-492h-82v41h-41v82h-41v41h-41v41h-41v82h-82v41h-41v41h-286v-41h-41v-41h-41v-205h41v-41h82v-41h122v-41h82v-41h123v-41h123v-41h82v-41h82v-41h41v-82h41v-82h41v-204h-41v-82h-41v-82h-41v-41h-41v-41h-82v-41h-82v-41
h-409v41h-82v41h-41v41h-82v41h-41v-41h41v-41h41v-41h-82v-41h-82z" />
    <glyph glyph-name="T" unicode="T" horiz-adv-x="1433" 
d="M41 1434h1352v-164h41v-328h-82v82h-41v123h-41v82h-41v41h-41v41h-123v41h-246v-41h41v-1147h41v-41h41v-41h123v-82h-696v82h123v41h40v1229h-163v-41h-123v-41h-41v-41h-41v-82h-41v-123h-41v-82h-82v369h41v123z" />
    <glyph glyph-name="U" unicode="U" horiz-adv-x="1638" 
d="M860 0v-41h-123v41h-164v41h-122v41h-41v41h-41v41h-41v41h-41v82h-41v942h-41v82h-41v41h-123v82h737v-82h-164v-41h-41v-942h41v-82h41v-41h41v-41h41v-41h328v41h82v41h41v82h41v82h41v860h-41v82h-164v82h532v-82h-122v-41h-41v-82h-41v-860h-41v-123h-41v-41h-41
v-41h-41v-41h-41v-41h-41v-41h-82v-41h-205z" />
    <glyph glyph-name="V" unicode="V" horiz-adv-x="1556" 
d="M532 1229h41v-123h41v-82h41v-82h41v-82h41v-123h41v-82h41v-82h41v-122h-41v-41h82v82h41v81h41v82h41v123h41v82h41v82h41v82h41v82h41v123h41v41h-41v82h-123v82h450v-82h-81v-41h-41v-41h-41v-41h-41v-82h-41v-123h-41v-82h-41v-82h-41v-82h-41v-82h-41v-123h-41v-81
h-41v-82h-41v-82h-41v-82h-41v-123h-41v-82h-41v-82h-82v41h-41v82h-41v123h-41v82h-41v82h-41v82h-40v81h-41v123h-41v82h-41v82h-41v82h-41v123h-41v82h-41v82h-41v82h-41v41h-41v41h-82v82h655v-82h-82v-41h-41v-82z" />
    <glyph glyph-name="W" unicode="W" horiz-adv-x="2211" 
d="M737 0v-41h-82v82h-41v123h-41v82h-41v123h-40v82h-41v122h-41v123h-41v82h-41v123h-41v82h-41v123h-41v82h-41v123h-41v41h-82v82h614v-82h-123v-164h41v-123h41v-123h41v-123h41v-82h41v-123h41v-245h41v82h41v81h41v82h41v82h41v82h41v123h41v82h-41v82h-41v82h-41
v123h-41v41h-41v41h-82v82h615v-82h-82v-164h41v-123h41v-123h41v-82h41v-123h41v-123h40v-245h41v123h41v122h41v123h41v123h41v123h41v82h41v164h41v82h-41v41h-82v82h410v-82h-41v-41h-82v-82h-41v-82h-41v-123h-41v-82h-41v-123h-41v-123h-41v-82h-41v-122h-41v-82h-41
v-123h-41v-82h-41v-123h-41v-82h-40v-41h-82v123h-41v82h-41v123h-41v82h-41v123h-41v81h-41v123h-41v82h-41v-41h-41v-123h-41v-82h-41v-81h-41v-82h-41v-82h-41v-82h-41v-123h-41v-82h-41z" />
    <glyph glyph-name="X" unicode="X" horiz-adv-x="1597" 
d="M492 82v-82h-451v82h82v41h82v41h41v41h41v41h41v82h41v41h41v41h41v41h41v41h40v40h41v82h41v41h41v41h-41v41h-41v82h-41v41h-40v82h-41v41h-41v41h-41v82h-41v41h-41v82h-41v41h-41v41h-41v41h-82v82h696v-82h-123v-123h41v-82h41v-82h41v-41h41v-82h-41v-41h41v41h41
v41h41v41h41v41h41v41h41v41h41v82h41v41h41v41h-41v41h-82v82h451v-82h-82v-41h-82v-41h-41v-41h-41v-41h-41v-41h-41v-41h-41v-41h-41v-82h-41v-41h-41v-41h-41v-123h41v-41h41v-82h41v-41h41v-82h41v-40h41v-41h41v-82h41v-41h41v-82h41v-41h41v-41h41v-41h41v-41h81v-82
h-696v82h82v41h41v82h-41v82h-41v41h-41v41h-41v82h-41v41h-41v40h41v41h41v82h-41v-41h-41v-41h-41v-41h-41v-40h-41v-41h-41v-41h-41v-82h-40v-41h-41v-41h-41v-41h-41v-82h41v-41h82z" />
    <glyph glyph-name="Y" unicode="Y" horiz-adv-x="1515" 
d="M1106 82v-82h-696v82h122v41h41v41h41v450h-41v41h-41v82h-40v41h-41v82h-41v41h-41v82h-41v41h-41v82h-41v41h-41v82h-41v41h-41v41h-41v41h-82v82h655v-82h-123v-164h41v-41h41v-82h41v-41h41v-82h41v-82h41v-41h41v-123h-41v-41h82v82h41v41h41v82h41v82h41v41h41v82
h41v82h41v82h41v123h-123v82h410v-82h-41v-41h-41v-41h-41v-41h-41v-41h-41v-82h-41v-41h-41v-82h-41v-41h-41v-82h-41v-41h-41v-82h-41v-41h-41v-82h-41v-409h41v-82h41v-41h123z" />
    <glyph glyph-name="Z" unicode="Z" horiz-adv-x="1392" 
d="M1311 287v-287h-1270v41h41v82h41v41h41v82h41v82h41v41h41v82h41v41h41v81h41v41h41v82h41v41h40v82h41v41h41v82h41v82h41v41h41v82h41v41h41v82h123v82h-491v-41h-82v-41h-41v-41h-41v-41h-41v-123h-41v-123h-123v41h41v451h1188v-41h-41v-41h-41v-82h-41v-82h-41v-41
h-41v-82h-41v-41h-41v-82h-41v-41h-41v-82h-41v-41h-41v-82h-41v-41h-41v-82h-41v-41h-41v-81h-41v-82h-41v-41h-41v-82h-41v-41h-40v-82h-82v-41h573v41h82v41h41v41h41v41h41v82h41v123h41v41h82v-205h-41z" />
    <glyph glyph-name="bracketleft" unicode="[" horiz-adv-x="778" 
d="M451 -328h286v-82h-614v1926h614v-82h-368v-41h82v-1721z" />
    <glyph glyph-name="backslash" unicode="\" horiz-adv-x="737" 
d="M41 1434h82v-41h41v-123h41v-82h41v-82h41v-123h41v-82h41v-82h41v-123h41v-82h41v-82h40v-122h41v-82h41v-82h41v-123h41v-82h41v-82h41v-82h41v-123h41v-82h41v-123h41v-41h-82v41h-41v82h-41v82h-41v123h-41v82h-41v82h-41v82h-41v123h-41v82h-40v82h-41v123h-41v81
h-41v82h-41v123h-41v82h-41v123h-41v82h-41v82h-41v82h-41v123h-41v82z" />
    <glyph glyph-name="bracketright" unicode="]" horiz-adv-x="778" 
d="M328 1393h82v41h-369v82h614v-1926h-614v82h287v1721z" />
    <glyph glyph-name="asciicircum" unicode="^" horiz-adv-x="1146" 
d="M532 1434h82v-41h41v-41h41v-82h41v-41h41v-82h41v-41h41v-82h41v-82h41v-41h41v-82h41v-41h41v-41h-123v41h-41v41h-41v82h-41v41h-41v82h-41v41h-41v82h-41v41h-41v82h-82v-82h-40v-41h-41v-82h-41v-41h-41v-82h-41v-41h-41v-82h-41v-41h-41v-41h-123v41h41v41h41v82
h41v41h41v82h41v41h41v82h41v82h41v41h41v82h41v41h40v41z" />
    <glyph glyph-name="underscore" unicode="_" horiz-adv-x="901" 
d="M0 -246h901v-82h-901v82z" />
    <glyph glyph-name="grave" unicode="`" horiz-adv-x="1024" 
d="M655 1229v-82h-41v41h-82v41h-81v41h-123v41h-82v41h-41v123h41v41h41v40h82v-40h82v-41h41v-82h40v-41h41v-82h41v-41h41z" />
    <glyph glyph-name="a" unicode="a" horiz-adv-x="1105" 
d="M655 123h41v82h41v41h-41v-41h-41v-41h-41v-41h-41v-41h-41v-41h-40v-41h-123v-41h-123v41h-123v41h-41v41h-41v246h41v41h41v41h82v41h82v41h123v40h122v41h123v246h-41v41h-41v41h-245v-41h-41v-41h41v-164h-41v-41h-164v41h-41v164h41v82h41v41h41v41h123v41h368v-41
h82v-41h82v-41h41v-123h41v-655h123v-41h-41v-41h-41v-41h-287v41h-41v82zM410 123h82v41h81v41h41v41h41v246h-123v-41h-122v-41h-41v-41h-41v-205h82v-41zM1106 123h-41v41h41v-41z" />
    <glyph glyph-name="b" unicode="b" horiz-adv-x="1228" 
d="M287 41v-41h-123v1311h-41v41h-82v82h164v41h164v41h82v-574h-41v-82h-41v-41h41v41h41v41h41v41h40v41h82v41h287v-41h82v-41h41v-41h41v-41h41v-41h41v-164h41v-163h-41v-164h-41v-82h-41v-41h-41v-82h-82v-41h-41v-41h-82v-41h-491v41h-41zM492 82h204v41h82v41h41v82
h41v123h41v204h-41v164h-41v82h-41v41h-246v-41h-81v-696h41v-41z" />
    <glyph glyph-name="c" unicode="c" horiz-adv-x="1024" 
d="M942 287v-82h-41v-41h-41v-41h-41v-41h-41v-41h-41v-41h-123v-41h-122v41h-164v41h-41v41h-82v41h-41v82h-41v41h-41v450h41v82h41v41h41v82h82v41h41v41h82v41h368v-41h82v-41h41v-41h41v-41h41v-164h-41v-82h-164v41h-41v164h41v41h-41v41h-41v41h-164v-41h-40v-41h-41
v-41h-41v-82h-41v-368h41v-82h41v-41h41v-41h40v-41h287v41h82v82h41z" />
    <glyph glyph-name="d" unicode="d" horiz-adv-x="1269" 
d="M819 0v-41h-41v164h41v41h41v82h-41v-82h-41v-41h-41v-41h-41v-41h-82v-41h-327v41h-41v41h-41v41h-41v41h-41v82h-41v409h41v82h41v82h41v41h41v41h41v41h82v41h82v41h327v287h-41v41h-41v82h164v41h164v41h41v-1352h41v-41h41v-41h82v-41h-164v-41h-246zM532 123h123
v41h82v41h41v696h-41v41h-205v-41h-40v-41h-41v-41h-41v-41h-41v-450h41v-82h41v-41h41v-41h40v-41z" />
    <glyph glyph-name="e" unicode="e" horiz-adv-x="1064" 
d="M1024 532h-737v-40h82v-123h41v-82h41v-41h41v-41h40v-41h328v41h41v41h41v41h41v-41h-41v-82h-41v-41h-41v-41h-41v-41h-82v-41h-82v-41h-123v41h-163v41h-82v41h-82v41h-41v82h-41v41h-41v164h-41v163h41v123h41v82h41v82h41v41h41v41h82v41h82v41h327v-41h82v-41h41
v-41h41v-41h41v-41h41v-123h41v-164zM369 614h409v82h-41v123h-41v82h-82v41h-82v-41h-81v-41h-41v-82h-41v-164z" />
    <glyph glyph-name="f" unicode="f" horiz-adv-x="737" 
d="M614 82v-82h-573v82h123v860h-164v82h164v123h41v123h41v82h41v41h41v41h41v41h163v41h164v-41h123v-41h41v-41h41v-205h-41v-41h-82v41h-82v82h-41v41h41v82h-164v-41h-40v-41h-41v-287h245v-82h-327v-41h82v-778h41v-41h122z" />
    <glyph glyph-name="g" unicode="g" horiz-adv-x="1064" 
d="M737 -451v-41h-491v41h-123v41h-82v41h-41v205h41v41h82v41h123v41h-123v82h-41v82h41v82h41v41h41v41h82v41h82v41h-164v41h-41v41h-41v41h-41v286h41v82h41v41h41v41h41v41h123v41h327v-41h41v41h41v41h41v41h41v41h246v-41h41v-41h41v-123h-41v-41h-164v41h-41v82h41
v41h-82v-41h-82v-41h-41v-41h82v-41h41v-41h41v-82h41v-205h-41v-81h-41v-41h-41v-41h-41v-41h-41v-41h-123v-41h-327v-41h-41v-41h41v-41h41v-41h450v-41h164v-41h41v-41h41v-82h41v-123h-41v-82h-41v-82h-82v-41h-41v-41h-164zM492 369h81v41h41v41h41v41h41v327h-41v41
h-41v41h-41v41h-122v-41h-41v-41h-41v-368h41v-41h41v-41h41v-41zM287 0h-41v-41h41v41zM369 -410h327v41h123v41h41v164h-82v41h-532v-41h-41v-123h41v-41h41v-41h82v-41z" />
    <glyph glyph-name="h" unicode="h" 
d="M614 82v-82h-573v82h123v41h41v1147h-41v82h-82v82h164v41h164v41h82v-615h-41v-41h-41v-82h41v41h41v41h40v41h41v41h41v41h82v41h287v-41h41v-41h41v-41h41v-123h41v-696h123v-82h-574v82h123v82h41v573h-41v82h-41v41h-205v-41h-41v-41h-40v-696h122z" />
    <glyph glyph-name="i" unicode="i" horiz-adv-x="655" 
d="M205 1188v287h287v-287h-287zM614 82v-82h-573v82h123v82h41v614h-41v82h-82v41h-41v41h123v41h164v41h164v-942h122z" />
    <glyph glyph-name="j" unicode="j" horiz-adv-x="655" 
d="M205 1188v287h287v-287h-287zM41 901v41h164v41h164v41h123v-1270h-41v-82h-41v-41h-41v-41h-41v-41h-82v-41h-287v41h-82v41h-41v41h-41v164h41v41h164v-82h41v-82h-41v-82h123v41h41v41h41v1147h-41v41h-82v41h-41z" />
    <glyph glyph-name="k" unicode="k" horiz-adv-x="1269" 
d="M614 82v-82h-573v82h123v1229h-41v41h-41v82h164v41h164v41h41v-1024h-41v-41h41v41h41v40h40v41h41v41h41v41h41v41h41v41h41v41h41v41h41v41h41v41h-41v41h-82v82h492v-82h-82v-41h-123v-41h-41v-41h-82v-41h-41v-41h-41v-41h-41v-82h41v-41h41v-41h41v-81h41v-41h41
v-41h41v-82h41v-41h41v-82h41v-41h41v-41h82v-82h-410v82h-41v41h-41v82h-41v41h-41v82h-41v41h-41v82h-82v-41h-40v-41h-41v-205h41v-82h122z" />
    <glyph glyph-name="l" unicode="l" horiz-adv-x="655" 
d="M614 82v-82h-573v82h123v1229h-41v41h-41v82h164v41h164v41h82v-1434h122z" />
    <glyph glyph-name="m" unicode="m" horiz-adv-x="1884" 
d="M41 0v82h123v778h-82v41h-41v41h123v41h164v41h164v-123h-41v-41h-41v-82h41v41h41v41h40v41h41v41h41v41h41v41h287v-41h41v-41h41v-41h41v-82h-41v-41h41v41h41v41h41v41h41v41h41v41h41v41h286v-41h82v-41h41v-123h41v-696h41v-41h82v-82h-532v82h82v41h41v655h-41v41
h-41v41h-164v-41h-41v-41h-41v-696h123v-82h-533v82h82v41h41v614h-41v82h-41v41h-164v-41h-81v-737h81v-82h-532z" />
    <glyph glyph-name="n" unicode="n" 
d="M614 82v-82h-573v82h123v41h41v696h-41v41h-82v41h-41v41h164v41h123v41h164v-123h-41v-82h-41v-41h41v41h41v41h40v41h41v41h41v41h82v41h287v-41h41v-41h41v-41h41v-123h41v-696h123v-82h-574v82h123v41h41v614h-41v82h-41v41h-205v-41h-41v-41h-40v-696h122z" />
    <glyph glyph-name="o" unicode="o" horiz-adv-x="1146" 
d="M655 0v-41h-163v41h-123v41h-82v41h-41v41h-41v41h-41v41h-41v41h-41v164h-41v163h41v164h41v82h41v41h41v41h41v41h41v41h123v41h327v-41h123v-41h41v-41h41v-41h41v-41h41v-82h41v-123h41v-204h-41v-123h-41v-82h-41v-41h-41v-41h-41v-41h-41v-41h-82v-41h-123zM492 82
h163v41h41v41h41v82h41v491h-41v82h-41v82h-82v41h-122v-41h-41v-41h-41v-82h-41v-491h41v-123h41v-41h41v-41z" />
    <glyph glyph-name="p" unicode="p" horiz-adv-x="1269" 
d="M614 -410v-82h-573v82h82v41h41v41h41v1106h-41v82h-82v41h-41v41h123v41h123v41h164v41h41v-164h-41v-41h-41v-82h41v41h41v82h40v41h82v41h41v41h287v-41h82v-41h41v-41h41v-41h41v-82h41v-450h-41v-82h-41v-41h-41v-41h-41v-41h-41v-41h-41v-41h-82v-41h-368v-369h40
v-41h82zM532 82h205v41h82v82h41v82h41v409h-41v82h-41v41h-41v41h-205v-41h-41v-41h-40v-655h40v-41z" />
    <glyph glyph-name="q" unicode="q" horiz-adv-x="1228" 
d="M1188 -410v-82h-533v82h82v41h41v492h41v41h41v82h-41v-82h-41v-41h-41v-41h-41v-41h-41v-41h-368v41h-82v41h-41v41h-41v82h-41v123h-41v204h41v164h41v82h41v41h41v41h41v41h41v41h82v41h82v41h409v-41h123v41h82v-1393h41v-41h82zM532 123h123v41h82v41h41v696h-41v41
h-205v-41h-40v-41h-41v-41h-41v-41h-41v-123h-41v-204h41v-164h41v-82h41v-41h81v-41z" />
    <glyph glyph-name="r" unicode="r" horiz-adv-x="983" 
d="M614 82v-82h-573v82h123v82h41v614h-41v82h-82v41h-41v41h123v41h164v41h164v-123h-41v-82h-41v-82h41v82h41v41h40v41h41v41h41v41h41v41h246v-41h41v-41h41v-164h-41v-41h-205v164h41v41h-82v-41h-82v-41h-41v-41h-41v-82h-40v-655h122z" />
    <glyph glyph-name="s" unicode="s" horiz-adv-x="901" 
d="M82 0v-41h-41v410h82v-41h41v-41h41v-82h41v-41h41v-41h82v-41h163v41h82v164h-41v41h-122v41h-82v41h-123v41h-82v41h-41v40h-41v41h-41v246h41v82h41v41h41v41h82v41h246v-41h81v-41h41v-41h41v-41h41v82h-41v82h123v-369h-82v41h-41v82h-41v41h-41v41h-41v41h-245
v-205h82v-41h123v-41h122v-41h82v-41h82v-40h41v-82h41v-246h-41v-41h-41v-41h-41v-41h-82v-41h-327v41h-82v41h-41v41h-41v-82h41v-41h-123z" />
    <glyph glyph-name="t" unicode="t" horiz-adv-x="819" 
d="M369 942v-41h82v-655h41v-82h204v41h41v41h41v-82h-41v-41h-41v-82h-82v-41h-327v41h-41v41h-41v82h-41v778h-123v41h41v41h41v41h82v41h41v41h41v41h41v82h41v41h41v41h41v-328h327v-82h-409z" />
    <glyph glyph-name="u" unicode="u" 
d="M492 1024v-819h40v-41h41v-41h123v41h82v41h41v655h-82v41h-41v41h123v41h164v41h164v-901h41v-41h82v-41h-164v-41h-287v123h41v41h41v41h-41v-41h-41v-41h-41v-41h-41v-41h-82v-41h-123v-41h-81v41h-123v41h-41v41h-41v41h-41v655h-41v82h-82v41h-41v41h123v41h164v41
h164z" />
    <glyph glyph-name="v" unicode="v" horiz-adv-x="1228" 
d="M655 41v-41h-82v41h-41v82h-40v82h-41v82h-41v82h-41v82h-41v81h-41v82h-41v82h-41v82h-41v82h-41v41h-41v41h-82v82h614v-82h-82v-41h-40v-82h40v-82h41v-82h41v-82h41v-81h41v-123h-41v-41h82v82h41v82h41v81h41v82h41v82h41v164h-41v41h-82v82h410v-82h-41v-41h-82
v-82h-41v-82h-41v-82h-41v-41h-41v-82h-41v-81h-41v-82h-41v-82h-41v-82h-41v-82h-41v-82h-41z" />
    <glyph glyph-name="w" unicode="w" horiz-adv-x="1843" 
d="M1147 0v82h-41v82h-41v82h-41v123h-41v82h-41v81h-41v-40h-41v-82h-41v-123h-41v-82h-41v-82h-41v-82h-41v-41h-123v82h-40v82h-41v82h-41v82h-41v82h-41v82h-41v122h-41v82h-41v82h-41v82h-41v41h-41v41h-41v82h532v-82h-81v-164h40v-82h41v-123h41v-81h41v-205h41v82
h41v82h41v81h41v82h41v123h-41v123h-41v41h-41v41h-41v82h492v-82h-41v-41h-41v-82h41v-123h41v-82h41v-122h41v-205h41v82h41v82h41v81h41v82h41v82h41v82h40v123h-40v41h-123v82h409v-82h-41v-41h-41v-41h-41v-41h-41v-82h-41v-123h-41v-82h-40v-81h-41v-82h-41v-82h-41
v-82h-41v-82h-41v-82h-41v-41h-123z" />
    <glyph glyph-name="x" unicode="x" horiz-adv-x="1228" 
d="M532 819h41v-41h41v-82h-41v-41h82v41h41v41h41v41h41v41h41v123h-82v82h410v-82h-82v-41h-41v-41h-82v-41h-41v-41h-41v-41h-41v-82h-41v-41h-41v-82h41v-40h41v-41h41v-41h41v-82h41v-41h41v-41h41v-82h41v-41h41v-41h123v-82h-656v82h123v82h-41v82h-41v41h-41v82h41
v41h-82v-41h-40v-41h-41v-41h-41v-82h-41v-41h-41v-82h82v-82h-410v82h123v41h41v41h41v41h41v41h41v41h41v41h41v41h41v41h41v82h-41v81h-41v41h-41v41h-41v82h-41v41h-41v41h-41v41h-41v41h-41v41h-41v82h573v-82h-82v-123z" />
    <glyph glyph-name="y" unicode="y" horiz-adv-x="1269" 
d="M287 -451v-41h-164v41h-82v41h-41v205h82v41h41v-41h82v-41h41v-82h-82v-41h164v41h41v41h41v123h41v41h41v82h40v164h-40v123h-41v41h-41v82h-41v82h-41v81h-41v82h-41v82h-41v82h-41v82h-41v41h-41v41h-82v82h655v-82h-123v-164h41v-82h41v-82h41v-82h41v-163h41v41h41
v82h41v81h41v82h41v82h41v82h41v41h-41v82h-123v82h410v-82h-41v-41h-41v-41h-41v-82h-41v-41h-41v-82h-41v-82h-41v-81h-41v-82h-41v-82h-41v-82h-41v-82h-41v-41h-41v-82h-41v-82h-41v-82h-41v-82h-41v-82h-40v-41h-41v-41h-41v-41h-41v-41h-82z" />
    <glyph glyph-name="z" unicode="z" horiz-adv-x="1064" 
d="M328 82h409v41h82v41h41v82h41v123h41v41h82v-82h-41v-328h-942v41h41v82h41v41h41v82h41v41h41v82h41v41h41v82h41v40h41v82h41v41h41v82h40v41h41v82h41v41h82v41h-286v-41h-123v-41h-41v-41h-41v-123h-41v-82h-82v410h942v-41h-41v-41h-41v-82h-41v-41h-41v-82h-41
v-41h-41v-82h-41v-41h-41v-81h-41v-41h-41v-82h-41v-41h-41v-82h-40v-41h-41v-82h-123v-41z" />
    <glyph glyph-name="braceleft" unicode="{" horiz-adv-x="860" 
d="M41 573h164v41h82v41h41v82h41v82h-41v82h-41v82h-41v82h-41v246h41v82h41v41h82v41h82v41h368v-41h-164v-41h-82v-41h-41v-246h41v-82h41v-82h41v-205h-41v-82h-41v-41h-81v-41h-82v-41h-123v-41h123v-40h82v-41h40v-41h82v-82h41v-246h-41v-82h-41v-41h-41v-246h41v-41
h41v-41h123v-41h82v-41h-205v41h-163v41h-82v41h-82v41h-41v82h-41v205h41v82h41v82h41v82h41v123h-41v82h-82v81h-205v41z" />
    <glyph glyph-name="bar" unicode="|" horiz-adv-x="737" 
d="M410 1434v-1926h-82v1926h82z" />
    <glyph glyph-name="braceright" unicode="}" horiz-adv-x="860" 
d="M819 492h-164v-41h-82v-41h-41v-82h-40v-82h40v-82h41v-82h41v-82h41v-246h-41v-82h-41v-41h-81v-41h-82v-41h-369v41h164v41h82v41h41v246h-41v82h-41v82h-41v205h41v82h41v41h82v41h82v41h122v40h-122v41h-82v41h-41v41h-82v82h-41v246h41v82h41v41h41v246h-41v41h-41
v41h-123v41h-82v41h205v-41h164v-41h82v-41h81v-41h41v-82h41v-205h-41v-82h-41v-82h-41v-82h-40v-123h40v-82h82v-82h205v-40z" />
    <glyph glyph-name="asciitilde" unicode="~" horiz-adv-x="1064" 
d="M819 492v-41h-164v41h-123v40h-81v41h-328v-41h-41v-40h-41v40h41v123h41v82h41v41h41v41h327v-41h82v-41h123v-41h164v41h41v41h41v41h41v-82h-41v-82h-41v-82h-41v-41h-41v-40h-41z" />
    <glyph glyph-name="exclamdown" unicode="&#xa1;" horiz-adv-x="491" 
d="M410 1147h-328v287h328v-287zM328 0v-41h-123v41h-82v41h-41v328h41v204h41v205h41v205h41v-41h41v-205h41v-164h41v-204h41v-328h-41v-41h-41z" />
    <glyph glyph-name="cent" unicode="&#xa2;" horiz-adv-x="1024" 
d="M328 -205h-82v123h41v82h41v41h-41v41h-82v41h-41v82h-41v41h-41v450h41v82h41v41h41v82h82v41h41v41h82v41h245v164h123v-41h-41v-123h41v-41h82v-41h41v-41h41v-41h41v-164h-41v-41h-41v-41h-164v82h-41v41h41v82h41v41h-41v41h-82v-123h-41v-164h-41v-122h-41v-123
h-40v-123h-41v-123h-41v-123h-41v-164h-41v-41zM410 369h41v123h41v122h40v123h41v123h41v82h-41v-41h-81v-41h-41v-41h-41v-123h-41v-286h41v-41zM901 164h-41v41h41v-41zM451 0v41h41v164h40v-41h328v-41h-41v-41h-41v-41h-41v-41h-123v-41h-122v41h-41z" />
    <glyph glyph-name="sterling" unicode="&#xa3;" horiz-adv-x="1105" 
d="M532 246h451v41h82v82h41v-82h-41v-123h-41v-82h-41v-41h-41v-41h-123v-41h-82v41h-123v41h-41v41h-81v41h-41v-41h-41v-41h-41v-41h-123v-41h-41v41h-123v41h-41v82h-41v41h41v82h41v41h41v41h287v82h-41v122h-41v123h41v41h-328v123h205v82h-41v246h41v123h41v41h41v41
h41v41h82v41h409v-41h82v-41h41v-41h41v-41h41v-164h-41v-41h-41v-41h-164v41h-41v41h-41v123h41v82h-41v41h-164v-41h-41v-82h-40v-205h40v-164h41v-41h328v-123h-328v-82h41v-163h-41v-164h-41v-41zM123 82h205v41h41v82h-41v41h-205v-164z" />
    <glyph glyph-name="yen" unicode="&#xa5;" horiz-adv-x="1515" 
d="M1106 82v-82h-696v82h122v41h41v205h82v41h-409v82h327v81h-327v82h327v41h-41v82h-40v41h-41v82h-41v41h-41v82h-41v41h-41v82h-41v41h-41v82h-41v41h-41v41h-41v41h-82v82h655v-82h-123v-41h-40v-41h40v-82h41v-41h41v-82h41v-41h41v-82h41v-82h41v-41h41v-82h41v-41
h41v82h41v82h41v41h41v82h41v41h41v82h41v41h41v82h41v82h-41v41h-123v82h410v-82h-41v-41h-41v-41h-41v-41h-41v-41h-41v-82h-41v-41h-41v-41h-41v-82h-41v-41h-41v-82h-41v-41h-41v-41h-41v-82h-41v-41h369v-82h-369v-81h369v-82h-369v-205h41v-41h41v-41h123z" />
    <glyph glyph-name="section" unicode="&#xa7;" horiz-adv-x="1146" 
d="M614 -164v-41h-245v41h-82v41h-82v82h-41v164h41v41h123v-41h41v-41h41v-41h-41v-41h-41v-41h41v-41h245v41h41v41h41v123h-41v41h-41v41h-82v41h-122v41h-82v41h-82v41h-82v41h-41v82h-41v204h41v82h41v41h41v41h82v41h-41v41h-41v123h-41v123h41v82h41v82h41v41h82v41
h163v41h82v-41h164v-41h82v-41h41v-41h41v-164h-41v-41h-164v41h-41v123h41v41h-41v41h-204v-41h-41v-41h-41v-164h41v-41h81v-41h123v-41h123v-41h82v-41h82v-41h41v-41h41v-41h41v-246h-41v-40h-41v-41h-41v-41h-41v-41h-123v-41h82v-41h41v-41h41v-205h-41v-82h-41v-41
h-41v-41h-82v-41h-123zM369 942h-82v-41h82v41zM451 573v-41h81v-40h123v-41h123v41h41v122h-41v41h-41v41h-123v41h-82v41h-81v41h-41v-41h-82v-164h41v-41h82z" />
    <glyph glyph-name="dieresis" unicode="&#xa8;" horiz-adv-x="1024" 
d="M164 1188v287h287v-287h-287zM573 1188v287h287v-287h-287z" />
    <glyph glyph-name="copyright" unicode="&#xa9;" horiz-adv-x="1597" 
d="M860 0v-41h-123v41h-164v41h-122v41h-41v41h-82v41h-41v41h-41v41h-41v41h-41v82h-41v82h-41v204h-41v123h41v164h41v123h41v41h41v82h41v41h41v41h41v41h41v41h82v41h81v41h205v41h123v-41h164v-41h123v-41h41v-41h82v-41h41v-41h41v-41h41v-41h41v-82h41v-82h41v-205
h40v-123h-40v-163h-41v-123h-41v-41h-41v-82h-41v-41h-41v-41h-41v-41h-41v-41h-82v-41h-82v-41h-205zM737 41h123v41h164v41h82v41h82v41h41v41h41v41h41v41h41v82h41v82h41v163h41v123h-41v164h-41v82h-41v82h-41v41h-41v41h-41v41h-41v41h-82v41h-82v41h-164v41h-123v-41
h-164v-41h-81v-41h-82v-41h-41v-41h-41v-41h-41v-41h-41v-82h-41v-82h-41v-164h-41v-123h41v-163h41v-82h41v-82h41v-41h41v-41h41v-41h41v-41h82v-41h81v-41h164v-41zM860 328v-41h-123v41h-123v41h-82v41h-40v82h-41v81h-41v246h41v123h41v41h40v41h41v41h41v41h123v41
h164v-41h82v-41h82v-82h41v-164h-164v82h-41v41h41v82h-41v41h-82v-41h-82v-41h-41v-41h-41v-369h41v-41h41v-40h41v-41h246v41h41v40h41v-40h-41v-82h-41v-41h-82v-41h-82z" />
    <glyph glyph-name="guillemotleft" unicode="&#xab;" horiz-adv-x="1138" 
d="M614 41v-41h-41v41h-41v41h-40v41h-41v41h-41v41h-41v41h-41v41h-41v41h-41v41h-41v41h-41v41h-41v41h-41v40h41v41h41v41h41v41h41v41h41v41h41v41h41v41h41v41h41v41h41v41h40v41h41v41h41v-41h-41v-82h-41v-82h-40v-41h-41v-82h-41v-82h-41v-82h-41v-40h41v-82h41v-82
h41v-82h41v-41h40v-82h41v-82h41zM1065 41v-41h-41v41h-41v41h-41v41h-41v41h-41v41h-41v41h-41v41h-41v41h-41v41h-41v41h-41v41h-41v41h-41v40h41v41h41v41h41v41h41v41h41v41h41v41h41v41h41v41h41v41h41v41h41v41h41v41h41v-41h-41v-82h-41v-82h-41v-41h-41v-82h-41v-82
h-41v-82h-41v-40h41v-82h41v-82h41v-82h41v-41h41v-82h41v-82h41z" />
    <glyph glyph-name="registered" unicode="&#xae;" horiz-adv-x="1228" 
d="M778 573v-41h-327v41h-82v41h-82v41h-41v41h-41v82h-41v41h-41v369h41v123h41v41h41v41h41v41h41v41h82v41h409v-41h82v-41h41v-41h41v-41h41v-41h41v-82h41v-369h-41v-82h-41v-82h-41v-41h-41v-41h-82v-41h-82zM901 778h41v-41h41v82h41v82h41v246h-41v82h-41v82h-41v41
h-41v41h-41v41h-123v41h-245v-41h-82v-41h-82v-41h-41v-41h-41v-82h-41v-82h-41v-246h41v-82h41v-82h41v-41h41v-41h82v-41h122v-41h164v41h123v41h82v41h41v41h-205v123h-41v123h-41v41h-163v-41h40v-164h41v-41h41v-41h-245v41h41v492h-41v82h286v-41h123v-41h41v-41h41
v-82h-41v-82h-41v-123h41v-82h41v-41h41v-41zM492 1229h40v-164h164v41h41v123h-41v41h-204v-41z" />
    <glyph glyph-name="macron" unicode="&#xaf;" horiz-adv-x="1024" 
d="M164 1434h696v-205h-696v205z" />
    <glyph glyph-name="degree" unicode="&#xb0;" horiz-adv-x="860" 
d="M573 819v-41h-286v41h-82v41h-41v41h-41v82h-41v246h41v82h41v41h41v41h41v41h164v41h41v-41h163v-41h41v-41h41v-41h41v-82h41v-246h-41v-82h-41v-41h-41v-41h-82zM369 860h123v41h81v41h41v82h41v164h-41v82h-41v41h-41v41h-163v-41h-82v-41h-41v-41h-41v-205h41v-82
h41v-41h82v-41z" />
    <glyph glyph-name="twosuperior" unicode="&#xb2;" horiz-adv-x="655" 
d="M573 778v-123h-532v41h41v82h41v41h41v41h41v41h41v41h41v41h41v82h41v41h41v205h-41v41h-41v41h-82v-41h-41v-41h-41v-41h41v-123h-164v164h41v41h41v41h41v41h287v-41h81v-41h41v-82h41v-82h-41v-82h-41v-41h-40v-41h-41v-41h-41v-41h-41v-41h-41v-41h-82v-41h-41v-41
h82v41h205v41h40v41h41v41h41v-164h-41z" />
    <glyph glyph-name="threesuperior" unicode="&#xb3;" horiz-adv-x="655" 
d="M451 696v-41h-287v41h-41v41h-41v41h-41v123h41v41h82v-41h41v-82h-41v-41h41v-41h41v-41h82v41h82v82h41v82h-41v82h-41v41h-164v41h41v41h41v82h41v41h41v41h41v41h-41v-41h-246v-82h-41v246h491v-82h-41v-41h-40v-41h-41v-41h-41v-82h41v-41h81v-41h41v-41h41v-205
h-41v-82h-41v-41h-81z" />
    <glyph glyph-name="acute" unicode="&#xb4;" horiz-adv-x="1024" 
d="M369 1229v-82h41v41h82v41h81v41h123v41h82v41h41v123h-41v41h-41v40h-82v-40h-82v-41h-41v-82h-40v-41h-41v-82h-41v-41h-41z" />
    <glyph glyph-name="paragraph" unicode="&#xb6;" horiz-adv-x="1392" 
d="M819 1270v-1762h-164v861h-163v41h-123v41h-82v41h-82v40h-41v82h-41v41h-41v123h-41v287h41v82h41v82h41v41h41v41h41v41h82v41h123v41h860v-82h-123v-41h-41v-1803h-164v1844h-287v-82h123z" />
    <glyph glyph-name="periodcentered" unicode="&#xb7;" horiz-adv-x="491" 
d="M82 901h328v-287h-328v287z" />
    <glyph glyph-name="cedilla" unicode="&#xb8;" horiz-adv-x="1024" 
d="M655 -410v-41h-204v41h122v41h41v82h-41v41h-81v41h-82v41h41v82h41v41h40v41h41v41h82v-41h-41v-41h-41v-41h-41v-82h41v41h41v41h41v-41h82v-41h41v-205h-41v-41h-82z" />
    <glyph glyph-name="onesuperior" unicode="&#xb9;" horiz-adv-x="450" 
d="M451 696v-41h-451v41h41v41h82v574h-41v41h-82v41h164v41h164v-697h41v-41h82z" />
    <glyph glyph-name="guillemotright" unicode="&#xbb;" horiz-adv-x="1138" 
d="M532 983v41h41v-41h41v-41h41v-41h41v-41h41v-41h41v-41h41v-41h41v-41h41v-41h41v-41h41v-41h41v-41h41v-40h-41v-41h-41v-41h-41v-41h-41v-41h-41v-41h-41v-41h-41v-41h-41v-41h-41v-41h-41v-41h-41v-41h-41v-41h-41v41h41v82h41v82h41v41h41v82h41v82h41v82h41v40h-41
v82h-41v82h-41v82h-41v41h-41v82h-41v82h-41zM82 983v41h41v-41h41v-41h41v-41h41v-41h41v-41h41v-41h41v-41h41v-41h41v-41h41v-41h40v-41h41v-41h41v-40h-41v-41h-41v-41h-40v-41h-41v-41h-41v-41h-41v-41h-41v-41h-41v-41h-41v-41h-41v-41h-41v-41h-41v-41h-41v41h41v82
h41v82h41v41h41v82h41v82h41v82h41v40h-41v82h-41v82h-41v82h-41v41h-41v82h-41v82h-41z" />
    <glyph glyph-name="onequarter" unicode="&#xbc;" 
d="M451 696v-41h-451v41h41v41h82v574h-41v41h-41v41h123v41h164v-697h41v-41h82zM1106 1434v-41h-41v-82h-41v-41h-41v-82h-41v-41h-41v-82h-41v-82h-41v-41h-41v-82h-41v-41h-41v-82h-41v-41h-41v-82h-41v-82h-41v-40h-40v-82h-41v-41h-41v-82h-41v-41h-41v-82h-41v-41
h-41v-82h-41v-41h-82v82h41v41h41v82h41v41h41v82h41v41h41v82h41v81h41v41h41v82h40v41h41v82h41v41h41v82h41v41h41v82h41v82h41v41h41v82h41v41h41v82h41v41h41v41h82zM614 205v41h41v41h41v82h41v41h41v82h41v81h41v82h-41v82h123v41h164v-41h-41v-82h-41v-41h-41v-82
h-41v-40h-41v-41h-41v-41h-41v-41h-41v-41h205v123h41v41h82v40h41v-204h41v41h41v41h41v-205h-164v-41h41v-82h41v-41h82v-41h-410v41h82v41h41v123h-369z" />
    <glyph glyph-name="onehalf" unicode="&#xbd;" horiz-adv-x="1351" 
d="M369 1475v-738h41v-41h41v-41h-410v82h82v574h-41v41h-41v41h123v41h164v41h41zM205 41v-41h-82v41h41v82h41v41h41v82h41v41h41v82h41v82h41v41h41v81h41v41h40v82h41v41h41v82h41v82h41v41h41v82h41v41h41v82h41v41h41v82h41v41h41v82h41v41h82v-82h-41v-41h-41v-82
h-41v-41h-41v-82h-41v-82h-41v-41h-41v-82h-41v-41h-41v-82h-41v-41h-41v-82h-41v-41h-41v-82h-41v-81h-40v-41h-41v-82h-41v-41h-41v-82h-41v-41h-41v-82h-41v-41h-41zM1270 82v-82h-533v41h41v41h41v41h41v41h41v82h41v41h41v41h41v41h41v82h41v204h-41v41h-164v-41h-41
v-41h41v-122h-41v-41h-82v41h-41v163h41v41h41v41h82v41h246v-41h82v-41h41v-82h41v-82h-41v-81h-41v-82h-82v-41h-41v-41h-41v-41h-41v-41h-41v-41h-82v-41h82v41h246v82h82v-164h-41z" />
    <glyph glyph-name="threequarters" unicode="&#xbe;" horiz-adv-x="1515" 
d="M451 696v-41h-287v41h-41v41h-41v41h-41v123h41v41h82v-41h41v-82h-41v-41h41v-41h41v-41h82v41h82v82h41v82h-41v82h-41v41h-164v41h41v41h41v82h41v41h41v41h41v41h-41v-41h-246v-82h-41v246h491v-82h-41v-41h-40v-41h-41v-41h-41v-82h41v-41h81v-41h41v-41h41v-205
h-41v-82h-41v-41h-81zM1311 1434v-41h-41v-41h-41v-82h-41v-41h-41v-82h-41v-41h-41v-82h-41v-82h-41v-41h-41v-82h-41v-41h-41v-82h-41v-41h-41v-82h-41v-41h-41v-81h-41v-41h-41v-82h-41v-41h-41v-82h-40v-41h-41v-82h-41v-82h-123v41h41v82h41v41h41v82h41v41h41v82h40
v41h41v82h41v81h41v41h41v82h41v41h41v82h41v41h41v82h41v41h41v82h41v82h41v41h41v82h41v41h41v82h41v41h123zM819 205v41h41v41h41v41h41v82h41v82h41v245h123v41h123v-123h-41v-41h-41v-41h-41v-81h-41v-41h-41v-41h-41v-41h-41v-41h164v123h41v41h82v40h82v-204h41v41
h41v41h41v-164h-41v-41h-123v-41h41v-82h41v-41h41v-41h-369v41h41v41h41v123h-328z" />
    <glyph glyph-name="questiondown" unicode="&#xbf;" horiz-adv-x="1064" 
d="M696 1147h-286v287h286v-287zM778 41v-41h-491v41h-82v41h-41v41h-41v41h-41v82h-41v164h41v82h41v81h41v41h41v41h82v41h82v41h41v41h82v41h40v164h82v-41h41v-164h-41v-82h-41v-41h-41v-41h-40v-41h-41v-41h-41v-81h-41v-82h-41v-123h41v-82h41v-41h41v-41h245v41h82
v82h41v82h-82v123h41v41h41v41h82v-41h82v-41h41v-164h-41v-82h-41v-41h-41v-41h-41v-41h-82z" />
    <glyph glyph-name="Agrave" unicode="&#xc0;" horiz-adv-x="1556" 
d="M942 369h82v41h-41v41h-573v-41h-41v-82h-41v-123h-41v-41h41v-82h123v-82h-451v82h82v41h41v41h41v41h41v82h41v123h41v82h41v81h41v123h41v82h41v82h41v82h40v123h41v82h41v82h41v123h41v82h41v41h123v-123h41v-82h41v-82h41v-123h41v-82h41v-82h41v-123h41v-82h41v-82
h41v-82h41v-122h41v-82h41v-82h41v-82h41v-41h41v-41h81v-82h-655v82h82v205h-41v82zM451 532h409v82h-41v82h-41v123h-41v82h-41v82h-82v-123h-41v-82h-41v-82h-40v-82h-41v-82zM922 1653v-82h-41v41h-82v41h-82v41h-123v41h-82v41h-41v122h41v41h41v41h82v-41h82v-41h41
v-81h41v-41h41v-82h41v-41h41z" />
    <glyph glyph-name="Aacute" unicode="&#xc1;" horiz-adv-x="1556" 
d="M942 369h82v41h-41v41h-573v-41h-41v-82h-41v-123h-41v-41h41v-82h123v-82h-451v82h82v41h41v41h41v41h41v82h41v123h41v82h41v81h41v123h41v82h41v82h41v82h40v123h41v82h41v82h41v123h41v82h41v41h123v-123h41v-82h41v-82h41v-123h41v-82h41v-82h41v-123h41v-82h41v-82
h41v-82h41v-122h41v-82h41v-82h41v-82h41v-41h41v-41h81v-82h-655v82h82v205h-41v82zM451 532h409v82h-41v82h-41v123h-41v82h-41v82h-82v-123h-41v-82h-41v-82h-40v-82h-41v-82zM614 1638v-82h41v41h82v41h82v41h123v41h82v41h41v123h-41v41h-41v41h-82v-41h-82v-41h-41
v-82h-41v-41h-41v-82h-41v-41h-41z" />
    <glyph glyph-name="Acircumflex" unicode="&#xc2;" horiz-adv-x="1556" 
d="M942 369h82v41h-41v41h-573v-41h-41v-82h-41v-123h-41v-41h41v-82h123v-82h-451v82h82v41h41v41h41v41h41v82h41v123h41v82h41v81h41v123h41v82h41v82h41v82h40v123h41v82h41v82h41v123h41v82h41v41h123v-123h41v-82h41v-82h41v-123h41v-82h41v-82h41v-123h41v-82h41v-82
h41v-82h41v-122h41v-82h41v-82h41v-82h41v-41h41v-41h81v-82h-655v82h82v205h-41v82zM451 532h409v82h-41v82h-41v123h-41v82h-41v82h-82v-123h-41v-82h-41v-82h-40v-82h-41v-82zM451 1597v-41h-41v41h41v41h41v41h40v41h41v41h41v82h41v41h287v-41h41v-41h41v-82h41v-41h41
v-41h41v-41h41v-41h-82v41h-123v41h-164v41h-82v41h82v41h-82v-41h-41v-41h-82v-41h-82v-41h-81z" />
    <glyph glyph-name="Atilde" unicode="&#xc3;" horiz-adv-x="1556" 
d="M942 369h82v41h-41v41h-573v-41h-41v-82h-41v-123h-41v-41h41v-82h123v-82h-451v82h82v41h41v41h41v41h41v82h41v123h41v82h41v81h41v123h41v82h41v82h41v82h40v123h41v82h41v82h41v123h41v82h41v41h123v-123h41v-82h41v-82h41v-123h41v-82h41v-82h41v-123h41v-82h41v-82
h41v-82h41v-122h41v-82h41v-82h41v-82h41v-41h41v-41h81v-82h-655v82h82v205h-41v82zM451 532h409v82h-41v82h-41v123h-41v82h-41v82h-82v-123h-41v-82h-41v-82h-40v-82h-41v-82zM1065 1638v-41h-246v41h-82v41h-82v41h-123v-41h-81v-41h-41v41h41v82h41v82h40v41h82v41h82
v-41h123v-41h82v-41h82v-41h82v41h82v82h41v-82h-41v-82h-41v-82h-41z" />
    <glyph glyph-name="Adieresis" unicode="&#xc4;" horiz-adv-x="1556" 
d="M942 369h82v41h-41v41h-573v-41h-41v-82h-41v-123h-41v-41h41v-82h123v-82h-451v82h82v41h41v41h41v41h41v82h41v123h41v82h41v81h41v123h41v82h41v82h41v82h40v123h41v82h41v82h41v123h41v82h41v41h123v-123h41v-82h41v-82h41v-123h41v-82h41v-82h41v-123h41v-82h41v-82
h41v-82h41v-122h41v-82h41v-82h41v-82h41v-41h41v-41h81v-82h-655v82h82v205h-41v82zM451 532h409v82h-41v82h-41v123h-41v82h-41v82h-82v-123h-41v-82h-41v-82h-40v-82h-41v-82zM451 1597v287h286v-287h-286zM860 1597v287h287v-287h-287z" />
    <glyph glyph-name="Aring" unicode="&#xc5;" horiz-adv-x="1556" 
d="M942 369h82v41h-41v41h-573v-41h-41v-82h-41v-123h-41v-41h41v-82h123v-82h-451v82h82v41h41v41h41v41h41v82h41v123h41v82h41v81h41v123h41v82h41v82h41v82h40v123h41v82h41v82h41v123h41v82h41v41h123v-123h41v-82h41v-82h41v-123h41v-82h41v-82h41v-123h41v-82h41v-82
h41v-82h41v-122h41v-82h41v-82h41v-82h41v-41h41v-41h81v-82h-655v82h82v205h-41v82zM451 532h409v82h-41v82h-41v123h-41v82h-41v82h-82v-123h-41v-82h-41v-82h-40v-82h-41v-82zM901 1597v-41h-205v41h-82v82h-41v164h41v41h41v41h41v41h205v-41h41v-41h41v-41h41v-164h-41
v-82h-82zM737 1638h123v41h41v164h-41v41h-123v-41h-41v-164h41v-41z" />
    <glyph glyph-name="AE" unicode="&#xc6;" horiz-adv-x="2252" 
d="M492 82v-82h-492v82h82v41h82v41h41v41h41v41h41v41h41v82h41v41h41v82h41v40h41v82h40v82h41v41h41v82h41v41h41v82h41v82h41v41h41v82h41v82h41v82h-41v41h-82v82h1352v-451h41v-41h-123v123h-41v123h-41v41h-41v41h-41v41h-123v41h-368v-574h204v41h82v41h41v123h41
v41h41v-573h-82v163h-41v41h-82v41h-204v-573h-82v-41h491v41h123v41h41v41h41v41h41v82h41v123h41v41h82v-82h-41v-287h-41v-123h-1270v82h164v82h41v328h-533v-41h-40v-82h-41v-82h-41v-41h-41v-123h41v-41h82zM1065 1311v-41h-41v-41h-41v-82h-41v-82h-41v-41h-41v-82
h-41v-41h-41v-82h-41v-41h-41v-82h-41v-82h-41v-41h451v656h41v82h-41z" />
    <glyph glyph-name="Ccedilla" unicode="&#xc7;" horiz-adv-x="1351" 
d="M1229 287v41h41v-41h-41v-82h-41v-41h-41v-41h-41v-41h-82v-41h-41v-41h-205v-41h-41v-41h-41v-82h41v41h41v41h41v-41h82v-41h41v-205h-41v-41h-82v-41h-205v41h123v41h41v82h-41v41h-82v41h-82v82h41v41h41v41h41v41h-204v41h-82v41h-82v41h-41v41h-41v41h-41v41h-41
v82h-41v82h-41v163h-41v287h41v123h41v82h41v82h41v41h41v82h41v41h82v41h41v41h82v41h204v41h41v-41h205v-41h41v-41h82v-41h41v-82h41v123h-41v41h82v41h82v-492h-82v41h-41v123h-41v41h-41v82h-82v41h-41v41h-287v-41h-82v-41h-41v-82h-40v-41h-41v-123h-41v-410h41v-122
h41v-82h40v-82h41v-41h41v-41h82v-41h328v41h82v41h82v41h41zM1311 369h-41v41h41v-41z" />
    <glyph glyph-name="Egrave" unicode="&#xc8;" horiz-adv-x="1433" 
d="M573 123h-81v-41h491v41h123v41h41v41h41v41h41v123h41v82h41v41h82v-41h-41v-328h-41v-123h-1270v82h123v41h41v41h41v1065h-41v82h-41v41h-123v82h1270v-492h-82v82h-41v164h-41v41h-41v41h-41v41h-123v41h-450v-41h81v-533h205v41h82v41h41v164h82v-573h-82v122h-41
v82h-82v41h-205v-573zM881 1653v-82h-41v41h-82v41h-82v41h-123v41h-82v41h-41v122h41v41h41v41h82v-41h82v-41h41v-81h41v-41h41v-82h41v-41h41z" />
    <glyph glyph-name="Eacute" unicode="&#xc9;" horiz-adv-x="1433" 
d="M573 123h-81v-41h491v41h123v41h41v41h41v41h41v123h41v82h41v41h82v-41h-41v-328h-41v-123h-1270v82h123v41h41v41h41v1065h-41v82h-41v41h-123v82h1270v-492h-82v82h-41v164h-41v41h-41v41h-41v41h-123v41h-450v-41h81v-533h205v41h82v41h41v164h82v-573h-82v122h-41
v82h-82v41h-205v-573zM573 1638v-82h41v41h82v41h82v41h123v41h82v41h41v123h-41v41h-41v41h-82v-41h-82v-41h-41v-82h-41v-41h-41v-82h-41v-41h-41z" />
    <glyph glyph-name="Ecircumflex" unicode="&#xca;" horiz-adv-x="1433" 
d="M573 123h-81v-41h491v41h123v41h41v41h41v41h41v123h41v82h41v41h82v-41h-41v-328h-41v-123h-1270v82h123v41h41v41h41v1065h-41v82h-41v41h-123v82h1270v-492h-82v82h-41v164h-41v41h-41v41h-41v41h-123v41h-450v-41h81v-533h205v41h82v41h41v164h82v-573h-82v122h-41
v82h-82v41h-205v-573zM410 1597v-41h-41v41h41v41h41v41h41v41h40v41h41v82h41v41h287v-41h41v-41h41v-82h41v-41h41v-41h41v-41h41v-41h-82v41h-123v41h-164v41h-82v41h82v41h-82v-41h-41v-41h-82v-41h-81v-41h-82z" />
    <glyph glyph-name="Edieresis" unicode="&#xcb;" horiz-adv-x="1433" 
d="M573 123h-81v-41h491v41h123v41h41v41h41v41h41v123h41v82h41v41h82v-41h-41v-328h-41v-123h-1270v82h123v41h41v41h41v1065h-41v82h-41v41h-123v82h1270v-492h-82v82h-41v164h-41v41h-41v41h-41v41h-123v41h-450v-41h81v-533h205v41h82v41h41v164h82v-573h-82v122h-41
v82h-82v41h-205v-573zM410 1597v287h286v-287h-286zM819 1597v287h287v-287h-287z" />
    <glyph glyph-name="Igrave" unicode="&#xcc;" horiz-adv-x="819" 
d="M778 82v-82h-737v82h164v41h41v1147h-41v82h-164v82h737v-82h-164v-41h-41v-1188h41v-41h164zM553 1653v-82h-41v41h-82v41h-82v41h-123v41h-82v41h-41v122h41v41h41v41h82v-41h82v-41h41v-81h41v-41h41v-82h41v-41h41z" />
    <glyph glyph-name="Iacute" unicode="&#xcd;" horiz-adv-x="819" 
d="M778 82v-82h-737v82h164v41h41v1147h-41v82h-164v82h737v-82h-164v-41h-41v-1188h41v-41h164zM246 1638v-82h41v41h82v41h82v41h122v41h82v41h41v123h-41v41h-41v41h-82v-41h-81v-41h-41v-82h-41v-41h-41v-82h-41v-41h-41z" />
    <glyph glyph-name="Icircumflex" unicode="&#xce;" horiz-adv-x="819" 
d="M778 82v-82h-737v82h164v41h41v1147h-41v82h-164v82h737v-82h-164v-41h-41v-1188h41v-41h164zM82 1597v-41h-41v41h41v41h41v41h41v41h41v41h41v82h41v41h286v-41h41v-41h41v-82h41v-41h41v-41h41v-41h41v-41h-82v41h-123v41h-163v41h-82v41h82v41h-82v-41h-41v-41h-82
v-41h-82v-41h-82z" />
    <glyph glyph-name="Idieresis" unicode="&#xcf;" horiz-adv-x="819" 
d="M778 82v-82h-737v82h164v41h41v1147h-41v82h-164v82h737v-82h-164v-41h-41v-1188h41v-41h164zM82 1597v287h287v-287h-287zM492 1597v287h286v-287h-286z" />
    <glyph glyph-name="Eth" unicode="&#xd0;" horiz-adv-x="1638" 
d="M246 655h82v41h-287v82h205v492h-41v82h-164v82h901v-41h164v-41h82v-41h82v-41h82v-41h41v-41h41v-41h41v-82h41v-41h40v-123h41v-328h-41v-122h-40v-82h-41v-41h-41v-82h-41v-41h-82v-41h-41v-41h-82v-41h-82v-41h-123v-41h-942v82h164v82h41v491zM573 164h-81v-82h327
v41h123v41h82v41h41v41h41v82h41v82h41v163h41v205h-41v205h-41v82h-41v82h-41v41h-41v41h-41v41h-82v41h-123v41h-286v-41h81v-533h205v-82h-205v-532z" />
    <glyph glyph-name="Ntilde" unicode="&#xd1;" horiz-adv-x="1638" 
d="M1393 1188v-1188h-41v41h-41v41h-41v41h-41v41h-41v41h-41v41h-41v41h-41v82h-41v41h-41v41h-41v41h-41v40h-41v41h-41v41h-41v41h-41v41h-41v82h-41v41h-41v41h-41v41h-41v41h-40v41h-41v41h-41v41h-41v-942h41v-41h163v-82h-532v82h123v41h41v41h41v1065h-41v41h-41v41
h-41v41h-41v41h-41v41h491v-41h41v-41h41v-41h41v-41h41v-41h41v-41h41v-41h41v-82h41v-41h41v-41h41v-41h41v-41h41v-41h41v-41h41v-41h41v-41h41v-41h41v-164h41v779h-41v41h-123v82h491v-82h-122v-41h-41v-123h-41zM1106 1638v-41h-246v41h-82v41h-82v41h-123v-41h-81
v-41h-41v41h41v82h40v82h41v41h82v41h82v-41h123v-41h82v-41h82v-41h82v41h82v82h41v-82h-41v-82h-41v-82h-41z" />
    <glyph glyph-name="Ograve" unicode="&#xd2;" horiz-adv-x="1597" 
d="M860 0v-41h-123v41h-205v41h-81v41h-82v41h-41v41h-41v41h-41v41h-41v41h-41v41h-41v123h-41v122h-41v246h41v164h41v82h41v82h41v41h41v41h41v41h41v41h41v41h82v41h81v41h164v41h164v-41h205v-41h82v-41h82v-41h41v-41h82v-82h41v-41h41v-41h41v-82h41v-164h40v-246
h-40v-163h-41v-82h-41v-82h-41v-41h-41v-41h-41v-41h-41v-41h-41v-41h-82v-41h-82v-41h-205zM696 82h205v41h82v41h41v41h41v41h41v82h41v123h41v450h-41v164h-41v82h-41v82h-41v41h-41v41h-82v41h-205v-41h-82v-41h-41v-41h-41v-41h-40v-82h-41v-123h-41v-451h41v-163h41
v-82h40v-82h41v-41h41v-41h82v-41zM922 1653v-82h-41v41h-82v41h-82v41h-123v41h-82v41h-41v122h41v41h41v41h82v-41h82v-41h41v-81h41v-41h41v-82h41v-41h41z" />
    <glyph glyph-name="Oacute" unicode="&#xd3;" horiz-adv-x="1597" 
d="M860 0v-41h-123v41h-205v41h-81v41h-82v41h-41v41h-41v41h-41v41h-41v41h-41v41h-41v123h-41v122h-41v246h41v164h41v82h41v82h41v41h41v41h41v41h41v41h41v41h82v41h81v41h164v41h164v-41h205v-41h82v-41h82v-41h41v-41h82v-82h41v-41h41v-41h41v-82h41v-164h40v-246
h-40v-163h-41v-82h-41v-82h-41v-41h-41v-41h-41v-41h-41v-41h-41v-41h-82v-41h-82v-41h-205zM696 82h205v41h82v41h41v41h41v41h41v82h41v123h41v450h-41v164h-41v82h-41v82h-41v41h-41v41h-82v41h-205v-41h-82v-41h-41v-41h-41v-41h-40v-82h-41v-123h-41v-451h41v-163h41
v-82h40v-82h41v-41h41v-41h82v-41zM614 1638v-82h41v41h82v41h82v41h123v41h82v41h41v123h-41v41h-41v41h-82v-41h-82v-41h-41v-82h-41v-41h-41v-82h-41v-41h-41z" />
    <glyph glyph-name="Ocircumflex" unicode="&#xd4;" horiz-adv-x="1597" 
d="M860 0v-41h-123v41h-205v41h-81v41h-82v41h-41v41h-41v41h-41v41h-41v41h-41v41h-41v123h-41v122h-41v246h41v164h41v82h41v82h41v41h41v41h41v41h41v41h41v41h82v41h81v41h164v41h164v-41h205v-41h82v-41h82v-41h41v-41h82v-82h41v-41h41v-41h41v-82h41v-164h40v-246
h-40v-163h-41v-82h-41v-82h-41v-41h-41v-41h-41v-41h-41v-41h-41v-41h-82v-41h-82v-41h-205zM696 82h205v41h82v41h41v41h41v41h41v82h41v123h41v450h-41v164h-41v82h-41v82h-41v41h-41v41h-82v41h-205v-41h-82v-41h-41v-41h-41v-41h-40v-82h-41v-123h-41v-451h41v-163h41
v-82h40v-82h41v-41h41v-41h82v-41zM451 1597v-41h-41v41h41v41h41v41h40v41h41v41h41v82h41v41h287v-41h41v-41h41v-82h41v-41h41v-41h41v-41h41v-41h-82v41h-123v41h-164v41h-82v41h82v41h-82v-41h-41v-41h-82v-41h-82v-41h-81z" />
    <glyph glyph-name="Otilde" unicode="&#xd5;" horiz-adv-x="1597" 
d="M860 0v-41h-123v41h-205v41h-81v41h-82v41h-41v41h-41v41h-41v41h-41v41h-41v41h-41v123h-41v122h-41v246h41v164h41v82h41v82h41v41h41v41h41v41h41v41h41v41h82v41h81v41h164v41h164v-41h205v-41h82v-41h82v-41h41v-41h82v-82h41v-41h41v-41h41v-82h41v-164h40v-246
h-40v-163h-41v-82h-41v-82h-41v-41h-41v-41h-41v-41h-41v-41h-41v-41h-82v-41h-82v-41h-205zM696 82h205v41h82v41h41v41h41v41h41v82h41v123h41v450h-41v164h-41v82h-41v82h-41v41h-41v41h-82v41h-205v-41h-82v-41h-41v-41h-41v-41h-40v-82h-41v-123h-41v-451h41v-163h41
v-82h40v-82h41v-41h41v-41h82v-41zM1065 1638v-41h-246v41h-82v41h-82v41h-123v-41h-81v-41h-41v41h41v82h41v82h40v41h82v41h82v-41h123v-41h82v-41h82v-41h82v41h82v82h41v-82h-41v-82h-41v-82h-41z" />
    <glyph glyph-name="Odieresis" unicode="&#xd6;" horiz-adv-x="1597" 
d="M860 0v-41h-123v41h-205v41h-81v41h-82v41h-41v41h-41v41h-41v41h-41v41h-41v41h-41v123h-41v122h-41v246h41v164h41v82h41v82h41v41h41v41h41v41h41v41h41v41h82v41h81v41h164v41h164v-41h205v-41h82v-41h82v-41h41v-41h82v-82h41v-41h41v-41h41v-82h41v-164h40v-246
h-40v-163h-41v-82h-41v-82h-41v-41h-41v-41h-41v-41h-41v-41h-41v-41h-82v-41h-82v-41h-205zM696 82h205v41h82v41h41v41h41v41h41v82h41v123h41v450h-41v164h-41v82h-41v82h-41v41h-41v41h-82v41h-205v-41h-82v-41h-41v-41h-41v-41h-40v-82h-41v-123h-41v-451h41v-163h41
v-82h40v-82h41v-41h41v-41h82v-41zM451 1597v287h286v-287h-286zM860 1597v287h287v-287h-287z" />
    <glyph glyph-name="multiply" unicode="&#xd7;" horiz-adv-x="1064" 
d="M164 369h41v41h41v41h41v41h41v40h41v41h41v41h41v41h-41v82h-41v41h-41v41h-41v41h-41v41h-41v82h82v-41h41v-41h41v-41h41v-41h41v-41h41v-41h81v41h41v41h41v41h41v41h41v41h41v41h82v-82h-41v-41h-41v-41h-41v-41h-41v-41h-41v-41h-41v-82h41v-41h41v-41h41v-40h41
v-41h41v-41h41v-41h41v-41h-41v-41h-82v82h-41v41h-41v41h-41v41h-41v40h-41v41h-41v-41h-81v-40h-41v-41h-41v-41h-41v-41h-41v-41h-41v-41h-41v41h-41v41z" />
    <glyph glyph-name="Oslash" unicode="&#xd8;" horiz-adv-x="1597" 
d="M860 0v-41h-123v41h-205v41h-81v41h-82v41h-41v41h-41v-41h-41v-41h-41v-41h-41v-41h-123v82h41v41h41v41h41v41h41v41h41v41h41v82h-41v-41h-41v-41h-41v41h-41v123h-41v122h-41v246h41v164h41v82h41v82h41v41h41v41h41v41h41v41h41v41h82v41h81v41h164v41h205v-41h164
v-41h82v-41h82v-41h41v-41h41v41h41v41h41v41h41v41h122v-82h-40v-41h-41v-41h-41v-41h-41v-41h-41v-41h-41v-41h41v41h82v-41h41v-82h41v-164h40v-246h-40v-163h-41v-82h-41v-82h-41v-41h-41v-41h-41v-41h-41v-41h-41v-41h-82v-41h-82v-41h-205zM451 451h41v41h40v40h41v41
h41v41h41v41h41v41h41v41h41v41h41v41h41v41h41v41h41v41h41v41h41v41h41v41h41v82h-41v41h-41v82h-41v41h-82v41h-205v-41h-82v-41h-41v-41h-41v-41h-40v-82h-41v-123h-41v-451h41v-81zM696 82h205v41h82v41h41v41h41v41h41v82h41v204h41v328h-41v82h-82v-41h-41v-41h-41
v-41h-41v-41h-41v-41h-41v-41h-41v-41h-41v-41h-41v-41h-41v-41h-41v-40h-41v-41h-41v-41h-41v-41h-40v-82h40v-41h41v-82h41v-41h82v-41z" />
    <glyph glyph-name="Ugrave" unicode="&#xd9;" horiz-adv-x="1638" 
d="M860 0v-41h-123v41h-164v41h-122v41h-41v41h-41v41h-41v41h-41v82h-41v942h-41v82h-41v41h-123v82h737v-82h-164v-41h-41v-942h41v-82h41v-41h41v-41h41v-41h328v41h82v41h41v82h41v82h41v860h-41v82h-164v82h532v-82h-122v-41h-41v-82h-41v-860h-41v-123h-41v-41h-41
v-41h-41v-41h-41v-41h-41v-41h-82v-41h-205zM1044 1653v-82h-40v41h-82v41h-82v41h-123v41h-82v41h-41v122h41v41h41v41h82v-41h82v-41h41v-81h41v-41h41v-82h41v-41h40z" />
    <glyph glyph-name="Uacute" unicode="&#xda;" horiz-adv-x="1638" 
d="M860 0v-41h-123v41h-164v41h-122v41h-41v41h-41v41h-41v41h-41v82h-41v942h-41v82h-41v41h-123v82h737v-82h-164v-41h-41v-942h41v-82h41v-41h41v-41h41v-41h328v41h82v41h41v82h41v82h41v860h-41v82h-164v82h532v-82h-122v-41h-41v-82h-41v-860h-41v-123h-41v-41h-41
v-41h-41v-41h-41v-41h-41v-41h-82v-41h-205zM737 1638v-82h41v41h82v41h82v41h123v41h82v41h41v123h-41v41h-41v41h-82v-41h-82v-41h-41v-82h-41v-41h-41v-82h-41v-41h-41z" />
    <glyph glyph-name="Ucircumflex" unicode="&#xdb;" horiz-adv-x="1638" 
d="M860 0v-41h-123v41h-164v41h-122v41h-41v41h-41v41h-41v41h-41v82h-41v942h-41v82h-41v41h-123v82h737v-82h-164v-41h-41v-942h41v-82h41v-41h41v-41h41v-41h328v41h82v41h41v82h41v82h41v860h-41v82h-164v82h532v-82h-122v-41h-41v-82h-41v-860h-41v-123h-41v-41h-41
v-41h-41v-41h-41v-41h-41v-41h-82v-41h-205zM573 1597v-41h-41v41h41v41h41v41h41v41h41v41h41v82h41v41h287v-41h41v-41h41v-82h41v-41h41v-41h41v-41h41v-41h-82v41h-123v41h-164v41h-82v41h82v41h-82v-41h-41v-41h-82v-41h-82v-41h-82z" />
    <glyph glyph-name="Udieresis" unicode="&#xdc;" horiz-adv-x="1638" 
d="M860 0v-41h-123v41h-164v41h-122v41h-41v41h-41v41h-41v41h-41v82h-41v942h-41v82h-41v41h-123v82h737v-82h-164v-41h-41v-942h41v-82h41v-41h41v-41h41v-41h328v41h82v41h41v82h41v82h41v860h-41v82h-164v82h532v-82h-122v-41h-41v-82h-41v-860h-41v-123h-41v-41h-41
v-41h-41v-41h-41v-41h-41v-41h-82v-41h-205zM573 1597v287h287v-287h-287zM983 1597v287h287v-287h-287z" />
    <glyph glyph-name="Yacute" unicode="&#xdd;" horiz-adv-x="1515" 
d="M1106 82v-82h-696v82h122v41h41v41h41v450h-41v41h-41v82h-40v41h-41v82h-41v41h-41v82h-41v41h-41v82h-41v41h-41v82h-41v41h-41v41h-41v41h-82v82h655v-82h-123v-164h41v-41h41v-82h41v-41h41v-82h41v-82h41v-41h41v-123h-41v-41h82v82h41v41h41v82h41v82h41v41h41v82
h41v82h41v82h41v123h-123v82h410v-82h-41v-41h-41v-41h-41v-41h-41v-41h-41v-82h-41v-41h-41v-82h-41v-41h-41v-82h-41v-41h-41v-82h-41v-41h-41v-82h-41v-409h41v-82h41v-41h123zM655 1638v-82h41v41h82v41h82v41h123v41h82v41h41v123h-41v41h-41v41h-82v-41h-82v-41h-41
v-82h-41v-41h-41v-82h-41v-41h-41z" />
    <glyph glyph-name="Thorn" unicode="&#xde;" horiz-adv-x="1474" 
d="M778 82v-82h-737v82h164v41h41v1188h-41v41h-164v82h737v-82h-164v-41h-41v-164h492v-41h123v-41h82v-41h41v-41h41v-82h41v-246h-41v-82h-41v-81h-41v-41h-82v-41h-82v-41h-574v-82h41v-164h41v-41h164zM573 451h328v41h41v40h41v41h41v123h41v123h-41v123h-41v41h-41
v41h-82v41h-328v-41h41v-573z" />
    <glyph glyph-name="germandbls" unicode="&#xdf;" 
d="M451 1311v-1311h-451v41h82v41h41v41h41v778h82v41h-246v82h164v123h41v123h41v41h41v41h41v41h41v41h123v41h286v-41h123v-41h82v-41h41v-82h41v-164h-41v-41h-41v-82h-82v-41h-41v-41h-82v-82h82v-41h41v-41h82v-41h41v-41h82v-41h41v-41h41v-41h41v-81h41v-246h-41
v-82h-41v-41h-41v-41h-82v-41h-369v41h-82v41h-41v41h-41v246h41v41h205v-82h41v-82h-41v-41h-41v-82h41v-41h205v41h41v246h-41v41h-41v41h-82v41h-41v40h-82v41h-41v41h-41v41h-41v41h-41v82h41v82h41v41h41v41h41v82h41v287h-41v41h-41v41h-164v-41h-40v-41h-41z" />
    <glyph glyph-name="agrave" unicode="&#xe0;" horiz-adv-x="1105" 
d="M655 123h41v82h41v41h-41v-41h-41v-41h-41v-41h-41v-41h-41v-41h-40v-41h-123v-41h-123v41h-123v41h-41v41h-41v246h41v41h41v41h82v41h82v41h123v40h122v41h123v246h-41v41h-41v41h-245v-41h-41v-41h41v-164h-41v-41h-164v41h-41v164h41v82h41v41h41v41h123v41h368v-41
h82v-41h82v-41h41v-123h41v-655h123v-41h-41v-41h-41v-41h-287v41h-41v82zM410 123h82v41h81v41h41v41h41v246h-123v-41h-122v-41h-41v-41h-41v-205h82v-41zM1106 123h-41v41h41v-41zM635 1243v-82h-41v41h-82v41h-82v41h-123v41h-82v41h-41v123h41v41h41v41h82v-41h82v-41
h41v-82h41v-41h41v-82h41v-41h41z" />
    <glyph glyph-name="aacute" unicode="&#xe1;" horiz-adv-x="1105" 
d="M655 123h41v82h41v41h-41v-41h-41v-41h-41v-41h-41v-41h-41v-41h-40v-41h-123v-41h-123v41h-123v41h-41v41h-41v246h41v41h41v41h82v41h82v41h123v40h122v41h123v246h-41v41h-41v41h-245v-41h-41v-41h41v-164h-41v-41h-164v41h-41v164h41v82h41v41h41v41h123v41h368v-41
h82v-41h82v-41h41v-123h41v-655h123v-41h-41v-41h-41v-41h-287v41h-41v82zM410 123h82v41h81v41h41v41h41v246h-123v-41h-122v-41h-41v-41h-41v-205h82v-41zM1106 123h-41v41h41v-41zM328 1229v-82h41v41h82v41h81v41h123v41h82v41h41v123h-41v41h-41v40h-82v-40h-82v-41
h-40v-82h-41v-41h-41v-82h-41v-41h-41z" />
    <glyph glyph-name="acircumflex" unicode="&#xe2;" horiz-adv-x="1105" 
d="M655 123h41v82h41v41h-41v-41h-41v-41h-41v-41h-41v-41h-41v-41h-40v-41h-123v-41h-123v41h-123v41h-41v41h-41v246h41v41h41v41h82v41h82v41h123v40h122v41h123v246h-41v41h-41v41h-245v-41h-41v-41h41v-164h-41v-41h-164v41h-41v164h41v82h41v41h41v41h123v41h368v-41
h82v-41h82v-41h41v-123h41v-655h123v-41h-41v-41h-41v-41h-287v41h-41v82zM410 123h82v41h81v41h41v41h41v246h-123v-41h-122v-41h-41v-41h-41v-205h82v-41zM1106 123h-41v41h41v-41zM164 1188v-41h-41v41h41v41h41v41h41v41h41v41h41v82h41v41h286v-41h41v-41h41v-82h41
v-41h41v-41h41v-41h41v-41h-82v41h-123v41h-164v41h-81v41h81v41h-81v-41h-41v-41h-82v-41h-82v-41h-82z" />
    <glyph glyph-name="atilde" unicode="&#xe3;" horiz-adv-x="1105" 
d="M655 123h41v82h41v41h-41v-41h-41v-41h-41v-41h-41v-41h-41v-41h-40v-41h-123v-41h-123v41h-123v41h-41v41h-41v246h41v41h41v41h82v41h82v41h123v40h122v41h123v246h-41v41h-41v41h-245v-41h-41v-41h41v-164h-41v-41h-164v41h-41v164h41v82h41v41h41v41h123v41h368v-41
h82v-41h82v-41h41v-123h41v-655h123v-41h-41v-41h-41v-41h-287v41h-41v82zM410 123h82v41h81v41h41v41h41v246h-123v-41h-122v-41h-41v-41h-41v-205h82v-41zM1106 123h-41v41h41v-41zM778 1229v-41h-246v41h-81v41h-82v41h-123v-41h-82v-41h-41v41h41v82h41v82h41v41h82v41
h82v-41h122v-41h82v-41h82v-41h82v41h82v82h41v-82h-41v-82h-41v-82h-41z" />
    <glyph glyph-name="adieresis" unicode="&#xe4;" horiz-adv-x="1105" 
d="M655 123h41v82h41v41h-41v-41h-41v-41h-41v-41h-41v-41h-41v-41h-40v-41h-123v-41h-123v41h-123v41h-41v41h-41v246h41v41h41v41h82v41h82v41h123v40h122v41h123v246h-41v41h-41v41h-245v-41h-41v-41h41v-164h-41v-41h-164v41h-41v164h41v82h41v41h41v41h123v41h368v-41
h82v-41h82v-41h41v-123h41v-655h123v-41h-41v-41h-41v-41h-287v41h-41v82zM410 123h82v41h81v41h41v41h41v246h-123v-41h-122v-41h-41v-41h-41v-205h82v-41zM1106 123h-41v41h41v-41zM164 1188v287h287v-287h-287zM573 1188v287h287v-287h-287z" />
    <glyph glyph-name="aring" unicode="&#xe5;" horiz-adv-x="1105" 
d="M655 123h41v82h41v41h-41v-41h-41v-41h-41v-41h-41v-41h-41v-41h-40v-41h-123v-41h-123v41h-123v41h-41v41h-41v246h41v41h41v41h82v41h82v41h123v40h122v41h123v246h-41v41h-41v41h-245v-41h-41v-41h41v-164h-41v-41h-164v41h-41v164h41v82h41v41h41v41h123v41h368v-41
h82v-41h82v-41h41v-123h41v-655h123v-41h-41v-41h-41v-41h-287v41h-41v82zM410 123h82v41h81v41h41v41h41v246h-123v-41h-122v-41h-41v-41h-41v-205h82v-41zM1106 123h-41v41h41v-41zM614 1188v-41h-204v41h-82v82h-41v164h41v41h41v41h41v40h204v-40h41v-41h41v-41h41v-164
h-41v-82h-82zM451 1229h122v41h41v164h-41v41h-122v-41h-41v-164h41v-41z" />
    <glyph glyph-name="ae" unicode="&#xe6;" horiz-adv-x="1638" 
d="M1597 532h-737v-40h82v-123h41v-82h41v-41h41v-41h41v-41h328v41h41v41h41v41h40v-41h-40v-82h-41v-41h-41v-41h-41v-41h-82v-41h-82v-41h-123v41h-164v41h-82v41h-41v41h-41v41h-41v82h-41v-82h-41v-41h-41v-41h-41v-41h-81v-41h-123v-41h-82v41h-164v41h-41v82h-41v164
h41v82h41v41h82v41h82v41h123v40h122v41h123v246h-41v41h-41v41h-245v-41h-41v-41h41v-164h-41v-41h-164v41h-41v164h41v82h41v41h82v41h82v41h368v-41h82v-41h41v-41h41v41h41v41h82v41h328v-41h82v-41h41v-41h41v-41h41v-41h40v-123h41v-164zM942 614h410v123h-41v82h-41
v82h-82v41h-82v-41h-82v-41h-41v-82h-41v-164zM410 123h82v41h81v41h41v41h41v41h41v41h-41v164h-123v-41h-122v-41h-41v-41h-41v-205h82v-41z" />
    <glyph glyph-name="ccedilla" unicode="&#xe7;" horiz-adv-x="1024" 
d="M614 -410v-41h-204v41h122v41h41v82h-41v41h-81v41h-82v41h41v41h41v82h41v41h-164v41h-41v41h-82v41h-41v82h-41v82h-41v409h41v82h41v41h41v82h82v41h41v41h82v41h368v-41h82v-41h41v-41h41v-41h41v-164h-41v-82h-164v41h-41v164h41v41h-41v41h-41v41h-164v-41h-40v-41
h-41v-41h-41v-82h-41v-368h41v-82h41v-41h41v-41h40v-41h287v41h82v82h41v-82h-41v-41h-41v-41h-41v-41h-41v-41h-41v-41h-123v-41h-41v-41h-41v-41h-40v-41h40v41h41v41h41v-41h82v-41h41v-41h41v-82h-41v-82h-41v-41h-82z" />
    <glyph glyph-name="egrave" unicode="&#xe8;" horiz-adv-x="1064" 
d="M1024 532h-737v-40h82v-123h41v-82h41v-41h41v-41h40v-41h328v41h41v41h41v41h41v-41h-41v-82h-41v-41h-41v-41h-41v-41h-82v-41h-82v-41h-123v41h-163v41h-82v41h-82v41h-41v82h-41v41h-41v164h-41v163h41v123h41v82h41v82h41v41h41v41h82v41h82v41h327v-41h82v-41h41
v-41h41v-41h41v-41h41v-123h41v-164zM369 614h409v82h-41v123h-41v82h-82v41h-82v-41h-81v-41h-41v-82h-41v-164zM717 1243v-82h-41v41h-82v41h-82v41h-123v41h-82v41h-41v123h41v41h41v41h82v-41h82v-41h41v-82h41v-41h41v-82h41v-41h41z" />
    <glyph glyph-name="eacute" unicode="&#xe9;" horiz-adv-x="1064" 
d="M1024 532h-737v-40h82v-123h41v-82h41v-41h41v-41h40v-41h328v41h41v41h41v41h41v-41h-41v-82h-41v-41h-41v-41h-41v-41h-82v-41h-82v-41h-123v41h-163v41h-82v41h-82v41h-41v82h-41v41h-41v164h-41v163h41v123h41v82h41v82h41v41h41v41h82v41h82v41h327v-41h82v-41h41
v-41h41v-41h41v-41h41v-123h41v-164zM369 614h409v82h-41v123h-41v82h-82v41h-82v-41h-81v-41h-41v-82h-41v-164zM410 1229v-82h41v41h81v41h82v41h123v41h82v41h41v123h-41v41h-41v40h-82v-40h-82v-41h-41v-82h-41v-41h-40v-82h-41v-41h-41z" />
    <glyph glyph-name="ecircumflex" unicode="&#xea;" horiz-adv-x="1064" 
d="M1024 532h-737v-40h82v-123h41v-82h41v-41h41v-41h40v-41h328v41h41v41h41v41h41v-41h-41v-82h-41v-41h-41v-41h-41v-41h-82v-41h-82v-41h-123v41h-163v41h-82v41h-82v41h-41v82h-41v41h-41v164h-41v163h41v123h41v82h41v82h41v41h41v41h82v41h82v41h327v-41h82v-41h41
v-41h41v-41h41v-41h41v-123h41v-164zM369 614h409v82h-41v123h-41v82h-82v41h-82v-41h-81v-41h-41v-82h-41v-164zM246 1188v-41h-41v41h41v41h41v41h41v41h41v41h41v82h41v41h286v-41h41v-41h41v-82h41v-41h41v-41h41v-41h41v-41h-82v41h-123v41h-164v41h-82v41h82v41h-82
v-41h-40v-41h-82v-41h-82v-41h-82z" />
    <glyph glyph-name="edieresis" unicode="&#xeb;" horiz-adv-x="1064" 
d="M1024 532h-737v-40h82v-123h41v-82h41v-41h41v-41h40v-41h328v41h41v41h41v41h41v-41h-41v-82h-41v-41h-41v-41h-41v-41h-82v-41h-82v-41h-123v41h-163v41h-82v41h-82v41h-41v82h-41v41h-41v164h-41v163h41v123h41v82h41v82h41v41h41v41h82v41h82v41h327v-41h82v-41h41
v-41h41v-41h41v-41h41v-123h41v-164zM369 614h409v82h-41v123h-41v82h-82v41h-82v-41h-81v-41h-41v-82h-41v-164zM246 1188v287h286v-287h-286zM655 1188v287h287v-287h-287z" />
    <glyph glyph-name="igrave" unicode="&#xec;" horiz-adv-x="655" 
d="M614 82v-82h-573v82h123v82h41v614h-41v82h-82v41h-41v41h123v41h164v41h164v-942h122zM471 1243v-82h-41v41h-82v41h-82v41h-123v41h-82v41h-41v123h41v41h41v41h82v-41h82v-41h41v-82h41v-41h41v-82h41v-41h41z" />
    <glyph glyph-name="iacute" unicode="&#xed;" horiz-adv-x="655" 
d="M614 82v-82h-573v82h123v82h41v614h-41v82h-82v41h-41v41h123v41h164v41h164v-942h122zM164 1229v-82h41v41h82v41h82v41h123v41h81v41h41v123h-41v41h-41v40h-81v-40h-82v-41h-41v-82h-41v-41h-41v-82h-41v-41h-41z" />
    <glyph glyph-name="icircumflex" unicode="&#xee;" horiz-adv-x="655" 
d="M614 82v-82h-573v82h123v82h41v614h-41v82h-82v41h-41v41h123v41h164v41h164v-942h122zM0 1188v-41h-41v41h41v41h41v41h41v41h41v41h41v82h41v41h287v-41h40v-41h41v-82h41v-41h41v-41h41v-41h41v-41h-82v41h-123v41h-163v41h-82v41h82v41h-82v-41h-41v-41h-82v-41h-82
v-41h-82z" />
    <glyph glyph-name="idieresis" unicode="&#xef;" horiz-adv-x="655" 
d="M614 82v-82h-573v82h123v82h41v614h-41v82h-82v41h-41v41h123v41h164v41h164v-942h122zM0 1188v287h287v-287h-287zM410 1188v287h286v-287h-286z" />
    <glyph glyph-name="eth" unicode="&#xf0;" horiz-adv-x="1146" 
d="M287 1024v41h-41v41h41v41h82v41h123v41h40v41h-40v41h-41v41h-82v41h-82v41h123v-41h82v-41h81v-41h82v-41h41v41h123v41h82v41h82v-82h-41v-41h-82v-41h-123v-41h-123v-41h-82v-41h-122v-41h-82v-41h-41zM614 0v-41h-82v41h-163v41h-82v41h-41v41h-41v41h-41v41h-41v82
h-41v123h-41v163h41v164h41v41h41v82h41v41h41v41h82v41h123v41h163v-41h82v82h-41v82h82v41h82v-41h41v-82h41v-41h41v-41h41v-82h41v-82h41v-164h41v-163h-41v-164h-41v-123h-41v-41h-41v-41h-41v-41h-41v-41h-82v-41h-164zM492 82h163v41h82v82h41v164h41v245h-41v205
h-41v41h-41v41h-41v41h-123v-41h-81v-41h-41v-82h-41v-491h41v-123h41v-41h41v-41z" />
    <glyph glyph-name="ntilde" unicode="&#xf1;" 
d="M614 82v-82h-573v82h123v41h41v696h-41v41h-82v41h-41v41h164v41h123v41h164v-123h-41v-82h-41v-41h41v41h41v41h40v41h41v41h41v41h82v41h287v-41h41v-41h41v-41h41v-123h41v-696h123v-82h-574v82h123v41h41v614h-41v82h-41v41h-205v-41h-41v-41h-40v-696h122zM942 1229
v-41h-246v41h-82v41h-82v41h-122v-41h-82v-41h-41v41h41v82h41v82h41v41h82v41h81v-41h123v-41h82v-41h82v-41h82v41h82v82h41v-82h-41v-82h-41v-82h-41z" />
    <glyph glyph-name="ograve" unicode="&#xf2;" horiz-adv-x="1146" 
d="M655 0v-41h-163v41h-123v41h-82v41h-41v41h-41v41h-41v41h-41v41h-41v164h-41v163h41v164h41v82h41v41h41v41h41v41h41v41h123v41h327v-41h123v-41h41v-41h41v-41h41v-41h41v-82h41v-123h41v-204h-41v-123h-41v-82h-41v-41h-41v-41h-41v-41h-41v-41h-82v-41h-123zM492 82
h163v41h41v41h41v82h41v491h-41v82h-41v82h-82v41h-122v-41h-41v-41h-41v-82h-41v-491h41v-123h41v-41h41v-41zM717 1243v-82h-41v41h-82v41h-82v41h-123v41h-82v41h-41v123h41v41h41v41h82v-41h82v-41h41v-82h41v-41h41v-82h41v-41h41z" />
    <glyph glyph-name="oacute" unicode="&#xf3;" horiz-adv-x="1146" 
d="M655 0v-41h-163v41h-123v41h-82v41h-41v41h-41v41h-41v41h-41v41h-41v164h-41v163h41v164h41v82h41v41h41v41h41v41h41v41h123v41h327v-41h123v-41h41v-41h41v-41h41v-41h41v-82h41v-123h41v-204h-41v-123h-41v-82h-41v-41h-41v-41h-41v-41h-41v-41h-82v-41h-123zM492 82
h163v41h41v41h41v82h41v491h-41v82h-41v82h-82v41h-122v-41h-41v-41h-41v-82h-41v-491h41v-123h41v-41h41v-41zM410 1229v-82h41v41h81v41h82v41h123v41h82v41h41v123h-41v41h-41v40h-82v-40h-82v-41h-41v-82h-41v-41h-40v-82h-41v-41h-41z" />
    <glyph glyph-name="ocircumflex" unicode="&#xf4;" horiz-adv-x="1146" 
d="M655 0v-41h-163v41h-123v41h-82v41h-41v41h-41v41h-41v41h-41v41h-41v164h-41v163h41v164h41v82h41v41h41v41h41v41h41v41h123v41h327v-41h123v-41h41v-41h41v-41h41v-41h41v-82h41v-123h41v-204h-41v-123h-41v-82h-41v-41h-41v-41h-41v-41h-41v-41h-82v-41h-123zM492 82
h163v41h41v41h41v82h41v491h-41v82h-41v82h-82v41h-122v-41h-41v-41h-41v-82h-41v-491h41v-123h41v-41h41v-41zM246 1188v-41h-41v41h41v41h41v41h41v41h41v41h41v82h41v41h286v-41h41v-41h41v-82h41v-41h41v-41h41v-41h41v-41h-82v41h-123v41h-164v41h-82v41h82v41h-82v-41
h-40v-41h-82v-41h-82v-41h-82z" />
    <glyph glyph-name="otilde" unicode="&#xf5;" horiz-adv-x="1146" 
d="M655 0v-41h-163v41h-123v41h-82v41h-41v41h-41v41h-41v41h-41v41h-41v164h-41v163h41v164h41v82h41v41h41v41h41v41h41v41h123v41h327v-41h123v-41h41v-41h41v-41h41v-41h41v-82h41v-123h41v-204h-41v-123h-41v-82h-41v-41h-41v-41h-41v-41h-41v-41h-82v-41h-123zM492 82
h163v41h41v41h41v82h41v491h-41v82h-41v82h-82v41h-122v-41h-41v-41h-41v-82h-41v-491h41v-123h41v-41h41v-41zM860 1229v-41h-246v41h-82v41h-81v41h-123v-41h-82v-41h-41v41h41v82h41v82h41v41h82v41h82v-41h122v-41h82v-41h82v-41h82v41h82v82h41v-82h-41v-82h-41v-82
h-41z" />
    <glyph glyph-name="odieresis" unicode="&#xf6;" horiz-adv-x="1146" 
d="M655 0v-41h-163v41h-123v41h-82v41h-41v41h-41v41h-41v41h-41v41h-41v164h-41v163h41v164h41v82h41v41h41v41h41v41h41v41h123v41h327v-41h123v-41h41v-41h41v-41h41v-41h41v-82h41v-123h41v-204h-41v-123h-41v-82h-41v-41h-41v-41h-41v-41h-41v-41h-82v-41h-123zM492 82
h163v41h41v41h41v82h41v491h-41v82h-41v82h-82v41h-122v-41h-41v-41h-41v-82h-41v-491h41v-123h41v-41h41v-41zM246 1188v287h286v-287h-286zM655 1188v287h287v-287h-287z" />
    <glyph glyph-name="oslash" unicode="&#xf8;" horiz-adv-x="1146" 
d="M655 0v-41h-163v41h-123v41h-82v41h-41v41h-41v-41h-41v-41h-41v-41h-82v82h82v41h41v41h41v41h41v82h-41v-41h-41v-41h-41v82h-41v123h-41v163h41v164h41v82h41v41h41v41h41v41h41v41h123v41h327v-41h123v-41h41v-41h41v41h41v41h41v41h123v-41h-41v-41h-41v-41h-41v-41
h-41v-41h-41v-41h-41v-41h82v41h41v-41h41v-123h41v-204h-41v-123h-41v-82h-41v-41h-41v-41h-41v-41h-41v-41h-82v-41h-123zM369 410h82v41h41v41h40v40h41v41h41v41h41v41h41v41h41v123h-41v41h-41v41h-41v41h-122v-41h-41v-41h-41v-82h-41v-368zM492 82h163v41h41v41h41
v82h41v368h-41v-41h-41v-41h-41v-40h-41v-41h-41v-41h-41v-41h-81v-41h-41v-164h41v-41h41v-41z" />
    <glyph glyph-name="ugrave" unicode="&#xf9;" 
d="M492 1024v-819h40v-41h41v-41h123v41h82v41h41v655h-82v41h-41v41h123v41h164v41h164v-901h41v-41h82v-41h-164v-41h-287v123h41v41h41v41h-41v-41h-41v-41h-41v-41h-41v-41h-82v-41h-123v-41h-81v41h-123v41h-41v41h-41v41h-41v655h-41v82h-82v41h-41v41h123v41h164v41
h164zM799 1243v-82h-41v41h-82v41h-82v41h-123v41h-82v41h-41v123h41v41h41v41h82v-41h82v-41h41v-82h41v-41h41v-82h41v-41h41z" />
    <glyph glyph-name="uacute" unicode="&#xfa;" 
d="M492 1024v-819h40v-41h41v-41h123v41h82v41h41v655h-82v41h-41v41h123v41h164v41h164v-901h41v-41h82v-41h-164v-41h-287v123h41v41h41v41h-41v-41h-41v-41h-41v-41h-41v-41h-82v-41h-123v-41h-81v41h-123v41h-41v41h-41v41h-41v655h-41v82h-82v41h-41v41h123v41h164v41
h164zM492 1229v-82h40v41h82v41h82v41h123v41h82v41h41v123h-41v41h-41v40h-82v-40h-82v-41h-41v-82h-41v-41h-41v-82h-41v-41h-40z" />
    <glyph glyph-name="ucircumflex" unicode="&#xfb;" 
d="M492 1024v-819h40v-41h41v-41h123v41h82v41h41v655h-82v41h-41v41h123v41h164v41h164v-901h41v-41h82v-41h-164v-41h-287v123h41v41h41v41h-41v-41h-41v-41h-41v-41h-41v-41h-82v-41h-123v-41h-81v41h-123v41h-41v41h-41v41h-41v655h-41v82h-82v41h-41v41h123v41h164v41
h164zM328 1188v-41h-41v41h41v41h41v41h41v41h41v41h41v82h40v41h287v-41h41v-41h41v-82h41v-41h41v-41h41v-41h41v-41h-82v41h-123v41h-164v41h-82v41h82v41h-82v-41h-41v-41h-81v-41h-82v-41h-82z" />
    <glyph glyph-name="udieresis" unicode="&#xfc;" 
d="M492 1024v-819h40v-41h41v-41h123v41h82v41h41v655h-82v41h-41v41h123v41h164v41h164v-901h41v-41h82v-41h-164v-41h-287v123h41v41h41v41h-41v-41h-41v-41h-41v-41h-41v-41h-82v-41h-123v-41h-81v41h-123v41h-41v41h-41v41h-41v655h-41v82h-82v41h-41v41h123v41h164v41
h164zM328 1188v287h286v-287h-286zM737 1188v287h287v-287h-287z" />
    <glyph glyph-name="yacute" unicode="&#xfd;" horiz-adv-x="1269" 
d="M287 -451v-41h-164v41h-82v41h-41v205h82v41h41v-41h82v-41h41v-82h-82v-41h164v41h41v41h41v123h41v41h41v82h40v164h-40v123h-41v41h-41v82h-41v82h-41v81h-41v82h-41v82h-41v82h-41v82h-41v41h-41v41h-82v82h655v-82h-123v-164h41v-82h41v-82h41v-82h41v-163h41v41h41
v82h41v81h41v82h41v82h41v82h41v41h-41v82h-123v82h410v-82h-41v-41h-41v-41h-41v-82h-41v-41h-41v-82h-41v-82h-41v-81h-41v-82h-41v-82h-41v-82h-41v-82h-41v-41h-41v-82h-41v-82h-41v-82h-41v-82h-41v-82h-40v-41h-41v-41h-41v-41h-41v-41h-82zM573 1229v-82h41v41h82v41
h82v41h123v41h82v41h41v123h-41v41h-41v40h-82v-40h-82v-41h-41v-82h-41v-41h-41v-82h-41v-41h-41z" />
    <glyph glyph-name="thorn" unicode="&#xfe;" horiz-adv-x="1228" 
d="M573 -410v-82h-573v82h82v41h41v41h41v1557h-41v41h-41v41h-82v41h41v41h164v41h123v41h123v-574h-41v-41h-41v-82h41v41h41v82h41v41h81v41h41v41h287v-41h82v-41h41v-41h41v-41h41v-82h41v-450h-41v-82h-41v-41h-41v-41h-41v-41h-41v-41h-41v-41h-82v-41h-368v-369h41
v-41h81zM492 82h204v41h82v82h41v82h41v409h-41v82h-41v41h-41v41h-205v-41h-40v-41h-41v-655h41v-41z" />
    <glyph glyph-name="ydieresis" unicode="&#xff;" horiz-adv-x="1269" 
d="M287 -451v-41h-164v41h-82v41h-41v205h82v41h41v-41h82v-41h41v-82h-82v-41h164v41h41v41h41v123h41v41h41v82h40v164h-40v123h-41v41h-41v82h-41v82h-41v81h-41v82h-41v82h-41v82h-41v82h-41v41h-41v41h-82v82h655v-82h-123v-164h41v-82h41v-82h41v-82h41v-163h41v41h41
v82h41v81h41v82h41v82h41v82h41v41h-41v82h-123v82h410v-82h-41v-41h-41v-41h-41v-82h-41v-41h-41v-82h-41v-82h-41v-81h-41v-82h-41v-82h-41v-82h-41v-82h-41v-41h-41v-82h-41v-82h-41v-82h-41v-82h-41v-82h-40v-41h-41v-41h-41v-41h-41v-41h-82zM410 1188v287h286v-287
h-286zM819 1188v287h287v-287h-287z" />
    <glyph glyph-name="Amacron" unicode="&#x100;" horiz-adv-x="1556" 
d="M942 369h82v41h-41v41h-573v-41h-41v-82h-41v-123h-41v-41h41v-82h123v-82h-451v82h82v41h41v41h41v41h41v82h41v123h41v82h41v81h41v123h41v82h41v82h41v82h40v123h41v82h41v82h41v123h41v82h41v41h123v-123h41v-82h41v-82h41v-123h41v-82h41v-82h41v-123h41v-82h41v-82
h41v-82h41v-122h41v-82h41v-82h41v-82h41v-41h41v-41h81v-82h-655v82h82v205h-41v82zM451 532h409v82h-41v82h-41v123h-41v82h-41v82h-82v-123h-41v-82h-41v-82h-40v-82h-41v-82zM451 1843h696v-205h-696v205z" />
    <glyph glyph-name="amacron" unicode="&#x101;" horiz-adv-x="1105" 
d="M655 123h41v82h41v41h-41v-41h-41v-41h-41v-41h-41v-41h-41v-41h-40v-41h-123v-41h-123v41h-123v41h-41v41h-41v246h41v41h41v41h82v41h82v41h123v40h122v41h123v246h-41v41h-41v41h-245v-41h-41v-41h41v-164h-41v-41h-164v41h-41v164h41v82h41v41h41v41h123v41h368v-41
h82v-41h82v-41h41v-123h41v-655h123v-41h-41v-41h-41v-41h-287v41h-41v82zM410 123h82v41h81v41h41v41h41v246h-123v-41h-122v-41h-41v-41h-41v-205h82v-41zM1106 123h-41v41h41v-41zM164 1434h696v-205h-696v205z" />
    <glyph glyph-name="Abreve" unicode="&#x102;" horiz-adv-x="1556" 
d="M942 369h82v41h-41v41h-573v-41h-41v-82h-41v-123h-41v-41h41v-82h123v-82h-451v82h82v41h41v41h41v41h41v82h41v123h41v82h41v81h41v123h41v82h41v82h41v82h40v123h41v82h41v82h41v123h41v82h41v41h123v-123h41v-82h41v-82h41v-123h41v-82h41v-82h41v-123h41v-82h41v-82
h41v-82h41v-122h41v-82h41v-82h41v-82h41v-41h41v-41h81v-82h-655v82h82v205h-41v82zM451 532h409v82h-41v82h-41v123h-41v82h-41v82h-82v-123h-41v-82h-41v-82h-40v-82h-41v-82zM942 1597v-41h-287v41h-41v41h-41v41h-41v41h-40v164h40v-41h41v-41h41v-41h369v41h41v41h41
v41h41v-164h-41v-41h-41v-41h-41v-41h-41z" />
    <glyph glyph-name="abreve" unicode="&#x103;" horiz-adv-x="1105" 
d="M655 123h41v82h41v41h-41v-41h-41v-41h-41v-41h-41v-41h-41v-41h-40v-41h-123v-41h-123v41h-123v41h-41v41h-41v246h41v41h41v41h82v41h82v41h123v40h122v41h123v246h-41v41h-41v41h-245v-41h-41v-41h41v-164h-41v-41h-164v41h-41v164h41v82h41v41h41v41h123v41h368v-41
h82v-41h82v-41h41v-123h41v-655h123v-41h-41v-41h-41v-41h-287v41h-41v82zM410 123h82v41h81v41h41v41h41v246h-123v-41h-122v-41h-41v-41h-41v-205h82v-41zM1106 123h-41v41h41v-41zM655 1188v-41h-286v41h-41v41h-41v41h-41v41h-41v164h41v-41h41v-41h41v-41h368v41h41v41
h41v41h41v-164h-41v-41h-41v-41h-41v-41h-41z" />
    <glyph glyph-name="Aogonek" unicode="&#x104;" horiz-adv-x="1556" 
d="M942 369h82v41h-41v41h-573v-41h-41v-82h-41v-123h-41v-41h41v-82h123v-82h-451v82h82v41h41v41h41v41h41v82h41v123h41v82h41v81h41v123h41v82h41v82h41v82h40v123h41v82h41v82h41v123h41v82h41v41h123v-123h41v-82h41v-82h41v-123h41v-82h41v-82h41v-123h41v-82h41v-82
h41v-82h41v-122h41v-82h41v-82h41v-82h41v-41h41v-41h81v-82h-40v-41h-82v-41h-41v-41h-41v-41h-41v-123h82v-41h123v41h40v-82h-40v-41h-82v-41h-164v41h-41v41h-41v164h41v82h41v41h82v41h41v41h-492v82h82v205h-41v82zM451 532h409v82h-41v82h-41v123h-41v82h-41v82h-82
v-123h-41v-82h-41v-82h-40v-82h-41v-82z" />
    <glyph glyph-name="aogonek" unicode="&#x105;" horiz-adv-x="1105" 
d="M655 123h41v82h41v41h-41v-41h-41v-41h-41v-41h-41v-41h-41v-41h-40v-41h-123v-41h-123v41h-123v41h-41v41h-41v246h41v41h41v41h82v41h82v41h123v40h122v41h123v246h-41v41h-41v41h-245v-41h-41v-41h41v-164h-41v-41h-164v41h-41v164h41v82h41v41h41v41h123v41h368v-41
h82v-41h82v-41h41v-123h41v-655h123v-41h-41v-41h-41v-41h-82v-41h-41v-41h-82v-82h-41v-82h41v-41h41v-41h82v41h82v-41h-41v-41h-41v-41h-82v-41h-123v41h-82v82h-41v82h41v82h41v41h41v41h41v41h82v41h-123v41h-41v82zM410 123h82v41h81v41h41v41h41v246h-123v-41h-122
v-41h-41v-41h-41v-205h82v-41zM1106 123h-41v41h41v-41z" />
    <glyph glyph-name="Cacute" unicode="&#x106;" horiz-adv-x="1351" 
d="M737 1475v-41h205v-41h82v-41h41v-41h41v-41h41v-41h41v82h-41v41h-41v41h82v41h82v-492h-82v82h-41v82h-41v41h-41v82h-82v41h-41v41h-287v-41h-82v-41h-41v-82h-40v-41h-41v-123h-41v-410h41v-122h41v-82h40v-82h41v-41h41v-41h82v-41h328v41h82v41h82v41h41v41h41v-41
h-41v-82h-41v-41h-41v-41h-41v-41h-41v-41h-82v-41h-491v41h-82v41h-82v41h-41v41h-41v41h-41v41h-41v82h-41v82h-41v163h-41v287h41v123h41v82h41v82h41v41h41v82h41v41h82v41h41v41h82v41h204v41h41zM1311 369h-41v41h41v-41zM573 1638v-82h41v41h82v41h82v41h123v41h82
v41h41v123h-41v41h-41v41h-82v-41h-82v-41h-41v-82h-41v-41h-41v-82h-41v-41h-41z" />
    <glyph glyph-name="cacute" unicode="&#x107;" horiz-adv-x="1024" 
d="M942 287v-82h-41v-41h-41v-41h-41v-41h-41v-41h-41v-41h-123v-41h-122v41h-164v41h-41v41h-82v41h-41v82h-41v41h-41v450h41v82h41v41h41v82h82v41h41v41h82v41h368v-41h82v-41h41v-41h41v-41h41v-164h-41v-82h-164v41h-41v164h41v41h-41v41h-41v41h-164v-41h-40v-41h-41
v-41h-41v-82h-41v-368h41v-82h41v-41h41v-41h40v-41h287v41h82v82h41zM451 1229v-82h41v41h81v41h82v41h123v41h82v41h41v123h-41v41h-41v40h-82v-40h-82v-41h-41v-82h-41v-41h-41v-82h-40v-41h-41z" />
    <glyph glyph-name="Ccircumflex" unicode="&#x108;" horiz-adv-x="1351" 
d="M737 1475v-41h205v-41h82v-41h41v-41h41v-41h41v-41h41v82h-41v41h-41v41h82v41h82v-492h-82v82h-41v82h-41v41h-41v82h-82v41h-41v41h-287v-41h-82v-41h-41v-82h-40v-41h-41v-123h-41v-410h41v-122h41v-82h40v-82h41v-41h41v-41h82v-41h328v41h82v41h82v41h41v41h41v-41
h-41v-82h-41v-41h-41v-41h-41v-41h-41v-41h-82v-41h-491v41h-82v41h-82v41h-41v41h-41v41h-41v41h-41v82h-41v82h-41v163h-41v287h41v123h41v82h41v82h41v41h41v82h41v41h82v41h41v41h82v41h204v41h41zM1311 369h-41v41h41v-41zM410 1597v-41h-41v41h41v41h41v41h41v41h40
v41h41v82h41v41h287v-41h41v-41h41v-82h41v-41h41v-41h41v-41h41v-41h-82v41h-123v41h-164v41h-82v41h82v41h-82v-41h-41v-41h-82v-41h-81v-41h-82z" />
    <glyph glyph-name="ccircumflex" unicode="&#x109;" horiz-adv-x="1024" 
d="M942 287v-82h-41v-41h-41v-41h-41v-41h-41v-41h-41v-41h-123v-41h-122v41h-164v41h-41v41h-82v41h-41v82h-41v41h-41v450h41v82h41v41h41v82h82v41h41v41h82v41h368v-41h82v-41h41v-41h41v-41h41v-164h-41v-82h-164v41h-41v164h41v41h-41v41h-41v41h-164v-41h-40v-41h-41
v-41h-41v-82h-41v-368h41v-82h41v-41h41v-41h40v-41h287v41h82v82h41zM287 1188v-41h-41v41h41v41h41v41h41v41h41v41h41v82h41v41h286v-41h41v-41h41v-82h41v-41h41v-41h41v-41h41v-41h-82v41h-123v41h-164v41h-82v41h82v41h-82v-41h-41v-41h-81v-41h-82v-41h-82z" />
    <glyph glyph-name="Cdotaccent" unicode="&#x10a;" horiz-adv-x="1351" 
d="M737 1475v-41h205v-41h82v-41h41v-41h41v-41h41v-41h41v82h-41v41h-41v41h82v41h82v-492h-82v82h-41v82h-41v41h-41v82h-82v41h-41v41h-287v-41h-82v-41h-41v-82h-40v-41h-41v-123h-41v-410h41v-122h41v-82h40v-82h41v-41h41v-41h82v-41h328v41h82v41h82v41h41v41h41v-41
h-41v-82h-41v-41h-41v-41h-41v-41h-41v-41h-82v-41h-491v41h-82v41h-82v41h-41v41h-41v41h-41v41h-41v82h-41v82h-41v163h-41v287h41v123h41v82h41v82h41v41h41v82h41v41h82v41h41v41h82v41h204v41h41zM1311 369h-41v41h41v-41zM614 1597v287h287v-287h-287z" />
    <glyph glyph-name="cdotaccent" unicode="&#x10b;" horiz-adv-x="1024" 
d="M942 287v-82h-41v-41h-41v-41h-41v-41h-41v-41h-41v-41h-123v-41h-122v41h-164v41h-41v41h-82v41h-41v82h-41v41h-41v450h41v82h41v41h41v82h82v41h41v41h82v41h368v-41h82v-41h41v-41h41v-41h41v-164h-41v-82h-164v41h-41v164h41v41h-41v41h-41v41h-164v-41h-40v-41h-41
v-41h-41v-82h-41v-368h41v-82h41v-41h41v-41h40v-41h287v41h82v82h41zM492 1188v287h286v-287h-286z" />
    <glyph glyph-name="Ccaron" unicode="&#x10c;" horiz-adv-x="1351" 
d="M737 1475v-41h205v-41h82v-41h41v-41h41v-41h41v-41h41v82h-41v41h-41v41h82v41h82v-492h-82v82h-41v82h-41v41h-41v82h-82v41h-41v41h-287v-41h-82v-41h-41v-82h-40v-41h-41v-123h-41v-410h41v-122h41v-82h40v-82h41v-41h41v-41h82v-41h328v41h82v41h82v41h41v41h41v-41
h-41v-82h-41v-41h-41v-41h-41v-41h-41v-41h-82v-41h-491v41h-82v41h-82v41h-41v41h-41v41h-41v41h-41v82h-41v82h-41v163h-41v287h41v123h41v82h41v82h41v41h41v82h41v41h82v41h41v41h82v41h204v41h41zM1311 369h-41v41h41v-41zM1106 1884v41h41v-41h-41v-41h-41v-41h-41
v-41h-41v-41h-41v-82h-41v-41h-287v41h-41v41h-41v82h-40v41h-41v41h-41v41h-41v41h82v-41h122v-41h164v-41h82v-41h-82v-41h82v41h41v41h82v41h82v41h82z" />
    <glyph glyph-name="ccaron" unicode="&#x10d;" horiz-adv-x="1024" 
d="M942 287v-82h-41v-41h-41v-41h-41v-41h-41v-41h-41v-41h-123v-41h-122v41h-164v41h-41v41h-82v41h-41v82h-41v41h-41v450h41v82h41v41h41v82h82v41h41v41h82v41h368v-41h82v-41h41v-41h41v-41h41v-164h-41v-82h-164v41h-41v164h41v41h-41v41h-41v41h-164v-41h-40v-41h-41
v-41h-41v-82h-41v-368h41v-82h41v-41h41v-41h40v-41h287v41h82v82h41zM983 1475v41h41v-41h-41v-41h-41v-41h-41v-41h-41v-41h-41v-82h-41v-41h-286v41h-41v41h-41v82h-41v41h-41v41h-41v41h-41v41h82v-41h123v-41h163v-41h82v-41h-82v-41h82v41h41v41h82v41h82v41h82z" />
    <glyph glyph-name="Dcaron" unicode="&#x10e;" horiz-adv-x="1638" 
d="M41 0v82h164v41h41v1147h-41v82h-164v82h901v-41h164v-41h82v-41h82v-41h82v-41h41v-41h41v-41h41v-82h41v-41h40v-123h41v-328h-41v-122h-40v-82h-41v-41h-41v-82h-41v-41h-82v-41h-41v-41h-82v-41h-82v-41h-123v-41h-942zM573 164h-81v-82h327v41h123v41h82v41h41v41
h41v82h41v82h41v163h41v205h-41v205h-41v82h-41v82h-41v41h-41v41h-41v41h-82v41h-123v41h-286v-41h81v-1147zM1188 1884v41h41v-41h-41v-41h-41v-41h-41v-41h-41v-41h-41v-82h-41v-41h-287v41h-41v41h-41v82h-41v41h-41v41h-40v41h-41v41h81v-41h123v-41h164v-41h82v-41
h-82v-41h82v41h41v41h82v41h82v41h82z" />
    <glyph glyph-name="dcaron" unicode="&#x10f;" horiz-adv-x="1269" 
d="M819 0v-41h-41v164h41v41h41v82h-41v-82h-41v-41h-41v-41h-41v-41h-82v-41h-327v41h-41v41h-41v41h-41v41h-41v82h-41v409h41v82h41v82h41v41h41v41h41v41h82v41h82v41h327v287h-41v41h-41v82h164v41h164v41h41v-1352h41v-41h41v-41h82v-41h-164v-41h-246zM532 123h123
v41h82v41h41v696h-41v41h-205v-41h-40v-41h-41v-41h-41v-41h-41v-450h41v-82h41v-41h41v-41h40v-41zM1311 1106v-41h-41v41h41v41h41v123h-41v-82h-82v41h-82v164h41v41h41v41h123v-41h41v-41h41v-205h-41v-82h-82zM1188 1024v41h41v-41h-41z" />
    <glyph glyph-name="Dcroat" unicode="&#x110;" horiz-adv-x="1638" 
d="M246 655h82v41h-287v82h205v492h-41v82h-164v82h901v-41h164v-41h82v-41h82v-41h82v-41h41v-41h41v-41h41v-82h41v-41h40v-123h41v-328h-41v-122h-40v-82h-41v-41h-41v-82h-41v-41h-82v-41h-41v-41h-82v-41h-82v-41h-123v-41h-942v82h164v82h41v491zM573 164h-81v-82h327
v41h123v41h82v41h41v41h41v82h41v82h41v163h41v205h-41v205h-41v82h-41v82h-41v41h-41v41h-41v41h-82v41h-123v41h-286v-41h81v-533h205v-82h-205v-532z" />
    <glyph glyph-name="dcroat" unicode="&#x111;" horiz-adv-x="1269" 
d="M860 1147h-328v82h246v82h-41v41h-41v82h164v41h164v41h41v-287h164v-82h-164v-983h41v-41h41v-41h82v-41h-164v-41h-246v-41h-41v164h41v41h41v82h-41v-82h-41v-41h-41v-41h-41v-41h-82v-41h-327v41h-41v41h-41v41h-41v41h-41v82h-41v409h41v82h41v82h41v41h41v41h41v41
h82v41h82v41h327v82h82v41zM532 123h123v41h82v41h41v696h-41v41h-205v-41h-40v-41h-41v-41h-41v-41h-41v-450h41v-82h41v-41h41v-41h40v-41z" />
    <glyph glyph-name="Emacron" unicode="&#x112;" horiz-adv-x="1433" 
d="M573 123h-81v-41h491v41h123v41h41v41h41v41h41v123h41v82h41v41h82v-41h-41v-328h-41v-123h-1270v82h123v41h41v41h41v1065h-41v82h-41v41h-123v82h1270v-492h-82v82h-41v164h-41v41h-41v41h-41v41h-123v41h-450v-41h81v-533h205v41h82v41h41v164h82v-573h-82v122h-41
v82h-82v41h-205v-573zM410 1843h696v-205h-696v205z" />
    <glyph glyph-name="emacron" unicode="&#x113;" horiz-adv-x="1064" 
d="M1024 532h-737v-40h82v-123h41v-82h41v-41h41v-41h40v-41h328v41h41v41h41v41h41v-41h-41v-82h-41v-41h-41v-41h-41v-41h-82v-41h-82v-41h-123v41h-163v41h-82v41h-82v41h-41v82h-41v41h-41v164h-41v163h41v123h41v82h41v82h41v41h41v41h82v41h82v41h327v-41h82v-41h41
v-41h41v-41h41v-41h41v-123h41v-164zM369 614h409v82h-41v123h-41v82h-82v41h-82v-41h-81v-41h-41v-82h-41v-164zM246 1434h696v-205h-696v205z" />
    <glyph glyph-name="Ebreve" unicode="&#x114;" horiz-adv-x="1433" 
d="M573 123h-81v-41h491v41h123v41h41v41h41v41h41v123h41v82h41v41h82v-41h-41v-328h-41v-123h-1270v82h123v41h41v41h41v1065h-41v82h-41v41h-123v82h1270v-492h-82v82h-41v164h-41v41h-41v41h-41v41h-123v41h-450v-41h81v-533h205v41h82v41h41v164h82v-573h-82v122h-41
v82h-82v41h-205v-573zM901 1597v-41h-287v41h-41v41h-41v41h-40v41h-41v164h41v-41h40v-41h41v-41h369v41h41v41h41v41h41v-164h-41v-41h-41v-41h-41v-41h-41z" />
    <glyph glyph-name="ebreve" unicode="&#x115;" horiz-adv-x="1064" 
d="M1024 532h-737v-40h82v-123h41v-82h41v-41h41v-41h40v-41h328v41h41v41h41v41h41v-41h-41v-82h-41v-41h-41v-41h-41v-41h-82v-41h-82v-41h-123v41h-163v41h-82v41h-82v41h-41v82h-41v41h-41v164h-41v163h41v123h41v82h41v82h41v41h41v41h82v41h82v41h327v-41h82v-41h41
v-41h41v-41h41v-41h41v-123h41v-164zM369 614h409v82h-41v123h-41v82h-82v41h-82v-41h-81v-41h-41v-82h-41v-164zM737 1188v-41h-286v41h-41v41h-41v41h-41v41h-41v164h41v-41h41v-41h41v-41h368v41h41v41h41v41h41v-164h-41v-41h-41v-41h-41v-41h-41z" />
    <glyph glyph-name="Edotaccent" unicode="&#x116;" horiz-adv-x="1433" 
d="M573 123h-81v-41h491v41h123v41h41v41h41v41h41v123h41v82h41v41h82v-41h-41v-328h-41v-123h-1270v82h123v41h41v41h41v1065h-41v82h-41v41h-123v82h1270v-492h-82v82h-41v164h-41v41h-41v41h-41v41h-123v41h-450v-41h81v-533h205v41h82v41h41v164h82v-573h-82v122h-41
v82h-82v41h-205v-573zM614 1597v287h287v-287h-287z" />
    <glyph glyph-name="edotaccent" unicode="&#x117;" horiz-adv-x="1064" 
d="M1024 532h-737v-40h82v-123h41v-82h41v-41h41v-41h40v-41h328v41h41v41h41v41h41v-41h-41v-82h-41v-41h-41v-41h-41v-41h-82v-41h-82v-41h-123v41h-163v41h-82v41h-82v41h-41v82h-41v41h-41v164h-41v163h41v123h41v82h41v82h41v41h41v41h82v41h82v41h327v-41h82v-41h41
v-41h41v-41h41v-41h41v-123h41v-164zM369 614h409v82h-41v123h-41v82h-82v41h-82v-41h-81v-41h-41v-82h-41v-164zM451 1188v287h286v-287h-286z" />
    <glyph glyph-name="Eogonek" unicode="&#x118;" horiz-adv-x="1433" 
d="M573 123h-81v-41h491v41h123v41h41v41h41v41h41v123h41v82h41v41h82v-41h-41v-328h-41v-123h-41v-41h-82v-41h-41v-41h-41v-164h41v-41h123v41h41v-82h-41v-41h-82v-41h-164v41h-41v41h-41v164h41v41h41v41h41v41h41v41h82v41h-1147v82h123v41h41v41h41v1065h-41v82h-41
v41h-123v82h1270v-492h-82v82h-41v164h-41v41h-41v41h-41v41h-123v41h-450v-41h81v-533h205v41h82v41h41v164h82v-573h-82v122h-41v82h-82v41h-205v-573z" />
    <glyph glyph-name="eogonek" unicode="&#x119;" horiz-adv-x="1064" 
d="M614 -410v-41h-163v41h-41v41h-41v205h41v41h41v41h41v41h40v41h-163v41h-82v41h-82v41h-41v82h-41v41h-41v164h-41v163h41v123h41v82h41v82h41v41h41v41h82v41h82v41h327v-41h82v-41h41v-41h41v-41h41v-41h41v-123h41v-164h-737v-40h82v-123h41v-82h41v-41h41v-41h40
v-41h328v41h41v41h41v41h41v-41h-41v-82h-41v-41h-41v-41h-41v-41h-82v-41h-82v-41h-41v-41h-41v-41h-41v-164h41v-41h82v41h82v-41h-41v-41h-41v-41h-41zM369 614h409v82h-41v123h-41v82h-82v41h-82v-41h-81v-41h-41v-82h-41v-164z" />
    <glyph glyph-name="Ecaron" unicode="&#x11a;" horiz-adv-x="1433" 
d="M573 123h-81v-41h491v41h123v41h41v41h41v41h41v123h41v82h41v41h82v-41h-41v-328h-41v-123h-1270v82h123v41h41v41h41v1065h-41v82h-41v41h-123v82h1270v-492h-82v82h-41v164h-41v41h-41v41h-41v41h-123v41h-450v-41h81v-533h205v41h82v41h41v164h82v-573h-82v122h-41
v82h-82v41h-205v-573zM1106 1884v41h41v-41h-41v-41h-41v-41h-41v-41h-41v-41h-41v-82h-41v-41h-287v41h-41v41h-41v82h-40v41h-41v41h-41v41h-41v41h82v-41h122v-41h164v-41h82v-41h-82v-41h82v41h41v41h82v41h82v41h82z" />
    <glyph glyph-name="ecaron" unicode="&#x11b;" horiz-adv-x="1064" 
d="M1024 532h-737v-40h82v-123h41v-82h41v-41h41v-41h40v-41h328v41h41v41h41v41h41v-41h-41v-82h-41v-41h-41v-41h-41v-41h-82v-41h-82v-41h-123v41h-163v41h-82v41h-82v41h-41v82h-41v41h-41v164h-41v163h41v123h41v82h41v82h41v41h41v41h82v41h82v41h327v-41h82v-41h41
v-41h41v-41h41v-41h41v-123h41v-164zM369 614h409v82h-41v123h-41v82h-82v41h-82v-41h-81v-41h-41v-82h-41v-164zM942 1475v41h41v-41h-41v-41h-41v-41h-41v-41h-41v-41h-41v-82h-41v-41h-286v41h-41v41h-41v82h-41v41h-41v41h-41v41h-41v41h82v-41h123v-41h163v-41h82v-41
h-82v-41h82v41h41v41h82v41h82v41h82z" />
    <glyph glyph-name="Gcircumflex" unicode="&#x11c;" horiz-adv-x="1597" 
d="M1024 41v-41h-532v41h-82v41h-82v41h-41v41h-41v41h-41v41h-41v82h-41v82h-41v204h-41v164h41v205h41v82h41v82h41v41h41v41h41v41h41v41h41v41h82v41h81v41h451v-41h82v-41h82v-41h41v-41h41v41h-41v41h-41v41h82v41h123v-492h-82v41h-41v82h-41v82h-41v41h-41v41h-41
v41h-82v41h-287v-41h-82v-41h-41v-41h-41v-41h-40v-82h-41v-123h-41v-410h41v-122h41v-82h40v-82h41v-41h41v-41h82v-41h328v41h82v41h82v41h41v82h-41v-41h-41v-41h-41v327h-41v41h-123v82h655v-82h-163v-614h-41v41h-82v41h-41v41h-82v-41h-82v-41h-82zM492 1597v-41h-41
v41h41v41h40v41h41v41h41v41h41v82h41v41h287v-41h41v-41h41v-82h41v-41h41v-41h41v-41h41v-41h-82v41h-123v41h-164v41h-82v41h82v41h-82v-41h-41v-41h-82v-41h-82v-41h-81z" />
    <glyph glyph-name="gcircumflex" unicode="&#x11d;" horiz-adv-x="1064" 
d="M737 -451v-41h-491v41h-123v41h-82v41h-41v205h41v41h82v41h123v41h-123v82h-41v82h41v82h41v41h41v41h82v41h82v41h-164v41h-41v41h-41v41h-41v286h41v82h41v41h41v41h41v41h123v41h327v-41h41v41h41v41h41v41h41v41h246v-41h41v-41h41v-123h-41v-41h-164v41h-41v82h41
v41h-82v-41h-82v-41h-41v-41h82v-41h41v-41h41v-82h41v-205h-41v-81h-41v-41h-41v-41h-41v-41h-41v-41h-123v-41h-327v-41h-41v-41h41v-41h41v-41h450v-41h164v-41h41v-41h41v-82h41v-123h-41v-82h-41v-82h-82v-41h-41v-41h-164zM492 369h81v41h41v41h41v41h41v327h-41v41
h-41v41h-41v41h-122v-41h-41v-41h-41v-368h41v-41h41v-41h41v-41zM287 0h-41v-41h41v41zM369 -410h327v41h123v41h41v164h-82v41h-532v-41h-41v-123h41v-41h41v-41h82v-41zM205 1188v-41h-41v41h41v41h41v41h41v41h41v41h41v82h41v41h286v-41h41v-41h41v-82h41v-41h41v-41
h41v-41h41v-41h-82v41h-123v41h-164v41h-81v41h81v41h-81v-41h-41v-41h-82v-41h-82v-41h-82z" />
    <glyph glyph-name="Gbreve" unicode="&#x11e;" horiz-adv-x="1597" 
d="M1024 41v-41h-532v41h-82v41h-82v41h-41v41h-41v41h-41v41h-41v82h-41v82h-41v204h-41v164h41v205h41v82h41v82h41v41h41v41h41v41h41v41h41v41h82v41h81v41h451v-41h82v-41h82v-41h41v-41h41v41h-41v41h-41v41h82v41h123v-492h-82v41h-41v82h-41v82h-41v41h-41v41h-41
v41h-82v41h-287v-41h-82v-41h-41v-41h-41v-41h-40v-82h-41v-123h-41v-410h41v-122h41v-82h40v-82h41v-41h41v-41h82v-41h328v41h82v41h82v41h41v82h-41v-41h-41v-41h-41v327h-41v41h-123v82h655v-82h-163v-614h-41v41h-82v41h-41v41h-82v-41h-82v-41h-82zM983 1597v-41h-287
v41h-41v41h-41v41h-41v41h-41v164h41v-41h41v-41h41v-41h369v41h41v41h41v41h41v-164h-41v-41h-41v-41h-41v-41h-41z" />
    <glyph glyph-name="gbreve" unicode="&#x11f;" horiz-adv-x="1064" 
d="M737 -451v-41h-491v41h-123v41h-82v41h-41v205h41v41h82v41h123v41h-123v82h-41v82h41v82h41v41h41v41h82v41h82v41h-164v41h-41v41h-41v41h-41v286h41v82h41v41h41v41h41v41h123v41h327v-41h41v41h41v41h41v41h41v41h246v-41h41v-41h41v-123h-41v-41h-164v41h-41v82h41
v41h-82v-41h-82v-41h-41v-41h82v-41h41v-41h41v-82h41v-205h-41v-81h-41v-41h-41v-41h-41v-41h-41v-41h-123v-41h-327v-41h-41v-41h41v-41h41v-41h450v-41h164v-41h41v-41h41v-82h41v-123h-41v-82h-41v-82h-82v-41h-41v-41h-164zM492 369h81v41h41v41h41v41h41v327h-41v41
h-41v41h-41v41h-122v-41h-41v-41h-41v-368h41v-41h41v-41h41v-41zM287 0h-41v-41h41v41zM369 -410h327v41h123v41h41v164h-82v41h-532v-41h-41v-123h41v-41h41v-41h82v-41zM696 1188v-41h-286v41h-41v41h-41v41h-41v41h-41v164h41v-41h41v-41h41v-41h368v41h41v41h41v41h41
v-164h-41v-41h-41v-41h-41v-41h-41z" />
    <glyph glyph-name="Gdotaccent" unicode="&#x120;" horiz-adv-x="1597" 
d="M1024 41v-41h-532v41h-82v41h-82v41h-41v41h-41v41h-41v41h-41v82h-41v82h-41v204h-41v164h41v205h41v82h41v82h41v41h41v41h41v41h41v41h41v41h82v41h81v41h451v-41h82v-41h82v-41h41v-41h41v41h-41v41h-41v41h82v41h123v-492h-82v41h-41v82h-41v82h-41v41h-41v41h-41
v41h-82v41h-287v-41h-82v-41h-41v-41h-41v-41h-40v-82h-41v-123h-41v-410h41v-122h41v-82h40v-82h41v-41h41v-41h82v-41h328v41h82v41h82v41h41v82h-41v-41h-41v-41h-41v327h-41v41h-123v82h655v-82h-163v-614h-41v41h-82v41h-41v41h-82v-41h-82v-41h-82zM696 1597v287h287
v-287h-287z" />
    <glyph glyph-name="gdotaccent" unicode="&#x121;" horiz-adv-x="1064" 
d="M737 -451v-41h-491v41h-123v41h-82v41h-41v205h41v41h82v41h123v41h-123v82h-41v82h41v82h41v41h41v41h82v41h82v41h-164v41h-41v41h-41v41h-41v286h41v82h41v41h41v41h41v41h123v41h327v-41h41v41h41v41h41v41h41v41h246v-41h41v-41h41v-123h-41v-41h-164v41h-41v82h41
v41h-82v-41h-82v-41h-41v-41h82v-41h41v-41h41v-82h41v-205h-41v-81h-41v-41h-41v-41h-41v-41h-41v-41h-123v-41h-327v-41h-41v-41h41v-41h41v-41h450v-41h164v-41h41v-41h41v-82h41v-123h-41v-82h-41v-82h-82v-41h-41v-41h-164zM492 369h81v41h41v41h41v41h41v327h-41v41
h-41v41h-41v41h-122v-41h-41v-41h-41v-368h41v-41h41v-41h41v-41zM287 0h-41v-41h41v41zM369 -410h327v41h123v41h41v164h-82v41h-532v-41h-41v-123h41v-41h41v-41h82v-41zM410 1188v287h286v-287h-286z" />
    <glyph glyph-name="Gcommaaccent" unicode="&#x122;" horiz-adv-x="1597" 
d="M1024 41v-41h-532v41h-82v41h-82v41h-41v41h-41v41h-41v41h-41v82h-41v82h-41v204h-41v164h41v205h41v82h41v82h41v41h41v41h41v41h41v41h41v41h82v41h81v41h451v-41h82v-41h82v-41h41v-41h41v41h-41v41h-41v41h82v41h123v-492h-82v41h-41v82h-41v82h-41v41h-41v41h-41
v41h-82v41h-287v-41h-82v-41h-41v-41h-41v-41h-40v-82h-41v-123h-41v-410h41v-122h41v-82h40v-82h41v-41h41v-41h82v-41h328v41h82v41h82v41h41v82h-41v-41h-41v-41h-41v327h-41v41h-123v82h655v-82h-163v-614h-41v41h-82v41h-41v41h-82v-41h-82v-41h-82zM860 -451v-41h-41
v41h41v41h41v123h-41v-82h-82v41h-82v164h41v41h41v41h123v-41h41v-41h41v-205h-41v-82h-82zM737 -532v40h41v-40h-41z" />
    <glyph glyph-name="gcommaaccent" unicode="&#x123;" horiz-adv-x="1075" 
d="M737 -451v-41h-491v41h-123v41h-82v41h-41v205h41v41h82v41h123v41h-123v82h-41v82h41v82h41v41h41v41h82v41h82v41h-164v41h-41v41h-41v41h-41v286h41v82h41v41h41v41h41v41h123v41h327v-41h41v41h41v41h41v41h41v41h246v-41h41v-41h41v-123h-41v-41h-164v41h-41v82h41
v41h-82v-41h-82v-41h-41v-41h82v-41h41v-41h41v-82h41v-205h-41v-81h-41v-41h-41v-41h-41v-41h-41v-41h-123v-41h-327v-41h-41v-41h41v-41h41v-41h450v-41h164v-41h41v-41h41v-82h41v-123h-41v-82h-41v-82h-82v-41h-41v-41h-164zM492 369h81v41h41v41h41v41h41v327h-41v41
h-41v41h-41v41h-122v-41h-41v-41h-41v-368h41v-41h41v-41h41v-41zM287 0h-41v-41h41v41zM369 -410h327v41h123v41h41v164h-82v41h-532v-41h-41v-123h41v-41h41v-41h82v-41zM551 1536v41h41v-41h-41v-41h-41v-123h41v82h82v-41h82v-164h-41v-41h-41v-41h-123v41h-41v41h-41
v205h41v82h82zM674 1618v-41h-41v41h41z" />
    <glyph glyph-name="Hcircumflex" unicode="&#x124;" horiz-adv-x="1720" 
d="M492 696v-41h81v-532h41v-41h164v-82h-737v82h164v82h41v1106h-41v82h-164v82h737v-82h-164v-41h-41v-533h574v533h-41v41h-164v82h737v-82h-163v-41h-41v-1188h41v-41h163v-82h-737v82h164v41h41v532h82v41h-737zM532 1597v-41h-40v41h40v41h41v41h41v41h41v41h41v82h41
v41h287v-41h41v-41h41v-82h41v-41h41v-41h41v-41h41v-41h-82v41h-123v41h-164v41h-82v41h82v41h-82v-41h-41v-41h-82v-41h-82v-41h-82z" />
    <glyph glyph-name="hcircumflex" unicode="&#x125;" 
d="M614 82v-82h-573v82h123v41h41v1147h-41v82h-82v82h164v41h164v41h82v-615h-41v-41h-41v-82h41v41h41v41h40v41h41v41h41v41h82v41h287v-41h41v-41h41v-41h41v-123h41v-696h123v-82h-574v82h123v82h41v573h-41v82h-41v41h-205v-41h-41v-41h-40v-696h122zM0 1597v-41h-41
v41h41v41h41v41h41v41h41v41h41v82h41v41h287v-41h40v-41h41v-82h41v-41h41v-41h41v-41h41v-41h-82v41h-123v41h-163v41h-82v41h82v41h-82v-41h-41v-41h-82v-41h-82v-41h-82z" />
    <glyph glyph-name="Hbar" unicode="&#x126;" horiz-adv-x="1720" 
d="M1475 1106h204v-82h-286v-41h82v-901h204v-82h-737v82h164v41h41v532h82v41h-737v-41h81v-532h41v-41h164v-82h-737v82h164v82h41v819h82v41h-287v82h205v164h-41v82h-164v82h737v-82h-164v-41h-41v-205h574v205h-41v41h-164v82h737v-82h-163v-41h-41v-205zM1147 1024
h-574v-246h574v246z" />
    <glyph glyph-name="hbar" unicode="&#x127;" 
d="M614 82v-82h-573v82h123v41h41v983h41v41h-246v82h205v41h-41v82h-82v82h164v41h164v41h82v-287h245v-82h-245v-246h-41v-41h-41v-82h41v41h41v41h40v41h41v41h41v41h82v41h287v-41h41v-41h41v-41h41v-123h41v-696h123v-82h-574v82h123v82h41v573h-41v82h-41v41h-205v-41
h-41v-41h-40v-696h122z" />
    <glyph glyph-name="Itilde" unicode="&#x128;" horiz-adv-x="819" 
d="M778 82v-82h-737v82h164v41h41v1147h-41v82h-164v82h737v-82h-164v-41h-41v-1188h41v-41h164zM696 1638v-41h-245v41h-82v41h-82v41h-123v-41h-82v-41h-41v41h41v82h41v82h41v41h82v41h82v-41h123v-41h81v-41h82v-41h82v41h82v82h41v-82h-41v-82h-41v-82h-41z" />
    <glyph glyph-name="itilde" unicode="&#x129;" horiz-adv-x="655" 
d="M614 82v-82h-573v82h123v82h41v614h-41v82h-82v41h-41v41h123v41h164v41h164v-942h122zM614 1229v-41h-245v41h-82v41h-82v41h-123v-41h-82v-41h-41v41h41v82h41v82h41v41h82v41h82v-41h123v-41h82v-41h81v-41h82v41h82v82h41v-82h-41v-82h-41v-82h-41z" />
    <glyph glyph-name="Imacron" unicode="&#x12a;" horiz-adv-x="819" 
d="M778 82v-82h-737v82h164v41h41v1147h-41v82h-164v82h737v-82h-164v-41h-41v-1188h41v-41h164zM82 1843h696v-205h-696v205z" />
    <glyph glyph-name="imacron" unicode="&#x12b;" horiz-adv-x="655" 
d="M614 82v-82h-573v82h123v82h41v614h-41v82h-82v41h-41v41h123v41h164v41h164v-942h122zM0 1434h696v-205h-696v205z" />
    <glyph glyph-name="Ibreve" unicode="&#x12c;" horiz-adv-x="819" 
d="M778 82v-82h-737v82h164v41h41v1147h-41v82h-164v82h737v-82h-164v-41h-41v-1188h41v-41h164zM573 1597v-41h-286v41h-41v41h-41v41h-41v41h-41v164h41v-41h41v-41h41v-41h368v41h41v41h41v41h41v-164h-41v-41h-41v-41h-41v-41h-41z" />
    <glyph glyph-name="ibreve" unicode="&#x12d;" horiz-adv-x="655" 
d="M614 82v-82h-573v82h123v82h41v614h-41v82h-82v41h-41v41h123v41h164v41h164v-942h122zM492 1188v-41h-287v41h-41v41h-41v41h-41v41h-41v164h41v-41h41v-41h41v-41h368v41h41v41h41v41h41v-164h-41v-41h-41v-41h-41v-41h-40z" />
    <glyph glyph-name="Iogonek" unicode="&#x12e;" horiz-adv-x="819" 
d="M655 -410v-41h-163v41h-41v41h-41v164h41v82h41v41h81v41h41v41h-573v82h164v41h41v1147h-41v82h-164v82h737v-82h-164v-41h-41v-1188h41v-41h164v-82h-41v-41h-82v-41h-41v-41h-41v-164h41v-41h123v41h41v-82h-41v-41h-82z" />
    <glyph glyph-name="iogonek" unicode="&#x12f;" horiz-adv-x="655" 
d="M205 1188v287h287v-287h-287zM532 -410v-41h-204v41h-41v41h-41v164h41v41h41v41h41v41h41v41h82v41h-451v82h123v82h41v614h-41v82h-82v41h-41v41h123v41h164v41h164v-942h122v-82h-41v-41h-41v-41h-81v-82h-41v-123h41v-41h163v-41h-41v-41h-41z" />
    <glyph glyph-name="Idotaccent" unicode="&#x130;" horiz-adv-x="819" 
d="M778 82v-82h-737v82h164v41h41v1147h-41v82h-164v82h737v-82h-164v-41h-41v-1188h41v-41h164zM287 1597v287h286v-287h-286z" />
    <glyph glyph-name="dotlessi" unicode="&#x131;" horiz-adv-x="655" 
d="M614 82v-82h-573v82h123v82h41v614h-41v82h-82v41h-41v41h123v41h164v41h164v-942h122z" />
    <glyph glyph-name="IJ" unicode="&#x132;" horiz-adv-x="2170" 
d="M778 82v-82h-737v82h164v41h41v1147h-41v82h-164v82h737v-82h-164v-41h-41v-1188h41v-41h164zM1434 0v-41h-123v41h-205v41h-82v41h-41v41h-41v41h-41v82h-41v164h41v41h41v41h123v-41h41v-41h41v-123h-41v-123h41v-41h82v-41h164v41h82v41h41v41h40v82h41v1024h-41v41
h-122v82h696v-82h-123v-41h-82v-983h-41v-82h-41v-82h-41v-41h-41v-41h-41v-41h-82v-41h-204z" />
    <glyph glyph-name="ij" unicode="&#x133;" 
d="M205 1188v287h287v-287h-287zM614 82v-82h-573v82h123v82h41v614h-41v82h-82v41h-41v41h123v41h164v41h164v-942h122zM860 1188v287h287v-287h-287zM696 901v41h164v41h164v41h123v-1270h-41v-82h-41v-41h-41v-41h-41v-41h-82v-41h-287v41h-82v41h-40v41h-41v164h41v41
h163v-82h41v-82h-41v-82h123v41h41v41h41v1147h-41v41h-82v41h-41z" />
    <glyph glyph-name="Jcircumflex" unicode="&#x134;" horiz-adv-x="1351" 
d="M614 0v-41h-122v41h-205v41h-82v41h-41v41h-41v41h-41v82h-41v164h41v41h41v41h123v-41h41v-41h41v-123h-41v-123h41v-41h82v-41h163v41h82v41h41v41h41v82h41v1024h-41v41h-123v82h697v-82h-123v-41h-82v-983h-41v-82h-41v-82h-41v-41h-41v-41h-41v-41h-82v-41h-205z
M614 1597v-41h-41v41h41v41h41v41h41v41h41v41h41v82h41v41h287v-41h41v-41h41v-82h41v-41h41v-41h41v-41h41v-41h-82v41h-123v41h-164v41h-82v41h82v41h-82v-41h-41v-41h-82v-41h-82v-41h-82z" />
    <glyph glyph-name="jcircumflex" unicode="&#x135;" horiz-adv-x="655" 
d="M41 901v41h164v41h164v41h123v-1270h-41v-82h-41v-41h-41v-41h-41v-41h-82v-41h-287v41h-82v41h-41v41h-41v164h41v41h164v-82h41v-82h-41v-82h123v41h41v41h41v1147h-41v41h-82v41h-41zM0 1188v-41h-41v41h41v41h41v41h41v41h41v41h41v82h41v41h287v-41h40v-41h41v-82
h41v-41h41v-41h41v-41h41v-41h-82v41h-123v41h-163v41h-82v41h82v41h-82v-41h-41v-41h-82v-41h-82v-41h-82z" />
    <glyph glyph-name="Kcommaaccent" unicode="&#x136;" horiz-adv-x="1679" 
d="M778 82v-82h-737v82h164v41h41v1188h-41v41h-164v82h737v-82h-164v-41h-41v-615h-41v-41h-40v-41h40v41h41v41h41v41h41v41h41v41h41v41h41v41h41v41h41v41h41v41h41v41h41v41h41v41h41v41h41v41h41v123h-82v82h491v-82h-122v-41h-82v-41h-41v-41h-82v-41h-41v-41h-41
v-41h-41v-41h-41v-41h-41v-41h-41v-41h-41v-82h41v-41h41v-41h41v-82h41v-41h41v-41h41v-82h41v-40h41v-82h41v-41h41v-82h41v-41h41v-82h82v-41h40v-41h82v-82h-491v82h-41v41h-41v82h-41v41h-41v82h-41v41h-41v82h-41v41h-41v81h-41v41h-41v82h-41v-41h-41v-41h-41v-41
h-41v-450h41v-41h164zM942 -451v-41h-41v41h41v41h41v123h-41v-82h-82v41h-82v164h41v41h41v41h123v-41h41v-41h41v-205h-41v-82h-82zM819 -532v40h41v-40h-41z" />
    <glyph glyph-name="kcommaaccent" unicode="&#x137;" horiz-adv-x="1269" 
d="M614 82v-82h-573v82h123v1229h-41v41h-41v82h164v41h164v41h41v-1024h-41v-41h41v41h41v40h40v41h41v41h41v41h41v41h41v41h41v41h41v41h41v41h41v41h-41v41h-82v82h492v-82h-82v-41h-123v-41h-41v-41h-82v-41h-41v-41h-41v-41h-41v-82h41v-41h41v-41h41v-81h41v-41h41
v-41h41v-82h41v-41h41v-82h41v-41h41v-41h82v-82h-410v82h-41v41h-41v82h-41v41h-41v82h-41v41h-41v82h-82v-41h-40v-41h-41v-205h41v-82h122zM737 -451v-41h-41v41h41v41h41v123h-41v-82h-82v41h-82v164h41v41h41v41h123v-41h41v-41h41v-205h-41v-82h-82zM614 -532v40h41
v-40h-41z" />
    <glyph glyph-name="kgreenlandic" unicode="&#x138;" 
d="M655 41v-41h-614v41h82v41h82v819h-41v41h-123v82h614v-82h-123v-41h-40v-369h-41v-81h41v41h40v40h41v41h41v41h41v41h41v41h41v41h41v41h41v41h82v123h-82v82h369v-82h-82v-41h-82v-41h-41v-41h-82v-41h-41v-41h-41v-41h-41v-41h-41v-41h41v-41h41v-81h41v-41h41v-41
h41v-82h41v-41h41v-41h41v-82h41v-41h41v-41h82v-41h41v-41h-410v41h-41v41h-41v82h-41v41h-41v82h-41v41h-41v41h-41v82h-41v-41h-40v-287h40v-41h41v-41h82z" />
    <glyph glyph-name="Lacute" unicode="&#x139;" horiz-adv-x="1392" 
d="M573 164h-81v-82h450v41h123v41h41v41h41v41h41v82h41v123h41v41h82v-164h-41v-287h-41v-41h-1229v82h123v41h41v82h41v1024h-41v82h-41v41h-123v82h696v-82h-123v-41h-41v-1147zM246 1638v-82h41v41h82v41h82v41h122v41h82v41h41v123h-41v41h-41v41h-82v-41h-81v-41h-41
v-82h-41v-41h-41v-82h-41v-41h-41z" />
    <glyph glyph-name="lacute" unicode="&#x13a;" horiz-adv-x="655" 
d="M614 82v-82h-573v82h123v1229h-41v41h-41v82h164v41h164v41h82v-1434h122zM164 1638v-82h41v41h82v41h82v41h123v41h81v41h41v123h-41v41h-41v41h-81v-41h-82v-41h-41v-82h-41v-41h-41v-82h-41v-41h-41z" />
    <glyph glyph-name="Lcommaaccent" unicode="&#x13b;" horiz-adv-x="1392" 
d="M573 164h-81v-82h450v41h123v41h41v41h41v41h41v82h41v123h41v41h82v-164h-41v-287h-41v-41h-1229v82h123v41h41v82h41v1024h-41v82h-41v41h-123v82h696v-82h-123v-41h-41v-1147zM778 -451v-41h-41v41h41v41h41v123h-41v-82h-82v41h-82v164h41v41h41v41h123v-41h41v-41
h41v-205h-41v-82h-82zM655 -532v40h41v-40h-41z" />
    <glyph glyph-name="lcommaaccent" unicode="&#x13c;" horiz-adv-x="655" 
d="M614 82v-82h-573v82h123v1229h-41v41h-41v82h164v41h164v41h82v-1434h122zM369 -451v-41h-41v41h41v41h41v123h-41v-82h-82v41h-82v164h41v41h41v41h123v-41h41v-41h41v-205h-41v-82h-82zM246 -532v40h41v-40h-41z" />
    <glyph glyph-name="Lcaron" unicode="&#x13d;" horiz-adv-x="1392" 
d="M573 164h-81v-82h450v41h123v41h41v41h41v41h41v82h41v123h41v41h82v-164h-41v-287h-41v-41h-1229v82h123v41h41v82h41v1024h-41v82h-41v41h-123v82h696v-82h-123v-41h-41v-1147zM1106 1106v-41h-41v41h41v41h41v123h-41v-82h-82v41h-82v164h41v41h41v41h123v-41h41v-41
h41v-205h-41v-82h-82zM983 1024v41h41v-41h-41z" />
    <glyph glyph-name="lcaron" unicode="&#x13e;" horiz-adv-x="696" 
d="M614 82v-82h-573v82h123v1229h-41v41h-41v82h164v41h164v41h82v-1434h122zM737 1106v-41h-41v41h41v41h41v123h-41v-82h-82v41h-82v164h41v41h41v41h123v-41h41v-41h41v-205h-41v-82h-82zM614 1024v41h41v-41h-41z" />
    <glyph glyph-name="Ldot" unicode="&#x13f;" horiz-adv-x="1392" 
d="M573 164h-81v-82h450v41h123v41h41v41h41v41h41v82h41v123h41v41h82v-164h-41v-287h-41v-41h-1229v82h123v41h41v82h41v1024h-41v82h-41v41h-123v82h696v-82h-123v-41h-41v-1147zM942 778v287h287v-287h-287z" />
    <glyph glyph-name="ldot" unicode="&#x140;" horiz-adv-x="778" 
d="M614 82v-82h-573v82h123v1229h-41v41h-41v82h164v41h164v41h82v-1434h122zM573 573v287h287v-287h-287z" />
    <glyph glyph-name="Lslash" unicode="&#x141;" horiz-adv-x="1392" 
d="M1270 41v-41h-1229v82h123v41h41v82h41v409h41v41h41v41h-41v-41h-82v-41h-41v-41h-82v-41h-41v-40h-41v122h41v41h82v41h41v41h82v492h-41v82h-41v41h-123v82h696v-82h-123v-41h-41v-328h41v41h41v41h82v41h41v41h41v-123h-41v-41h-82v-41h-41v-41h-82v-737h-81v-82h450
v41h123v41h41v41h41v41h41v82h41v123h41v41h82v-164h-41v-287h-41z" />
    <glyph glyph-name="lslash" unicode="&#x142;" horiz-adv-x="696" 
d="M655 82v-82h-573v82h123v82h41v450h41v82h-41v-41h-41v-41h-41v-41h-82v-41h-41v-40h-41v122h82v41h41v41h82v41h41v492h-41v82h-41v41h-41v82h164v41h164v41h41v-574h81v41h41v41h82v41h41v41h41v-123h-82v-41h-41v-41h-82v-41h-41v-41h-40v-614h40v-123h123z" />
    <glyph glyph-name="Nacute" unicode="&#x143;" horiz-adv-x="1638" 
d="M1393 1188v-1188h-41v41h-41v41h-41v41h-41v41h-41v41h-41v41h-41v41h-41v82h-41v41h-41v41h-41v41h-41v40h-41v41h-41v41h-41v41h-41v41h-41v82h-41v41h-41v41h-41v41h-41v41h-40v41h-41v41h-41v41h-41v-942h41v-41h163v-82h-532v82h123v41h41v41h41v1065h-41v41h-41v41
h-41v41h-41v41h-41v41h491v-41h41v-41h41v-41h41v-41h41v-41h41v-41h41v-41h41v-82h41v-41h41v-41h41v-41h41v-41h41v-41h41v-41h41v-41h41v-41h41v-41h41v-164h41v779h-41v41h-123v82h491v-82h-122v-41h-41v-123h-41zM655 1638v-82h41v41h82v41h82v41h123v41h82v41h41v123
h-41v41h-41v41h-82v-41h-82v-41h-41v-82h-41v-41h-41v-82h-41v-41h-41z" />
    <glyph glyph-name="nacute" unicode="&#x144;" 
d="M614 82v-82h-573v82h123v41h41v696h-41v41h-82v41h-41v41h164v41h123v41h164v-123h-41v-82h-41v-41h41v41h41v41h40v41h41v41h41v41h82v41h287v-41h41v-41h41v-41h41v-123h41v-696h123v-82h-574v82h123v41h41v614h-41v82h-41v41h-205v-41h-41v-41h-40v-696h122zM492 1229
v-82h40v41h82v41h82v41h123v41h82v41h41v123h-41v41h-41v40h-82v-40h-82v-41h-41v-82h-41v-41h-41v-82h-41v-41h-40z" />
    <glyph glyph-name="Ncommaaccent" unicode="&#x145;" horiz-adv-x="1638" 
d="M1393 1188v-1188h-41v41h-41v41h-41v41h-41v41h-41v41h-41v41h-41v41h-41v82h-41v41h-41v41h-41v41h-41v40h-41v41h-41v41h-41v41h-41v41h-41v82h-41v41h-41v41h-41v41h-41v41h-40v41h-41v41h-41v41h-41v-942h41v-41h163v-82h-532v82h123v41h41v41h41v1065h-41v41h-41v41
h-41v41h-41v41h-41v41h491v-41h41v-41h41v-41h41v-41h41v-41h41v-41h41v-41h41v-82h41v-41h41v-41h41v-41h41v-41h41v-41h41v-41h41v-41h41v-41h41v-41h41v-164h41v779h-41v41h-123v82h491v-82h-122v-41h-41v-123h-41zM860 -451v-41h-41v41h41v41h41v123h-41v-82h-82v41h-82
v164h41v41h41v41h123v-41h41v-41h41v-205h-41v-82h-82zM737 -532v40h41v-40h-41z" />
    <glyph glyph-name="ncommaaccent" unicode="&#x146;" 
d="M614 82v-82h-573v82h123v41h41v696h-41v41h-82v41h-41v41h164v41h123v41h164v-123h-41v-82h-41v-41h41v41h41v41h40v41h41v41h41v41h82v41h287v-41h41v-41h41v-41h41v-123h41v-696h123v-82h-574v82h123v41h41v614h-41v82h-41v41h-205v-41h-41v-41h-40v-696h122zM696 -451
v-41h-41v41h41v41h41v123h-41v-82h-82v41h-82v164h41v41h41v41h123v-41h41v-41h41v-205h-41v-82h-82zM573 -532v40h41v-40h-41z" />
    <glyph glyph-name="Ncaron" unicode="&#x147;" horiz-adv-x="1638" 
d="M1393 1188v-1188h-41v41h-41v41h-41v41h-41v41h-41v41h-41v41h-41v41h-41v82h-41v41h-41v41h-41v41h-41v40h-41v41h-41v41h-41v41h-41v41h-41v82h-41v41h-41v41h-41v41h-41v41h-40v41h-41v41h-41v41h-41v-942h41v-41h163v-82h-532v82h123v41h41v41h41v1065h-41v41h-41v41
h-41v41h-41v41h-41v41h491v-41h41v-41h41v-41h41v-41h41v-41h41v-41h41v-41h41v-82h41v-41h41v-41h41v-41h41v-41h41v-41h41v-41h41v-41h41v-41h41v-41h41v-164h41v779h-41v41h-123v82h491v-82h-122v-41h-41v-123h-41zM1188 1884v41h41v-41h-41v-41h-41v-41h-41v-41h-41v-41
h-41v-82h-41v-41h-287v41h-41v41h-41v82h-41v41h-41v41h-40v41h-41v41h81v-41h123v-41h164v-41h82v-41h-82v-41h82v41h41v41h82v41h82v41h82z" />
    <glyph glyph-name="ncaron" unicode="&#x148;" 
d="M614 82v-82h-573v82h123v41h41v696h-41v41h-82v41h-41v41h164v41h123v41h164v-123h-41v-82h-41v-41h41v41h41v41h40v41h41v41h41v41h82v41h287v-41h41v-41h41v-41h41v-123h41v-696h123v-82h-574v82h123v41h41v614h-41v82h-41v41h-205v-41h-41v-41h-40v-696h122z
M1024 1475v41h41v-41h-41v-41h-41v-41h-41v-41h-41v-41h-41v-82h-41v-41h-287v41h-40v41h-41v82h-41v41h-41v41h-41v41h-41v41h82v-41h123v-41h163v-41h82v-41h-82v-41h82v41h41v41h82v41h82v41h82z" />
    <glyph glyph-name="Eng" unicode="&#x14a;" horiz-adv-x="1638" 
d="M1393 1188v-1475h-41v-82h-41v-41h-41v-41h-41v-41h-82v-40h-246v40h-82v41h-82v41h-41v123h-41v82h41v82h41v41h123v-41h41v-41h41v-123h-41v-82h41v-41h246v41h41v41h41v451h-41v41h-41v41h-41v41h-41v82h-41v41h-41v41h-41v41h-41v41h-41v40h-41v41h-41v41h-41v41h-41
v41h-41v82h-41v41h-41v41h-41v41h-41v41h-40v41h-41v41h-41v41h-41v-942h41v-41h163v-82h-532v82h123v41h41v41h41v1065h-41v41h-41v41h-41v41h-41v41h-41v41h491v-41h41v-41h41v-41h41v-41h41v-41h41v-41h41v-41h41v-82h41v-41h41v-41h41v-41h41v-41h41v-41h41v-41h41v-41
h41v-41h41v-41h41v-164h41v779h-41v41h-123v82h491v-82h-122v-41h-41v-123h-41z" />
    <glyph glyph-name="eng" unicode="&#x14b;" 
d="M860 -451v-41h-246v41h-122v41h-41v82h-41v82h41v82h163v-41h41v-123h-41v-41h41v-41h82v41h82v82h41v1024h-41v82h-41v41h-205v-41h-41v-41h-40v-696h122v-82h-573v82h123v41h41v696h-41v41h-82v41h-41v41h164v41h123v41h164v-123h-41v-82h-41v-41h41v41h41v41h40v41h41
v41h41v41h82v41h287v-41h41v-41h41v-41h41v-123h41v-942h-41v-164h-41v-41h-41v-41h-41v-41h-123z" />
    <glyph glyph-name="Omacron" unicode="&#x14c;" horiz-adv-x="1597" 
d="M860 0v-41h-123v41h-205v41h-81v41h-82v41h-41v41h-41v41h-41v41h-41v41h-41v41h-41v123h-41v122h-41v246h41v164h41v82h41v82h41v41h41v41h41v41h41v41h41v41h82v41h81v41h164v41h164v-41h205v-41h82v-41h82v-41h41v-41h82v-82h41v-41h41v-41h41v-82h41v-164h40v-246
h-40v-163h-41v-82h-41v-82h-41v-41h-41v-41h-41v-41h-41v-41h-41v-41h-82v-41h-82v-41h-205zM696 82h205v41h82v41h41v41h41v41h41v82h41v123h41v450h-41v164h-41v82h-41v82h-41v41h-41v41h-82v41h-205v-41h-82v-41h-41v-41h-41v-41h-40v-82h-41v-123h-41v-451h41v-163h41
v-82h40v-82h41v-41h41v-41h82v-41zM451 1843h696v-205h-696v205z" />
    <glyph glyph-name="omacron" unicode="&#x14d;" horiz-adv-x="1146" 
d="M655 0v-41h-163v41h-123v41h-82v41h-41v41h-41v41h-41v41h-41v41h-41v164h-41v163h41v164h41v82h41v41h41v41h41v41h41v41h123v41h327v-41h123v-41h41v-41h41v-41h41v-41h41v-82h41v-123h41v-204h-41v-123h-41v-82h-41v-41h-41v-41h-41v-41h-41v-41h-82v-41h-123zM492 82
h163v41h41v41h41v82h41v491h-41v82h-41v82h-82v41h-122v-41h-41v-41h-41v-82h-41v-491h41v-123h41v-41h41v-41zM246 1434h696v-205h-696v205z" />
    <glyph glyph-name="Obreve" unicode="&#x14e;" horiz-adv-x="1597" 
d="M860 0v-41h-123v41h-205v41h-81v41h-82v41h-41v41h-41v41h-41v41h-41v41h-41v41h-41v123h-41v122h-41v246h41v164h41v82h41v82h41v41h41v41h41v41h41v41h41v41h82v41h81v41h164v41h164v-41h205v-41h82v-41h82v-41h41v-41h82v-82h41v-41h41v-41h41v-82h41v-164h40v-246
h-40v-163h-41v-82h-41v-82h-41v-41h-41v-41h-41v-41h-41v-41h-41v-41h-82v-41h-82v-41h-205zM696 82h205v41h82v41h41v41h41v41h41v82h41v123h41v450h-41v164h-41v82h-41v82h-41v41h-41v41h-82v41h-205v-41h-82v-41h-41v-41h-41v-41h-40v-82h-41v-123h-41v-451h41v-163h41
v-82h40v-82h41v-41h41v-41h82v-41zM942 1597v-41h-287v41h-41v41h-41v41h-41v41h-40v164h40v-41h41v-41h41v-41h369v41h41v41h41v41h41v-164h-41v-41h-41v-41h-41v-41h-41z" />
    <glyph glyph-name="obreve" unicode="&#x14f;" horiz-adv-x="1146" 
d="M655 0v-41h-163v41h-123v41h-82v41h-41v41h-41v41h-41v41h-41v41h-41v164h-41v163h41v164h41v82h41v41h41v41h41v41h41v41h123v41h327v-41h123v-41h41v-41h41v-41h41v-41h41v-82h41v-123h41v-204h-41v-123h-41v-82h-41v-41h-41v-41h-41v-41h-41v-41h-82v-41h-123zM492 82
h163v41h41v41h41v82h41v491h-41v82h-41v82h-82v41h-122v-41h-41v-41h-41v-82h-41v-491h41v-123h41v-41h41v-41zM737 1188v-41h-286v41h-41v41h-41v41h-41v41h-41v164h41v-41h41v-41h41v-41h368v41h41v41h41v41h41v-164h-41v-41h-41v-41h-41v-41h-41z" />
    <glyph glyph-name="Ohungarumlaut" unicode="&#x150;" horiz-adv-x="1597" 
d="M860 0v-41h-123v41h-205v41h-81v41h-82v41h-41v41h-41v41h-41v41h-41v41h-41v41h-41v123h-41v122h-41v246h41v164h41v82h41v82h41v41h41v41h41v41h41v41h41v41h82v41h81v41h164v41h164v-41h205v-41h82v-41h82v-41h41v-41h82v-82h41v-41h41v-41h41v-82h41v-164h40v-246
h-40v-163h-41v-82h-41v-82h-41v-41h-41v-41h-41v-41h-41v-41h-41v-41h-82v-41h-82v-41h-205zM696 82h205v41h82v41h41v41h41v41h41v82h41v123h41v450h-41v164h-41v82h-41v82h-41v41h-41v41h-82v41h-205v-41h-82v-41h-41v-41h-41v-41h-40v-82h-41v-123h-41v-451h41v-163h41
v-82h40v-82h41v-41h41v-41h82v-41zM942 1597v-41h-82v41h41v41h41v82h41v82h41v41h41v82h82v41h41v-41h82v-164h-41v-41h-82v-41h-82v-41h-82v-41h-41zM860 1720h-82v-41h-41v-41h-82v-41h-82v-41h-41v41h41v82h41v82h41v41h41v82h41v41h164v-41h41v-82h-41v-41h-41v-41z
" />
    <glyph glyph-name="ohungarumlaut" unicode="&#x151;" horiz-adv-x="1146" 
d="M655 0v-41h-163v41h-123v41h-82v41h-41v41h-41v41h-41v41h-41v41h-41v164h-41v163h41v164h41v82h41v41h41v41h41v41h41v41h123v41h327v-41h123v-41h41v-41h41v-41h41v-41h41v-82h41v-123h41v-204h-41v-123h-41v-82h-41v-41h-41v-41h-41v-41h-41v-41h-82v-41h-123zM492 82
h163v41h41v41h41v82h41v491h-41v82h-41v82h-82v41h-122v-41h-41v-41h-41v-82h-41v-491h41v-123h41v-41h41v-41zM737 1188v-41h-82v41h41v41h41v82h41v82h41v41h41v82h82v40h41v-40h82v-164h-41v-41h-82v-41h-82v-41h-82v-41h-41zM655 1311h-82v-41h-41v-41h-81v-41h-82v-41
h-41v41h41v82h41v82h41v41h41v82h40v41h164v-41h41v-82h-41v-41h-41v-41z" />
    <glyph glyph-name="OE" unicode="&#x152;" horiz-adv-x="2252" 
d="M2130 205v-205h-1475v41h-123v41h-81v41h-82v41h-82v41h-41v41h-41v82h-41v41h-41v82h-41v122h-41v287h41v123h41v82h41v82h41v41h41v41h41v41h82v41h41v41h82v41h163v41h1475v-492h-82v82h-41v123h-41v82h-41v41h-41v41h-123v41h-409v-574h245v41h82v82h41v123h82v-573
h-82v122h-41v82h-82v41h-245v-573h-41v-41h491v41h123v41h41v41h41v82h41v82h41v123h82v-287h-41zM1024 1311h82v41h-246v-41h-164v-41h-41v-41h-82v-41h-41v-82h-40v-82h-41v-123h-41v-409h41v-123h41v-82h40v-41h41v-41h41v-41h41v-41h123v-41h246v1229z" />
    <glyph glyph-name="oe" unicode="&#x153;" horiz-adv-x="1802" 
d="M1761 532h-737v-40h82v-123h41v-82h41v-41h41v-41h41v-41h327v41h41v41h41v41h41v-41h-41v-82h-41v-41h-41v-41h-41v-41h-81v-41h-82v-41h-164v41h-123v41h-82v41h-41v41h-82v-41h-41v-41h-82v-41h-123v-41h-123v41h-163v41h-82v41h-41v41h-41v41h-41v41h-41v82h-41v164
h-41v81h41v164h41v82h41v82h41v41h41v41h82v41h82v41h327v-41h82v-41h82v-41h123v41h41v41h82v41h328v-41h81v-41h41v-41h41v-41h41v-41h41v-123h41v-164zM492 82h163v41h41v41h41v41h41v532h-41v82h-41v82h-82v41h-122v-41h-41v-41h-41v-123h-41v-450h41v-82h41v-82h41v-41
zM1106 614h410v82h-41v123h-41v82h-82v41h-82v-41h-82v-41h-41v-82h-41v-164z" />
    <glyph glyph-name="Racute" unicode="&#x154;" horiz-adv-x="1597" 
d="M573 614v-491h41v-41h164v-82h-737v82h164v41h41v1188h-41v41h-164v82h983v-41h123v-41h82v-41h41v-41h41v-82h41v-246h-41v-82h-41v-41h-41v-41h-41v-41h-123v-41h82v-41h82v-41h41v-82h41v-81h41v-82h41v-123h41v-82h41v-82h122v-82h-450v41h-41v123h-41v82h-41v123
h-41v123h-41v81h-41v82h-409v-41h81zM573 778h328v41h41v41h41v41h41v287h-41v41h-41v41h-41v41h-82v41h-327v-41h81v-533zM614 1638v-82h41v41h82v41h82v41h123v41h82v41h41v123h-41v41h-41v41h-82v-41h-82v-41h-41v-82h-41v-41h-41v-82h-41v-41h-41z" />
    <glyph glyph-name="racute" unicode="&#x155;" horiz-adv-x="983" 
d="M614 82v-82h-573v82h123v82h41v614h-41v82h-82v41h-41v41h123v41h164v41h164v-123h-41v-82h-41v-82h41v82h41v41h40v41h41v41h41v41h41v41h246v-41h41v-41h41v-164h-41v-41h-205v164h41v41h-82v-41h-82v-41h-41v-41h-41v-82h-40v-655h122zM369 1229v-82h41v41h82v41h81
v41h123v41h82v41h41v123h-41v41h-41v40h-82v-40h-82v-41h-41v-82h-40v-41h-41v-82h-41v-41h-41z" />
    <glyph glyph-name="Rcommaaccent" unicode="&#x156;" horiz-adv-x="1597" 
d="M573 614v-491h41v-41h164v-82h-737v82h164v41h41v1188h-41v41h-164v82h983v-41h123v-41h82v-41h41v-41h41v-82h41v-246h-41v-82h-41v-41h-41v-41h-41v-41h-123v-41h82v-41h82v-41h41v-82h41v-81h41v-82h41v-123h41v-82h41v-82h122v-82h-450v41h-41v123h-41v82h-41v123
h-41v123h-41v81h-41v82h-409v-41h81zM573 778h328v41h41v41h41v41h41v287h-41v41h-41v41h-41v41h-82v41h-327v-41h81v-533zM942 -451v-41h-41v41h41v41h41v123h-41v-82h-82v41h-82v164h41v41h41v41h123v-41h41v-41h41v-205h-41v-82h-82zM819 -532v40h41v-40h-41z" />
    <glyph glyph-name="rcommaaccent" unicode="&#x157;" horiz-adv-x="983" 
d="M614 82v-82h-573v82h123v82h41v614h-41v82h-82v41h-41v41h123v41h164v41h164v-123h-41v-82h-41v-82h41v82h41v41h40v41h41v41h41v41h41v41h246v-41h41v-41h41v-164h-41v-41h-205v164h41v41h-82v-41h-82v-41h-41v-41h-41v-82h-40v-655h122zM410 -451v-41h-41v41h41v41h41
v123h-41v-82h-82v41h-82v164h41v41h41v41h123v-41h41v-41h40v-205h-40v-82h-82zM287 -532v40h41v-40h-41z" />
    <glyph glyph-name="Rcaron" unicode="&#x158;" horiz-adv-x="1597" 
d="M573 614v-491h41v-41h164v-82h-737v82h164v41h41v1188h-41v41h-164v82h983v-41h123v-41h82v-41h41v-41h41v-82h41v-246h-41v-82h-41v-41h-41v-41h-41v-41h-123v-41h82v-41h82v-41h41v-82h41v-81h41v-82h41v-123h41v-82h41v-82h122v-82h-450v41h-41v123h-41v82h-41v123
h-41v123h-41v81h-41v82h-409v-41h81zM573 778h328v41h41v41h41v41h41v287h-41v41h-41v41h-41v41h-82v41h-327v-41h81v-533zM1147 1884v41h41v-41h-41v-41h-41v-41h-41v-41h-41v-41h-41v-82h-41v-41h-287v41h-41v41h-41v82h-41v41h-40v41h-41v41h-41v41h82v-41h122v-41h164
v-41h82v-41h-82v-41h82v41h41v41h82v41h82v41h82z" />
    <glyph glyph-name="rcaron" unicode="&#x159;" horiz-adv-x="983" 
d="M614 82v-82h-573v82h123v82h41v614h-41v82h-82v41h-41v41h123v41h164v41h164v-123h-41v-82h-41v-82h41v82h41v41h40v41h41v41h41v41h41v41h246v-41h41v-41h41v-164h-41v-41h-205v164h41v41h-82v-41h-82v-41h-41v-41h-41v-82h-40v-655h122zM901 1475v41h41v-41h-41v-41
h-41v-41h-41v-41h-41v-41h-41v-82h-41v-41h-286v41h-41v41h-41v82h-41v41h-41v41h-41v41h-41v41h82v-41h123v-41h163v-41h82v-41h-82v-41h82v41h41v41h82v41h82v41h82z" />
    <glyph glyph-name="Sacute" unicode="&#x15a;" 
d="M164 0v-41h-41v533h82v-41h41v-82h41v-82h41v-41h41v-41h41v-41h82v-41h163v-41h41v41h164v41h41v41h41v164h-41v82h-82v41h-82v40h-123v41h-122v41h-123v41h-82v41h-41v41h-41v41h-41v41h-41v123h-41v123h41v123h41v82h41v41h41v41h41v41h82v41h368v-41h82v-41h41v-41
h41v-41h41v-41h41v82h-41v41h-41v41h82v41h123v-492h-82v41h-41v82h-41v41h-41v41h-41v82h-82v41h-41v41h-286v-41h-41v-41h-41v-205h41v-41h82v-41h122v-41h82v-41h123v-41h123v-41h82v-41h82v-41h41v-82h41v-82h41v-204h-41v-82h-41v-82h-41v-41h-41v-41h-82v-41h-82v-41
h-409v41h-82v41h-41v41h-82v41h-41v-41h41v-41h41v-41h-82v-41h-82zM451 1638v-82h41v41h81v41h82v41h123v41h82v41h41v123h-41v41h-41v41h-82v-41h-82v-41h-41v-82h-41v-41h-41v-82h-40v-41h-41z" />
    <glyph glyph-name="sacute" unicode="&#x15b;" horiz-adv-x="901" 
d="M82 0v-41h-41v410h82v-41h41v-41h41v-82h41v-41h41v-41h82v-41h163v41h82v164h-41v41h-122v41h-82v41h-123v41h-82v41h-41v40h-41v41h-41v246h41v82h41v41h41v41h82v41h246v-41h81v-41h41v-41h41v-41h41v82h-41v82h123v-369h-82v41h-41v82h-41v41h-41v41h-41v41h-245
v-205h82v-41h123v-41h122v-41h82v-41h82v-40h41v-82h41v-246h-41v-41h-41v-41h-41v-41h-82v-41h-327v41h-82v41h-41v41h-41v-82h41v-41h-123zM246 1229v-82h41v41h82v41h82v41h122v41h82v41h41v123h-41v41h-41v40h-82v-40h-81v-41h-41v-82h-41v-41h-41v-82h-41v-41h-41z" />
    <glyph glyph-name="Scircumflex" unicode="&#x15c;" 
d="M164 0v-41h-41v533h82v-41h41v-82h41v-82h41v-41h41v-41h41v-41h82v-41h163v-41h41v41h164v41h41v41h41v164h-41v82h-82v41h-82v40h-123v41h-122v41h-123v41h-82v41h-41v41h-41v41h-41v41h-41v123h-41v123h41v123h41v82h41v41h41v41h41v41h82v41h368v-41h82v-41h41v-41
h41v-41h41v-41h41v82h-41v41h-41v41h82v41h123v-492h-82v41h-41v82h-41v41h-41v41h-41v82h-82v41h-41v41h-286v-41h-41v-41h-41v-205h41v-41h82v-41h122v-41h82v-41h123v-41h123v-41h82v-41h82v-41h41v-82h41v-82h41v-204h-41v-82h-41v-82h-41v-41h-41v-41h-82v-41h-82v-41
h-409v41h-82v41h-41v41h-82v41h-41v-41h41v-41h41v-41h-82v-41h-82zM287 1597v-41h-41v41h41v41h41v41h41v41h41v41h41v82h41v41h286v-41h41v-41h41v-82h41v-41h41v-41h41v-41h41v-41h-82v41h-123v41h-164v41h-82v41h82v41h-82v-41h-41v-41h-81v-41h-82v-41h-82z" />
    <glyph glyph-name="scircumflex" unicode="&#x15d;" horiz-adv-x="901" 
d="M82 0v-41h-41v410h82v-41h41v-41h41v-82h41v-41h41v-41h82v-41h163v41h82v164h-41v41h-122v41h-82v41h-123v41h-82v41h-41v40h-41v41h-41v246h41v82h41v41h41v41h82v41h246v-41h81v-41h41v-41h41v-41h41v82h-41v82h123v-369h-82v41h-41v82h-41v41h-41v41h-41v41h-245
v-205h82v-41h123v-41h122v-41h82v-41h82v-40h41v-82h41v-246h-41v-41h-41v-41h-41v-41h-82v-41h-327v41h-82v41h-41v41h-41v-82h41v-41h-123zM82 1188v-41h-41v41h41v41h41v41h41v41h41v41h41v82h41v41h286v-41h41v-41h41v-82h41v-41h41v-41h41v-41h41v-41h-82v41h-123v41
h-163v41h-82v41h82v41h-82v-41h-41v-41h-82v-41h-82v-41h-82z" />
    <glyph glyph-name="Scedilla" unicode="&#x15e;" 
d="M778 -410v-41h-246v41h123v41h82v41h-41v82h-123v41h-81v41h40v41h41v41h41v82h-122v41h-82v41h-41v41h-82v41h-41v-41h41v-41h41v-41h-82v-41h-82v-41h-41v533h82v-41h41v-82h41v-82h41v-41h41v-41h41v-41h82v-41h163v-41h41v41h164v41h41v41h41v164h-41v82h-82v41h-82
v40h-123v41h-122v41h-123v41h-82v41h-41v41h-41v41h-41v41h-41v123h-41v123h41v123h41v82h41v41h41v41h41v41h82v41h368v-41h82v-41h41v-41h41v-41h41v-41h41v82h-41v41h-41v41h82v41h123v-492h-82v41h-41v41h-41v41h-41v82h-41v41h-41v41h-41v41h-41v41h-286v-41h-41v-41
h-41v-205h41v-41h82v-41h122v-41h82v-41h123v-41h123v-41h82v-41h82v-41h41v-82h41v-82h41v-204h-41v-82h-41v-82h-41v-41h-41v-41h-82v-41h-82v-41h-205v-82h-41v-82h41v82h41v-41h82v-41h41v-41h41v-123h-41v-41h-41v-41h-41z" />
    <glyph glyph-name="scedilla" unicode="&#x15f;" horiz-adv-x="901" 
d="M573 -410v-41h-245v41h123v41h81v41h-40v82h-123v41h-82v41h41v41h41v41h41v82h-82v41h-82v41h-41v41h-41v-82h41v-41h-123v-41h-41v410h82v-41h41v-41h41v-82h41v-41h41v-41h82v-41h163v41h82v164h-41v41h-122v41h-82v41h-123v41h-82v41h-41v40h-41v41h-41v246h41v82h41
v41h41v41h82v41h246v-41h81v-41h41v-41h41v-41h41v82h-41v82h123v-369h-82v41h-41v82h-41v41h-41v41h-41v41h-245v-205h82v-41h123v-41h122v-41h82v-41h82v-40h41v-82h41v-246h-41v-41h-41v-41h-41v-41h-82v-41h-163v-82h-41v-82h41v82h40v-41h82v-41h41v-41h41v-123h-41
v-41h-41v-41h-41z" />
    <glyph glyph-name="Scaron" unicode="&#x160;" 
d="M164 0v-41h-41v533h82v-41h41v-82h41v-82h41v-41h41v-41h41v-41h82v-41h163v-41h41v41h164v41h41v41h41v164h-41v82h-82v41h-82v40h-123v41h-122v41h-123v41h-82v41h-41v41h-41v41h-41v41h-41v123h-41v123h41v123h41v82h41v41h41v41h41v41h82v41h368v-41h82v-41h41v-41
h41v-41h41v-41h41v82h-41v41h-41v41h82v41h123v-492h-82v41h-41v82h-41v41h-41v41h-41v82h-82v41h-41v41h-286v-41h-41v-41h-41v-205h41v-41h82v-41h122v-41h82v-41h123v-41h123v-41h82v-41h82v-41h41v-82h41v-82h41v-204h-41v-82h-41v-82h-41v-41h-41v-41h-82v-41h-82v-41
h-409v41h-82v41h-41v41h-82v41h-41v-41h41v-41h41v-41h-82v-41h-82zM983 1884v41h41v-41h-41v-41h-41v-41h-41v-41h-41v-41h-41v-82h-41v-41h-286v41h-41v41h-41v82h-41v41h-41v41h-41v41h-41v41h82v-41h123v-41h163v-41h82v-41h-82v-41h82v41h41v41h82v41h82v41h82z" />
    <glyph glyph-name="scaron" unicode="&#x161;" horiz-adv-x="901" 
d="M82 0v-41h-41v410h82v-41h41v-41h41v-82h41v-41h41v-41h82v-41h163v41h82v164h-41v41h-122v41h-82v41h-123v41h-82v41h-41v40h-41v41h-41v246h41v82h41v41h41v41h82v41h246v-41h81v-41h41v-41h41v-41h41v82h-41v82h123v-369h-82v41h-41v82h-41v41h-41v41h-41v41h-245
v-205h82v-41h123v-41h122v-41h82v-41h82v-40h41v-82h41v-246h-41v-41h-41v-41h-41v-41h-82v-41h-327v41h-82v41h-41v41h-41v-82h41v-41h-123zM778 1475v41h41v-41h-41v-41h-41v-41h-41v-41h-41v-41h-41v-82h-41v-41h-286v41h-41v41h-41v82h-41v41h-41v41h-41v41h-41v41h82
v-41h123v-41h164v-41h82v-41h-82v-41h82v41h40v41h82v41h82v41h82z" />
    <glyph glyph-name="Tcaron" unicode="&#x164;" horiz-adv-x="1433" 
d="M41 1434h1352v-164h41v-328h-82v82h-41v123h-41v82h-41v41h-41v41h-123v41h-246v-41h41v-1147h41v-41h41v-41h123v-82h-696v82h123v41h40v1229h-163v-41h-123v-41h-41v-41h-41v-82h-41v-123h-41v-82h-82v369h41v123zM1065 1884v41h41v-41h-41v-41h-41v-41h-41v-41h-41
v-41h-41v-82h-41v-41h-287v41h-41v41h-40v82h-41v41h-41v41h-41v41h-41v41h82v-41h122v-41h164v-41h82v-41h-82v-41h82v41h41v41h82v41h82v41h82z" />
    <glyph glyph-name="tcaron" unicode="&#x165;" horiz-adv-x="819" 
d="M369 942v-41h82v-655h41v-82h204v41h41v41h41v-82h-41v-41h-41v-82h-82v-41h-327v41h-41v41h-41v82h-41v778h-123v41h41v41h41v41h82v41h41v41h41v41h41v82h41v41h41v41h41v-328h327v-82h-409zM696 1188v-41h-41v41h41v41h41v123h-41v-82h-82v41h-82v164h41v41h41v40h123
v-40h41v-41h41v-205h-41v-82h-82zM573 1106v41h41v-41h-41z" />
    <glyph glyph-name="Tbar" unicode="&#x166;" horiz-adv-x="1433" 
d="M1229 778v-82h-369v-532h41v-41h41v-41h123v-82h-696v82h123v41h40v532h82v41h-409v82h327v574h-163v-41h-123v-41h-41v-41h-41v-82h-41v-123h-41v-82h-82v369h41v123h1352v-164h41v-328h-82v82h-41v123h-41v82h-41v41h-41v41h-123v41h-246v-41h41v-533h369z" />
    <glyph glyph-name="tbar" unicode="&#x167;" horiz-adv-x="819" 
d="M246 573h-246v82h164v287h-123v41h41v41h41v41h82v41h41v41h41v41h41v82h41v41h41v41h41v-328h327v-82h-409v-41h82v-246h327v-82h-327v-327h41v-82h204v41h41v41h41v-82h-41v-41h-41v-82h-82v-41h-327v41h-41v41h-41v82h-41v368h82v41z" />
    <glyph glyph-name="Utilde" unicode="&#x168;" horiz-adv-x="1638" 
d="M860 0v-41h-123v41h-164v41h-122v41h-41v41h-41v41h-41v41h-41v82h-41v942h-41v82h-41v41h-123v82h737v-82h-164v-41h-41v-942h41v-82h41v-41h41v-41h41v-41h328v41h82v41h41v82h41v82h41v860h-41v82h-164v82h532v-82h-122v-41h-41v-82h-41v-860h-41v-123h-41v-41h-41
v-41h-41v-41h-41v-41h-41v-41h-82v-41h-205zM1188 1638v-41h-246v41h-82v41h-82v41h-123v-41h-82v-41h-41v41h41v82h41v82h41v41h82v41h82v-41h123v-41h82v-41h82v-41h82v41h82v82h41v-82h-41v-82h-41v-82h-41z" />
    <glyph glyph-name="utilde" unicode="&#x169;" 
d="M492 1024v-819h40v-41h41v-41h123v41h82v41h41v655h-82v41h-41v41h123v41h164v41h164v-901h41v-41h82v-41h-164v-41h-287v123h41v41h41v41h-41v-41h-41v-41h-41v-41h-41v-41h-82v-41h-123v-41h-81v41h-123v41h-41v41h-41v41h-41v655h-41v82h-82v41h-41v41h123v41h164v41
h164zM942 1229v-41h-246v41h-82v41h-82v41h-122v-41h-82v-41h-41v41h41v82h41v82h41v41h82v41h81v-41h123v-41h82v-41h82v-41h82v41h82v82h41v-82h-41v-82h-41v-82h-41z" />
    <glyph glyph-name="Umacron" unicode="&#x16a;" horiz-adv-x="1638" 
d="M860 0v-41h-123v41h-164v41h-122v41h-41v41h-41v41h-41v41h-41v82h-41v942h-41v82h-41v41h-123v82h737v-82h-164v-41h-41v-942h41v-82h41v-41h41v-41h41v-41h328v41h82v41h41v82h41v82h41v860h-41v82h-164v82h532v-82h-122v-41h-41v-82h-41v-860h-41v-123h-41v-41h-41
v-41h-41v-41h-41v-41h-41v-41h-82v-41h-205zM573 1843h697v-205h-697v205z" />
    <glyph glyph-name="umacron" unicode="&#x16b;" 
d="M492 1024v-819h40v-41h41v-41h123v41h82v41h41v655h-82v41h-41v41h123v41h164v41h164v-901h41v-41h82v-41h-164v-41h-287v123h41v41h41v41h-41v-41h-41v-41h-41v-41h-41v-41h-82v-41h-123v-41h-81v41h-123v41h-41v41h-41v41h-41v655h-41v82h-82v41h-41v41h123v41h164v41
h164zM328 1434h696v-205h-696v205z" />
    <glyph glyph-name="Ubreve" unicode="&#x16c;" horiz-adv-x="1638" 
d="M860 0v-41h-123v41h-164v41h-122v41h-41v41h-41v41h-41v41h-41v82h-41v942h-41v82h-41v41h-123v82h737v-82h-164v-41h-41v-942h41v-82h41v-41h41v-41h41v-41h328v41h82v41h41v82h41v82h41v860h-41v82h-164v82h532v-82h-122v-41h-41v-82h-41v-860h-41v-123h-41v-41h-41
v-41h-41v-41h-41v-41h-41v-41h-82v-41h-205zM1065 1597v-41h-287v41h-41v41h-41v41h-41v41h-41v164h41v-41h41v-41h41v-41h369v41h41v41h41v41h41v-164h-41v-41h-41v-41h-41v-41h-41z" />
    <glyph glyph-name="ubreve" unicode="&#x16d;" 
d="M492 1024v-819h40v-41h41v-41h123v41h82v41h41v655h-82v41h-41v41h123v41h164v41h164v-901h41v-41h82v-41h-164v-41h-287v123h41v41h41v41h-41v-41h-41v-41h-41v-41h-41v-41h-82v-41h-123v-41h-81v41h-123v41h-41v41h-41v41h-41v655h-41v82h-82v41h-41v41h123v41h164v41
h164zM819 1188v-41h-287v41h-40v41h-41v41h-41v41h-41v164h41v-41h41v-41h41v-41h368v41h41v41h41v41h41v-164h-41v-41h-41v-41h-41v-41h-41z" />
    <glyph glyph-name="Uring" unicode="&#x16e;" horiz-adv-x="1638" 
d="M860 0v-41h-123v41h-164v41h-122v41h-41v41h-41v41h-41v41h-41v82h-41v942h-41v82h-41v41h-123v82h737v-82h-164v-41h-41v-942h41v-82h41v-41h41v-41h41v-41h328v41h82v41h41v82h41v82h41v860h-41v82h-164v82h532v-82h-122v-41h-41v-82h-41v-860h-41v-123h-41v-41h-41
v-41h-41v-41h-41v-41h-41v-41h-82v-41h-205zM1024 1597v-41h-205v41h-82v82h-41v164h41v41h41v41h41v41h205v-41h41v-41h41v-41h41v-164h-41v-82h-82zM860 1638h123v41h41v164h-41v41h-123v-41h-41v-164h41v-41z" />
    <glyph glyph-name="uring" unicode="&#x16f;" 
d="M492 1024v-819h40v-41h41v-41h123v41h82v41h41v655h-82v41h-41v41h123v41h164v41h164v-901h41v-41h82v-41h-164v-41h-287v123h41v41h41v41h-41v-41h-41v-41h-41v-41h-41v-41h-82v-41h-123v-41h-81v41h-123v41h-41v41h-41v41h-41v655h-41v82h-82v41h-41v41h123v41h164v41
h164zM778 1188v-41h-205v41h-81v82h-41v164h41v41h40v41h41v40h205v-40h41v-41h41v-41h41v-164h-41v-82h-82zM614 1229h123v41h41v164h-41v41h-123v-41h-41v-164h41v-41z" />
    <glyph glyph-name="Uhungarumlaut" unicode="&#x170;" horiz-adv-x="1638" 
d="M860 0v-41h-123v41h-164v41h-122v41h-41v41h-41v41h-41v41h-41v82h-41v942h-41v82h-41v41h-123v82h737v-82h-164v-41h-41v-942h41v-82h41v-41h41v-41h41v-41h328v41h82v41h41v82h41v82h41v860h-41v82h-164v82h532v-82h-122v-41h-41v-82h-41v-860h-41v-123h-41v-41h-41
v-41h-41v-41h-41v-41h-41v-41h-82v-41h-205zM1065 1597v-41h-82v41h41v41h41v82h41v82h41v41h41v82h82v41h41v-41h82v-164h-41v-41h-82v-41h-82v-41h-82v-41h-41zM983 1720h-82v-41h-41v-41h-82v-41h-82v-41h-41v41h41v82h41v82h41v41h41v82h41v41h164v-41h41v-82h-41v-41
h-41v-41z" />
    <glyph glyph-name="uhungarumlaut" unicode="&#x171;" 
d="M492 1024v-819h40v-41h41v-41h123v41h82v41h41v655h-82v41h-41v41h123v41h164v41h164v-901h41v-41h82v-41h-164v-41h-287v123h41v41h41v41h-41v-41h-41v-41h-41v-41h-41v-41h-82v-41h-123v-41h-81v41h-123v41h-41v41h-41v41h-41v655h-41v82h-82v41h-41v41h123v41h164v41
h164zM819 1188v-41h-82v41h41v41h41v82h41v82h41v41h41v82h82v40h41v-40h82v-164h-41v-41h-82v-41h-82v-41h-82v-41h-41zM737 1311h-82v-41h-41v-41h-82v-41h-81v-41h-41v41h41v82h41v82h40v41h41v82h41v41h164v-41h41v-82h-41v-41h-41v-41z" />
    <glyph glyph-name="Uogonek" unicode="&#x172;" horiz-adv-x="1638" 
d="M901 -410v-41h-123v41h-82v41h-41v164h41v82h41v41h82v41h-82v41h-164v41h-122v41h-41v41h-41v41h-41v41h-41v82h-41v942h-41v82h-41v41h-123v82h737v-82h-164v-41h-41v-942h41v-82h41v-41h41v-41h41v-41h328v41h82v41h41v82h41v82h41v860h-41v82h-164v82h532v-82h-122
v-41h-41v-901h-41v-82h-41v-82h-41v-82h-41v-41h-82v-41h-41v-41h-82v-41h-123v-41h-41v-41h-41v-41h-41v-164h41v-41h123v-41h-41v-41h-41zM1024 -328h-41v41h41v-41z" />
    <glyph glyph-name="uogonek" unicode="&#x173;" 
d="M492 1024v-819h40v-41h41v-41h123v41h82v41h41v655h-82v41h-41v41h123v41h164v41h164v-901h41v-41h82v-41h-41v-41h-41v-41h-41v-41h-41v-164h41v-41h82v41h82v-41h-41v-41h-41v-41h-82v-41h-82v41h-82v41h-41v205h41v41h41v41h41v41h-246v123h41v41h41v41h-41v-41h-41
v-41h-41v-41h-41v-41h-82v-41h-123v-41h-81v41h-123v41h-41v41h-41v41h-41v655h-41v82h-82v41h-41v41h123v41h164v41h164zM1147 41h-41v-41h41v41z" />
    <glyph glyph-name="Wcircumflex" unicode="&#x174;" horiz-adv-x="2211" 
d="M737 0v-41h-82v82h-41v123h-41v82h-41v123h-40v82h-41v122h-41v123h-41v82h-41v123h-41v82h-41v123h-41v82h-41v123h-41v41h-82v82h614v-82h-123v-164h41v-123h41v-123h41v-123h41v-82h41v-123h41v-245h41v82h41v81h41v82h41v82h41v82h41v123h41v82h-41v82h-41v82h-41
v123h-41v41h-41v41h-82v82h615v-82h-82v-164h41v-123h41v-123h41v-82h41v-123h41v-123h40v-245h41v123h41v122h41v123h41v123h41v123h41v82h41v164h41v82h-41v41h-82v82h410v-82h-41v-41h-82v-82h-41v-82h-41v-123h-41v-82h-41v-123h-41v-123h-41v-82h-41v-122h-41v-82h-41
v-123h-41v-82h-41v-123h-41v-82h-40v-41h-82v123h-41v82h-41v123h-41v82h-41v123h-41v81h-41v123h-41v82h-41v-41h-41v-123h-41v-82h-41v-81h-41v-82h-41v-82h-41v-82h-41v-123h-41v-82h-41zM778 1597v-41h-41v41h41v41h41v41h41v41h41v41h41v82h41v41h287v-41h41v-41h41
v-82h41v-41h41v-41h41v-41h41v-41h-82v41h-123v41h-164v41h-82v41h82v41h-82v-41h-41v-41h-82v-41h-82v-41h-82z" />
    <glyph glyph-name="wcircumflex" unicode="&#x175;" horiz-adv-x="1843" 
d="M1147 0v82h-41v82h-41v82h-41v123h-41v82h-41v81h-41v-40h-41v-82h-41v-123h-41v-82h-41v-82h-41v-82h-41v-41h-123v82h-40v82h-41v82h-41v82h-41v82h-41v82h-41v122h-41v82h-41v82h-41v82h-41v41h-41v41h-41v82h532v-82h-81v-164h40v-82h41v-123h41v-81h41v-205h41v82
h41v82h41v81h41v82h41v123h-41v123h-41v41h-41v41h-41v82h492v-82h-41v-41h-41v-82h41v-123h41v-82h41v-122h41v-205h41v82h41v82h41v81h41v82h41v82h41v82h40v123h-40v41h-123v82h409v-82h-41v-41h-41v-41h-41v-41h-41v-82h-41v-123h-41v-82h-40v-81h-41v-82h-41v-82h-41
v-82h-41v-82h-41v-82h-41v-41h-123zM614 1188v-41h-41v41h41v41h41v41h41v41h41v41h41v82h41v41h287v-41h41v-41h41v-82h41v-41h41v-41h41v-41h41v-41h-82v41h-123v41h-164v41h-82v41h82v41h-82v-41h-41v-41h-82v-41h-82v-41h-82z" />
    <glyph glyph-name="Ycircumflex" unicode="&#x176;" horiz-adv-x="1515" 
d="M1106 82v-82h-696v82h122v41h41v41h41v450h-41v41h-41v82h-40v41h-41v82h-41v41h-41v82h-41v41h-41v82h-41v41h-41v82h-41v41h-41v41h-41v41h-82v82h655v-82h-123v-164h41v-41h41v-82h41v-41h41v-82h41v-82h41v-41h41v-123h-41v-41h82v82h41v41h41v82h41v82h41v41h41v82
h41v82h41v82h41v123h-123v82h410v-82h-41v-41h-41v-41h-41v-41h-41v-41h-41v-82h-41v-41h-41v-82h-41v-41h-41v-82h-41v-41h-41v-82h-41v-41h-41v-82h-41v-409h41v-82h41v-41h123zM492 1597v-41h-41v41h41v41h40v41h41v41h41v41h41v82h41v41h287v-41h41v-41h41v-82h41v-41
h41v-41h41v-41h41v-41h-82v41h-123v41h-164v41h-82v41h82v41h-82v-41h-41v-41h-82v-41h-82v-41h-81z" />
    <glyph glyph-name="ycircumflex" unicode="&#x177;" horiz-adv-x="1269" 
d="M287 -451v-41h-164v41h-82v41h-41v205h82v41h41v-41h82v-41h41v-82h-82v-41h164v41h41v41h41v123h41v41h41v82h40v164h-40v123h-41v41h-41v82h-41v82h-41v81h-41v82h-41v82h-41v82h-41v82h-41v41h-41v41h-82v82h655v-82h-123v-164h41v-82h41v-82h41v-82h41v-163h41v41h41
v82h41v81h41v82h41v82h41v82h41v41h-41v82h-123v82h410v-82h-41v-41h-41v-41h-41v-82h-41v-41h-41v-82h-41v-82h-41v-81h-41v-82h-41v-82h-41v-82h-41v-82h-41v-41h-41v-82h-41v-82h-41v-82h-41v-82h-41v-82h-40v-41h-41v-41h-41v-41h-41v-41h-82zM410 1188v-41h-41v41h41
v41h41v41h41v41h40v41h41v82h41v41h287v-41h41v-41h41v-82h41v-41h41v-41h41v-41h41v-41h-82v41h-123v41h-164v41h-82v41h82v41h-82v-41h-41v-41h-82v-41h-81v-41h-82z" />
    <glyph glyph-name="Ydieresis" unicode="&#x178;" horiz-adv-x="1515" 
d="M1106 82v-82h-696v82h122v41h41v41h41v450h-41v41h-41v82h-40v41h-41v82h-41v41h-41v82h-41v41h-41v82h-41v41h-41v82h-41v41h-41v41h-41v41h-82v82h655v-82h-123v-164h41v-41h41v-82h41v-41h41v-82h41v-82h41v-41h41v-123h-41v-41h82v82h41v41h41v82h41v82h41v41h41v82
h41v82h41v82h41v123h-123v82h410v-82h-41v-41h-41v-41h-41v-41h-41v-41h-41v-82h-41v-41h-41v-82h-41v-41h-41v-82h-41v-41h-41v-82h-41v-41h-41v-82h-41v-409h41v-82h41v-41h123zM492 1597v287h286v-287h-286zM901 1597v287h287v-287h-287z" />
    <glyph glyph-name="Zacute" unicode="&#x179;" horiz-adv-x="1392" 
d="M1311 287v-287h-1270v41h41v82h41v41h41v82h41v82h41v41h41v82h41v41h41v81h41v41h41v82h41v41h40v82h41v41h41v82h41v82h41v41h41v82h41v41h41v82h123v82h-491v-41h-82v-41h-41v-41h-41v-41h-41v-123h-41v-123h-123v41h41v451h1188v-41h-41v-41h-41v-82h-41v-82h-41v-41
h-41v-82h-41v-41h-41v-82h-41v-41h-41v-82h-41v-41h-41v-82h-41v-41h-41v-82h-41v-41h-41v-81h-41v-82h-41v-41h-41v-82h-41v-41h-40v-82h-82v-41h573v41h82v41h41v41h41v41h41v82h41v123h41v41h82v-205h-41zM532 1638v-82h41v41h82v41h82v41h123v41h82v41h41v123h-41v41
h-41v41h-82v-41h-82v-41h-41v-82h-41v-41h-41v-82h-41v-41h-41z" />
    <glyph glyph-name="zacute" unicode="&#x17a;" horiz-adv-x="1064" 
d="M328 82h409v41h82v41h41v82h41v123h41v41h82v-82h-41v-328h-942v41h41v82h41v41h41v82h41v41h41v82h41v41h41v82h41v40h41v82h41v41h41v82h40v41h41v82h41v41h82v41h-286v-41h-123v-41h-41v-41h-41v-123h-41v-82h-82v410h942v-41h-41v-41h-41v-82h-41v-41h-41v-82h-41
v-41h-41v-82h-41v-41h-41v-81h-41v-41h-41v-82h-41v-41h-41v-82h-40v-41h-41v-82h-123v-41zM410 1229v-82h41v41h81v41h82v41h123v41h82v41h41v123h-41v41h-41v40h-82v-40h-82v-41h-41v-82h-41v-41h-40v-82h-41v-41h-41z" />
    <glyph glyph-name="Zdotaccent" unicode="&#x17b;" horiz-adv-x="1392" 
d="M1311 287v-287h-1270v41h41v82h41v41h41v82h41v82h41v41h41v82h41v41h41v81h41v41h41v82h41v41h40v82h41v41h41v82h41v82h41v41h41v82h41v41h41v82h123v82h-491v-41h-82v-41h-41v-41h-41v-41h-41v-123h-41v-123h-123v41h41v451h1188v-41h-41v-41h-41v-82h-41v-82h-41v-41
h-41v-82h-41v-41h-41v-82h-41v-41h-41v-82h-41v-41h-41v-82h-41v-41h-41v-82h-41v-41h-41v-81h-41v-82h-41v-41h-41v-82h-41v-41h-40v-82h-82v-41h573v41h82v41h41v41h41v41h41v82h41v123h41v41h82v-205h-41zM573 1597v287h287v-287h-287z" />
    <glyph glyph-name="zdotaccent" unicode="&#x17c;" horiz-adv-x="1064" 
d="M328 82h409v41h82v41h41v82h41v123h41v41h82v-82h-41v-328h-942v41h41v82h41v41h41v82h41v41h41v82h41v41h41v82h41v40h41v82h41v41h41v82h40v41h41v82h41v41h82v41h-286v-41h-123v-41h-41v-41h-41v-123h-41v-82h-82v410h942v-41h-41v-41h-41v-82h-41v-41h-41v-82h-41
v-41h-41v-82h-41v-41h-41v-81h-41v-41h-41v-82h-41v-41h-41v-82h-40v-41h-41v-82h-123v-41zM451 1188v287h286v-287h-286z" />
    <glyph glyph-name="Zcaron" unicode="&#x17d;" horiz-adv-x="1392" 
d="M1311 287v-287h-1270v41h41v82h41v41h41v82h41v82h41v41h41v82h41v41h41v81h41v41h41v82h41v41h40v82h41v41h41v82h41v82h41v41h41v82h41v41h41v82h123v82h-491v-41h-82v-41h-41v-41h-41v-41h-41v-123h-41v-123h-123v41h41v451h1188v-41h-41v-41h-41v-82h-41v-82h-41v-41
h-41v-82h-41v-41h-41v-82h-41v-41h-41v-82h-41v-41h-41v-82h-41v-41h-41v-82h-41v-41h-41v-81h-41v-82h-41v-41h-41v-82h-41v-41h-40v-82h-82v-41h573v41h82v41h41v41h41v41h41v82h41v123h41v41h82v-205h-41zM1065 1884v41h41v-41h-41v-41h-41v-41h-41v-41h-41v-41h-41v-82
h-41v-41h-287v41h-41v41h-40v82h-41v41h-41v41h-41v41h-41v41h82v-41h122v-41h164v-41h82v-41h-82v-41h82v41h41v41h82v41h82v41h82z" />
    <glyph glyph-name="zcaron" unicode="&#x17e;" horiz-adv-x="1064" 
d="M328 82h409v41h82v41h41v82h41v123h41v41h82v-82h-41v-328h-942v41h41v82h41v41h41v82h41v41h41v82h41v41h41v82h41v40h41v82h41v41h41v82h40v41h41v82h41v41h82v41h-286v-41h-123v-41h-41v-41h-41v-123h-41v-82h-82v410h942v-41h-41v-41h-41v-82h-41v-41h-41v-82h-41
v-41h-41v-82h-41v-41h-41v-81h-41v-41h-41v-82h-41v-41h-41v-82h-40v-41h-41v-82h-123v-41zM942 1475v41h41v-41h-41v-41h-41v-41h-41v-41h-41v-41h-41v-82h-41v-41h-286v41h-41v41h-41v82h-41v41h-41v41h-41v41h-41v41h82v-41h123v-41h163v-41h82v-41h-82v-41h82v41h41v41
h82v41h82v41h82z" />
    <glyph glyph-name="Scommaaccent" unicode="&#x218;" 
d="M164 0v-41h-41v533h82v-41h41v-82h41v-82h41v-41h41v-41h41v-41h82v-41h163v-41h41v41h164v41h41v41h41v164h-41v82h-82v41h-82v40h-123v41h-122v41h-123v41h-82v41h-41v41h-41v41h-41v41h-41v123h-41v123h41v123h41v82h41v41h41v41h41v41h82v41h368v-41h82v-41h41v-41
h41v-41h41v-41h41v82h-41v41h-41v41h82v41h123v-492h-82v41h-41v82h-41v41h-41v41h-41v82h-82v41h-41v41h-286v-41h-41v-41h-41v-205h41v-41h82v-41h122v-41h82v-41h123v-41h123v-41h82v-41h82v-41h41v-82h41v-82h41v-204h-41v-82h-41v-82h-41v-41h-41v-41h-82v-41h-82v-41
h-409v41h-82v41h-41v41h-82v41h-41v-41h41v-41h41v-41h-82v-41h-82zM737 -451v-41h-41v41h41v41h41v123h-41v-82h-82v41h-82v164h41v41h41v41h123v-41h41v-41h41v-205h-41v-82h-82zM614 -532v40h41v-40h-41z" />
    <glyph glyph-name="scommaaccent" unicode="&#x219;" horiz-adv-x="901" 
d="M82 0v-41h-41v410h82v-41h41v-41h41v-82h41v-41h41v-41h82v-41h163v41h82v164h-41v41h-122v41h-82v41h-123v41h-82v41h-41v40h-41v41h-41v246h41v82h41v41h41v41h82v41h246v-41h81v-41h41v-41h41v-41h41v82h-41v82h123v-369h-82v41h-41v82h-41v41h-41v41h-41v41h-245
v-205h82v-41h123v-41h122v-41h82v-41h82v-40h41v-82h41v-246h-41v-41h-41v-41h-41v-41h-82v-41h-327v41h-82v41h-41v41h-41v-82h41v-41h-123zM492 -451v-41h-41v41h41v41h40v123h-40v-82h-82v41h-82v164h41v41h41v41h122v-41h41v-41h41v-205h-41v-82h-81zM369 -532v40h41
v-40h-41z" />
    <glyph glyph-name="uni021A" unicode="&#x21a;" horiz-adv-x="1433" 
d="M41 1434h1352v-164h41v-328h-82v82h-41v123h-41v82h-41v41h-41v41h-123v41h-246v-41h41v-1147h41v-41h41v-41h123v-82h-696v82h123v41h40v1229h-163v-41h-123v-41h-41v-41h-41v-82h-41v-123h-41v-82h-82v369h41v123zM737 -451v-41h-41v41h41v41h41v123h-41v-82h-82v41
h-82v164h41v41h41v41h123v-41h41v-41h41v-205h-41v-82h-82zM614 -532v40h41v-40h-41z" />
    <glyph glyph-name="uni021B" unicode="&#x21b;" horiz-adv-x="819" 
d="M369 942v-41h82v-655h41v-82h204v41h41v41h41v-82h-41v-41h-41v-82h-82v-41h-327v41h-41v41h-41v82h-41v778h-123v41h41v41h41v41h82v41h41v41h41v41h41v82h41v41h41v41h41v-328h327v-82h-409zM492 -451v-41h-41v41h41v41h40v123h-40v-82h-82v41h-82v164h41v41h41v41h122
v-41h41v-41h41v-205h-41v-82h-81zM369 -532v40h41v-40h-41z" />
    <glyph glyph-name="circumflex" unicode="&#x2c6;" horiz-adv-x="1024" 
d="M164 1188v-41h-41v41h41v41h41v41h41v41h41v41h41v82h41v41h286v-41h41v-41h41v-82h41v-41h41v-41h41v-41h41v-41h-82v41h-123v41h-164v41h-81v41h81v41h-81v-41h-41v-41h-82v-41h-82v-41h-82z" />
    <glyph glyph-name="caron" unicode="&#x2c7;" horiz-adv-x="1024" 
d="M860 1475v41h41v-41h-41v-41h-41v-41h-41v-41h-41v-41h-41v-82h-41v-41h-286v41h-41v41h-41v82h-41v41h-41v41h-41v41h-41v41h82v-41h123v-41h164v-41h81v-41h-81v-41h81v41h41v41h82v41h82v41h82z" />
    <glyph glyph-name="breve" unicode="&#x2d8;" horiz-adv-x="1024" 
d="M655 1188v-41h-286v41h-41v41h-41v41h-41v41h-41v164h41v-41h41v-41h41v-41h368v41h41v41h41v41h41v-164h-41v-41h-41v-41h-41v-41h-41z" />
    <glyph glyph-name="dotaccent" unicode="&#x2d9;" horiz-adv-x="1024" 
d="M369 1188v287h286v-287h-286z" />
    <glyph glyph-name="ring" unicode="&#x2da;" horiz-adv-x="1024" 
d="M614 1188v-41h-204v41h-82v82h-41v164h41v41h41v41h41v40h204v-40h41v-41h41v-41h41v-164h-41v-82h-82zM451 1229h122v41h41v164h-41v41h-122v-41h-41v-164h41v-41z" />
    <glyph glyph-name="ogonek" unicode="&#x2db;" horiz-adv-x="1024" 
d="M532 -410v-41h-163v41h-41v41h-41v164h41v41h41v41h41v41h41v41h81v41h82v-41h-82v-41h-40v-41h-41v-164h41v-41h122v41h41v-82h-41v-41h-82z" />
    <glyph glyph-name="tilde" unicode="&#x2dc;" horiz-adv-x="1024" 
d="M778 1229v-41h-246v41h-81v41h-82v41h-123v-41h-82v-41h-41v41h41v82h41v82h41v41h82v41h82v-41h122v-41h82v-41h82v-41h82v41h82v82h41v-82h-41v-82h-41v-82h-41z" />
    <glyph glyph-name="hungarumlaut" unicode="&#x2dd;" horiz-adv-x="1024" 
d="M655 1188v-41h-82v41h41v41h41v82h41v82h41v41h41v82h82v40h41v-40h82v-164h-41v-41h-82v-41h-82v-41h-82v-41h-41zM573 1311h-81v-41h-41v-41h-82v-41h-82v-41h-41v41h41v82h41v82h41v41h41v82h41v41h163v-41h41v-82h-41v-41h-41v-41z" />
    <glyph glyph-name="Wgrave" unicode="&#x1e80;" horiz-adv-x="2211" 
d="M737 0v-41h-82v82h-41v123h-41v82h-41v123h-40v82h-41v122h-41v123h-41v82h-41v123h-41v82h-41v123h-41v82h-41v123h-41v41h-82v82h614v-82h-123v-164h41v-123h41v-123h41v-123h41v-82h41v-123h41v-245h41v82h41v81h41v82h41v82h41v82h41v123h41v82h-41v82h-41v82h-41
v123h-41v41h-41v41h-82v82h615v-82h-82v-164h41v-123h41v-123h41v-82h41v-123h41v-123h40v-245h41v123h41v122h41v123h41v123h41v123h41v82h41v164h41v82h-41v41h-82v82h410v-82h-41v-41h-82v-82h-41v-82h-41v-123h-41v-82h-41v-123h-41v-123h-41v-82h-41v-122h-41v-82h-41
v-123h-41v-82h-41v-123h-41v-82h-40v-41h-82v123h-41v82h-41v123h-41v82h-41v123h-41v81h-41v123h-41v82h-41v-41h-41v-123h-41v-82h-41v-81h-41v-82h-41v-82h-41v-82h-41v-123h-41v-82h-41zM1249 1653v-82h-41v41h-82v41h-82v41h-122v41h-82v41h-41v122h41v41h41v41h82v-41
h81v-41h41v-81h41v-41h41v-82h41v-41h41z" />
    <glyph glyph-name="wgrave" unicode="&#x1e81;" horiz-adv-x="1843" 
d="M1147 0v82h-41v82h-41v82h-41v123h-41v82h-41v81h-41v-40h-41v-82h-41v-123h-41v-82h-41v-82h-41v-82h-41v-41h-123v82h-40v82h-41v82h-41v82h-41v82h-41v82h-41v122h-41v82h-41v82h-41v82h-41v41h-41v41h-41v82h532v-82h-81v-164h40v-82h41v-123h41v-81h41v-205h41v82
h41v82h41v81h41v82h41v123h-41v123h-41v41h-41v41h-41v82h492v-82h-41v-41h-41v-82h41v-123h41v-82h41v-122h41v-205h41v82h41v82h41v81h41v82h41v82h41v82h40v123h-40v41h-123v82h409v-82h-41v-41h-41v-41h-41v-41h-41v-82h-41v-123h-41v-82h-40v-81h-41v-82h-41v-82h-41
v-82h-41v-82h-41v-82h-41v-41h-123zM1085 1243v-82h-41v41h-81v41h-82v41h-123v41h-82v41h-41v123h41v41h41v41h82v-41h82v-41h41v-82h41v-41h41v-82h40v-41h41z" />
    <glyph glyph-name="Wacute" unicode="&#x1e82;" horiz-adv-x="2211" 
d="M737 0v-41h-82v82h-41v123h-41v82h-41v123h-40v82h-41v122h-41v123h-41v82h-41v123h-41v82h-41v123h-41v82h-41v123h-41v41h-82v82h614v-82h-123v-164h41v-123h41v-123h41v-123h41v-82h41v-123h41v-245h41v82h41v81h41v82h41v82h41v82h41v123h41v82h-41v82h-41v82h-41
v123h-41v41h-41v41h-82v82h615v-82h-82v-164h41v-123h41v-123h41v-82h41v-123h41v-123h40v-245h41v123h41v122h41v123h41v123h41v123h41v82h41v164h41v82h-41v41h-82v82h410v-82h-41v-41h-82v-82h-41v-82h-41v-123h-41v-82h-41v-123h-41v-123h-41v-82h-41v-122h-41v-82h-41
v-123h-41v-82h-41v-123h-41v-82h-40v-41h-82v123h-41v82h-41v123h-41v82h-41v123h-41v81h-41v123h-41v82h-41v-41h-41v-123h-41v-82h-41v-81h-41v-82h-41v-82h-41v-82h-41v-123h-41v-82h-41zM942 1638v-82h41v41h82v41h82v41h123v41h82v41h41v123h-41v41h-41v41h-82v-41h-82
v-41h-41v-82h-41v-41h-41v-82h-41v-41h-41z" />
    <glyph glyph-name="wacute" unicode="&#x1e83;" horiz-adv-x="1843" 
d="M1147 0v82h-41v82h-41v82h-41v123h-41v82h-41v81h-41v-40h-41v-82h-41v-123h-41v-82h-41v-82h-41v-82h-41v-41h-123v82h-40v82h-41v82h-41v82h-41v82h-41v82h-41v122h-41v82h-41v82h-41v82h-41v41h-41v41h-41v82h532v-82h-81v-164h40v-82h41v-123h41v-81h41v-205h41v82
h41v82h41v81h41v82h41v123h-41v123h-41v41h-41v41h-41v82h492v-82h-41v-41h-41v-82h41v-123h41v-82h41v-122h41v-205h41v82h41v82h41v81h41v82h41v82h41v82h40v123h-40v41h-123v82h409v-82h-41v-41h-41v-41h-41v-41h-41v-82h-41v-123h-41v-82h-40v-81h-41v-82h-41v-82h-41
v-82h-41v-82h-41v-82h-41v-41h-123zM778 1229v-82h41v41h82v41h82v41h123v41h82v41h41v123h-41v41h-41v40h-82v-40h-82v-41h-41v-82h-41v-41h-41v-82h-41v-41h-41z" />
    <glyph glyph-name="Wdieresis" unicode="&#x1e84;" horiz-adv-x="2211" 
d="M737 0v-41h-82v82h-41v123h-41v82h-41v123h-40v82h-41v122h-41v123h-41v82h-41v123h-41v82h-41v123h-41v82h-41v123h-41v41h-82v82h614v-82h-123v-164h41v-123h41v-123h41v-123h41v-82h41v-123h41v-245h41v82h41v81h41v82h41v82h41v82h41v123h41v82h-41v82h-41v82h-41
v123h-41v41h-41v41h-82v82h615v-82h-82v-164h41v-123h41v-123h41v-82h41v-123h41v-123h40v-245h41v123h41v122h41v123h41v123h41v123h41v82h41v164h41v82h-41v41h-82v82h410v-82h-41v-41h-82v-82h-41v-82h-41v-123h-41v-82h-41v-123h-41v-123h-41v-82h-41v-122h-41v-82h-41
v-123h-41v-82h-41v-123h-41v-82h-40v-41h-82v123h-41v82h-41v123h-41v82h-41v123h-41v81h-41v123h-41v82h-41v-41h-41v-123h-41v-82h-41v-81h-41v-82h-41v-82h-41v-82h-41v-123h-41v-82h-41zM778 1597v287h287v-287h-287zM1188 1597v287h287v-287h-287z" />
    <glyph glyph-name="wdieresis" unicode="&#x1e85;" horiz-adv-x="1843" 
d="M1147 0v82h-41v82h-41v82h-41v123h-41v82h-41v81h-41v-40h-41v-82h-41v-123h-41v-82h-41v-82h-41v-82h-41v-41h-123v82h-40v82h-41v82h-41v82h-41v82h-41v82h-41v122h-41v82h-41v82h-41v82h-41v41h-41v41h-41v82h532v-82h-81v-164h40v-82h41v-123h41v-81h41v-205h41v82
h41v82h41v81h41v82h41v123h-41v123h-41v41h-41v41h-41v82h492v-82h-41v-41h-41v-82h41v-123h41v-82h41v-122h41v-205h41v82h41v82h41v81h41v82h41v82h41v82h40v123h-40v41h-123v82h409v-82h-41v-41h-41v-41h-41v-41h-41v-82h-41v-123h-41v-82h-40v-81h-41v-82h-41v-82h-41
v-82h-41v-82h-41v-82h-41v-41h-123zM614 1188v287h287v-287h-287zM1024 1188v287h287v-287h-287z" />
    <glyph glyph-name="Ygrave" unicode="&#x1ef2;" horiz-adv-x="1515" 
d="M1106 82v-82h-696v82h122v41h41v41h41v450h-41v41h-41v82h-40v41h-41v82h-41v41h-41v82h-41v41h-41v82h-41v41h-41v82h-41v41h-41v41h-41v41h-82v82h655v-82h-123v-164h41v-41h41v-82h41v-41h41v-82h41v-82h41v-41h41v-123h-41v-41h82v82h41v41h41v82h41v82h41v41h41v82
h41v82h41v82h41v123h-123v82h410v-82h-41v-41h-41v-41h-41v-41h-41v-41h-41v-82h-41v-41h-41v-82h-41v-41h-41v-82h-41v-41h-41v-82h-41v-41h-41v-82h-41v-409h41v-82h41v-41h123zM963 1653v-82h-41v41h-82v41h-82v41h-123v41h-82v41h-41v122h41v41h41v41h82v-41h82v-41h41
v-81h41v-41h41v-82h41v-41h41z" />
    <glyph glyph-name="ygrave" unicode="&#x1ef3;" horiz-adv-x="1269" 
d="M287 -451v-41h-164v41h-82v41h-41v205h82v41h41v-41h82v-41h41v-82h-82v-41h164v41h41v41h41v123h41v41h41v82h40v164h-40v123h-41v41h-41v82h-41v82h-41v81h-41v82h-41v82h-41v82h-41v82h-41v41h-41v41h-82v82h655v-82h-123v-164h41v-82h41v-82h41v-82h41v-163h41v41h41
v82h41v81h41v82h41v82h41v82h41v41h-41v82h-123v82h410v-82h-41v-41h-41v-41h-41v-82h-41v-41h-41v-82h-41v-82h-41v-81h-41v-82h-41v-82h-41v-82h-41v-82h-41v-41h-41v-82h-41v-82h-41v-82h-41v-82h-41v-82h-40v-41h-41v-41h-41v-41h-41v-41h-82zM881 1243v-82h-41v41h-82
v41h-82v41h-123v41h-82v41h-41v123h41v41h41v41h82v-41h82v-41h41v-82h41v-41h41v-82h41v-41h41z" />
    <glyph glyph-name="endash" unicode="&#x2013;" horiz-adv-x="1064" 
d="M82 696h901v-82h-901v82z" />
    <glyph glyph-name="emdash" unicode="&#x2014;" horiz-adv-x="1351" 
d="M82 696h1188v-82h-1188v82z" />
    <glyph glyph-name="quoteleft" unicode="&#x2018;" horiz-adv-x="491" 
d="M328 942v-41h-123v41h-82v82h-41v205h41v82h41v41h41v41h41v41h82v41h41v-41h-41v-41h-82v-82h-41v-164h41v41h123v-41h41v-164h-41v-41h-41z" />
    <glyph glyph-name="quoteright" unicode="&#x2019;" horiz-adv-x="491" 
d="M164 942v-41h-41v41h41v41h41v41h41v41h41v164h-41v-41h-82v41h-82v164h41v82h205v-41h41v-41h41v-246h-41v-82h-41v-41h-41v-41h-82v-41h-41z" />
    <glyph glyph-name="quotesinglbase" unicode="&#x201a;" horiz-adv-x="487" 
d="M205 -205v-41h-41v41h41v41h41v41h41v205h-41v-82h-82v41h-41v41h-41v164h41v41h205v-41h41v-41h41v-205h-41v-82h-41v-82h-41v-41h-82z" />
    <glyph glyph-name="quotedblleft" unicode="&#x201c;" horiz-adv-x="901" 
d="M328 942v-41h-123v41h-82v82h-41v205h41v82h41v41h41v41h41v41h82v41h41v-41h-41v-41h-82v-82h-41v-164h41v41h123v-41h41v-164h-41v-41h-41zM737 942v-41h-123v41h-82v82h-40v205h40v82h41v41h41v41h41v41h82v41h41v-41h-41v-41h-82v-41h-41v-82h-41v-123h82v41h123v-41
h41v-164h-41v-41h-41z" />
    <glyph glyph-name="quotedblright" unicode="&#x201d;" horiz-adv-x="901" 
d="M614 983v-41h-41v41h41v41h41v41h41v164h-41v-41h-82v41h-41v41h-40v164h40v41h205v-41h41v-41h41v-205h-41v-82h-41v-82h-41v-41h-82zM205 983v-41h-41v41h41v41h41v41h41v164h-41v-41h-82v41h-41v41h-41v164h41v41h205v-41h41v-41h41v-205h-41v-82h-41v-82h-41v-41h-82
z" />
    <glyph glyph-name="quotedblbase" unicode="&#x201e;" horiz-adv-x="811" 
d="M614 -238v-41h-41v41h41v41h41v41h41v164h-41v-41h-82v41h-41v41h-40v164h40v41h205v-41h41v-41h41v-205h-41v-82h-41v-82h-41v-41h-82zM205 -238v-41h-41v41h41v41h41v41h41v164h-41v-41h-82v41h-41v41h-41v164h41v41h205v-41h41v-41h41v-205h-41v-82h-41v-82h-41v-41
h-82z" />
    <glyph glyph-name="dagger" unicode="&#x2020;" horiz-adv-x="1146" 
d="M573 -123v-41h-41v451h-40v205h-41v245h41v82h40v328h-40v287h122v-41h41v-246h-41v-328h41v-82h41v-245h-41v-205h-41v-410h-41zM492 1024v-41h-41v-41h-123v-41h-164v41h-41v123h41v41h123v-41h123v-41h82zM655 1024h82v41h123v41h123v-41h41v-123h-41v-41h-164v41
h-123v41h-41v41z" />
    <glyph glyph-name="daggerdbl" unicode="&#x2021;" horiz-adv-x="1146" 
d="M614 -451v-41h-41v41h-81v246h40v287h-40v82h-41v41h-41v41h41v41h41v41h40v286h-40v82h-41v41h-41v41h41v41h41v41h40v287h-40v287h122v-41h41v-246h-41v-287h41v-41h41v-41h41v-41h-41v-41h-41v-82h-41v-286h41v-41h41v-41h41v-41h-41v-41h-41v-41h-41v-328h41v-246
h-41zM492 1024v-41h-41v-41h-123v-41h-164v41h-41v123h41v41h123v-41h123v-41h82zM655 1024h82v41h123v41h123v-41h41v-123h-41v-41h-164v41h-123v41h-41v41zM655 -82v82h123v41h246v-164h-246v41h-123zM492 -82h-123v-41h-246v164h246v-41h123v-82z" />
    <glyph glyph-name="bullet" unicode="&#x2022;" horiz-adv-x="655" 
d="M123 942h409v-450h-409v450z" />
    <glyph glyph-name="ellipsis" unicode="&#x2026;" horiz-adv-x="1474" 
d="M82 287h328v-287h-328v287zM573 287h328v-287h-328v287zM1065 287h328v-287h-328v287z" />
    <glyph glyph-name="guilsinglleft" unicode="&#x2039;" horiz-adv-x="696" 
d="M614 41v-41h-41v41h-41v41h-40v41h-41v41h-41v41h-41v41h-41v41h-41v41h-41v41h-41v41h-41v41h-41v41h-41v40h41v41h41v41h41v41h41v41h41v41h41v41h41v41h41v41h41v41h41v41h40v41h41v41h41v-41h-41v-82h-41v-82h-40v-41h-41v-82h-41v-82h-41v-82h-41v-40h41v-82h41v-82
h41v-82h41v-41h40v-82h41v-82h41z" />
    <glyph glyph-name="guilsinglright" unicode="&#x203a;" horiz-adv-x="696" 
d="M82 983v41h41v-41h41v-41h41v-41h41v-41h41v-41h41v-41h41v-41h41v-41h41v-41h41v-41h40v-41h41v-41h41v-40h-41v-41h-41v-41h-40v-41h-41v-41h-41v-41h-41v-41h-41v-41h-41v-41h-41v-41h-41v-41h-41v-41h-41v-41h-41v41h41v82h41v82h41v41h41v82h41v82h41v82h41v40h-41
v82h-41v82h-41v82h-41v41h-41v82h-41v82h-41z" />
    <glyph glyph-name="fraction" unicode="&#x2044;" horiz-adv-x="1187" 
d="M1106 1434v-41h-41v-41h-41v-82h-41v-82h-41v-41h-41v-82h-41v-41h-41v-82h-41v-41h-41v-82h-41v-82h-41v-41h-41v-82h-41v-41h-41v-81h-40v-41h-41v-82h-41v-41h-41v-82h-41v-41h-41v-82h-41v-82h-41v-41h-123v41h41v41h41v82h41v41h41v82h41v41h41v82h41v41h41v81h41
v82h41v41h40v82h41v41h41v82h41v41h41v82h41v41h41v82h41v41h41v82h41v82h41v41h41v82h123z" />
    <glyph glyph-name="Euro" unicode="&#x20ac;" horiz-adv-x="1474" 
d="M328 492v81h-287v82h164v82h-164v82h164v82h41v123h41v82h41v82h41v41h41v41h41v41h41v41h81v41h41v41h205v41h41v-41h164v-41h82v-41h41v-41h41v-41h41v-41h41v82h-41v41h-41v41h82v41h82v-492h-82v82h-41v82h-41v82h-41v41h-41v41h-82v41h-246v-41h-82v-41h-41v-41h-41
v-82h-41v-123h-41v-164h697v-41h-41v-41h-656v-82h574v-41h-41v-41h-533v-41h41v-122h41v-82h41v-41h41v-41h41v-41h82v-41h328v41h82v41h41v41h41v41h41v-41h-41v-82h-41v-41h-41v-41h-41v-41h-41v-41h-82v-41h-451v41h-82v41h-40v41h-41v41h-41v41h-41v41h-41v41h-41v82
h-41v123h82zM1393 369h-41v41h41v-41z" />
    <glyph glyph-name="trademark" unicode="&#x2122;" horiz-adv-x="2007" 
d="M41 1434h778v-287h-41v123h-41v41h-41v41h-204v-41h40v-615h41v-41h41v-41h-409v41h82v41h41v656h-164v-41h-41v-41h-41v-123h-82v164h41v123zM1393 655v-82h-41v82h-41v123h-41v82h-41v82h-41v123h-41v82h-41v123h-41v-574h41v-41h82v-41h-287v41h41v41h41v656h-82v82
h287v-41h41v-82h41v-123h41v-82h41v-123h41v-205h41v-123h-41zM1475 860v-82h-41v123h41v82h41v123h40v82h41v123h41v82h41v41h328v-82h-123v-656h41v-41h82v-41h-410v41h41v41h41v574h41v41h-41v-41h-41v-82h-41v-123h-41v-82h-40v-123h-41z" />
    <glyph glyph-name="uni2157" unicode="&#x2157;" horiz-adv-x="1556" 
d="M451 696v-41h-246v41h-82v41h-41v41h-41v82h41v82h82v-41h41v-82h-41v-41h41v-41h41v-41h82v41h82v41h41v164h-41v41h-41v41h-164v41h41v41h41v41h41v82h41v41h41v41h-41v-41h-246v-82h-41v246h532v-41h-41v-41h-41v-41h-40v-41h-41v-82h-41v-41h41v-41h81v-41h41v-41h41
v-246h-41v-41h-41v-41h-81zM1311 1434v-41h-41v-41h-41v-82h-41v-41h-41v-82h-41v-41h-41v-82h-41v-41h-41v-82h-41v-82h-41v-41h-41v-82h-41v-41h-41v-82h-41v-41h-41v-81h-41v-41h-41v-82h-41v-41h-41v-82h-40v-41h-41v-82h-41v-41h-41v-41h-82v41h41v82h41v41h41v82h41
v41h41v82h40v82h41v41h41v81h41v41h41v82h41v41h41v82h41v82h41v41h41v82h41v41h41v82h41v41h41v82h41v41h41v82h41v41h123zM1106 655v41h-41v-164h246v-40h82v-41h82v-82h41v-205h-41v-82h-41v-41h-82v-41h-287v41h-82v41h-41v164h41v41h41v-41h82v-82h-41v-82h41v-41h123
v41h82v246h-82v41h-246v286h41v123h410v41h41v-164h-369z" />
    <glyph glyph-name="minus" unicode="&#x2212;" horiz-adv-x="1064" 
d="M82 696h901v-82h-901v82z" />
    <glyph glyph-name="dotlessj" unicode="&#xf6be;" horiz-adv-x="655" 
d="M41 901v41h164v41h164v41h123v-1270h-41v-82h-41v-41h-41v-41h-41v-41h-82v-41h-287v41h-82v41h-41v41h-41v164h41v41h164v-82h41v-82h-41v-82h123v41h41v41h41v1147h-41v41h-82v41h-41z" />
    <glyph glyph-name="commaaccent" unicode="&#xf6c3;" horiz-adv-x="1024" 
d="M532 -451v-41h-40v41h40v41h41v123h-41v-82h-81v41h-82v164h41v41h41v41h122v-41h41v-41h41v-205h-41v-82h-82zM410 -532v40h41v-40h-41z" />
    <glyph glyph-name="fi" unicode="&#xfb01;" horiz-adv-x="1392" 
d="M614 82v-82h-573v82h123v860h-164v82h164v123h41v123h41v82h41v41h41v41h41v41h163v41h164v-41h123v-41h41v-41h41v-205h-41v-41h-82v41h-82v82h-41v41h41v82h-164v-41h-40v-41h-41v-287h245v-82h-327v-41h82v-778h41v-41h122zM942 1188v287h287v-287h-287zM1352 82v-82
h-574v82h123v82h41v614h-41v82h-82v41h-41v41h123v41h164v41h164v-942h123z" />
    <glyph glyph-name="fl" unicode="&#xfb02;" horiz-adv-x="1392" 
d="M614 82v-82h-573v82h123v860h-164v82h164v123h41v123h41v82h41v41h41v41h41v41h163v41h164v-41h123v-41h164v41h164v41h82v-1434h123v-82h-574v82h123v1106h-41v-41h-82v41h-82v82h-41v41h41v82h-164v-41h-40v-41h-41v-287h245v-82h-327v-41h82v-778h41v-41h122z" />
    <glyph glyph-name="NULL" horiz-adv-x="1024" 
 />
    <glyph glyph-name="CR" horiz-adv-x="1024" 
 />
    <glyph glyph-name="nbspace" horiz-adv-x="491" 
 />
    <glyph glyph-name="Tcedilla" horiz-adv-x="1433" 
d="M778 -410v-41h-205v41h123v41h41v82h-41v41h-82v41h-82v41h41v41h41v82h41v41h-286v82h123v41h40v1229h-163v-41h-123v-41h-41v-41h-41v-82h-41v-123h-41v-82h-82v369h41v123h1352v-164h41v-328h-82v82h-41v123h-41v82h-41v41h-41v41h-123v41h-246v-41h82v-1188h41v-41
h123v-82h-328v-41h-41v-82h-41v-41h41v41h41v41h41v-41h82v-41h41v-41h41v-82h-41v-82h-41v-41h-82z" />
    <glyph glyph-name="idotaccent" horiz-adv-x="665" 
d="M614 82v-82h-573v82h123v82h41v614h-41v82h-82v41h-41v41h123v41h164v41h164v-942h122zM193 1188v287h286v-287h-286z" />
    <glyph glyph-name="tcedilla" horiz-adv-x="819" 
d="M492 -410v-41h-205v41h123v41h41v82h-41v41h-82v41h-82v41h41v41h41v82h41v41h-82v41h-41v41h-41v82h-41v778h-123v41h41v41h41v41h82v41h41v41h41v41h41v82h41v41h41v41h41v-328h327v-82h-409v-41h82v-655h41v-82h204v41h41v41h41v-82h-41v-41h-41v-82h-82v-41h-163v-41
h-41v-82h-41v-41h41v41h41v41h41v-41h81v-41h41v-41h41v-82h-41v-82h-41v-41h-81z" />
    <glyph glyph-name="caronSlovak" horiz-adv-x="1024" 
d="M532 1147v-41h-40v41h40v41h41v123h-41v-82h-81v41h-82v164h41v41h41v41h122v-41h41v-41h41v-205h-41v-82h-82zM410 1065v41h41v-41h-41z" />
    <glyph glyph-name="reversequoteleft" horiz-adv-x="491" 
d="M369 942v-41h-41v41h-82v41h-41v41h-41v41h-41v82h-41v246h41v41h41v41h164v-41h41v-41h41v-164h-41v-41h-123v41h-41v-164h41v-41h41v-41h41v-41h41z" />
    <glyph glyph-name="reversequotedblleft" horiz-adv-x="901" 
d="M328 942v-41h-123v41h-82v82h-41v205h41v82h41v41h41v41h41v41h82v41h41v-41h-41v-41h-82v-82h-41v-164h41v41h123v-41h41v-164h-41v-41h-41zM737 942v-41h-123v41h-82v82h-40v205h40v82h41v41h41v41h41v41h82v41h41v-41h-41v-41h-82v-41h-41v-82h-41v-123h82v41h123v-41
h41v-164h-41v-41h-41z" />
    <glyph glyph-name="enspace" horiz-adv-x="1060" 
 />
    <glyph glyph-name="emspace" horiz-adv-x="1368" 
 />
    <glyph glyph-name="thinspace" horiz-adv-x="358" 
 />
    <glyph glyph-name="hairspace" horiz-adv-x="307" 
 />
    <glyph glyph-name="zerowidthspace" horiz-adv-x="0" 
 />
    </font>
</defs>
</svg>
