<?xml version="1.0" encoding="utf-8"?>
<!-- Generator: Adobe Illustrator 25.2.1, SVG Export Plug-In . SVG Version: 6.00 Build 0)  -->
<svg version="1.1" id="Layer_1" xmlns="http://www.w3.org/2000/svg" xmlns:xlink="http://www.w3.org/1999/xlink" x="0px" y="0px"
	 viewBox="0 0 720 155" style="enable-background:new 0 0 720 155;" xml:space="preserve">
<style type="text/css">
	.st0{fill:#369AFF;}
</style>
<g>
	<path class="st0" d="M79.9,102.1v21.7H-0.2V11.6H24v90.5H79.9z"/>
	<path class="st0" d="M90.3,14.7C90.3,8,96,2,103.4,2c7,0,12.7,6,12.7,12.7c0,7.2-5.7,13.1-12.7,13.1C96,27.8,90.3,21.9,90.3,14.7z
		 M91.3,39.4h23.9v84.5H91.3V39.4z"/>
	<path class="st0" d="M124.3,39.4h25l22.7,57l22.2-57H219l-36.1,84.5h-22.1L124.3,39.4z"/>
	<path class="st0" d="M279.2,97.2l15.2,15.5c-7.5,7.8-22.1,13.1-34.5,13.1c-25.2,0-44.8-18.5-44.8-44.4c0-25.5,18.8-43.9,43.5-43.9
		c26.5,0,42,20.1,42,52h-60.9c2.8,9.1,10.1,15.4,20.1,15.4C266.4,104.8,274.6,101.7,279.2,97.2z M240,72.3h37.7
		c-2.3-8.3-8.5-13.7-18.1-13.7C250.6,58.5,243.1,63.8,240,72.3z"/>
	<path class="st0" d="M415.1,97.2l15.2,15.5c-7.5,7.8-22.1,13.1-34.5,13.1c-25.2,0-44.8-18.5-44.8-44.4c0-25.5,18.8-43.9,43.5-43.9
		c26.5,0,42,20.1,42,52h-60.9c2.8,9.1,10.1,15.4,20.1,15.4C402.4,104.8,410.5,101.7,415.1,97.2z M375.9,72.3h37.7
		c-2.3-8.3-8.5-13.7-18.1-13.7C386.5,58.5,379,63.8,375.9,72.3z"/>
	<path class="st0" d="M521,73.4v50.5h-23v-8.5c-6,6.9-15.7,10.5-24.8,10.5c-18,0-31.9-10.8-31.9-27c0-16.7,15.5-28.1,35.1-28.1
		c6.9,0,14.4,1.5,21.6,4.2v-1.6c0-9-5.6-16.8-19.4-16.8c-7.8,0-15.2,2.6-21.9,6l-8-15.8c11.9-6,23.5-9.3,35.3-9.3
		C505.9,37.5,521,51.3,521,73.4z M497.9,97.2v-7.8c-5.4-2-11.6-3.1-18.1-3.1c-8.7,0-15.5,5.1-15.5,11.9c0,6.9,6,11.1,14.2,11.1
		C487.6,109.3,496.3,105.1,497.9,97.2z"/>
	<path class="st0" d="M531.4,113.1l10.3-16.5c7.5,5.4,17,9.5,28.3,9.5c6.4,0,10.9-2.6,10.9-6.4c0-5.2-6.2-6.9-14.9-9.1
		c-17.3-4.2-30.7-9-30.9-25.6c-0.2-16,13.1-27.4,33-27.4c12.1,0,24,4.2,33.3,10.5l-9.6,17c-7.7-4.7-16.5-7.5-23.7-7.5
		c-5.9,0-10,2.1-10,5.1c0,4.6,3.4,5.9,14.9,9c14.5,3.8,30.7,8.7,30.7,27.1c0,16.7-13.6,27.3-34.3,27.3
		C555.9,125.8,541.6,121.3,531.4,113.1z"/>
	<path class="st0" d="M611.3,148.1l5.1-16.3c4.1,2.3,8.3,3.8,11.1,3.8c4.6,0,8.2-1.5,10-4.6l2.9-6.2l-35.1-85.3h24.7l22.2,59.3
		l21.1-59.3h24.3l-34.6,88.7c-6.4,16.5-17.2,25.2-30.4,25.2C625.5,153.3,617,151.2,611.3,148.1z"/>
	<path class="st0" d="M690.1,110.6c0-7.7,6.7-14.5,15.2-14.5c8,0,14.5,6.9,14.5,14.5c0,8.3-6.5,15.2-14.5,15.2
		C696.8,125.8,690.1,119,690.1,110.6z"/>
</g>
</svg>
